<svg width="113" height="21" viewBox="0 0 113 21" fill="none" xmlns="http://www.w3.org/2000/svg">
<path d="M24.1043 17V4.28H19.1843V3H30.5043V4.28H25.5843V17H24.1043ZM35.2349 17.1C34.1416 17.1 33.1816 16.8733 32.3549 16.42C31.5283 15.9533 30.8816 15.32 30.4149 14.52C29.9483 13.7067 29.7149 12.78 29.7149 11.74C29.7149 10.7 29.9349 9.78 30.3749 8.98C30.8283 8.18 31.4416 7.55333 32.2149 7.1C33.0016 6.63333 33.8816 6.4 34.8549 6.4C35.8416 6.4 36.7149 6.62667 37.4749 7.08C38.2483 7.52 38.8549 8.14667 39.2949 8.96C39.7349 9.76 39.9549 10.6867 39.9549 11.74C39.9549 11.8067 39.9483 11.88 39.9349 11.96C39.9349 12.0267 39.9349 12.1 39.9349 12.18H30.7949V11.12H39.1749L38.6149 11.54C38.6149 10.78 38.4483 10.1067 38.1149 9.52C37.7949 8.92 37.3549 8.45333 36.7949 8.12C36.2349 7.78667 35.5883 7.62 34.8549 7.62C34.1349 7.62 33.4883 7.78667 32.9149 8.12C32.3416 8.45333 31.8949 8.92 31.5749 9.52C31.2549 10.12 31.0949 10.8067 31.0949 11.58V11.8C31.0949 12.6 31.2683 13.3067 31.6149 13.92C31.9749 14.52 32.4683 14.9933 33.0949 15.34C33.7349 15.6733 34.4616 15.84 35.2749 15.84C35.9149 15.84 36.5083 15.7267 37.0549 15.5C37.6149 15.2733 38.0949 14.9267 38.4949 14.46L39.2949 15.38C38.8283 15.94 38.2416 16.3667 37.5349 16.66C36.8416 16.9533 36.0749 17.1 35.2349 17.1ZM42.1452 17V2.16H43.5652V17H42.1452ZM51.2763 17.1C50.183 17.1 49.223 16.8733 48.3963 16.42C47.5697 15.9533 46.923 15.32 46.4563 14.52C45.9897 13.7067 45.7563 12.78 45.7563 11.74C45.7563 10.7 45.9763 9.78 46.4163 8.98C46.8697 8.18 47.483 7.55333 48.2563 7.1C49.043 6.63333 49.923 6.4 50.8963 6.4C51.883 6.4 52.7563 6.62667 53.5163 7.08C54.2897 7.52 54.8963 8.14667 55.3363 8.96C55.7763 9.76 55.9963 10.6867 55.9963 11.74C55.9963 11.8067 55.9897 11.88 55.9763 11.96C55.9763 12.0267 55.9763 12.1 55.9763 12.18H46.8363V11.12H55.2163L54.6563 11.54C54.6563 10.78 54.4897 10.1067 54.1563 9.52C53.8363 8.92 53.3963 8.45333 52.8363 8.12C52.2763 7.78667 51.6297 7.62 50.8963 7.62C50.1763 7.62 49.5297 7.78667 48.9563 8.12C48.383 8.45333 47.9363 8.92 47.6163 9.52C47.2963 10.12 47.1363 10.8067 47.1363 11.58V11.8C47.1363 12.6 47.3097 13.3067 47.6563 13.92C48.0163 14.52 48.5097 14.9933 49.1363 15.34C49.7763 15.6733 50.503 15.84 51.3163 15.84C51.9563 15.84 52.5497 15.7267 53.0963 15.5C53.6563 15.2733 54.1363 14.9267 54.5363 14.46L55.3363 15.38C54.8697 15.94 54.283 16.3667 53.5763 16.66C52.883 16.9533 52.1163 17.1 51.2763 17.1ZM62.6666 20.98C61.7066 20.98 60.7866 20.84 59.9066 20.56C59.0266 20.28 58.3133 19.88 57.7666 19.36L58.4866 18.28C58.98 18.72 59.5866 19.0667 60.3066 19.32C61.04 19.5867 61.8133 19.72 62.6266 19.72C63.96 19.72 64.94 19.4067 65.5666 18.78C66.1933 18.1667 66.5066 17.2067 66.5066 15.9V13.28L66.7066 11.48L66.5666 9.68V6.5H67.9266V15.72C67.9266 17.5333 67.48 18.86 66.5866 19.7C65.7066 20.5533 64.4 20.98 62.6666 20.98ZM62.4066 16.6C61.4066 16.6 60.5066 16.3867 59.7066 15.96C58.9066 15.52 58.2733 14.9133 57.8066 14.14C57.3533 13.3667 57.1266 12.48 57.1266 11.48C57.1266 10.48 57.3533 9.6 57.8066 8.84C58.2733 8.06667 58.9066 7.46667 59.7066 7.04C60.5066 6.61333 61.4066 6.4 62.4066 6.4C63.34 6.4 64.18 6.59333 64.9266 6.98C65.6733 7.36667 66.2666 7.94 66.7066 8.7C67.1466 9.46 67.3666 10.3867 67.3666 11.48C67.3666 12.5733 67.1466 13.5 66.7066 14.26C66.2666 15.02 65.6733 15.6 64.9266 16C64.18 16.4 63.34 16.6 62.4066 16.6ZM62.5466 15.34C63.32 15.34 64.0066 15.18 64.6066 14.86C65.2066 14.5267 65.68 14.0733 66.0266 13.5C66.3733 12.9133 66.5466 12.24 66.5466 11.48C66.5466 10.72 66.3733 10.0533 66.0266 9.48C65.68 8.90667 65.2066 8.46 64.6066 8.14C64.0066 7.80667 63.32 7.64 62.5466 7.64C61.7866 7.64 61.1 7.80667 60.4866 8.14C59.8866 8.46 59.4133 8.90667 59.0666 9.48C58.7333 10.0533 58.5666 10.72 58.5666 11.48C58.5666 12.24 58.7333 12.9133 59.0666 13.5C59.4133 14.0733 59.8866 14.5267 60.4866 14.86C61.1 15.18 61.7866 15.34 62.5466 15.34ZM71.178 17V6.5H72.538V9.36L72.398 8.86C72.6914 8.06 73.1847 7.45333 73.878 7.04C74.5714 6.61333 75.4314 6.4 76.458 6.4V7.78C76.4047 7.78 76.3514 7.78 76.298 7.78C76.2447 7.76667 76.1914 7.76 76.138 7.76C75.0314 7.76 74.1647 8.1 73.538 8.78C72.9114 9.44667 72.598 10.4 72.598 11.64V17H71.178ZM84.1479 17V14.68L84.0879 14.3V10.42C84.0879 9.52667 83.8346 8.84 83.3279 8.36C82.8346 7.88 82.0946 7.64 81.1079 7.64C80.4279 7.64 79.7812 7.75333 79.1679 7.98C78.5546 8.20667 78.0346 8.50667 77.6079 8.88L76.9679 7.82C77.5012 7.36667 78.1412 7.02 78.8879 6.78C79.6346 6.52667 80.4212 6.4 81.2479 6.4C82.6079 6.4 83.6546 6.74 84.3879 7.42C85.1346 8.08667 85.5079 9.10667 85.5079 10.48V17H84.1479ZM80.5279 17.1C79.7412 17.1 79.0546 16.9733 78.4679 16.72C77.8946 16.4533 77.4546 16.0933 77.1479 15.64C76.8412 15.1733 76.6879 14.64 76.6879 14.04C76.6879 13.4933 76.8146 13 77.0679 12.56C77.3346 12.1067 77.7612 11.7467 78.3479 11.48C78.9479 11.2 79.7479 11.06 80.7479 11.06H84.3679V12.12H80.7879C79.7746 12.12 79.0679 12.3 78.6679 12.66C78.2812 13.02 78.0879 13.4667 78.0879 14C78.0879 14.6 78.3212 15.08 78.7879 15.44C79.2546 15.8 79.9079 15.98 80.7479 15.98C81.5479 15.98 82.2346 15.8 82.8079 15.44C83.3946 15.0667 83.8212 14.5333 84.0879 13.84L84.4079 14.82C84.1412 15.5133 83.6746 16.0667 83.0079 16.48C82.3546 16.8933 81.5279 17.1 80.5279 17.1ZM101.785 6.4C102.638 6.4 103.378 6.56667 104.005 6.9C104.645 7.22 105.138 7.71333 105.485 8.38C105.845 9.04667 106.025 9.88667 106.025 10.9V17H104.605V11.04C104.605 9.93333 104.338 9.1 103.805 8.54C103.285 7.96667 102.545 7.68 101.585 7.68C100.865 7.68 100.238 7.83333 99.7048 8.14C99.1848 8.43333 98.7781 8.86667 98.4848 9.44C98.2048 10 98.0648 10.68 98.0648 11.48V17H96.6448V11.04C96.6448 9.93333 96.3781 9.1 95.8448 8.54C95.3114 7.96667 94.5648 7.68 93.6048 7.68C92.8981 7.68 92.2781 7.83333 91.7448 8.14C91.2114 8.43333 90.7981 8.86667 90.5048 9.44C90.2248 10 90.0848 10.68 90.0848 11.48V17H88.6648V6.5H90.0248V9.34L89.8048 8.84C90.1248 8.08 90.6381 7.48667 91.3448 7.06C92.0648 6.62 92.9114 6.4 93.8848 6.4C94.9114 6.4 95.7848 6.66 96.5048 7.18C97.2248 7.68667 97.6914 8.45333 97.9048 9.48L97.3448 9.26C97.6514 8.40667 98.1914 7.72 98.9648 7.2C99.7514 6.66667 100.691 6.4 101.785 6.4Z" fill="white"/>
<path d="M14 10C14 13.866 10.866 17 7 17C3.13401 17 0 13.866 0 10C0 6.13401 3.13401 3 7 3C10.866 3 14 6.13401 14 10ZM7.25088 8.16774C6.57003 8.45093 5.20928 9.03706 3.16864 9.92613C2.83727 10.0579 2.66369 10.1868 2.64788 10.3129C2.62118 10.5259 2.88795 10.6098 3.25123 10.724C3.30064 10.7396 3.35184 10.7557 3.40433 10.7727C3.76174 10.8889 4.24252 11.0248 4.49245 11.0302C4.71917 11.0351 4.97221 10.9416 5.25158 10.7498C7.15821 9.46278 8.14242 8.81225 8.20422 8.79823C8.24781 8.78833 8.30822 8.7759 8.34915 8.81227C8.39008 8.84865 8.38605 8.91755 8.38172 8.93603C8.35529 9.0487 7.30811 10.0222 6.76619 10.5261C6.59725 10.6831 6.47741 10.7945 6.45291 10.82C6.39804 10.877 6.34211 10.9309 6.28836 10.9827C5.95632 11.3028 5.70732 11.5428 6.30214 11.9348C6.58799 12.1232 6.81673 12.279 7.04493 12.4344C7.29414 12.6041 7.5427 12.7733 7.86431 12.9842C7.94625 13.0379 8.0245 13.0937 8.10072 13.148C8.39074 13.3548 8.6513 13.5405 8.97321 13.5109C9.16026 13.4937 9.35347 13.3178 9.4516 12.7932C9.68349 11.5535 10.1393 8.86746 10.2447 7.7606C10.2539 7.66363 10.2423 7.53952 10.233 7.48504C10.2236 7.43056 10.2041 7.35293 10.1333 7.29547C10.0495 7.22742 9.91999 7.21306 9.86208 7.21408C9.5988 7.21872 9.19486 7.35918 7.25088 8.16774Z" fill="white"/>
</svg>
