<svg width="382" height="71" viewBox="0 0 382 71" fill="none" xmlns="http://www.w3.org/2000/svg">
<path d="M30.145 53V30.6L32.595 33.05H25.245V28.5H35.815V53H30.145ZM58.3132 53.42C56.6098 53.42 54.9182 53.1983 53.2382 52.755C51.5815 52.2883 50.1582 51.635 48.9682 50.795L51.2082 46.455C52.1415 47.1317 53.2148 47.6683 54.4282 48.065C55.6648 48.4617 56.9132 48.66 58.1732 48.66C59.5965 48.66 60.7165 48.38 61.5332 47.82C62.3498 47.26 62.7582 46.4783 62.7582 45.475C62.7582 44.845 62.5948 44.285 62.2682 43.795C61.9415 43.305 61.3582 42.9317 60.5182 42.675C59.7015 42.4183 58.5465 42.29 57.0532 42.29H50.7882L52.0482 28.5H66.9932V33.05H54.0782L57.0182 30.46L56.1432 40.295L53.2032 37.705H58.3832C60.8098 37.705 62.7582 38.0433 64.2282 38.72C65.7215 39.3733 66.8065 40.2717 67.4832 41.415C68.1598 42.5583 68.4982 43.8533 68.4982 45.3C68.4982 46.7467 68.1365 48.0883 67.4132 49.325C66.6898 50.5383 65.5698 51.53 64.0532 52.3C62.5598 53.0467 60.6465 53.42 58.3132 53.42ZM81.2986 53.42C79.2919 53.42 77.4953 52.93 75.9086 51.95C74.3219 50.9467 73.0736 49.5 72.1636 47.61C71.2536 45.72 70.7986 43.4333 70.7986 40.75C70.7986 38.0667 71.2536 35.78 72.1636 33.89C73.0736 32 74.3219 30.565 75.9086 29.585C77.4953 28.5817 79.2919 28.08 81.2986 28.08C83.3286 28.08 85.1253 28.5817 86.6886 29.585C88.2753 30.565 89.5236 32 90.4336 33.89C91.3436 35.78 91.7986 38.0667 91.7986 40.75C91.7986 43.4333 91.3436 45.72 90.4336 47.61C89.5236 49.5 88.2753 50.9467 86.6886 51.95C85.1253 52.93 83.3286 53.42 81.2986 53.42ZM81.2986 48.625C82.2553 48.625 83.0836 48.3567 83.7836 47.82C84.5069 47.2833 85.0669 46.4317 85.4636 45.265C85.8836 44.0983 86.0936 42.5933 86.0936 40.75C86.0936 38.9067 85.8836 37.4017 85.4636 36.235C85.0669 35.0683 84.5069 34.2167 83.7836 33.68C83.0836 33.1433 82.2553 32.875 81.2986 32.875C80.3653 32.875 79.5369 33.1433 78.8136 33.68C78.1136 34.2167 77.5536 35.0683 77.1336 36.235C76.7369 37.4017 76.5386 38.9067 76.5386 40.75C76.5386 42.5933 76.7369 44.0983 77.1336 45.265C77.5536 46.4317 78.1136 47.2833 78.8136 47.82C79.5369 48.3567 80.3653 48.625 81.2986 48.625ZM105.053 53.42C103.047 53.42 101.25 52.93 99.6635 51.95C98.0768 50.9467 96.8285 49.5 95.9185 47.61C95.0085 45.72 94.5535 43.4333 94.5535 40.75C94.5535 38.0667 95.0085 35.78 95.9185 33.89C96.8285 32 98.0768 30.565 99.6635 29.585C101.25 28.5817 103.047 28.08 105.053 28.08C107.083 28.08 108.88 28.5817 110.443 29.585C112.03 30.565 113.278 32 114.188 33.89C115.098 35.78 115.553 38.0667 115.553 40.75C115.553 43.4333 115.098 45.72 114.188 47.61C113.278 49.5 112.03 50.9467 110.443 51.95C108.88 52.93 107.083 53.42 105.053 53.42ZM105.053 48.625C106.01 48.625 106.838 48.3567 107.538 47.82C108.262 47.2833 108.822 46.4317 109.218 45.265C109.638 44.0983 109.848 42.5933 109.848 40.75C109.848 38.9067 109.638 37.4017 109.218 36.235C108.822 35.0683 108.262 34.2167 107.538 33.68C106.838 33.1433 106.01 32.875 105.053 32.875C104.12 32.875 103.292 33.1433 102.568 33.68C101.868 34.2167 101.308 35.0683 100.888 36.235C100.492 37.4017 100.293 38.9067 100.293 40.75C100.293 42.5933 100.492 44.0983 100.888 45.265C101.308 46.4317 101.868 47.2833 102.568 47.82C103.292 48.3567 104.12 48.625 105.053 48.625ZM126.638 57.2V24.3H130.138V57.2H126.638ZM127.898 53.42C125.938 53.42 124.06 53.1633 122.263 52.65C120.467 52.1133 119.02 51.425 117.923 50.585L119.848 46.315C120.898 47.0617 122.135 47.68 123.558 48.17C125.005 48.6367 126.463 48.87 127.933 48.87C129.053 48.87 129.952 48.765 130.628 48.555C131.328 48.3217 131.842 48.0067 132.168 47.61C132.495 47.2133 132.658 46.7583 132.658 46.245C132.658 45.5917 132.402 45.0783 131.888 44.705C131.375 44.3083 130.698 43.9933 129.858 43.76C129.018 43.5033 128.085 43.27 127.058 43.06C126.055 42.8267 125.04 42.5467 124.013 42.22C123.01 41.8933 122.088 41.4733 121.248 40.96C120.408 40.4467 119.72 39.77 119.183 38.93C118.67 38.09 118.413 37.0167 118.413 35.71C118.413 34.31 118.787 33.0383 119.533 31.895C120.303 30.7283 121.447 29.8067 122.963 29.13C124.503 28.43 126.428 28.08 128.738 28.08C130.278 28.08 131.795 28.2667 133.288 28.64C134.782 28.99 136.1 29.5267 137.243 30.25L135.493 34.555C134.35 33.9017 133.207 33.4233 132.063 33.12C130.92 32.7933 129.8 32.63 128.703 32.63C127.607 32.63 126.708 32.7583 126.008 33.015C125.308 33.2717 124.807 33.61 124.503 34.03C124.2 34.4267 124.048 34.8933 124.048 35.43C124.048 36.06 124.305 36.5733 124.818 36.97C125.332 37.3433 126.008 37.6467 126.848 37.88C127.688 38.1133 128.61 38.3467 129.613 38.58C130.64 38.8133 131.655 39.0817 132.658 39.385C133.685 39.6883 134.618 40.0967 135.458 40.61C136.298 41.1233 136.975 41.8 137.488 42.64C138.025 43.48 138.293 44.5417 138.293 45.825C138.293 47.2017 137.908 48.4617 137.138 49.605C136.368 50.7483 135.213 51.67 133.673 52.37C132.157 53.07 130.232 53.42 127.898 53.42Z" fill="white"/>
<path d="M155.22 38.12C154.207 38.12 153.247 37.96 152.34 37.64C151.447 37.3067 150.727 36.8667 150.18 36.32L150.88 35.18C151.333 35.6467 151.94 36.0333 152.7 36.34C153.473 36.6467 154.313 36.8 155.22 36.8C156.38 36.8 157.267 36.5467 157.88 36.04C158.507 35.5333 158.82 34.8533 158.82 34C158.82 33.1467 158.513 32.4667 157.9 31.96C157.3 31.4533 156.347 31.2 155.04 31.2H154.04V30.14L158.36 24.72L158.56 25.28H150.76V24H159.76V25.02L155.44 30.44L154.74 29.98H155.28C156.96 29.98 158.213 30.3533 159.04 31.1C159.88 31.8467 160.3 32.8067 160.3 33.98C160.3 34.7667 160.113 35.4733 159.74 36.1C159.367 36.7267 158.8 37.22 158.04 37.58C157.293 37.94 156.353 38.12 155.22 38.12ZM173.143 38.12C172.063 38.12 171.103 37.84 170.263 37.28C169.423 36.7067 168.763 35.8933 168.283 34.84C167.803 33.7733 167.563 32.4933 167.563 31C167.563 29.5067 167.803 28.2333 168.283 27.18C168.763 26.1133 169.423 25.3 170.263 24.74C171.103 24.1667 172.063 23.88 173.143 23.88C174.223 23.88 175.183 24.1667 176.023 24.74C176.863 25.3 177.523 26.1133 178.003 27.18C178.497 28.2333 178.743 29.5067 178.743 31C178.743 32.4933 178.497 33.7733 178.003 34.84C177.523 35.8933 176.863 36.7067 176.023 37.28C175.183 37.84 174.223 38.12 173.143 38.12ZM173.143 36.8C173.97 36.8 174.69 36.58 175.303 36.14C175.917 35.6867 176.397 35.0333 176.743 34.18C177.09 33.3133 177.263 32.2533 177.263 31C177.263 29.7467 177.09 28.6933 176.743 27.84C176.397 26.9733 175.917 26.32 175.303 25.88C174.69 25.4267 173.97 25.2 173.143 25.2C172.343 25.2 171.63 25.4267 171.003 25.88C170.377 26.32 169.89 26.9733 169.543 27.84C169.197 28.6933 169.023 29.7467 169.023 31C169.023 32.2533 169.197 33.3133 169.543 34.18C169.89 35.0333 170.377 35.6867 171.003 36.14C171.63 36.58 172.343 36.8 173.143 36.8ZM186.386 38.12C185.306 38.12 184.346 37.84 183.506 37.28C182.666 36.7067 182.006 35.8933 181.526 34.84C181.046 33.7733 180.806 32.4933 180.806 31C180.806 29.5067 181.046 28.2333 181.526 27.18C182.006 26.1133 182.666 25.3 183.506 24.74C184.346 24.1667 185.306 23.88 186.386 23.88C187.466 23.88 188.426 24.1667 189.266 24.74C190.106 25.3 190.766 26.1133 191.246 27.18C191.739 28.2333 191.986 29.5067 191.986 31C191.986 32.4933 191.739 33.7733 191.246 34.84C190.766 35.8933 190.106 36.7067 189.266 37.28C188.426 37.84 187.466 38.12 186.386 38.12ZM186.386 36.8C187.212 36.8 187.932 36.58 188.546 36.14C189.159 35.6867 189.639 35.0333 189.986 34.18C190.332 33.3133 190.506 32.2533 190.506 31C190.506 29.7467 190.332 28.6933 189.986 27.84C189.639 26.9733 189.159 26.32 188.546 25.88C187.932 25.4267 187.212 25.2 186.386 25.2C185.586 25.2 184.872 25.4267 184.246 25.88C183.619 26.32 183.132 26.9733 182.786 27.84C182.439 28.6933 182.266 29.7467 182.266 31C182.266 32.2533 182.439 33.3133 182.786 34.18C183.132 35.0333 183.619 35.6867 184.246 36.14C184.872 36.58 185.586 36.8 186.386 36.8ZM199.628 38.12C198.548 38.12 197.588 37.84 196.748 37.28C195.908 36.7067 195.248 35.8933 194.768 34.84C194.288 33.7733 194.048 32.4933 194.048 31C194.048 29.5067 194.288 28.2333 194.768 27.18C195.248 26.1133 195.908 25.3 196.748 24.74C197.588 24.1667 198.548 23.88 199.628 23.88C200.708 23.88 201.668 24.1667 202.508 24.74C203.348 25.3 204.008 26.1133 204.488 27.18C204.981 28.2333 205.228 29.5067 205.228 31C205.228 32.4933 204.981 33.7733 204.488 34.84C204.008 35.8933 203.348 36.7067 202.508 37.28C201.668 37.84 200.708 38.12 199.628 38.12ZM199.628 36.8C200.454 36.8 201.174 36.58 201.788 36.14C202.401 35.6867 202.881 35.0333 203.228 34.18C203.574 33.3133 203.748 32.2533 203.748 31C203.748 29.7467 203.574 28.6933 203.228 27.84C202.881 26.9733 202.401 26.32 201.788 25.88C201.174 25.4267 200.454 25.2 199.628 25.2C198.828 25.2 198.114 25.4267 197.488 25.88C196.861 26.32 196.374 26.9733 196.028 27.84C195.681 28.6933 195.508 29.7467 195.508 31C195.508 32.2533 195.681 33.3133 196.028 34.18C196.374 35.0333 196.861 35.6867 197.488 36.14C198.114 36.58 198.828 36.8 199.628 36.8ZM211.97 40.4V21.6H212.97V40.4H211.97ZM212.39 38.12C211.35 38.12 210.35 37.9533 209.39 37.62C208.443 37.2733 207.71 36.8333 207.19 36.3L207.77 35.16C208.263 35.64 208.923 36.0467 209.75 36.38C210.59 36.7 211.47 36.86 212.39 36.86C213.27 36.86 213.983 36.7533 214.53 36.54C215.09 36.3133 215.497 36.0133 215.75 35.64C216.017 35.2667 216.15 34.8533 216.15 34.4C216.15 33.8533 215.99 33.4133 215.67 33.08C215.363 32.7467 214.957 32.4867 214.45 32.3C213.943 32.1 213.383 31.9267 212.77 31.78C212.157 31.6333 211.543 31.48 210.93 31.32C210.317 31.1467 209.75 30.92 209.23 30.64C208.723 30.36 208.31 29.9933 207.99 29.54C207.683 29.0733 207.53 28.4667 207.53 27.72C207.53 27.0267 207.71 26.3933 208.07 25.82C208.443 25.2333 209.01 24.7667 209.77 24.42C210.53 24.06 211.503 23.88 212.69 23.88C213.477 23.88 214.257 23.9933 215.03 24.22C215.803 24.4333 216.47 24.7333 217.03 25.12L216.53 26.3C215.93 25.9 215.29 25.6067 214.61 25.42C213.943 25.2333 213.297 25.14 212.67 25.14C211.83 25.14 211.137 25.2533 210.59 25.48C210.043 25.7067 209.637 26.0133 209.37 26.4C209.117 26.7733 208.99 27.2 208.99 27.68C208.99 28.2267 209.143 28.6667 209.45 29C209.77 29.3333 210.183 29.5933 210.69 29.78C211.21 29.9667 211.777 30.1333 212.39 30.28C213.003 30.4267 213.61 30.5867 214.21 30.76C214.823 30.9333 215.383 31.16 215.89 31.44C216.41 31.7067 216.823 32.0667 217.13 32.52C217.45 32.9733 217.61 33.5667 217.61 34.3C217.61 34.98 217.423 35.6133 217.05 36.2C216.677 36.7733 216.103 37.24 215.33 37.6C214.57 37.9467 213.59 38.12 212.39 38.12Z" fill="#BDBDBD"/>
<line x1="148" y1="30.5" x2="220" y2="30.5" stroke="#BDBDBD"/>
<rect x="283" y="22" width="98" height="31" rx="15.5" fill="#C6E3F8"/>
<path d="M308.58 40.48V38.4H314.08V40.48H308.58ZM320.696 45.2C319.709 45.2 318.742 45.06 317.796 44.78C316.862 44.4867 316.076 44.0867 315.436 43.58L316.536 41.56C317.042 41.9733 317.656 42.3067 318.376 42.56C319.109 42.8133 319.869 42.94 320.656 42.94C321.576 42.94 322.296 42.7467 322.816 42.36C323.349 41.9733 323.616 41.4533 323.616 40.8C323.616 40.36 323.502 39.9733 323.276 39.64C323.062 39.3067 322.676 39.0533 322.116 38.88C321.569 38.7067 320.816 38.62 319.856 38.62H316.476L317.196 31H325.416V33.18H318.156L319.516 31.94L318.976 37.64L317.616 36.42H320.436C321.822 36.42 322.936 36.6067 323.776 36.98C324.629 37.34 325.249 37.8467 325.636 38.5C326.036 39.14 326.236 39.8733 326.236 40.7C326.236 41.5133 326.036 42.26 325.636 42.94C325.236 43.62 324.622 44.1667 323.796 44.58C322.982 44.9933 321.949 45.2 320.696 45.2ZM333.575 45.2C332.469 45.2 331.469 44.92 330.575 44.36C329.695 43.8 329.002 42.9867 328.495 41.92C327.989 40.84 327.735 39.5333 327.735 38C327.735 36.4667 327.989 35.1667 328.495 34.1C329.002 33.02 329.695 32.2 330.575 31.64C331.469 31.08 332.469 30.8 333.575 30.8C334.695 30.8 335.695 31.08 336.575 31.64C337.455 32.2 338.149 33.02 338.655 34.1C339.175 35.1667 339.435 36.4667 339.435 38C339.435 39.5333 339.175 40.84 338.655 41.92C338.149 42.9867 337.455 43.8 336.575 44.36C335.695 44.92 334.695 45.2 333.575 45.2ZM333.575 42.94C334.229 42.94 334.795 42.7667 335.275 42.42C335.755 42.06 336.129 41.5133 336.395 40.78C336.675 40.0467 336.815 39.12 336.815 38C336.815 36.8667 336.675 35.94 336.395 35.22C336.129 34.4867 335.755 33.9467 335.275 33.6C334.795 33.24 334.229 33.06 333.575 33.06C332.949 33.06 332.389 33.24 331.895 33.6C331.415 33.9467 331.035 34.4867 330.755 35.22C330.489 35.94 330.355 36.8667 330.355 38C330.355 39.12 330.489 40.0467 330.755 40.78C331.035 41.5133 331.415 42.06 331.895 42.42C332.389 42.7667 332.949 42.94 333.575 42.94ZM343.153 45L352.713 31H354.673L345.113 45H343.153ZM344.313 38.54C343.659 38.54 343.079 38.38 342.573 38.06C342.066 37.74 341.673 37.2933 341.393 36.72C341.113 36.1467 340.972 35.4733 340.972 34.7C340.972 33.9267 341.113 33.2533 341.393 32.68C341.673 32.1067 342.066 31.66 342.573 31.34C343.079 31.02 343.659 30.86 344.313 30.86C344.993 30.86 345.579 31.02 346.073 31.34C346.579 31.66 346.973 32.1067 347.253 32.68C347.533 33.2533 347.673 33.9267 347.673 34.7C347.673 35.4733 347.533 36.1467 347.253 36.72C346.973 37.2933 346.579 37.74 346.073 38.06C345.579 38.38 344.993 38.54 344.313 38.54ZM344.333 37.14C344.866 37.14 345.279 36.9333 345.573 36.52C345.879 36.0933 346.033 35.4867 346.033 34.7C346.033 33.9133 345.879 33.3133 345.573 32.9C345.279 32.4733 344.866 32.26 344.333 32.26C343.799 32.26 343.373 32.4733 343.053 32.9C342.746 33.3267 342.593 33.9267 342.593 34.7C342.593 35.4733 342.746 36.0733 343.053 36.5C343.373 36.9267 343.799 37.14 344.333 37.14ZM353.493 45.14C352.839 45.14 352.259 44.98 351.753 44.66C351.246 44.34 350.853 43.8933 350.573 43.32C350.293 42.7467 350.153 42.0733 350.153 41.3C350.153 40.5267 350.293 39.8533 350.573 39.28C350.853 38.7067 351.246 38.26 351.753 37.94C352.259 37.62 352.839 37.46 353.493 37.46C354.173 37.46 354.759 37.62 355.253 37.94C355.759 38.26 356.153 38.7067 356.433 39.28C356.713 39.8533 356.853 40.5267 356.853 41.3C356.853 42.0733 356.713 42.7467 356.433 43.32C356.153 43.8933 355.759 44.34 355.253 44.66C354.759 44.98 354.173 45.14 353.493 45.14ZM353.493 43.74C354.026 43.74 354.446 43.5267 354.753 43.1C355.059 42.6733 355.213 42.0733 355.213 41.3C355.213 40.5267 355.059 39.9267 354.753 39.5C354.446 39.0733 354.026 38.86 353.493 38.86C352.973 38.86 352.553 39.0733 352.233 39.5C351.926 39.9133 351.773 40.5133 351.773 41.3C351.773 42.0867 351.926 42.6933 352.233 43.12C352.553 43.5333 352.973 43.74 353.493 43.74Z" fill="black"/>
<path d="M145.333 62C145.333 63.4728 146.527 64.6667 148 64.6667C149.473 64.6667 150.667 63.4728 150.667 62C150.667 60.5272 149.473 59.3333 148 59.3333C146.527 59.3333 145.333 60.5272 145.333 62ZM0 62.5H148V61.5H0V62.5Z" fill="white"/>
</svg>
