<svg width="128" height="20" viewBox="0 0 128 20" fill="none" xmlns="http://www.w3.org/2000/svg">
<path d="M21.1491 16V2H22.6291V16H21.1491ZM32.2443 5.4C33.0976 5.4 33.8443 5.56667 34.4843 5.9C35.1376 6.22 35.6443 6.71333 36.0043 7.38C36.3776 8.04667 36.5643 8.88667 36.5643 9.9V16H35.1443V10.04C35.1443 8.93333 34.8643 8.1 34.3043 7.54C33.7576 6.96667 32.9843 6.68 31.9843 6.68C31.2376 6.68 30.5843 6.83333 30.0243 7.14C29.4776 7.43333 29.051 7.86667 28.7443 8.44C28.451 9 28.3043 9.68 28.3043 10.48V16H26.8843V5.5H28.2443V8.38L28.0243 7.84C28.3576 7.08 28.891 6.48667 29.6243 6.06C30.3576 5.62 31.231 5.4 32.2443 5.4ZM43.2199 16.1C42.3533 16.1 41.5333 15.98 40.7599 15.74C39.9866 15.4867 39.3799 15.1733 38.9399 14.8L39.5799 13.68C40.0066 14 40.5533 14.28 41.2199 14.52C41.8866 14.7467 42.5866 14.86 43.3199 14.86C44.3199 14.86 45.0399 14.7067 45.4799 14.4C45.9199 14.08 46.1399 13.66 46.1399 13.14C46.1399 12.7533 46.0133 12.4533 45.7599 12.24C45.5199 12.0133 45.1999 11.8467 44.7999 11.74C44.3999 11.62 43.9533 11.52 43.4599 11.44C42.9666 11.36 42.4733 11.2667 41.9799 11.16C41.4999 11.0533 41.0599 10.9 40.6599 10.7C40.2599 10.4867 39.9333 10.2 39.6799 9.84C39.4399 9.48 39.3199 9 39.3199 8.4C39.3199 7.82667 39.4799 7.31333 39.7999 6.86C40.1199 6.40667 40.5866 6.05333 41.1999 5.8C41.8266 5.53333 42.5866 5.4 43.4799 5.4C44.1599 5.4 44.8399 5.49333 45.5199 5.68C46.1999 5.85333 46.7599 6.08667 47.1999 6.38L46.5799 7.52C46.1133 7.2 45.6133 6.97333 45.0799 6.84C44.5466 6.69333 44.0133 6.62 43.4799 6.62C42.5333 6.62 41.8333 6.78667 41.3799 7.12C40.9399 7.44 40.7199 7.85333 40.7199 8.36C40.7199 8.76 40.8399 9.07333 41.0799 9.3C41.3333 9.52667 41.6599 9.70667 42.0599 9.84C42.4733 9.96 42.9199 10.06 43.3999 10.14C43.8933 10.22 44.3799 10.32 44.8599 10.44C45.3533 10.5467 45.7999 10.7 46.1999 10.9C46.6133 11.0867 46.9399 11.36 47.1799 11.72C47.4333 12.0667 47.5599 12.5267 47.5599 13.1C47.5599 13.7133 47.3866 14.2467 47.0399 14.7C46.7066 15.14 46.2133 15.4867 45.5599 15.74C44.9199 15.98 44.1399 16.1 43.2199 16.1ZM53.4855 16.1C52.4989 16.1 51.7389 15.8333 51.2055 15.3C50.6722 14.7667 50.4055 14.0133 50.4055 13.04V3.18H51.8255V12.96C51.8255 13.5733 51.9789 14.0467 52.2855 14.38C52.6055 14.7133 53.0589 14.88 53.6455 14.88C54.2722 14.88 54.7922 14.7 55.2055 14.34L55.7055 15.36C55.4255 15.6133 55.0855 15.8 54.6855 15.92C54.2989 16.04 53.8989 16.1 53.4855 16.1ZM48.5255 6.68V5.5H55.0255V6.68H48.5255ZM64.8705 16V13.68L64.8105 13.3V9.42C64.8105 8.52667 64.5572 7.84 64.0505 7.36C63.5572 6.88 62.8172 6.64 61.8305 6.64C61.1505 6.64 60.5039 6.75333 59.8905 6.98C59.2772 7.20667 58.7572 7.50667 58.3305 7.88L57.6905 6.82C58.2239 6.36667 58.8639 6.02 59.6105 5.78C60.3572 5.52667 61.1439 5.4 61.9705 5.4C63.3305 5.4 64.3772 5.74 65.1105 6.42C65.8572 7.08667 66.2305 8.10667 66.2305 9.48V16H64.8705ZM61.2505 16.1C60.4639 16.1 59.7772 15.9733 59.1905 15.72C58.6172 15.4533 58.1772 15.0933 57.8705 14.64C57.5639 14.1733 57.4105 13.64 57.4105 13.04C57.4105 12.4933 57.5372 12 57.7905 11.56C58.0572 11.1067 58.4839 10.7467 59.0705 10.48C59.6705 10.2 60.4705 10.06 61.4705 10.06H65.0905V11.12H61.5105C60.4972 11.12 59.7905 11.3 59.3905 11.66C59.0039 12.02 58.8105 12.4667 58.8105 13C58.8105 13.6 59.0439 14.08 59.5105 14.44C59.9772 14.8 60.6305 14.98 61.4705 14.98C62.2705 14.98 62.9572 14.8 63.5305 14.44C64.1172 14.0667 64.5439 13.5333 64.8105 12.84L65.1305 13.82C64.8639 14.5133 64.3972 15.0667 63.7305 15.48C63.0772 15.8933 62.2505 16.1 61.2505 16.1ZM74.5674 19.98C73.6074 19.98 72.6874 19.84 71.8074 19.56C70.9274 19.28 70.2141 18.88 69.6674 18.36L70.3874 17.28C70.8808 17.72 71.4874 18.0667 72.2074 18.32C72.9408 18.5867 73.7141 18.72 74.5274 18.72C75.8608 18.72 76.8408 18.4067 77.4674 17.78C78.0941 17.1667 78.4074 16.2067 78.4074 14.9V12.28L78.6074 10.48L78.4674 8.68V5.5H79.8274V14.72C79.8274 16.5333 79.3808 17.86 78.4874 18.7C77.6074 19.5533 76.3008 19.98 74.5674 19.98ZM74.3074 15.6C73.3074 15.6 72.4074 15.3867 71.6074 14.96C70.8074 14.52 70.1741 13.9133 69.7074 13.14C69.2541 12.3667 69.0274 11.48 69.0274 10.48C69.0274 9.48 69.2541 8.6 69.7074 7.84C70.1741 7.06667 70.8074 6.46667 71.6074 6.04C72.4074 5.61333 73.3074 5.4 74.3074 5.4C75.2408 5.4 76.0808 5.59333 76.8274 5.98C77.5741 6.36667 78.1674 6.94 78.6074 7.7C79.0474 8.46 79.2674 9.38667 79.2674 10.48C79.2674 11.5733 79.0474 12.5 78.6074 13.26C78.1674 14.02 77.5741 14.6 76.8274 15C76.0808 15.4 75.2408 15.6 74.3074 15.6ZM74.4474 14.34C75.2208 14.34 75.9074 14.18 76.5074 13.86C77.1074 13.5267 77.5808 13.0733 77.9274 12.5C78.2741 11.9133 78.4474 11.24 78.4474 10.48C78.4474 9.72 78.2741 9.05333 77.9274 8.48C77.5808 7.90667 77.1074 7.46 76.5074 7.14C75.9074 6.80667 75.2208 6.64 74.4474 6.64C73.6874 6.64 73.0008 6.80667 72.3874 7.14C71.7874 7.46 71.3141 7.90667 70.9674 8.48C70.6341 9.05333 70.4674 9.72 70.4674 10.48C70.4674 11.24 70.6341 11.9133 70.9674 12.5C71.3141 13.0733 71.7874 13.5267 72.3874 13.86C73.0008 14.18 73.6874 14.34 74.4474 14.34ZM83.7788 16V5.5H85.1388V8.36L84.9988 7.86C85.2922 7.06 85.7855 6.45333 86.4788 6.04C87.1722 5.61333 88.0322 5.4 89.0588 5.4V6.78C89.0055 6.78 88.9522 6.78 88.8988 6.78C88.8455 6.76667 88.7922 6.76 88.7388 6.76C87.6322 6.76 86.7655 7.1 86.1388 7.78C85.5122 8.44667 85.1988 9.4 85.1988 10.64V16H83.7788ZM97.4487 16V13.68L97.3887 13.3V9.42C97.3887 8.52667 97.1353 7.84 96.6287 7.36C96.1353 6.88 95.3953 6.64 94.4087 6.64C93.7287 6.64 93.082 6.75333 92.4687 6.98C91.8553 7.20667 91.3353 7.50667 90.9087 7.88L90.2687 6.82C90.802 6.36667 91.442 6.02 92.1887 5.78C92.9353 5.52667 93.722 5.4 94.5487 5.4C95.9087 5.4 96.9553 5.74 97.6887 6.42C98.4353 7.08667 98.8087 8.10667 98.8087 9.48V16H97.4487ZM93.8287 16.1C93.042 16.1 92.3553 15.9733 91.7687 15.72C91.1953 15.4533 90.7553 15.0933 90.4487 14.64C90.142 14.1733 89.9887 13.64 89.9887 13.04C89.9887 12.4933 90.1153 12 90.3687 11.56C90.6353 11.1067 91.062 10.7467 91.6487 10.48C92.2487 10.2 93.0487 10.06 94.0487 10.06H97.6687V11.12H94.0887C93.0753 11.12 92.3687 11.3 91.9687 11.66C91.582 12.02 91.3887 12.4667 91.3887 13C91.3887 13.6 91.622 14.08 92.0887 14.44C92.5553 14.8 93.2087 14.98 94.0487 14.98C94.8487 14.98 95.5353 14.8 96.1087 14.44C96.6953 14.0667 97.122 13.5333 97.3887 12.84L97.7087 13.82C97.442 14.5133 96.9753 15.0667 96.3087 15.48C95.6553 15.8933 94.8287 16.1 93.8287 16.1ZM115.786 5.4C116.639 5.4 117.379 5.56667 118.006 5.9C118.646 6.22 119.139 6.71333 119.486 7.38C119.846 8.04667 120.026 8.88667 120.026 9.9V16H118.606V10.04C118.606 8.93333 118.339 8.1 117.806 7.54C117.286 6.96667 116.546 6.68 115.586 6.68C114.866 6.68 114.239 6.83333 113.706 7.14C113.186 7.43333 112.779 7.86667 112.486 8.44C112.206 9 112.066 9.68 112.066 10.48V16H110.646V10.04C110.646 8.93333 110.379 8.1 109.846 7.54C109.312 6.96667 108.566 6.68 107.606 6.68C106.899 6.68 106.279 6.83333 105.746 7.14C105.212 7.43333 104.799 7.86667 104.506 8.44C104.226 9 104.086 9.68 104.086 10.48V16H102.666V5.5H104.026V8.34L103.806 7.84C104.126 7.08 104.639 6.48667 105.346 6.06C106.066 5.62 106.912 5.4 107.886 5.4C108.912 5.4 109.786 5.66 110.506 6.18C111.226 6.68667 111.692 7.45333 111.906 8.48L111.346 8.26C111.652 7.40667 112.192 6.72 112.966 6.2C113.752 5.66667 114.692 5.4 115.786 5.4Z" fill="white"/>
<path d="M6.67504 3C4.86236 3 4.63488 3.00831 3.92293 3.04229C3.21238 3.07642 2.72736 3.1944 2.30298 3.3675C1.86399 3.5463 1.49161 3.78547 1.12062 4.1747C0.74935 4.56379 0.521305 4.95433 0.350271 5.41459C0.1848 5.85982 0.0721678 6.36864 0.0401859 7.11356C0.00834305 7.86024 0 8.09897 0 10.0001C0 11.9012 0.00806513 12.139 0.0403252 12.8857C0.0730023 13.6309 0.185495 14.1396 0.350411 14.5847C0.521027 15.0451 0.749072 15.4356 1.1202 15.8247C1.49105 16.2141 1.86343 16.4538 2.30214 16.6326C2.72681 16.8057 3.21196 16.9237 3.92237 16.9579C4.63432 16.9918 4.86167 17.0001 6.67421 17.0001C8.48703 17.0001 8.71382 16.9918 9.42577 16.9579C10.1363 16.9237 10.6219 16.8057 11.0466 16.6326C11.4854 16.4538 11.8572 16.2141 12.2281 15.8247C12.5993 15.4356 12.8274 15.0451 12.9984 14.5848C13.1625 14.1396 13.2751 13.6308 13.3085 12.8859C13.3405 12.1392 13.3488 11.9012 13.3488 10.0001C13.3488 8.09897 13.3405 7.86038 13.3085 7.11371C13.2751 6.36849 13.1625 5.85982 12.9984 5.41473C12.8274 4.95433 12.5993 4.56379 12.2281 4.1747C11.8568 3.78532 11.4855 3.54615 11.0461 3.3675C10.6206 3.1944 10.1353 3.07642 9.42479 3.04229C8.71285 3.00831 8.48619 3 6.67296 3H6.67504ZM6.07629 4.26147C6.254 4.26118 6.45228 4.26147 6.67504 4.26147C8.45713 4.26147 8.66835 4.26818 9.37209 4.30172C10.0229 4.33293 10.376 4.44697 10.6113 4.54279C10.9228 4.66966 11.1449 4.82133 11.3783 5.06633C11.6119 5.31134 11.7566 5.54467 11.8778 5.87134C11.9692 6.1178 12.078 6.48822 12.1077 7.17073C12.1396 7.90866 12.1466 8.13032 12.1466 9.99847C12.1466 11.8666 12.1396 12.0883 12.1077 12.8262C12.0779 13.5087 11.9692 13.8791 11.8778 14.1256C11.7568 14.4523 11.6119 14.6849 11.3783 14.9297C11.1447 15.1747 10.9229 15.3264 10.6113 15.4533C10.3763 15.5495 10.0229 15.6633 9.37209 15.6945C8.66849 15.728 8.45713 15.7353 6.67504 15.7353C4.89282 15.7353 4.6816 15.728 3.97799 15.6945C3.32723 15.663 2.97404 15.5489 2.73863 15.4531C2.42715 15.3263 2.20467 15.1746 1.97106 14.9296C1.73745 14.6846 1.59284 14.4518 1.47159 14.125C1.38023 13.8786 1.27135 13.5081 1.24173 12.8256C1.20975 12.0877 1.20335 11.866 1.20335 9.99672C1.20335 8.12741 1.20975 7.90691 1.24173 7.16898C1.27149 6.48647 1.38023 6.11605 1.47159 5.8693C1.59256 5.54263 1.73745 5.30929 1.97106 5.06429C2.20467 4.81929 2.42715 4.66762 2.73863 4.54045C2.9739 4.4442 3.32723 4.33045 3.97799 4.2991C4.59372 4.26993 4.83233 4.26118 6.07629 4.25972V4.26147ZM10.2378 5.42378C9.79564 5.42378 9.43689 5.79959 9.43689 6.26349C9.43689 6.72725 9.79564 7.1035 10.2378 7.1035C10.68 7.1035 11.0388 6.72725 11.0388 6.26349C11.0388 5.79974 10.68 5.42348 10.2378 5.42348V5.42378ZM6.67504 6.40524C4.78213 6.40524 3.24742 8.01482 3.24742 10.0001C3.24742 11.9853 4.78213 13.5942 6.67504 13.5942C8.56796 13.5942 10.1021 11.9853 10.1021 10.0001C10.1021 8.01482 8.56782 6.40524 6.6749 6.40524H6.67504ZM6.67504 7.66672C7.90371 7.66672 8.89987 8.71133 8.89987 10.0001C8.89987 11.2887 7.90371 12.3334 6.67504 12.3334C5.44624 12.3334 4.45021 11.2887 4.45021 10.0001C4.45021 8.71133 5.44624 7.66672 6.67504 7.66672V7.66672Z" fill="white"/>
</svg>
