<svg width="134" height="161" viewBox="0 0 134 161" fill="none" xmlns="http://www.w3.org/2000/svg">
<path d="M66.124 149.391V161L133.224 122.421V110.812L66.124 149.391Z" fill="url(#paint0_linear_92_13437)"/>
<path d="M66.1491 149.392V161L0 122.422V110.863L66.1491 149.392Z" fill="url(#paint1_linear_92_13437)"/>
<path d="M0 110.863L66.1491 149.391L133.224 110.812L66.9747 72.2339L0 110.863Z" fill="url(#paint2_linear_92_13437)"/>
<path d="M66.1489 136.231V147.314L130.246 110.462V99.3789L66.1489 136.231Z" fill="url(#paint3_linear_92_13437)"/>
<path d="M66.174 136.232V147.315L2.95215 110.463V99.4043L66.174 136.232Z" fill="url(#paint4_linear_92_13437)"/>
<path d="M66.124 131.803V143.412L133.224 104.833V93.2246L66.124 131.803Z" fill="url(#paint5_linear_92_13437)"/>
<path d="M66.1491 131.803V143.411L0 104.833V93.2739L66.1491 131.803Z" fill="url(#paint6_linear_92_13437)"/>
<path d="M0 93.2746L66.1491 131.803L133.224 93.2246L66.9747 54.646L0 93.2746Z" fill="url(#paint7_linear_92_13437)"/>
<g clip-path="url(#clip0_92_13437)">
<path d="M67.7015 112.135C73.908 112.135 80.1264 110.772 84.8662 108.045C89.4894 105.387 92.0352 101.848 92.0352 98.084C92.0352 94.3197 89.5264 90.8547 84.9729 88.2367C75.5924 82.8423 60.2799 82.8705 50.8407 88.2974C46.2174 90.9555 43.6717 94.4943 43.6717 98.2597C43.6717 101.992 46.1804 105.488 50.7351 108.107C55.4051 110.793 61.5473 112.135 67.7015 112.135ZM68.0031 84.5179C74.1018 84.5179 80.1874 85.8475 84.8161 88.5089C89.2684 91.0683 91.7194 94.4693 91.7194 98.0851C91.7194 101.701 89.2292 105.175 84.7083 107.774C75.3551 113.153 60.1863 113.18 50.8908 107.835C46.4385 105.274 43.9864 101.873 43.9864 98.2586C43.9864 94.644 46.4766 91.1692 50.9975 88.5685C55.6926 85.8692 61.8555 84.5168 68.0031 84.5168V84.5179Z" fill="#009EF2"/>
<path d="M67.6319 118.509C76.7162 118.509 85.819 116.513 92.756 112.524C99.4895 108.652 103.197 103.509 103.197 98.0442C103.197 92.5793 99.5439 87.5439 92.9117 83.7297C79.1803 75.8345 56.7674 75.8746 42.9499 83.8197C36.2164 87.6914 32.5078 92.8342 32.5078 98.299C32.5078 103.764 36.1609 108.799 42.7931 112.614C49.6299 116.545 58.6206 118.509 67.6297 118.509H67.6319ZM68.0751 77.9417C77.0657 77.9417 86.0346 79.9014 92.8562 83.8251C99.4546 87.6188 103.087 92.6683 103.087 98.0442C103.087 103.42 99.398 108.577 92.7005 112.428C78.9113 120.358 56.5485 120.398 42.8508 112.518C36.2523 108.726 32.6199 103.675 32.6199 98.299C32.6199 92.9231 36.3089 87.7663 43.0065 83.9152C49.9283 79.935 59.0126 77.9417 68.0751 77.9417Z" fill="#009EF2"/>
<mask id="mask0_92_13437" style="mask-type:luminance" maskUnits="userSpaceOnUse" x="27" y="57" width="2" height="2">
<path d="M28.851 58.7102C28.7127 58.6235 28.6615 58.5909 28.5472 58.4901C28.422 58.3805 28.324 58.2558 28.3055 58.2287C28.1977 58.0769 28.1563 58.0162 28.0735 57.834C28.0071 57.6865 27.9755 57.5422 27.957 57.4565C28.0006 57.6821 28.1476 57.886 28.4013 58.0324C28.4601 58.335 28.6234 58.5779 28.851 58.7102Z" fill="white"/>
</mask>
<g mask="url(#mask0_92_13437)">
<path d="M28.851 58.7102C28.5417 58.5161 28.1127 58.1745 27.957 57.4565C28.0006 57.6821 28.1476 57.886 28.4013 58.0324C28.4601 58.335 28.6234 58.5779 28.851 58.7102Z" fill="#03519A" fill-opacity="0.92"/>
<path d="M28.4018 58.0328C28.4606 58.3354 28.6239 58.5783 28.8515 58.7106C28.8166 58.6889 28.7709 58.6607 28.7372 58.639C28.6794 58.5967 28.6021 58.5371 28.5477 58.4915L28.453 58.4004C28.4072 58.3506 28.3484 58.2833 28.306 58.2302L28.2319 58.1261C28.1993 58.0729 28.1568 58.0024 28.1274 57.9471L28.0751 57.8354C28.0544 57.7823 28.0272 57.7118 28.0098 57.6586L27.9782 57.5437L27.9597 57.458C28.0033 57.6836 28.1503 57.8875 28.404 58.0339L28.4018 58.0328Z" fill="#03519A" fill-opacity="0.92"/>
<path d="M28.4018 58.0328C28.4606 58.3354 28.6239 58.5783 28.8515 58.7106C28.8166 58.6889 28.7709 58.6607 28.7372 58.639C28.6794 58.5967 28.6021 58.5371 28.5477 58.4915L28.453 58.4004C28.4072 58.3506 28.3484 58.2833 28.306 58.2302L28.2319 58.1261C28.1993 58.0729 28.1568 58.0024 28.1274 57.9471L28.0751 57.8354C28.0544 57.7823 28.0272 57.7118 28.0098 57.6586L27.9782 57.5437L27.9597 57.458C28.0033 57.6836 28.1503 57.8875 28.404 58.0339L28.4018 58.0328Z" fill="#03519A" fill-opacity="0.92"/>
<path d="M28.4018 58.0328C28.4606 58.3354 28.6239 58.5783 28.8515 58.7106C28.8166 58.6889 28.7709 58.6607 28.7372 58.639C28.6794 58.5967 28.6021 58.5371 28.5477 58.4915L28.453 58.4004C28.4072 58.3506 28.3484 58.2833 28.306 58.2302L28.2319 58.1261C28.1993 58.0729 28.1568 58.0024 28.1274 57.9471L28.0751 57.8354C28.0544 57.7823 28.0272 57.7118 28.0098 57.6586L27.9782 57.5437L27.9597 57.458C28.0033 57.6836 28.1503 57.8875 28.404 58.0339L28.4018 58.0328Z" fill="#03519A" fill-opacity="0.92"/>
</g>
<mask id="mask1_92_13437" style="mask-type:luminance" maskUnits="userSpaceOnUse" x="28" y="58" width="2" height="1">
<path d="M29.1341 58.8728L28.852 58.7091C28.6245 58.5778 28.4611 58.3349 28.4023 58.0312L28.6844 58.195C28.7432 58.4976 28.9065 58.7405 29.1341 58.8728Z" fill="white"/>
</mask>
<g mask="url(#mask1_92_13437)">
<path d="M29.1341 58.8728L28.852 58.7091C28.6245 58.5778 28.4611 58.3349 28.4023 58.0312L28.6844 58.195C28.7432 58.4976 28.9065 58.7405 29.1341 58.8728Z" fill="#03519A" fill-opacity="0.92"/>
</g>
<mask id="mask2_92_13437" style="mask-type:luminance" maskUnits="userSpaceOnUse" x="28" y="57" width="4" height="3">
<path d="M31.7954 57.6745C31.7322 57.8199 31.5635 58.2038 31.3457 58.4738C31.2575 58.5834 31.1878 58.6604 31.0691 58.758C30.9798 58.8317 30.8416 58.9163 30.7686 58.9488C30.663 58.9966 30.5541 59.0454 30.381 59.0811C30.2383 59.1104 30.0957 59.1213 29.9552 59.1148C29.5415 59.0952 29.2649 58.9445 29.1321 58.8729C28.9045 58.7417 28.7412 58.4988 28.6824 58.1951C29.3063 58.5562 30.3342 58.4315 30.9777 57.9175C31.0038 58.0693 31.1791 58.1506 31.2107 58.1159C31.2074 58.1192 31.2052 58.1203 31.2052 58.1192C31.2052 58.1159 31.2727 58.0357 31.4012 57.7504C31.6342 57.7711 31.7649 57.7407 31.7943 57.6724L31.7954 57.6745Z" fill="white"/>
</mask>
<g mask="url(#mask2_92_13437)">
<path d="M31.7959 57.6745C31.6522 58.0031 31.3517 58.6875 30.7702 58.9488C30.2269 59.1939 29.6759 59.1679 29.1348 58.8729C28.9072 58.7417 28.7439 58.4988 28.6851 58.1951C29.309 58.5562 30.3368 58.4315 30.9804 57.9175C31.0065 58.0693 31.1818 58.1506 31.2134 58.1159C31.2101 58.1192 31.2079 58.1203 31.2079 58.1192C31.2079 58.1159 31.2754 58.0357 31.4039 57.7504C31.6369 57.7711 31.7676 57.7407 31.797 57.6724L31.7959 57.6745Z" fill="#03519A" fill-opacity="0.92"/>
<path d="M30.7445 58.0792C30.7892 58.0662 30.8665 58.0619 30.9765 58.1215C31.1594 58.2191 31.2019 58.1681 31.2117 58.1497C31.2117 58.14 31.2117 58.128 31.2117 58.1183C31.2117 58.1269 31.2117 58.1389 31.2127 58.1475C31.2498 58.1324 31.3401 57.9827 31.4479 57.7571C31.6526 57.7701 31.7681 57.7387 31.7953 57.6758C31.7822 57.7051 31.7648 57.7452 31.7517 57.7745C31.7387 57.8027 31.7223 57.8395 31.7082 57.8677L31.6657 57.9556C31.6526 57.9805 31.6363 58.0141 31.6232 58.038L31.5808 58.1161C31.5677 58.1378 31.5514 58.1671 31.5383 58.1898L31.4958 58.2592C31.4762 58.2896 31.449 58.3308 31.4294 58.3612L31.387 58.4198C31.3739 58.436 31.3576 58.4588 31.3445 58.4751L31.302 58.5282C31.289 58.5434 31.2715 58.564 31.2585 58.5792L31.2138 58.6269C31.1997 58.641 31.1812 58.6594 31.167 58.6735L31.1191 58.718C31.1039 58.731 31.0832 58.7494 31.0668 58.7625L31.0135 58.8037C30.995 58.8167 30.9721 58.834 30.9536 58.846L30.8959 58.8818L30.8687 58.898L30.7685 58.9512C30.7217 58.9718 30.6596 58.9989 30.6117 59.0173L30.4985 59.0542C30.4408 59.0683 30.3624 59.0867 30.3036 59.0976L30.1794 59.1128C30.1119 59.116 30.0226 59.1182 29.9551 59.1171L29.8266 59.1063C29.7548 59.0954 29.66 59.0781 29.5893 59.0618L29.463 59.0238C29.3149 58.9674 29.28 58.9544 29.133 58.8742C28.9055 58.7429 28.7421 58.5 28.6833 58.1963C29.2365 58.5163 30.1054 58.4555 30.7445 58.0792Z" fill="#03519A" fill-opacity="0.92"/>
<path d="M30.0839 58.3405C30.2657 58.3589 30.4149 58.4717 30.5902 58.5097C30.7709 58.5487 30.919 58.5476 31.029 58.5075C31.1923 58.4468 31.3894 58.3329 31.6714 57.7494C31.7389 57.7364 31.7803 57.7115 31.7955 57.6768C31.7825 57.706 31.765 57.7462 31.752 57.7754C31.7389 57.8036 31.7226 57.8405 31.7084 57.8687L31.666 57.9566C31.6529 57.9815 31.6366 58.0151 31.6235 58.039L31.581 58.1171C31.568 58.1388 31.5516 58.168 31.5386 58.1908L31.4961 58.2602C31.4765 58.2906 31.4493 58.3318 31.4297 58.3622L31.3872 58.4207C31.3741 58.437 31.3578 58.4598 31.3447 58.476L31.3023 58.5292C31.2892 58.5444 31.2718 58.565 31.2587 58.5802L31.2141 58.6279C31.1999 58.642 31.1814 58.6604 31.1673 58.6745L31.1194 58.719C31.1041 58.732 31.0834 58.7504 31.0671 58.7634L31.0137 58.8047C30.9952 58.8177 30.9724 58.835 30.9538 58.8469L30.8961 58.8827L30.8689 58.899L30.7687 58.9521C30.7219 58.9728 30.6599 58.9999 30.6119 59.0183L30.4987 59.0552C30.441 59.0693 30.3626 59.0877 30.3038 59.0986L30.1797 59.1137C30.1122 59.117 30.0229 59.1192 29.9554 59.1181L29.8269 59.1072C29.755 59.0964 29.6603 59.079 29.5895 59.0628L29.4632 59.0248C29.3151 58.9684 29.2803 58.9554 29.1333 58.8751C28.9057 58.7439 28.7424 58.501 28.6836 58.1973C29.0603 58.4153 29.5852 58.4565 30.0828 58.3416L30.0839 58.3405Z" fill="#03519A" fill-opacity="0.92"/>
<path d="M29.5567 58.4024C29.5861 58.4132 29.6133 58.448 29.6384 58.4686C29.6885 58.5087 29.9476 58.6865 30.2198 58.7646C30.308 58.7896 30.5748 58.8666 30.8568 58.7766C31.129 58.6898 31.4306 58.4978 31.7856 57.691C31.7889 57.6855 31.7921 57.6812 31.7943 57.6758C31.7812 57.7051 31.7638 57.7452 31.7508 57.7745C31.7377 57.8027 31.7214 57.8395 31.7072 57.8677L31.6647 57.9556C31.6517 57.9805 31.6353 58.0141 31.6223 58.038L31.5798 58.1161C31.5667 58.1378 31.5504 58.1671 31.5373 58.1898L31.4949 58.2592C31.4753 58.2896 31.4481 58.3308 31.4285 58.3612L31.386 58.4198C31.3729 58.436 31.3566 58.4588 31.3435 58.4751L31.3011 58.5282C31.288 58.5434 31.2706 58.564 31.2575 58.5792L31.2129 58.6269C31.1987 58.641 31.1802 58.6594 31.166 58.6735L31.1181 58.718C31.1029 58.731 31.0822 58.7494 31.0659 58.7625L31.0125 58.8037C30.994 58.8167 30.9711 58.834 30.9526 58.846L30.8949 58.8818L30.8677 58.898L30.7675 58.9512C30.7207 58.9718 30.6586 58.9989 30.6107 59.0173L30.4975 59.0542C30.4398 59.0683 30.3614 59.0867 30.3026 59.0976L30.1785 59.1128C30.1109 59.116 30.0217 59.1182 29.9542 59.1171L29.8257 59.1063C29.7538 59.0954 29.6591 59.0781 29.5883 59.0618L29.462 59.0238C29.3139 58.9674 29.2791 58.9544 29.1321 58.8742C28.9045 58.7429 28.7412 58.5 28.6824 58.1963C28.9274 58.3384 29.2344 58.4046 29.5556 58.4035L29.5567 58.4024Z" fill="#03519A" fill-opacity="0.92"/>
<path d="M31.2064 58.1213C31.2097 58.1452 31.214 58.1788 31.2162 58.2048C31.2162 58.2189 31.2238 58.2374 31.2173 58.2504C31.2162 58.2525 31.2119 58.2547 31.2097 58.2558C31.2097 58.2146 31.2097 58.1604 31.2097 58.1191C31.2075 58.1213 31.2053 58.1224 31.2053 58.1213H31.2064Z" fill="#03519A" fill-opacity="0.92"/>
<path d="M31.2063 58.1213L31.2139 58.1864L31.2107 58.1885C31.2107 58.1679 31.2096 58.1397 31.2085 58.1191L31.2063 58.1213Z" fill="#03519A" fill-opacity="0.92"/>
</g>
<mask id="mask3_92_13437" style="mask-type:luminance" maskUnits="userSpaceOnUse" x="31" y="46" width="5" height="12">
<path d="M35.9886 46.9171C35.3418 48.5775 34.6939 50.2379 34.0472 51.8972C33.2969 53.8222 32.5467 55.7472 31.7965 57.6711C31.7693 57.7405 31.6386 57.772 31.4023 57.7514L34.952 48.6447C35.43 48.045 35.7828 47.442 35.9886 46.916V46.9171Z" fill="white"/>
</mask>
<g mask="url(#mask3_92_13437)">
<path d="M31.4022 57.7525L34.9519 48.6459C34.9867 48.6025 35.0215 48.558 35.0542 48.5146L31.4512 57.7558C31.4349 57.7558 31.4185 57.7536 31.4011 57.7525H31.4022Z" fill="#03519A" fill-opacity="0.92"/>
<path d="M31.4524 57.7558L35.0554 48.5147C35.2557 48.2533 35.4321 47.993 35.5824 47.7393L35.4528 48.0722L35.3135 48.4312L35.1643 48.814L35.0064 49.2207L34.8398 49.6491L34.6656 50.097L34.4837 50.5644L34.2943 51.0492L34.0994 51.5502L33.8979 52.0665L33.6911 52.5957L33.4798 53.1369L33.2642 53.6889L33.0454 54.2507L32.8233 54.8211L32.5989 55.3981L32.3725 55.9805L32.1438 56.5672L31.9141 57.1561L31.6843 57.746C31.6277 57.7591 31.5515 57.7623 31.4557 57.7569L31.4524 57.7558Z" fill="#03519A" fill-opacity="0.92"/>
<path d="M31.6812 57.746L35.5814 47.7392C35.7295 47.4887 35.8536 47.2447 35.9494 47.0137L31.79 57.6842C31.7726 57.7124 31.7367 57.733 31.6812 57.7449V57.746Z" fill="#03519A" fill-opacity="0.92"/>
<path d="M31.7899 57.6842L32.0197 57.0932L32.2494 56.5032L32.4781 55.9154L32.7067 55.3298L32.9332 54.7474L33.1586 54.1693L33.3818 53.5967L33.6028 53.0306L33.8206 52.471L34.0362 51.919L34.2485 51.3756L34.4565 50.8421L34.6601 50.3182L34.8605 49.8053L35.0554 49.3042L35.2459 48.8162L35.431 48.3423L35.6096 47.8824L35.7827 47.4389L35.9493 47.0116C35.9624 46.979 35.9754 46.9465 35.9885 46.915L35.8176 47.3554L35.6401 47.8098L35.4572 48.2794L35.2688 48.762L35.0761 49.2576L34.8779 49.7651L34.6754 50.2835L34.4696 50.8117L34.2594 51.3496L34.046 51.8962L33.8293 52.4515L33.6105 53.0132L33.3894 53.5815L33.1662 54.1552L32.9408 54.7344L32.7133 55.3168L32.4846 55.9024L32.2548 56.4902L32.0251 57.0802L31.7954 57.6712C31.7954 57.6712 31.7921 57.6799 31.7888 57.6832L31.7899 57.6842Z" fill="#03519A" fill-opacity="0.92"/>
</g>
<path d="M30.0271 51.6089C31.4709 50.7402 34.2693 49.057 34.9531 48.646C34.4729 49.8769 32.9387 53.8148 31.4034 57.7526C31.2531 58.0845 31.1856 58.1376 31.2129 58.117C31.1813 58.1517 31.0071 58.0693 30.9798 57.9186C30.5966 55.3754 30.2046 52.7856 30.0271 51.6089Z" fill="#03519A" fill-opacity="0.92"/>
<mask id="mask4_92_13437" style="mask-type:luminance" maskUnits="userSpaceOnUse" x="26" y="49" width="3" height="10">
<path d="M27.9517 57.4272C27.7589 56.1475 27.5651 54.8688 27.3713 53.5891C27.0664 51.5698 26.8269 49.981 26.8247 49.9712C26.8312 50.0113 26.963 50.11 27.2265 50.2629L28.4003 58.0324C28.1357 57.8795 27.9865 57.6636 27.9506 57.4272H27.9517Z" fill="white"/>
</mask>
<g mask="url(#mask4_92_13437)">
<path d="M27.2276 50.2633L28.4014 58.0327C28.1368 57.8798 27.9876 57.664 27.9517 57.4276L27.8929 57.0404L27.8341 56.6532L27.7753 56.2672L27.7165 55.8811L27.6588 55.4961L27.6011 55.1122L27.5433 54.7293L27.4856 54.3476L27.4279 53.968L27.3713 53.5906L27.3147 53.2153L27.2581 52.8423L27.2025 52.4714L27.147 52.1037L27.0915 51.7393L27.037 51.3782L26.9826 51.0203L26.9292 50.6667L26.877 50.3175L26.8247 49.9727C26.8312 50.0128 26.963 50.1115 27.2265 50.2644L27.2276 50.2633Z" fill="#03519A" fill-opacity="0.92"/>
</g>
<mask id="mask5_92_13437" style="mask-type:luminance" maskUnits="userSpaceOnUse" x="26" y="45" width="10" height="6">
<path d="M26.8327 49.956C29.3023 48.4713 31.7707 46.9866 34.2391 45.5009C34.8107 45.1571 35.3171 45.0334 35.6241 45.2113L27.2269 50.2619C26.9198 50.084 26.7914 49.9799 26.8327 49.9549V49.956Z" fill="white"/>
</mask>
<g mask="url(#mask5_92_13437)">
<path d="M35.6248 45.2126L27.2276 50.2632C27.1579 50.2231 27.0981 50.1862 27.0469 50.1537L35.3886 45.1367C35.4768 45.1476 35.5562 45.1714 35.6259 45.2126H35.6248Z" fill="#03519A" fill-opacity="0.92"/>
<path d="M35.3874 45.138L27.0457 50.155C26.8704 50.0433 26.8007 49.9771 26.8323 49.9576L27.1971 49.7385L27.5673 49.5162L27.9408 49.2917L28.3186 49.0651L28.6986 48.8362L29.0808 48.6063L29.4652 48.3753L29.8495 48.1443L30.2339 47.9133L30.6172 47.6823L30.9993 47.4524L31.3783 47.2246L31.755 46.998L32.1274 46.7735L32.4954 46.5522L32.858 46.3343L33.2141 46.1195L33.5636 45.9091L33.9055 45.7031L34.2387 45.5024C34.6818 45.2357 35.0847 45.1023 35.3874 45.138Z" fill="#03519A" fill-opacity="0.92"/>
</g>
<path d="M27.5096 50.4267L27.2275 50.263L35.6248 45.2124L35.9079 45.3762L27.5096 50.4267Z" fill="#03519A" fill-opacity="0.92"/>
<path d="M28.6833 58.1964L28.4013 58.0326L27.2275 50.2632L27.5096 50.4269L28.6833 58.1964Z" fill="#03519A" fill-opacity="0.92"/>
<mask id="mask6_92_13437" style="mask-type:luminance" maskUnits="userSpaceOnUse" x="27" y="45" width="10" height="7">
<path d="M30.0271 51.6087C29.2616 51.3169 28.1347 50.7877 27.5107 50.4265L35.908 45.376C36.5319 45.7371 36.1039 47.2023 34.953 48.6469L30.0271 51.6097V51.6087Z" fill="white"/>
</mask>
<g mask="url(#mask6_92_13437)">
<path d="M34.952 48.647L30.0261 51.6099C29.9303 51.573 29.829 51.5329 29.7234 51.4906L35.3484 48.1069C35.2275 48.2859 35.0947 48.467 34.951 48.647H34.952Z" fill="#03519A" fill-opacity="0.92"/>
<path d="M35.3493 48.1058L29.7243 51.4895C29.2213 51.2834 28.6289 51.0112 28.1292 50.7585L36.191 45.9097C36.2291 46.44 35.9253 47.2512 35.3493 48.1058Z" fill="#03519A" fill-opacity="0.92"/>
<path d="M36.191 45.9096L28.1291 50.7584C28.0148 50.6998 27.9048 50.6435 27.8025 50.5881L36.1104 45.5918C36.1561 45.6807 36.1834 45.7881 36.1921 45.9096H36.191Z" fill="#03519A" fill-opacity="0.92"/>
<path d="M36.1094 45.592L27.8014 50.5883C27.7111 50.5395 27.6261 50.4929 27.5488 50.4484L35.9439 45.3989C36.0136 45.4477 36.0691 45.5128 36.1094 45.5909V45.592Z" fill="#03519A" fill-opacity="0.92"/>
<path d="M35.945 45.3998L27.5499 50.4493C27.5369 50.4417 27.5238 50.4341 27.5107 50.4265L35.908 45.376C35.921 45.3836 35.933 45.3912 35.945 45.3998Z" fill="#03519A" fill-opacity="0.92"/>
</g>
<mask id="mask7_92_13437" style="mask-type:luminance" maskUnits="userSpaceOnUse" x="27" y="50" width="4" height="9">
<path d="M30.9798 57.9186C30.3363 58.4326 29.3084 58.5573 28.6845 58.1962L27.5107 50.4268C28.1347 50.7879 29.2616 51.3171 30.0271 51.6089L30.9798 57.9186Z" fill="white"/>
</mask>
<g mask="url(#mask7_92_13437)">
<path d="M30.0271 51.609L30.9798 57.9187C30.8971 57.9848 30.8067 58.0456 30.7131 58.0987L29.7146 51.4854C29.8235 51.5298 29.9291 51.5721 30.0282 51.6101L30.0271 51.609Z" fill="#03519A" fill-opacity="0.92"/>
<path d="M29.7134 51.4851L30.7118 58.0984C30.5039 58.2156 30.2741 58.3001 30.0389 58.35L28.9512 51.1543C29.2114 51.2736 29.4716 51.3864 29.7123 51.4851H29.7134Z" fill="#03519A" fill-opacity="0.92"/>
<path d="M28.9524 51.1535L30.0401 58.3492C29.8648 58.3861 29.6873 58.4045 29.5142 58.4023L28.3774 50.8823C28.5636 50.9734 28.7585 51.0656 28.9524 51.1545V51.1535Z" fill="#03519A" fill-opacity="0.92"/>
<path d="M28.3775 50.8823L29.5142 58.4023C29.2083 58.3979 28.9175 58.3307 28.6845 58.1962L27.5107 50.4268C27.7448 50.5623 28.0486 50.7207 28.3786 50.8823H28.3775Z" fill="#03519A" fill-opacity="0.92"/>
</g>
<mask id="mask8_92_13437" style="mask-type:luminance" maskUnits="userSpaceOnUse" x="53" y="28" width="7" height="11">
<path d="M59.5502 28.4111C59.5459 28.5803 59.5448 28.8048 59.5339 28.974C59.5208 29.1768 59.5012 29.4468 59.4696 29.6475C59.4163 29.9913 59.3303 30.4478 59.2562 30.7884C59.2148 30.9782 59.1397 31.2265 59.0864 31.412C58.9731 31.8024 58.7455 32.4011 58.6769 32.5594C58.604 32.7275 58.5125 32.9542 58.432 33.1179C58.2708 33.4444 58.053 33.8782 57.8712 34.1927C57.7355 34.4262 57.5173 34.7671 57.2168 35.2154C57.1155 35.3661 56.9653 35.5559 56.8575 35.7012C56.7453 35.8531 56.3283 36.3563 56.0757 36.6187C55.9472 36.7521 55.7795 36.9321 55.6423 37.0569C55.3832 37.2933 55.0315 37.6002 54.7593 37.8193C54.6874 37.8768 54.2987 38.1826 53.6846 38.5405C54.057 38.3257 54.2845 37.8789 54.2834 37.2412C56.7181 35.8455 58.7259 32.3815 58.714 29.5976C59.2747 29.2755 59.5524 28.8471 59.5513 28.4111H59.5502Z" fill="white"/>
</mask>
<g mask="url(#mask8_92_13437)">
<path d="M59.5498 28.4111C59.5259 29.2397 59.4638 31.4402 57.8697 34.1927C57.1086 35.506 55.765 37.3269 53.6831 38.5405C54.0555 38.3257 54.2831 37.8789 54.282 37.2412C56.7166 35.8455 58.7245 32.3815 58.7125 29.5976C59.2733 29.2755 59.5509 28.8471 59.5498 28.4111Z" fill="#03519A" fill-opacity="0.92"/>
<path d="M54.2813 37.3005C56.2564 36.0761 58.4973 33.3854 58.8621 29.5029C59.3226 29.1938 59.5513 28.8044 59.5502 28.4097C59.5295 29.1341 59.5284 29.1775 59.4707 29.6449L59.3793 30.2165C59.339 30.403 59.2889 30.6535 59.2431 30.839L59.0864 31.4094C59.0286 31.5851 58.9546 31.8215 58.8925 31.9961L58.6769 32.5568C58.6029 32.7249 58.5093 32.9494 58.432 33.1154L58.163 33.6587C58.0748 33.8181 57.9616 34.0329 57.8701 34.1912L57.5543 34.7096C57.4531 34.8603 57.3213 35.0642 57.2157 35.2139L56.8564 35.6998C56.741 35.8418 56.5907 36.0327 56.472 36.1726L56.0746 36.6173C55.945 36.7485 55.7752 36.9274 55.6412 37.0554L55.209 37.4491C55.062 37.5695 54.8671 37.7332 54.7168 37.8493L54.2562 38.1811C54.0853 38.2896 53.8588 38.4371 53.6846 38.539C54.045 38.3319 54.2704 37.9057 54.2823 37.3005H54.2813Z" fill="#03519A" fill-opacity="0.92"/>
<path d="M54.2649 37.5406C54.3346 37.4321 54.5208 37.38 54.6308 37.3117C55.2394 36.9311 56.4513 35.9734 57.7242 33.8337C57.9387 33.4736 59.0178 31.5573 59.2421 29.1746C59.4479 28.9371 59.5502 28.6758 59.5502 28.4111C59.5295 29.1356 59.5284 29.179 59.4707 29.6464L59.3793 30.2179C59.339 30.4045 59.2889 30.655 59.2431 30.8404L59.0864 31.4109C59.0286 31.5866 58.9546 31.823 58.8925 31.9976L58.6769 32.5583C58.6029 32.7264 58.5093 32.9509 58.432 33.1168L58.163 33.6602C58.0748 33.8196 57.9616 34.0343 57.8701 34.1927L57.5543 34.7111C57.4531 34.8618 57.3213 35.0657 57.2157 35.2154L56.8564 35.7012C56.741 35.8433 56.5907 36.0342 56.472 36.1741L56.0746 36.6187C55.945 36.7499 55.7752 36.9289 55.6412 37.0569L55.209 37.4505C55.062 37.5709 54.8671 37.7347 54.7168 37.8507L54.2562 38.1826C54.0853 38.291 53.8588 38.4385 53.6846 38.5405C53.996 38.3615 54.2061 38.0199 54.266 37.5406H54.2649Z" fill="#03519A" fill-opacity="0.92"/>
<path d="M54.2188 37.7798C54.2994 37.6703 54.4889 37.6107 54.6043 37.538C55.018 37.2777 56.4749 36.2474 57.8556 33.8919C58.192 33.3182 59.3005 31.2587 59.4562 28.8446C59.5193 28.7025 59.5509 28.5572 59.5498 28.4097C59.5455 28.5789 59.5389 28.8033 59.5335 28.9725C59.5161 29.1742 59.4943 29.4443 59.4693 29.646L59.3778 30.2175C59.3375 30.4041 59.2874 30.6546 59.2417 30.8401L59.0849 31.4105C59.0272 31.5862 58.9531 31.8226 58.8911 31.9972L58.6755 32.5579C58.6014 32.726 58.5078 32.9505 58.4305 33.1164L58.1615 33.6598C58.0734 33.8192 57.9601 34.0339 57.8686 34.1923L57.5529 34.7107C57.4516 34.8614 57.3199 35.0653 57.2142 35.215L56.8549 35.7008C56.7395 35.8429 56.5892 36.0338 56.4706 36.1737L56.0731 36.6183C55.9436 36.7496 55.7737 36.9285 55.6398 37.0565L55.2075 37.4502C55.0605 37.5705 54.8656 37.7343 54.7153 37.8503L54.2548 38.1822C54.0838 38.2907 53.8573 38.4381 53.6831 38.5401C53.939 38.3926 54.1274 38.1345 54.2188 37.7809V37.7798Z" fill="#03519A" fill-opacity="0.92"/>
<path d="M54.1265 38.0418C54.2223 37.9333 54.4118 37.8628 54.5337 37.7869C54.7319 37.6633 56.5111 36.5007 57.9625 33.9347C58.6735 32.6767 59.5272 30.7051 59.549 28.4536L59.5337 28.9731C59.5163 29.1748 59.4945 29.4449 59.4695 29.6466L59.378 30.2181C59.3377 30.4047 59.2877 30.6552 59.2419 30.8406L59.0851 31.4111C59.0274 31.5868 58.9534 31.8232 58.8913 31.9978L58.6757 32.5585C58.6017 32.7266 58.508 32.9511 58.4307 33.117L58.1618 33.6604C58.0736 33.8198 57.9604 34.0345 57.8689 34.1929L57.5531 34.7112C57.4519 34.862 57.3201 35.0659 57.2145 35.2155L56.8552 35.7014C56.7398 35.8435 56.5895 36.0344 56.4708 36.1743L56.0734 36.6189C55.9438 36.7501 55.7739 36.9291 55.64 37.057L55.2077 37.4507C55.0607 37.5711 54.8658 37.7349 54.7156 37.8509L54.255 38.1828C54.084 38.2912 53.8576 38.4387 53.6833 38.5407C53.8717 38.4322 54.0231 38.2641 54.1265 38.0429V38.0418Z" fill="#03519A" fill-opacity="0.92"/>
</g>
<mask id="mask9_92_13437" style="mask-type:luminance" maskUnits="userSpaceOnUse" x="58" y="21" width="2" height="9">
<path d="M59.5284 21.019L59.5306 21.7587L59.5327 22.4983L59.5349 23.238L59.5371 23.9776L59.5393 24.7172L59.5414 25.4569L59.5436 26.1965L59.5458 26.9361L59.548 27.6758L59.5502 28.4154C59.5512 28.8514 59.2736 29.2787 58.7128 29.6008L58.6921 22.2088C59.2529 21.8867 59.5306 21.4583 59.5295 21.0234L59.5284 21.019Z" fill="white"/>
</mask>
<g mask="url(#mask9_92_13437)">
<path d="M58.7128 29.5965L58.6921 22.2045C58.7444 22.1752 58.7934 22.1438 58.8402 22.1123L58.8609 29.5043C58.8141 29.5358 58.764 29.5662 58.7128 29.5965Z" fill="#03519A" fill-opacity="0.92"/>
<path d="M58.861 29.5043L58.8403 22.1123C58.9928 22.0104 59.1191 21.8997 59.2203 21.7837L59.241 29.1757C59.1398 29.2918 59.0124 29.4024 58.861 29.5043Z" fill="#03519A" fill-opacity="0.92"/>
<path d="M59.2409 29.1758L59.2202 21.7838C59.3128 21.6786 59.3835 21.568 59.4347 21.4541L59.4554 28.8461C59.4042 28.96 59.3335 29.0695 59.2409 29.1758Z" fill="#03519A" fill-opacity="0.92"/>
<path d="M59.4555 28.8461L59.4348 21.4541C59.4925 21.3261 59.523 21.1949 59.5285 21.0615L59.5491 28.4536C59.5437 28.5859 59.5132 28.7182 59.4555 28.8461Z" fill="#03519A" fill-opacity="0.92"/>
<path d="M59.549 28.4534L59.5283 21.0613C59.5283 21.0472 59.5283 21.0331 59.5283 21.019L59.5305 21.7587L59.5327 22.4983L59.5349 23.238L59.537 23.9776L59.5392 24.7172L59.5414 25.4569L59.5436 26.1965L59.5457 26.9361L59.5479 27.6758V28.0456L59.5501 28.4154C59.5501 28.4295 59.5501 28.4436 59.5501 28.4577L59.549 28.4534Z" fill="#03519A" fill-opacity="0.92"/>
</g>
<mask id="mask10_92_13437" style="mask-type:luminance" maskUnits="userSpaceOnUse" x="49" y="14" width="8" height="2">
<path d="M49.8353 15.4837C50.113 15.3351 50.4886 15.1486 50.7739 15.0184C50.9122 14.9555 51.1027 14.8829 51.2486 14.8384C51.6377 14.7191 51.9753 14.632 52.2613 14.577C52.5041 14.5304 52.834 14.4979 53.0812 14.4881C53.336 14.4773 53.6768 14.4914 53.9305 14.5141C54.1308 14.5326 54.3954 14.5759 54.5903 14.6237C54.7711 14.667 55.0128 14.7278 55.1859 14.7961C55.3003 14.8406 55.4549 14.8948 55.5659 14.9458C55.7293 15.0217 55.9449 15.1301 56.1017 15.218C54.9094 14.5282 53.2608 14.6204 51.449 15.6626C50.812 15.2939 50.2371 15.2527 49.8342 15.4848L49.8353 15.4837Z" fill="white"/>
</mask>
<g mask="url(#mask10_92_13437)">
<path d="M49.8354 15.4841C50.6848 15.0286 53.2708 13.6448 56.104 15.2173C54.9117 14.5276 53.2632 14.6197 51.4513 15.662C50.8143 15.2932 50.2394 15.252 49.8365 15.4841H49.8354Z" fill="#03519A" fill-opacity="0.92"/>
<path d="M51.9274 15.4067C51.7673 15.4783 51.5604 15.6344 51.3851 15.6236C50.7743 15.2896 50.2255 15.2581 49.8357 15.4826C49.9762 15.4078 50.1624 15.308 50.3028 15.2321C50.771 15.0184 51.175 14.8341 51.8152 14.6703L52.2617 14.576C52.5066 14.5413 52.8344 14.5044 53.0816 14.487L53.5084 14.4849C53.712 14.499 53.9842 14.5207 54.1878 14.5467L54.5929 14.6237C54.7725 14.6714 55.0121 14.7376 55.1885 14.7961L55.5685 14.9458C55.7307 15.025 55.9474 15.1301 56.1042 15.218C55.0175 14.589 53.5509 14.6107 51.9274 15.4078V15.4067Z" fill="#03519A" fill-opacity="0.92"/>
<path d="M53.294 14.9057C52.3583 15.0691 51.639 15.2679 51.1359 15.5021C50.6263 15.2852 50.1723 15.2896 49.8369 15.4826C49.9774 15.4078 50.1636 15.308 50.304 15.2321C50.7722 15.0184 51.1762 14.8341 51.8164 14.6703L52.2629 14.576C52.5079 14.5413 52.8356 14.5044 53.0828 14.487L53.5096 14.4849C53.7132 14.499 53.9854 14.5207 54.1891 14.5467L54.5941 14.6237C54.7738 14.6714 55.0133 14.7376 55.1897 14.7961L55.5697 14.9458C55.732 15.025 55.9486 15.1301 56.1054 15.218C55.3334 14.7712 54.3698 14.653 53.2951 14.9067L53.294 14.9057Z" fill="#03519A" fill-opacity="0.92"/>
<path d="M54.3807 14.7733C53.4367 14.7072 52.461 14.6378 50.8855 15.4121C50.4782 15.2928 50.1167 15.3221 49.8369 15.4826C49.9774 15.4078 50.1636 15.308 50.304 15.2321C50.7722 15.0184 51.1762 14.8341 51.8164 14.6703L52.2629 14.576C52.5079 14.5413 52.8356 14.5044 53.0828 14.487L53.5096 14.4849C53.7132 14.499 53.9854 14.5207 54.1891 14.5467L54.5941 14.6237C54.7738 14.6714 55.0133 14.7376 55.1897 14.7961L55.5697 14.9458C55.732 15.025 55.9486 15.1301 56.1054 15.218C55.6046 14.9284 55.022 14.7755 54.3818 14.7744L54.3807 14.7733Z" fill="#03519A" fill-opacity="0.92"/>
<path d="M55.3694 14.9067C54.5854 14.6638 52.9532 14.1573 50.6231 15.3546C50.3225 15.3123 50.0547 15.3579 49.8369 15.4826C49.9774 15.4078 50.1636 15.308 50.304 15.2321C50.7722 15.0184 51.1762 14.8341 51.8164 14.6703L52.2629 14.576C52.5079 14.5413 52.8356 14.5044 53.0828 14.487L53.5096 14.4849C53.7132 14.499 53.9854 14.5207 54.1891 14.5467L54.5941 14.6237C54.7738 14.6714 55.0133 14.7376 55.1897 14.7961L55.5697 14.9458C55.732 15.025 55.9486 15.1301 56.1054 15.218C55.8768 15.0857 55.6307 14.9816 55.3705 14.9078L55.3694 14.9067Z" fill="#03519A" fill-opacity="0.92"/>
<path d="M54.6647 14.641C52.5676 14.1541 50.8766 15.0477 50.3213 15.3416C50.1417 15.3536 49.9783 15.4013 49.8357 15.4826C49.9762 15.4078 50.1624 15.308 50.3028 15.2321C50.771 15.0184 51.175 14.8341 51.8152 14.6703L52.2617 14.576C52.5066 14.5413 52.8344 14.5044 53.0816 14.487L53.5084 14.4849C53.712 14.499 53.9842 14.5207 54.1878 14.5467L54.5929 14.6237C54.7246 14.6584 54.901 14.7018 55.0306 14.743L54.6658 14.6421L54.6647 14.641Z" fill="#03519A" fill-opacity="0.92"/>
</g>
<mask id="mask11_92_13437" style="mask-type:luminance" maskUnits="userSpaceOnUse" x="51" y="14" width="6" height="2">
<path d="M56.104 15.2168L56.6593 15.5378C55.467 14.848 53.8185 14.9402 52.0066 15.9824L51.4524 15.6614C53.2642 14.6192 54.9128 14.527 56.105 15.2168H56.104Z" fill="white"/>
</mask>
<g mask="url(#mask11_92_13437)">
<path d="M52.0054 15.982L51.4512 15.661C51.6101 15.5688 51.7691 15.4853 51.9259 15.4072L52.4812 15.7282C52.3244 15.8052 52.1665 15.8898 52.0065 15.982H52.0054Z" fill="#03519A" fill-opacity="0.92"/>
<path d="M52.4801 15.7284L51.9248 15.4074C52.3963 15.1753 52.8536 15.0094 53.2924 14.9053L53.8466 15.2263C53.4078 15.3304 52.9494 15.4963 52.479 15.7284H52.4801Z" fill="#03519A" fill-opacity="0.92"/>
<path d="M53.8479 15.2263L53.2937 14.9053C53.6704 14.8163 54.0341 14.7729 54.3804 14.7729L54.9346 15.094C54.5883 15.094 54.2247 15.1373 53.8479 15.2263Z" fill="#03519A" fill-opacity="0.92"/>
<path d="M54.9346 15.0949L54.3804 14.7739C54.7277 14.7739 55.0587 14.8195 55.368 14.9073L55.9222 15.2283C55.6129 15.1405 55.2819 15.096 54.9346 15.0949Z" fill="#03519A" fill-opacity="0.92"/>
<path d="M55.9221 15.2273L55.3679 14.9062C55.6292 14.98 55.8753 15.0841 56.104 15.2164L56.6593 15.5374C56.4296 15.4051 56.1835 15.301 55.9232 15.2273H55.9221Z" fill="#03519A" fill-opacity="0.92"/>
</g>
<mask id="mask12_92_13437" style="mask-type:luminance" maskUnits="userSpaceOnUse" x="52" y="15" width="8" height="8">
<path d="M56.6581 15.5381C56.8661 15.6693 57.1416 15.8482 57.3343 16.0011C57.5151 16.1454 57.7394 16.359 57.9005 16.526C58.2707 16.9121 58.593 17.4143 58.7563 17.7266C58.8576 17.9186 58.9817 18.181 59.058 18.3849C59.1505 18.6289 59.2583 18.9608 59.3182 19.2146C59.3879 19.5095 59.4521 19.9097 59.487 20.2112C59.5153 20.452 59.5229 20.7762 59.5283 21.0192C59.5294 21.4552 59.2518 21.8824 58.691 22.2045C58.6867 19.4152 56.6658 18.2689 54.2311 19.6733C54.2278 18.3448 53.2304 16.692 52.0044 15.9827C53.8162 14.9405 55.4648 14.8483 56.657 15.5381H56.6581Z" fill="white"/>
</mask>
<g mask="url(#mask12_92_13437)">
<path d="M56.6581 15.5381C57.8602 16.2961 59.4641 17.6886 59.5283 21.0192C59.5294 21.4552 59.2518 21.8824 58.691 22.2045C58.6867 19.4152 56.6658 18.2689 54.2311 19.6733C54.2278 18.3448 53.2304 16.692 52.0044 15.9827C53.8162 14.9405 55.4648 14.8483 56.657 15.5381H56.6581Z" fill="#03519A" fill-opacity="0.92"/>
<path d="M58.691 22.2046C58.6867 19.4152 56.6658 18.2689 54.2311 19.6733C54.23 19.1874 54.095 18.6582 53.8663 18.1474C53.9153 18.0964 53.9807 18.0281 54.0297 17.976C54.818 16.8915 53.8206 16.8633 53.1553 16.9425C53.1433 16.9436 53.1292 16.9468 53.1172 16.949C52.7895 16.5542 52.4094 16.217 52.0044 15.9827C53.8162 14.9405 55.4648 14.8483 56.657 15.5381C56.7616 15.6042 56.901 15.6921 57.0044 15.7571C57.1895 15.8949 57.4312 16.0857 57.6054 16.2354L57.8983 16.526C58.0214 16.6681 58.1847 16.8579 58.299 17.0065L58.5397 17.3579C58.6453 17.539 58.7825 17.783 58.8772 17.9706L59.0569 18.386C59.1429 18.6322 59.2474 18.964 59.3171 19.2156L59.4184 19.7058C59.5011 20.3218 59.5164 20.4335 59.5273 21.0203C59.5283 21.4562 59.2507 21.8835 58.6899 22.2056L58.691 22.2046Z" fill="#03519A" fill-opacity="0.92"/>
<path d="M58.691 22.2049C58.6867 19.4156 56.6658 18.2692 54.2311 19.6737C54.2311 19.3353 54.1647 18.9753 54.0471 18.6152C54.1636 18.5295 54.3193 18.4146 54.4358 18.3289C56.5765 16.8474 55.1305 16.4689 54.4097 16.3746C53.7498 16.2878 53.1237 16.4548 52.7503 16.5546C52.5172 16.3301 52.2657 16.1349 52.0044 15.9842C53.8162 14.942 55.4648 14.8498 56.657 15.5395C56.7616 15.6057 56.901 15.6935 57.0044 15.7586C57.1895 15.8963 57.4312 16.0872 57.6054 16.2369L57.8983 16.5275C58.0214 16.6696 58.1847 16.8594 58.299 17.0079L58.5397 17.3593C58.6453 17.5404 58.7825 17.7845 58.8772 17.9721L59.0569 18.3874C59.1429 18.6336 59.2474 18.9655 59.3171 19.2171L59.4184 19.7073C59.5011 20.3233 59.5164 20.435 59.5273 21.0217C59.5283 21.4577 59.2507 21.885 58.6899 22.2071L58.691 22.2049Z" fill="#03519A" fill-opacity="0.92"/>
<path d="M58.6914 22.2042C58.687 19.4148 56.6661 18.2685 54.2315 19.6729C54.2315 19.4387 54.1999 19.1946 54.1411 18.9474C54.2565 18.8747 54.41 18.7771 54.5255 18.7034C55.8379 17.9529 56.5086 17.4934 56.5377 17.325C56.5387 17.3163 56.5812 16.4617 54.9817 16.0431C53.9745 15.7795 52.8737 16.1537 52.4599 16.2947C52.3129 16.1765 52.1616 16.0713 52.0059 15.9812C53.8177 14.939 55.4662 14.8468 56.6585 15.5366C56.7631 15.6027 56.9024 15.6906 57.0059 15.7557C57.191 15.8934 57.4327 16.0843 57.6069 16.2339L57.8998 16.5246C58.0228 16.6667 58.1862 16.8564 58.3005 17.005L58.5411 17.3564C58.6468 17.5375 58.784 17.7815 58.8787 17.9692L59.0583 18.3845C59.1444 18.6307 59.2489 18.9626 59.3186 19.2142L59.4198 19.7044C59.5026 20.3204 59.5178 20.4321 59.5287 21.0188C59.5298 21.4548 59.2522 21.8821 58.6914 22.2042Z" fill="#03519A" fill-opacity="0.92"/>
<path d="M58.691 22.2046C58.6867 19.4152 56.6658 18.2689 54.2311 19.6733C54.2311 19.5291 54.218 19.3805 54.1952 19.2297C54.3073 19.1647 54.4554 19.0768 54.5675 19.0117C55.1991 18.694 55.5257 18.5422 56.6658 18.2656C57.2178 18.1322 57.3245 18.0205 57.4029 17.7092C57.4388 17.5683 57.2102 16.3688 55.3733 15.8081C54.7429 15.6151 53.679 15.5099 52.1939 16.1009C52.1318 16.0586 52.0686 16.0196 52.0044 15.9827C53.8162 14.9405 55.4648 14.8483 56.657 15.5381C56.7616 15.6042 56.901 15.6921 57.0044 15.7571C57.1895 15.8949 57.4312 16.0857 57.6054 16.2354L57.8983 16.526C58.0214 16.6681 58.1847 16.8579 58.299 17.0065L58.5397 17.3579C58.6453 17.539 58.7825 17.783 58.8772 17.9706L59.0569 18.386C59.1429 18.6322 59.2474 18.964 59.3171 19.2156L59.4184 19.7058C59.5011 20.3218 59.5164 20.4335 59.5273 21.0203C59.5283 21.4562 59.2507 21.8835 58.6899 22.2056L58.691 22.2046Z" fill="#03519A" fill-opacity="0.92"/>
<path d="M58.691 22.2044C58.6867 19.415 56.6658 18.2687 54.2311 19.6731C54.2311 19.6124 54.2289 19.5495 54.2246 19.4877C54.3269 19.4313 54.463 19.3554 54.5654 19.299C55.5138 18.8565 56.203 18.6645 57.3398 18.8392C57.7797 18.9064 58.0704 18.9509 58.1716 18.6103C58.2881 18.221 57.9375 16.4196 55.6597 15.6279C55.4169 15.5433 54.1255 15.1518 52.4802 15.7277C54.1037 14.9295 55.5693 14.9078 56.6571 15.5379C56.7616 15.6041 56.901 15.6919 57.0044 15.757C57.1895 15.8947 57.4312 16.0856 57.6054 16.2352L57.8983 16.5259C58.0214 16.668 58.1847 16.8577 58.299 17.0063L58.5397 17.3577C58.6453 17.5388 58.7825 17.7828 58.8772 17.9705L59.0569 18.3858C59.1429 18.632 59.2474 18.9639 59.3171 19.2155L59.4184 19.7057C59.5011 20.3217 59.5164 20.4334 59.5273 21.0201C59.5283 21.4561 59.2507 21.8834 58.6899 22.2055L58.691 22.2044Z" fill="#03519A" fill-opacity="0.92"/>
<path d="M58.8402 22.1123C58.9578 20.0159 59.0427 18.5019 58.0377 17.1159C57.4824 16.3492 56.1997 15.0857 53.8489 15.2278C54.9236 14.9729 55.8872 15.0922 56.6592 15.5391C56.7637 15.6052 56.9031 15.6931 57.0065 15.7581C57.1916 15.8959 57.4334 16.0867 57.6076 16.2364L57.9005 16.5271C58.0235 16.6691 58.1869 16.8589 58.3012 17.0075L58.5418 17.3589C58.6474 17.54 58.7846 17.784 58.8794 17.9716L59.059 18.387C59.145 18.6332 59.2496 18.965 59.3193 19.2166L59.4205 19.7068C59.5033 20.3228 59.5185 20.4345 59.5294 21.0213C59.5294 21.416 59.3018 21.8054 58.8402 22.1145V22.1123Z" fill="#03519A" fill-opacity="0.92"/>
<path d="M59.2202 21.7839C59.6655 16.2594 56.0527 15.2681 54.9355 15.0957C55.5758 15.0968 56.1583 15.2486 56.6592 15.5393C56.7637 15.6054 56.9031 15.6933 57.0065 15.7583C57.1916 15.8961 57.4334 16.0869 57.6076 16.2366L57.9005 16.5273C58.0235 16.6693 58.1869 16.8591 58.3012 17.0077L58.5418 17.3591C58.6474 17.5402 58.7846 17.7842 58.8794 17.9718L59.059 18.3872C59.145 18.6334 59.2496 18.9652 59.3193 19.2168L59.4205 19.707C59.5033 20.3231 59.5185 20.4348 59.5294 21.0215C59.5294 21.2872 59.4271 21.5485 59.2202 21.7861V21.7839Z" fill="#03519A" fill-opacity="0.92"/>
<path d="M59.4335 21.4553V20.2732C59.4248 20.0997 59.378 19.6875 59.3214 19.4088C59.1385 18.5054 58.8499 17.9252 58.6474 17.5673C57.7382 15.9557 56.3717 15.4081 55.9231 15.228C56.1833 15.3018 56.4294 15.4048 56.6581 15.5382C56.7626 15.6044 56.902 15.6922 57.0054 15.7573C57.1905 15.895 57.4322 16.0859 57.6065 16.2355L57.8994 16.5262C58.0224 16.6683 58.1857 16.858 58.3001 17.0066L58.5407 17.358C58.6463 17.5391 58.7835 17.7831 58.8782 17.9708L59.0579 18.3861C59.1439 18.6323 59.2484 18.9642 59.3181 19.2158L59.4194 19.706C59.5021 20.322 59.5174 20.4337 59.5283 21.0204C59.5283 21.1679 59.4967 21.3143 59.4335 21.4564V21.4553Z" fill="#03519A" fill-opacity="0.92"/>
<path d="M59.5283 21.0623C59.5283 20.8313 59.5076 20.4333 59.5 20.3335L59.5272 20.8584L59.5294 21.0178C59.5294 21.0319 59.5294 21.0471 59.5294 21.0612L59.5283 21.0623Z" fill="#03519A" fill-opacity="0.92"/>
</g>
<mask id="mask13_92_13437" style="mask-type:luminance" maskUnits="userSpaceOnUse" x="33" y="37" width="22" height="14">
<path d="M53.6834 38.5392L51.6571 39.705L49.6307 40.8709L47.6044 42.0367L45.578 43.2026L43.5517 44.3684L41.5253 45.5343L39.499 46.7001L37.4726 47.866L35.4463 49.0318L33.4199 50.1977C33.7923 49.9829 34.0199 49.5361 34.0177 48.8984L54.2856 37.2432C54.2877 37.8809 54.0602 38.3277 53.6878 38.5424L53.6834 38.5392Z" fill="white"/>
</mask>
<g mask="url(#mask13_92_13437)">
<path d="M34.0144 48.895L54.2823 37.2397C54.2823 37.2604 54.2823 37.2799 54.2823 37.3005L34.0144 48.9557C34.0144 48.9362 34.0144 48.9156 34.0144 48.895Z" fill="#03519A" fill-opacity="0.92"/>
<path d="M34.0133 48.9555L54.2811 37.3003C54.279 37.3838 54.2735 37.463 54.2637 37.54L33.9958 49.1952C34.0056 49.1193 34.0111 49.039 34.0133 48.9555Z" fill="#03519A" fill-opacity="0.92"/>
<path d="M33.997 49.1953L54.2649 37.54C54.254 37.6235 54.2398 37.7038 54.2203 37.7786L33.9524 49.4339C33.972 49.359 33.9872 49.2788 33.997 49.1953Z" fill="#03519A" fill-opacity="0.92"/>
<path d="M33.9513 49.4341L54.2192 37.7788C54.1941 37.8742 54.1625 37.9621 54.1255 38.0434L33.8577 49.6987C33.8958 49.6173 33.9274 49.5295 33.9513 49.4341Z" fill="#03519A" fill-opacity="0.92"/>
<path d="M33.8576 49.6987L54.1255 38.0435C54.0221 38.2647 53.8718 38.4317 53.6834 38.5391L51.6571 39.7049L49.6307 40.8708L47.6044 42.0366L45.578 43.2025L43.5517 44.3683L41.5253 45.5342L39.499 46.7L37.4726 47.8659L35.4463 49.0317L33.4199 50.1976C33.6072 50.0891 33.7586 49.9232 33.862 49.702L33.8576 49.6987Z" fill="#03519A" fill-opacity="0.92"/>
</g>
<mask id="mask14_92_13437" style="mask-type:luminance" maskUnits="userSpaceOnUse" x="23" y="44" width="4" height="7">
<path d="M26.5938 50.1403C26.3859 50.0091 26.1126 49.8269 25.9177 49.6772C25.775 49.5677 25.5954 49.4061 25.4712 49.2759C25.2484 49.0402 25.0281 48.7727 24.8103 48.4734C24.6894 48.3075 24.5566 48.0689 24.4619 47.8867C24.3367 47.6481 24.1973 47.3162 24.1091 47.0625C24.0231 46.8152 23.9381 46.4768 23.8793 46.222C23.8543 46.1113 23.7269 45.5138 23.7236 44.6592C23.7247 45.1255 24.0448 45.6005 24.6786 45.9671C24.684 48.0147 25.4168 49.4592 26.5938 50.1403Z" fill="white"/>
</mask>
<g mask="url(#mask14_92_13437)">
<path d="M26.5938 50.1403C26.0973 49.8269 25.1729 49.2434 24.4619 47.8867C23.9773 46.9605 23.728 45.8749 23.7236 44.6592C23.7247 45.1255 24.0448 45.6005 24.6786 45.9671C24.684 48.0147 25.4168 49.4592 26.5938 50.1403Z" fill="#03519A" fill-opacity="0.92"/>
</g>
<mask id="mask15_92_13437" style="mask-type:luminance" maskUnits="userSpaceOnUse" x="24" y="45" width="4" height="6">
<path d="M27.1481 50.4615L26.5928 50.1405C25.4157 49.4594 24.6829 48.0148 24.6775 45.9673L25.2328 46.2883C25.2382 48.3359 25.971 49.7804 27.1481 50.4615Z" fill="white"/>
</mask>
<g mask="url(#mask15_92_13437)">
<path d="M27.1481 50.4615L26.5928 50.1405C25.4157 49.4594 24.6829 48.0148 24.6775 45.9673L25.2328 46.2883C25.2382 48.3359 25.971 49.7804 27.1481 50.4615Z" fill="#03519A" fill-opacity="0.92"/>
</g>
<mask id="mask16_92_13437" style="mask-type:luminance" maskUnits="userSpaceOnUse" x="25" y="46" width="10" height="6">
<path d="M33.4166 50.1946C33.1379 50.3443 32.7622 50.5373 32.4726 50.662C32.2526 50.7575 31.9499 50.8627 31.7202 50.9288C31.4534 51.0058 31.0919 51.0861 30.8175 51.1284C30.5682 51.1663 30.2306 51.1837 29.978 51.1945C29.7679 51.2032 29.4858 51.1848 29.2768 51.1587C29.0307 51.1284 28.7041 51.0676 28.4645 51.0058C28.2838 50.9592 28.0453 50.8822 27.8733 50.8106C27.65 50.7184 27.3615 50.5731 27.1492 50.4603C25.9721 49.7792 25.2393 48.3347 25.2339 46.2871C26.4599 46.9964 28.3948 47.03 29.5555 46.363C29.5599 49.1524 31.5797 50.2998 34.0155 48.8943C34.0176 49.532 33.7901 49.9788 33.4177 50.1935L33.4166 50.1946Z" fill="white"/>
</mask>
<g mask="url(#mask16_92_13437)">
<path d="M33.4165 50.195C32.1033 50.8977 31.2682 51.1407 29.9779 51.196C28.6386 51.2535 27.5171 50.6581 27.148 50.4618C25.9709 49.7807 25.2381 48.3361 25.2327 46.2886C26.4587 46.9978 28.3936 47.0315 29.5543 46.3645C29.5587 49.1539 31.5785 50.3013 34.0142 48.8957C34.0164 49.5334 33.7889 49.9803 33.4165 50.195Z" fill="#03519A" fill-opacity="0.92"/>
<path d="M27.6673 46.8417C27.8829 47.1063 28.1432 47.3536 28.4404 47.5759C28.8052 47.8492 29.207 48.0683 29.5641 48.3524C30.4025 49.0205 30.9422 49.3946 31.1832 49.4749C32.3363 49.8588 33.5994 49.1799 34.0153 48.9565C34.0034 49.5616 33.778 49.9878 33.4176 50.195C33.2771 50.2709 33.0887 50.3707 32.9472 50.4466C32.3679 50.7112 32.2634 50.7589 31.72 50.9303L31.2693 51.0463C31.0123 51.094 30.6682 51.1472 30.408 51.1765L29.9779 51.196C29.7677 51.1906 29.4868 51.1786 29.2767 51.1602L28.8672 51.0984C28.6832 51.0561 28.4382 50.9997 28.2575 50.9476L27.872 50.8121C27.651 50.7156 27.3603 50.5746 27.148 50.4618C25.9709 49.7807 25.2381 48.3361 25.2327 46.2886C25.911 46.6812 26.8061 46.8666 27.6673 46.8417Z" fill="#03519A" fill-opacity="0.92"/>
<path d="M26.9102 46.8088C26.9962 46.8641 27.0343 47.0116 27.0877 47.0983C27.0899 47.1027 27.336 47.4942 27.8608 48.031C28.243 48.4225 28.7144 48.762 29.0585 49.0092C29.065 49.0147 29.7597 49.5059 30.4446 49.7369C31.8558 50.212 33.0317 49.7293 33.9964 49.1936C33.9366 49.673 33.7275 50.0135 33.4161 50.1935C33.2756 50.2694 33.0873 50.3692 32.9457 50.4451C32.3664 50.7097 32.2619 50.7575 31.7186 50.9288L31.2678 51.0449C31.0108 51.0926 30.6667 51.1457 30.4065 51.175L29.9764 51.1945C29.7663 51.1891 29.4853 51.1772 29.2752 51.1587L28.8658 51.0969C28.6818 51.0546 28.4368 50.9982 28.256 50.9462L27.8706 50.8106C27.6495 50.7141 27.3588 50.5731 27.1465 50.4603C25.9694 49.7792 25.2366 48.3347 25.2312 46.2871C25.7114 46.5647 26.3005 46.7394 26.9091 46.8088H26.9102Z" fill="#03519A" fill-opacity="0.92"/>
<path d="M26.2605 46.6931C26.352 46.7668 26.3792 46.9393 26.4293 47.0445C26.5338 47.2614 27.5193 49.1886 29.9398 50.0518C31.732 50.6906 33.4023 49.746 33.9522 49.4358C33.8607 49.7894 33.6734 50.0475 33.4176 50.195C33.2771 50.2709 33.0887 50.3707 32.9472 50.4466C32.3679 50.7112 32.2634 50.7589 31.72 50.9303L31.2693 51.0463C31.0123 51.094 30.6682 51.1472 30.408 51.1765L29.9779 51.196C29.7677 51.1906 29.4868 51.1786 29.2767 51.1602L28.8672 51.0984C28.6832 51.0561 28.4382 50.9997 28.2575 50.9476L27.872 50.8121C27.651 50.7156 27.3603 50.5746 27.148 50.4618C25.9709 49.7807 25.2381 48.3361 25.2327 46.2886C25.5386 46.4653 25.8892 46.6009 26.2605 46.6931Z" fill="#03519A" fill-opacity="0.92"/>
<path d="M25.6101 46.4758C26.8427 49.7565 30.265 51.8582 33.8593 49.6957C33.7558 49.9181 33.6045 50.0851 33.4161 50.1935C33.2756 50.2694 33.0873 50.3692 32.9457 50.4451C32.3664 50.7097 32.2619 50.7575 31.7186 50.9288L31.2678 51.0449C31.0108 51.0926 30.6667 51.1457 30.4065 51.175L29.9764 51.1945C29.7663 51.1891 29.4853 51.1772 29.2752 51.1587L28.8658 51.0969C28.6818 51.0546 28.4368 50.9982 28.256 50.9462L27.8706 50.8106C27.6495 50.7141 27.3588 50.5731 27.1465 50.4603C25.9694 49.7792 25.2366 48.3347 25.2312 46.2871C25.351 46.3565 25.4773 46.4194 25.609 46.4758H25.6101Z" fill="#03519A" fill-opacity="0.92"/>
</g>
<mask id="mask17_92_13437" style="mask-type:luminance" maskUnits="userSpaceOnUse" x="23" y="37" width="2" height="9">
<path d="M23.7237 44.6591L23.7215 43.9194L23.7193 43.1798L23.7171 42.4402L23.715 41.7005L23.7128 40.9609L23.7106 40.2212L23.7084 39.4816L23.7063 38.742L23.7041 38.0023L23.7019 37.2627C23.703 37.729 24.0231 38.2041 24.6568 38.5706L24.6775 45.9627C24.0438 45.5961 23.7237 45.1211 23.7226 44.6547L23.7237 44.6591Z" fill="white"/>
</mask>
<g mask="url(#mask17_92_13437)">
<path d="M24.6564 38.5735L24.6771 45.9655C24.0434 45.599 23.7233 45.1239 23.7222 44.6576L23.72 43.918L23.7179 43.1783L23.7157 42.4387L23.7135 41.6991L23.7113 40.9594L23.7092 40.2198L23.707 39.4801L23.7048 38.7405L23.7026 38.0009L23.7004 37.2612C23.7015 37.7276 24.0217 38.2026 24.6554 38.5692L24.6564 38.5735Z" fill="#03519A" fill-opacity="0.92"/>
</g>
<mask id="mask18_92_13437" style="mask-type:luminance" maskUnits="userSpaceOnUse" x="29" y="15" width="23" height="13">
<path d="M29.5686 27.1379L31.5949 25.972L33.6213 24.8062L35.6476 23.6403L37.674 22.4745L39.7003 21.3086L41.7267 20.1428L43.753 18.9769L45.7794 17.8111L47.8057 16.6452L49.8321 15.4794C50.236 15.2473 50.8099 15.2885 51.4468 15.6572L31.179 27.3125C30.542 26.9437 29.9682 26.9025 29.5642 27.1346L29.5686 27.1379Z" fill="white"/>
</mask>
<g mask="url(#mask18_92_13437)">
<path d="M51.45 15.6614L31.1821 27.3166C31.1604 27.3036 31.1386 27.2917 31.1157 27.2798L51.3847 15.6245C51.4064 15.6364 51.4282 15.6484 51.4511 15.6614H51.45Z" fill="#03519A" fill-opacity="0.92"/>
<path d="M51.3846 15.6249L31.1168 27.2801C31.0318 27.2335 30.9491 27.1934 30.8674 27.1587L51.1353 15.5034C51.217 15.5381 51.3008 15.5782 51.3846 15.6249Z" fill="#03519A" fill-opacity="0.92"/>
<path d="M51.1352 15.5032L30.8674 27.1585C30.7825 27.1227 30.6986 27.0923 30.6169 27.0684L50.8848 15.4121C50.9665 15.436 51.0503 15.4663 51.1352 15.5021V15.5032Z" fill="#03519A" fill-opacity="0.92"/>
<path d="M50.8849 15.412L30.617 27.0672C30.5266 27.0412 30.4384 27.0217 30.3535 27.0097L50.6203 15.3545C50.7052 15.3664 50.7934 15.3859 50.8838 15.412H50.8849Z" fill="#03519A" fill-opacity="0.92"/>
<path d="M50.6203 15.3548L30.3524 27.0101C30.2479 26.9949 30.1466 26.9916 30.0508 26.997L50.3186 15.3418C50.4145 15.3353 50.5157 15.3396 50.6203 15.3548Z" fill="#03519A" fill-opacity="0.92"/>
<path d="M50.3187 15.3416L30.0508 26.9969C29.8723 27.0088 29.7089 27.0565 29.5674 27.1379L31.5937 25.972L33.6201 24.8062L35.6464 23.6403L37.6728 22.4745L39.6991 21.3086L41.7255 20.1428L43.7518 18.9769L45.7782 17.8111L47.8045 16.6452L49.8309 15.4794C49.9724 15.398 50.1358 15.3503 50.3143 15.3384L50.3187 15.3416Z" fill="#03519A" fill-opacity="0.92"/>
</g>
<path d="M25.2327 46.2884L24.6774 45.9673L24.6567 38.5742L25.2121 38.8963L25.2327 46.2884Z" fill="#03519A" fill-opacity="0.92"/>
<path d="M31.7376 27.6368L31.1833 27.3158L51.4501 15.6616L52.0054 15.9826L31.7376 27.6368Z" fill="#03519A" fill-opacity="0.92"/>
<mask id="mask19_92_13437" style="mask-type:luminance" maskUnits="userSpaceOnUse" x="25" y="38" width="5" height="9">
<path d="M29.5545 46.3639C28.3938 47.0309 26.4589 46.9973 25.2328 46.288L25.2122 38.896C26.4382 39.6053 28.3731 39.6389 29.5338 38.9719L29.5545 46.3639Z" fill="white"/>
</mask>
<g mask="url(#mask19_92_13437)">
<path d="M29.5337 38.9717L29.5544 46.3637C29.0361 46.662 28.3621 46.8203 27.6674 46.8409L27.6467 39.4489C28.3425 39.4283 29.0154 39.2699 29.5337 38.9717Z" fill="#03519A" fill-opacity="0.92"/>
<path d="M27.6458 39.448L27.6665 46.84C27.415 46.8476 27.1613 46.8367 26.9108 46.8085L26.8901 39.4165C27.1406 39.4447 27.3954 39.4555 27.6458 39.448Z" fill="#03519A" fill-opacity="0.92"/>
<path d="M26.89 39.4163L26.9107 46.8084C26.6897 46.7834 26.4719 46.7444 26.2607 46.6923L26.24 39.3003C26.4512 39.3534 26.669 39.3914 26.89 39.4163Z" fill="#03519A" fill-opacity="0.92"/>
<path d="M26.24 39.3004L26.2607 46.6924C26.0342 46.636 25.8153 46.5634 25.6096 46.4755L25.5889 39.0835C25.7947 39.1713 26.0135 39.244 26.24 39.3004Z" fill="#03519A" fill-opacity="0.92"/>
<path d="M25.5889 39.0832L25.6096 46.4753C25.4778 46.4189 25.3515 46.356 25.2328 46.2866L25.2122 38.8945C25.3319 38.9639 25.4582 39.0268 25.5889 39.0832Z" fill="#03519A" fill-opacity="0.92"/>
</g>
<mask id="mask20_92_13437" style="mask-type:luminance" maskUnits="userSpaceOnUse" x="31" y="15" width="24" height="17">
<path d="M33.9642 31.3272C33.961 29.9987 32.9636 28.3459 31.7375 27.6366L52.0054 15.9824C53.2315 16.6917 54.2278 18.3445 54.2321 19.673L33.9642 31.3283V31.3272Z" fill="white"/>
</mask>
<g mask="url(#mask20_92_13437)">
<path d="M54.2322 19.6732L33.9643 31.3285C33.9643 31.2678 33.9621 31.2049 33.9578 31.143L54.2256 19.4878C54.23 19.5507 54.2322 19.6125 54.2322 19.6732Z" fill="#03519A" fill-opacity="0.92"/>
<path d="M54.2244 19.4865L33.9565 31.1418C33.9511 31.0572 33.9413 30.9715 33.9282 30.8847L54.1961 19.2295C54.2091 19.3163 54.2189 19.4019 54.2244 19.4865Z" fill="#03519A" fill-opacity="0.92"/>
<path d="M54.1961 19.2293L33.9282 30.8846C33.9141 30.7913 33.8956 30.697 33.8738 30.6015L54.1416 18.9463C54.1645 19.0417 54.1819 19.1361 54.1972 19.2293H54.1961Z" fill="#03519A" fill-opacity="0.92"/>
<path d="M54.1417 18.9465L33.8738 30.6017C33.8477 30.4922 33.8172 30.3816 33.7812 30.271L54.0491 18.6157C54.085 18.7263 54.1166 18.837 54.1417 18.9465Z" fill="#03519A" fill-opacity="0.92"/>
<path d="M54.0482 18.6157L33.7803 30.2709C33.7292 30.1137 33.6682 29.9564 33.5974 29.8003L53.8653 18.145C53.935 18.3012 53.997 18.4584 54.0482 18.6157Z" fill="#03519A" fill-opacity="0.92"/>
<path d="M53.8663 18.146L33.5984 29.8012C33.409 29.3794 33.1542 28.9705 32.8547 28.6094L53.1226 16.9541C53.4209 17.3152 53.6768 17.7241 53.8663 18.146Z" fill="#03519A" fill-opacity="0.92"/>
<path d="M53.1226 16.954L32.8547 28.6093C32.7371 28.4672 32.613 28.3327 32.4834 28.208L52.7513 16.5527C52.8808 16.6775 53.005 16.8119 53.1226 16.954Z" fill="#03519A" fill-opacity="0.92"/>
<path d="M52.7512 16.5529L32.4833 28.2082C32.3897 28.1171 32.2917 28.0314 32.1926 27.9511L52.4605 16.2959C52.5596 16.3762 52.6565 16.4618 52.7512 16.5529Z" fill="#03519A" fill-opacity="0.92"/>
<path d="M52.4605 16.2958L32.1927 27.951C32.1056 27.8816 32.0174 27.8155 31.927 27.7558L52.1949 16.1006C52.2852 16.1613 52.3734 16.2264 52.4605 16.2958Z" fill="#03519A" fill-opacity="0.92"/>
<path d="M52.1949 16.1006L31.927 27.7559C31.8649 27.7136 31.8018 27.6745 31.7375 27.6377L52.0054 15.9824C52.0696 16.0193 52.1328 16.0583 52.1949 16.1006Z" fill="#03519A" fill-opacity="0.92"/>
</g>
<path d="M54.2321 19.6732C56.6668 18.2688 58.6877 19.4151 58.6921 22.2044C58.6986 24.6685 58.7062 27.1325 58.7128 29.5965C58.7247 32.3815 56.7169 35.8444 54.2822 37.2401C47.5259 41.1248 40.7707 45.0096 34.0144 48.8954C31.5786 50.3009 29.5588 49.1535 29.5544 46.3641C29.5479 43.9001 29.5403 41.4361 29.5337 38.9721C29.5218 36.1871 31.5285 32.7242 33.9643 31.3284C40.7206 27.4437 47.4758 23.559 54.2321 19.6732Z" fill="#03519A" fill-opacity="0.92"/>
<mask id="mask21_92_13437" style="mask-type:luminance" maskUnits="userSpaceOnUse" x="23" y="26" width="9" height="13">
<path d="M23.7019 37.2674C23.7063 37.0982 23.7073 36.8737 23.7182 36.7045C23.7313 36.5017 23.7509 36.2317 23.7825 36.031C23.8358 35.6873 23.9219 35.2307 23.9959 34.8901C24.0373 34.7003 24.1124 34.452 24.1658 34.2665C24.279 33.8761 24.5066 33.2775 24.5752 33.1191C24.6481 32.951 24.7396 32.7244 24.8202 32.5606C24.9813 32.2342 25.1991 31.8004 25.3809 31.4859C25.5167 31.2516 25.7348 30.9107 26.0353 30.4632C26.1366 30.3124 26.2868 30.1226 26.3946 29.9773C26.5068 29.8255 26.9238 29.3223 27.1764 29.0598C27.3049 28.9264 27.4726 28.7464 27.6098 28.6217C27.8689 28.3852 28.2206 28.0783 28.4939 27.8592C28.5658 27.8018 28.9545 27.4959 29.5686 27.138C29.9726 26.906 30.5453 26.9472 31.1834 27.3159C27.5815 29.3873 24.6459 34.4531 24.6579 38.5742C24.0242 38.2077 23.7041 37.7326 23.703 37.2663L23.7019 37.2674Z" fill="white"/>
</mask>
<g mask="url(#mask21_92_13437)">
<path d="M23.7019 37.2674C23.7259 36.4388 23.7879 34.2373 25.382 31.4859C26.1431 30.1725 27.4867 28.3516 29.5686 27.138C29.9726 26.906 30.5453 26.9472 31.1834 27.3159C27.5815 29.3873 24.6459 34.4531 24.6579 38.5742C24.0242 38.2077 23.7041 37.7326 23.703 37.2663L23.7019 37.2674Z" fill="#03519A" fill-opacity="0.92"/>
<path d="M31.117 27.2789C29.61 28.0543 28.3578 29.0249 27.1503 31.2417C25.6281 33.4942 24.6492 36.1925 24.6568 38.574C24.0231 38.2075 23.703 37.7325 23.7019 37.2661C23.7063 37.0969 23.7128 36.8724 23.7182 36.7033C23.7367 36.5015 23.7574 36.2315 23.7825 36.0298L23.8739 35.4572C23.9142 35.2706 23.9643 35.0201 24.01 34.8346L24.1668 34.2642C24.2246 34.0874 24.2986 33.8521 24.3607 33.6775L24.5763 33.1168C24.6503 32.9487 24.7439 32.7242 24.8212 32.5583L25.0891 32.0149C25.1773 31.8555 25.2905 31.6408 25.382 31.4824L25.6978 30.964C25.799 30.8133 25.9308 30.6094 26.0364 30.4608L26.3957 29.9749C26.5111 29.8329 26.6614 29.6409 26.7801 29.5021L27.1775 29.0575C27.3071 28.9262 27.478 28.7473 27.6109 28.6193L28.0431 28.2256C28.1901 28.1052 28.3851 27.9415 28.5353 27.8254L28.9959 27.4936C29.1668 27.3851 29.3933 27.2376 29.5686 27.1357C29.9584 26.9123 30.5061 26.9427 31.117 27.2767V27.2789Z" fill="#03519A" fill-opacity="0.92"/>
<path d="M30.8676 27.157C28.5658 28.3554 27.0185 30.2544 26.1377 32.9635C25.2089 34.7952 24.6525 36.7745 24.6568 38.5737C24.0231 38.2071 23.703 37.7321 23.7019 37.2657C23.7063 37.0966 23.7128 36.8721 23.7182 36.7029C23.7367 36.5012 23.7574 36.2311 23.7825 36.0294L23.8739 35.4568C23.9142 35.2702 23.9643 35.0197 24.01 34.8343L24.1668 34.2638C24.2246 34.087 24.2986 33.8517 24.3607 33.6771L24.5763 33.1164C24.6503 32.9483 24.7439 32.7238 24.8212 32.5579L25.0891 32.0145C25.1773 31.8551 25.2905 31.6404 25.382 31.482L25.6978 30.9636C25.799 30.8129 25.9308 30.609 26.0364 30.4604L26.3957 29.9746C26.5111 29.8325 26.6614 29.6405 26.7801 29.5017L27.1775 29.0571C27.3071 28.9259 27.478 28.7469 27.6109 28.6189L28.0431 28.2253C28.1901 28.1049 28.3851 27.9411 28.5353 27.8251L28.9959 27.4932C29.1668 27.3848 29.3933 27.2373 29.5686 27.1353C29.904 26.9423 30.358 26.939 30.8676 27.1548V27.157Z" fill="#03519A" fill-opacity="0.92"/>
<path d="M30.6161 27.0677C26.4763 29.3571 25.6324 33.308 25.4735 34.4652C24.9497 35.8458 24.6525 37.2589 24.6568 38.5755C24.0231 38.2089 23.703 37.7339 23.7019 37.2676C23.7063 37.0984 23.7128 36.8739 23.7182 36.7047C23.7367 36.503 23.7574 36.2329 23.7825 36.0312L23.8739 35.4586C23.9142 35.2721 23.9643 35.0216 24.01 34.8361L24.1668 34.2656C24.2246 34.0889 24.2986 33.8535 24.3607 33.6789L24.5763 33.1182C24.6503 32.9501 24.7439 32.7256 24.8212 32.5597L25.0891 32.0164C25.1773 31.8569 25.2905 31.6422 25.382 31.4839L25.6978 30.9655C25.799 30.8147 25.9308 30.6108 26.0364 30.4623L26.3957 29.9764C26.5111 29.8343 26.6614 29.6424 26.7801 29.5036L27.1775 29.0589C27.3071 28.9277 27.478 28.7487 27.6109 28.6208L28.0431 28.2271C28.1901 28.1067 28.3851 27.9429 28.5353 27.8269L28.9959 27.495C29.1668 27.3866 29.3933 27.2391 29.5686 27.1371C29.8485 26.9766 30.2089 26.9474 30.6161 27.0667V27.0677Z" fill="#03519A" fill-opacity="0.92"/>
<path d="M30.3548 27.0101C27.135 28.8375 25.0357 32.3416 25.0063 35.9378C24.7777 36.8347 24.6546 37.7251 24.6568 38.5754C24.0231 38.2088 23.703 37.7338 23.7019 37.2674C23.7063 37.0983 23.7128 36.8738 23.7182 36.7046C23.7367 36.5029 23.7574 36.2328 23.7825 36.0311L23.8739 35.4585C23.9142 35.2719 23.9643 35.0214 24.01 34.836L24.1668 34.2655C24.2246 34.0887 24.2986 33.8534 24.3607 33.6788L24.5763 33.1181C24.6503 32.95 24.7439 32.7255 24.8212 32.5596L25.0891 32.0162C25.1773 31.8568 25.2905 31.6421 25.382 31.4837L25.6978 30.9653C25.799 30.8146 25.9308 30.6107 26.0364 30.4621L26.3957 29.9763C26.5111 29.8342 26.6614 29.6422 26.7801 29.5034L27.1775 29.0588C27.3071 28.9276 27.478 28.7486 27.6109 28.6206L28.0431 28.227C28.1901 28.1066 28.3851 27.9428 28.5353 27.8268L28.9959 27.4949C29.1668 27.3865 29.3933 27.239 29.5686 27.137C29.7864 27.0123 30.0543 26.9668 30.3548 27.009V27.0101Z" fill="#03519A" fill-opacity="0.92"/>
<path d="M30.0532 26.9973C25.7958 29.4862 24.1233 34.2971 24.7102 37.5593C24.6742 37.9021 24.6557 38.2415 24.6568 38.5744C24.0231 38.2079 23.703 37.7329 23.7019 37.2665C23.7063 37.0973 23.7128 36.8729 23.7182 36.7037C23.7367 36.5019 23.7574 36.2319 23.7825 36.0302L23.8739 35.4576C23.9142 35.271 23.9643 35.0205 24.01 34.8351L24.1668 34.2646C24.2246 34.0878 24.2986 33.8525 24.3607 33.6779L24.5763 33.1172C24.6503 32.9491 24.7439 32.7246 24.8212 32.5587L25.0891 32.0153C25.1773 31.8559 25.2905 31.6412 25.382 31.4828L25.6978 30.9644C25.799 30.8137 25.9308 30.6098 26.0364 30.4612L26.3957 29.9754C26.5111 29.8333 26.6614 29.6413 26.7801 29.5025L27.1775 29.0579C27.3071 28.9266 27.478 28.7477 27.6109 28.6197L28.0432 28.226C28.1901 28.1057 28.3851 27.9419 28.5353 27.8259L28.9959 27.494C29.1668 27.3855 29.3933 27.238 29.5686 27.1361C29.7113 27.0548 29.8735 27.007 30.0532 26.9951V26.9973Z" fill="#03519A" fill-opacity="0.92"/>
</g>
<mask id="mask22_92_13437" style="mask-type:luminance" maskUnits="userSpaceOnUse" x="25" y="27" width="9" height="13">
<path d="M29.5338 38.9719C28.3731 39.6389 26.4382 39.6053 25.2122 38.896C25.2002 34.7749 28.1368 29.7091 31.7377 27.6377C32.9637 28.347 33.96 29.9998 33.9644 31.3283C31.5286 32.7251 29.5219 36.1869 29.5338 38.9719Z" fill="white"/>
</mask>
<g mask="url(#mask22_92_13437)">
<path d="M29.5338 38.9719C28.3731 39.6389 26.4382 39.6053 25.2122 38.896C25.2002 34.7749 28.1368 29.7091 31.7377 27.6377C32.9637 28.347 33.96 29.9998 33.9644 31.3283C31.5286 32.7251 29.5219 36.1869 29.5338 38.9719Z" fill="#03519A" fill-opacity="0.92"/>
<path d="M32.8501 28.6036C29.2101 29.7846 28.8518 33.0935 29.5171 33.2193C29.8743 33.2865 30.5951 32.5838 31.3584 31.8398C32.3296 30.893 33.5361 29.8497 33.5971 29.7998C33.8268 30.3106 33.9618 30.841 33.9629 31.3268C31.5272 32.7237 29.5204 36.1854 29.5324 38.9705C28.3717 39.6374 26.4368 39.6038 25.2107 38.8945C25.1988 34.7734 28.1354 29.7076 31.7362 27.6362C32.1413 27.8705 32.5213 28.2089 32.849 28.6036H32.8501Z" fill="#03519A" fill-opacity="0.92"/>
<path d="M32.4832 28.2078C28.2639 29.9755 27.8828 34.2019 28.6874 34.7192C29.0544 34.9556 29.5422 34.5001 30.4318 33.4546C31.8538 31.7823 32.7358 31.0199 33.7789 30.2673C33.8965 30.6273 33.9618 30.9874 33.9629 31.3268C31.5272 32.7237 29.5204 36.1854 29.5324 38.9705C28.3717 39.6374 26.4368 39.6038 25.2107 38.8945C25.1988 34.7734 28.1354 29.7076 31.7362 27.6362C31.9975 27.7881 32.2491 27.9822 32.4821 28.2067L32.4832 28.2078Z" fill="#03519A" fill-opacity="0.92"/>
<path d="M32.1928 27.9511C27.0959 30.3381 27.3431 35.6718 28.3448 36.1186C28.788 36.316 29.278 35.6804 29.7843 34.9538C31.0158 33.185 32.0306 31.8369 33.874 30.6028C33.9317 30.85 33.9633 31.094 33.9644 31.3283C31.5286 32.7251 29.5219 36.1869 29.5338 38.9719C28.3731 39.6389 26.4382 39.6053 25.2122 38.896C25.2002 34.7749 28.1368 29.7091 31.7377 27.6377C31.8934 27.7277 32.0458 27.8329 32.1917 27.9511H32.1928Z" fill="#03519A" fill-opacity="0.92"/>
<path d="M31.9271 27.7559C26.5177 30.259 26.6495 36.8018 28.1858 37.4384C28.7096 37.6553 29.0275 37.0654 29.6046 35.9928C30.5291 34.2749 31.7017 32.3217 33.9284 30.8847C33.9513 31.0355 33.9633 31.184 33.9644 31.3283C31.5286 32.7251 29.5219 36.1869 29.5338 38.9719C28.3731 39.6389 26.4382 39.6053 25.2122 38.896C25.2002 34.7749 28.1368 29.7091 31.7377 27.6377C31.8019 27.6746 31.8651 27.7136 31.9271 27.7559Z" fill="#03519A" fill-opacity="0.92"/>
<path d="M33.9644 31.3271C31.5286 32.7239 29.5219 36.1857 29.5338 38.9707C28.3731 39.6377 26.4382 39.604 25.2122 38.8948C25.2057 36.5132 26.1834 33.8149 27.7057 31.5624C27.6926 31.5873 27.6763 31.621 27.6632 31.6459C25.3864 36.7399 28.0508 39.0368 28.6377 38.8503C28.9361 38.756 29.0863 38.4274 29.3324 37.678C29.9748 35.7172 31.153 32.905 33.9568 31.1416C33.9611 31.2045 33.9633 31.2663 33.9633 31.3271H33.9644Z" fill="#03519A" fill-opacity="0.92"/>
<path d="M26.6604 33.3975C26.4186 34.4212 25.7751 37.1423 27.6512 39.4479C26.7889 39.474 25.8916 39.2885 25.2122 38.8948C25.2068 37.0956 25.7642 35.1164 26.693 33.2847C26.6832 33.3183 26.6702 33.3628 26.6615 33.3964L26.6604 33.3975Z" fill="#03519A" fill-opacity="0.92"/>
<path d="M25.9776 35.2845C25.9428 35.9428 25.8481 37.6911 26.8923 39.4176C26.2825 39.3482 25.6935 39.1747 25.2122 38.8959C25.2089 37.5793 25.5051 36.1673 26.0288 34.7856C26.0136 34.9353 25.9896 35.1349 25.9776 35.2845Z" fill="#03519A" fill-opacity="0.92"/>
<path d="M25.567 36.498C25.6095 37.101 25.6792 38.1085 26.2388 39.3004C25.8675 39.2082 25.5169 39.0726 25.211 38.8958C25.2088 38.0456 25.3318 37.1552 25.5605 36.2583C25.5627 36.3299 25.5638 36.4264 25.567 36.498Z" fill="#03519A" fill-opacity="0.92"/>
<path d="M25.368 38.3766C25.4464 38.6846 25.5879 39.0804 25.589 39.0837C25.4573 39.0273 25.331 38.9644 25.2112 38.895C25.2112 38.562 25.2286 38.2226 25.2645 37.8799C25.295 38.0285 25.3331 38.228 25.3669 38.3766H25.368Z" fill="#03519A" fill-opacity="0.92"/>
</g>
<mask id="mask23_92_13437" style="mask-type:luminance" maskUnits="userSpaceOnUse" x="24" y="27" width="8" height="12">
<path d="M25.2121 38.8962L24.6568 38.5752C24.6448 34.4541 27.5814 29.3883 31.1823 27.3169L31.7376 27.6379C28.1357 29.7093 25.2001 34.7751 25.2121 38.8962Z" fill="white"/>
</mask>
<g mask="url(#mask23_92_13437)">
<path d="M25.2121 38.8966L24.6567 38.5755C24.6567 38.2437 24.6742 37.9042 24.7101 37.5615L25.2654 37.8825C25.2295 38.2252 25.211 38.5636 25.2121 38.8966Z" fill="#03519A" fill-opacity="0.92"/>
<path d="M25.2655 37.8826L24.7102 37.5616C24.7668 37.0269 24.867 36.4825 25.0064 35.937L25.5606 36.258C25.4212 36.8046 25.321 37.349 25.2644 37.8837L25.2655 37.8826Z" fill="#03519A" fill-opacity="0.92"/>
<path d="M25.5615 36.2566L25.0073 35.9356C25.1325 35.4443 25.2893 34.9519 25.4744 34.4639L26.0298 34.7849C25.8447 35.2729 25.6879 35.7664 25.5626 36.2566H25.5615Z" fill="#03519A" fill-opacity="0.92"/>
<path d="M26.0287 34.7849L25.4734 34.4639C25.665 33.9574 25.8882 33.4553 26.1376 32.9629L26.6929 33.2839C26.4436 33.7752 26.2214 34.2784 26.0287 34.7849Z" fill="#03519A" fill-opacity="0.92"/>
<path d="M26.6928 33.285L26.1375 32.964C26.4391 32.3686 26.781 31.7894 27.1544 31.2363L27.7098 31.5573C27.3363 32.1104 26.9944 32.6896 26.6928 33.285Z" fill="#03519A" fill-opacity="0.92"/>
<path d="M27.7099 31.5564L27.1545 31.2353C28.2652 29.5934 29.6643 28.1889 31.1822 27.3159L31.7375 27.6369C30.2197 28.51 28.8205 29.9144 27.7099 31.5564Z" fill="#03519A" fill-opacity="0.92"/>
</g>
<path d="M52.4552 34.4639L51.3652 33.8327L54.2507 24.3779L55.3395 25.0091L52.4552 34.4639Z" fill="#FF9292"/>
<path d="M51.927 26.9706L50.8371 26.3405L50.8306 23.8809L51.9205 24.511L51.927 26.9706Z" fill="#FF8585"/>
<path d="M51.9205 24.5112L50.8306 23.8811L56.608 20.5581L57.6969 21.1893L51.9205 24.5112Z" fill="#FFADAD"/>
<path d="M57.6968 21.1895L58.3076 22.2284L54.8821 33.0681L52.455 34.4639L55.3394 25.0091L51.9269 26.971L51.9204 24.5113L57.6968 21.1895Z" fill="#FFEDED"/>
<path d="M49.4151 25.1402L48.3252 24.509L50.3123 24.1631L51.4023 24.7943L49.4151 25.1402Z" fill="#FFA6A6"/>
<path d="M45.7173 38.5261L44.6284 37.8949L48.3251 24.5088L49.415 25.14L45.7173 38.5261Z" fill="#FF9191"/>
<path d="M49.415 25.1404L51.4022 24.7944L47.7175 38.2033L45.7173 38.5265L49.415 25.1404Z" fill="#FFEDED"/>
<path d="M44.2398 34.8552L43.1499 34.224L43.984 33.7446L45.0739 34.3747L44.2398 34.8552Z" fill="#FFADAD"/>
<path d="M42.0894 40.4242L40.9995 39.793L40.9929 37.5654L42.0829 38.1966L42.0894 40.4242Z" fill="#FF8585"/>
<path d="M40.6617 36.9408L39.5718 36.3107L41.1528 35.4019L42.2416 36.032L40.6617 36.9408Z" fill="#FFADAD"/>
<path d="M42.2417 36.0319L41.1528 35.4017L41.1692 32.7686L42.2591 33.3997L42.2417 36.0319Z" fill="#FF8585"/>
<path d="M38.936 40.0068L37.846 39.3756L37.1208 38.2705L38.2108 38.9017L38.936 40.0068Z" fill="#FF8080"/>
<path d="M42.3638 30.0066L41.2749 29.3754L43.1336 28.3071L44.2224 28.9372L42.3638 30.0066Z" fill="#FFADAD"/>
<path d="M38.2108 38.9014L37.1208 38.2702L41.2748 29.375L42.3637 30.0062L38.2108 38.9014Z" fill="#FF9A9A"/>
<path d="M44.2398 34.8555L45.0738 34.3761L45.0793 36.4746L44.2452 36.954L44.2517 39.1816L42.0893 40.4255L42.0828 38.1979L38.9349 40.008L38.2097 38.9029L42.3626 30.0077L44.2213 28.9395L44.2376 34.8566L44.2398 34.8555ZM42.2428 36.0332L42.2602 33.4001L40.6629 36.9421L42.2439 36.0332H42.2428Z" fill="#FFEDED"/>
<path d="M36.6189 39.8354L34.5969 40.998L33.5483 41.8472L34.6383 42.4773L35.6858 41.6281L37.7088 40.4656L36.6189 39.8354Z" fill="#FFADAD"/>
<path d="M31.9521 46.2404L30.8622 45.6092L30.2883 44.5908L31.3783 45.222L31.9521 46.2404Z" fill="#FF8080"/>
<path d="M35.1304 36.7009L34.0405 36.0708C34.3585 36.2541 34.4227 36.8614 33.9164 37.8104L30.2883 44.5918L31.3783 45.223L35.0063 38.4415C35.5137 37.4926 35.4484 36.8864 35.1304 36.702V36.7009Z" fill="#FF9E9E"/>
<path d="M35.8426 33.3175C35.3385 33.0258 34.5915 33.0724 33.6127 33.6353C32.3866 34.3402 31.1758 35.762 30.4463 37.79L31.5362 38.4212C32.2658 36.3932 33.4766 34.9714 34.7026 34.2664C35.6815 33.7036 36.4284 33.6569 36.9326 33.9487L35.8426 33.3175Z" fill="#FFBFBF"/>
<path d="M34.7024 34.2661C36.6743 33.1317 37.7033 34.0915 37.7077 35.6977C37.7109 36.6521 37.4093 37.8689 36.6036 39.2017L34.6382 42.477L35.6867 41.6278L37.7098 40.4641L37.7164 42.9238L31.952 46.2381L31.3782 45.2197L35.0062 38.4383C35.7804 36.9893 35.2207 36.3376 34.464 36.7724C34.0513 37.0099 33.5798 37.5696 33.2347 38.5001L31.5371 38.4187C32.2667 36.3907 33.4775 34.9689 34.7035 34.264L34.7024 34.2661Z" fill="#FFEDED"/>
<g opacity="0.28">
<path d="M98.4191 96.8599C98.4649 97.26 98.4866 97.6613 98.4845 98.0626L98.4191 96.8599Z" fill="#009EF2"/>
<path d="M37.3706 97.1831L37.3151 98.1722C37.3173 97.8425 37.3369 97.5128 37.3706 97.1831Z" fill="#009EF2"/>
<path d="M38.3963 69.1789C38.2384 64.7043 41.1413 60.1894 47.0984 56.7635C58.6587 50.1154 77.3434 50.0818 88.8319 56.6886C94.5755 59.9921 97.4338 64.329 97.4098 68.6725L98.4192 96.86C97.9564 92.7682 95.0176 88.7598 89.5941 85.6418C77.6875 78.7942 58.3223 78.83 46.3406 85.7199C40.7885 88.9127 37.7985 93.0165 37.3706 97.1832L38.3963 69.18V69.1789Z" fill="url(#paint8_linear_92_13437)"/>
</g>
<path d="M55.9857 104.303C62.5243 108.063 73.1602 108.044 79.7401 104.26C86.32 100.476 86.3538 94.3608 79.8141 90.6008C73.2756 86.8408 62.6397 86.8593 56.0598 90.6431C49.4798 94.427 49.4461 100.543 55.9857 104.303Z" fill="#709EDB"/>
<path d="M57.2238 90.3636C63.1917 86.9311 72.8379 86.9138 78.7688 90.3246C84.6998 93.7354 84.6693 99.2826 78.7013 102.714C72.7333 106.147 63.0872 106.164 57.1562 102.753C51.2253 99.3423 51.2558 93.795 57.2238 90.3636Z" fill="#344041"/>
<path d="M66.2698 32.3898C66.2698 32.3898 71.8381 22.4557 78.871 25.5259C82.6341 27.169 88.2602 31.0906 83.6337 42.735C79.4427 53.284 84.741 58.9517 84.741 58.9517C84.741 58.9517 80.5087 59.8605 77.9172 57.8531C75.3257 55.8456 75.6154 55.466 75.2876 48.5306C74.9588 41.5962 66.2698 32.3898 66.2698 32.3898Z" fill="url(#paint9_linear_92_13437)"/>
<path d="M58.5542 102.768C58.5542 102.768 61.6204 105.327 71.6411 103.973C78.9451 102.986 83.1993 97.3164 83.1949 96.3056C83.1775 92.499 83.1307 92.3027 83.4922 89.6077C84.6028 81.3057 89.324 77.2985 90.9442 72.2935C93.2907 65.0446 91.7598 62.3626 90.3835 61.213C82.8312 54.899 73.9723 52.0391 72.8084 52.0077C71.6433 51.9751 61.2796 49.7454 58.6054 50.5197C51.2001 52.6649 48.662 61.0579 51.2001 75.7661C51.9177 79.9252 51.8915 85.1601 52.3282 88.944C52.7648 92.7278 52.6396 95.4814 52.755 96.4141C52.755 96.4141 56.7598 100.871 58.5553 102.769L58.5542 102.768Z" fill="#344041"/>
<path d="M81.7086 56.4855C83.7437 62.3723 75.8234 63.447 67.9412 74.9233C64.5407 79.8752 60.4064 91.0359 60.4064 91.0359C60.4064 91.0359 56.6618 74.9656 56.7522 69.3793C56.8426 63.793 57.6418 52.3329 61.2252 53.3947C63.5433 54.0812 81.7086 56.4855 81.7086 56.4855Z" fill="#DDE8F6"/>
<path d="M60.6796 86.7291C60.7972 86.2367 57.9716 76.7397 57.5502 71.2791C56.751 60.9372 58.4235 56.1448 59.8085 54.6232C60.5903 53.9617 63.0326 52.6646 63.0326 52.6646L63.4387 51.0356C63.4387 51.0356 61.0628 51.1777 58.9407 52.3598C57.4914 53.1667 54.1018 56.9929 54.2586 62.0532C55.2898 63.7884 55.9453 65.4054 55.9453 65.4054L53.7686 65.798C53.7686 65.798 54.1922 78.7742 58.8851 95.8596C61.0868 90.937 60.6785 86.7291 60.6785 86.7291H60.6796Z" fill="#6A7273"/>
<path d="M61.3189 91.0488C61.3211 90.9089 61.553 76.9686 62.6952 72.841C63.8625 68.6168 66.3156 60.8473 66.3396 60.7693L64.5974 60.2227C64.5724 60.3018 62.1083 68.1038 60.9324 72.3583C59.7303 76.7083 59.5005 90.4382 59.4929 91.0206L61.32 91.0488H61.3189Z" fill="#F7F7F7"/>
<path d="M78.7198 42.9813C77.5254 49.3799 77.0267 51.614 78.0034 53.0412C78.979 54.4685 80.6732 55.6278 80.8181 55.8968C80.964 56.1657 79.3949 58.6048 76.4866 60.3834C73.5794 62.162 70.0493 63.1966 65.5633 62.4103C61.0772 61.6241 60.6754 55.0465 61.063 53.847C61.4507 52.6476 61.7839 52.358 63.5282 51.9437C64.2545 50.4547 64.0269 46.7316 64.0269 46.7316C64.0269 46.7316 65.6264 40.6919 68.0763 40.7331C70.5273 40.7743 78.7198 42.9802 78.7198 42.9802V42.9813Z" fill="url(#paint10_linear_92_13437)"/>
<path d="M59.128 36.9154C59.5526 34.6509 61.2207 32.7726 62.8518 32.7216C62.9836 32.7173 63.1099 32.7292 63.2329 32.7487L63.2351 32.7444C64.68 32.8355 65.562 33.5089 65.9474 33.9113C66.3318 34.3137 63.6717 41.6211 62.7026 41.5875C61.7368 41.5539 60.4847 41.1689 59.7965 40.2785C59.1465 39.567 58.8612 38.3339 59.128 36.9154Z" fill="#232234"/>
<path d="M63.4888 52.0803C62.9542 53.2157 62.7615 55.7199 63.3222 57.5972C63.883 59.4745 65.3159 61.7292 65.3159 61.7292L64.7105 62.8256L61.9296 64.9035C61.9296 64.9035 60.1232 62.4948 59.7497 59.5786C59.3762 56.6623 61.0574 52.8557 61.9296 51.884C62.8029 50.9122 64.214 50.5186 64.214 50.5186L63.4877 52.0803H63.4888Z" fill="white"/>
<g style="mix-blend-mode:multiply">
<path d="M75.989 47.6421C75.0341 50.4553 73.5718 52.5246 71.8525 53.7034C70.1332 54.8823 66.4779 55.2142 65.6471 53.7034C64.8163 52.1927 64.4015 49.5042 64.4015 49.3795C64.4015 49.2548 75.989 47.6421 75.989 47.6421Z" fill="#FFDFD1"/>
</g>
<path d="M61.064 42.1113C61.0923 45.2553 61.9776 49.2007 64.3872 51.7916C64.6844 51.9858 64.9806 52.1376 65.2724 52.258C66.3145 52.6831 67.3304 52.6896 68.3473 52.6473C69.6485 52.5931 75.5174 49.8894 77.1246 47.4894C78.7306 45.0904 79.5614 38.913 79.3121 36.2376C79.0627 33.5632 76.4876 28.9572 71.5867 27.9096C66.6858 26.862 64.6093 27.8814 64.0279 28.5429C63.4464 29.2045 62.559 30.032 62.559 30.032C62.326 31.9711 61.9199 34.3342 61.5888 36.5965C61.2883 38.6484 61.051 40.6179 61.064 42.1113Z" fill="url(#paint11_linear_92_13437)"/>
<path d="M66.4365 29.0952C67.2673 30.171 68.4574 30.4736 70.6732 30.8597C72.8879 31.2458 75.7407 32.6242 77.2074 36.8993C78.6741 41.1745 78.5336 41.4434 78.5641 42.4976C78.5946 43.5528 78.5641 45.4756 78.5641 45.4756C78.5641 45.4756 81.4626 44.4432 82.7398 41.3339C84.0171 38.2246 84.6279 29.0659 76.0445 24.7365C71.8078 23.0816 66.8513 24.2127 64.9132 25.4263C62.975 26.6398 61.2035 29.7903 61.8535 34.8474C62.6429 31.6036 63.5282 30.6384 63.5282 30.6384L65.8267 29.2589L66.4354 29.093L66.4365 29.0952Z" fill="#FD635E"/>
<g style="mix-blend-mode:multiply">
<path d="M61.0641 42.1113C61.0924 45.2553 61.9776 49.2008 64.3872 51.7917C64.6845 51.9858 64.9806 52.1376 65.2725 52.258C65.12 51.1182 65.2463 49.5858 65.2463 49.5858C65.2463 49.5858 64.997 48.9784 64.997 48.6477C64.997 48.3169 65.2746 47.9308 65.2746 47.9308C65.2746 47.9308 65.1636 47.4894 65.2746 46.9927C65.3846 46.496 65.3574 45.2011 65.3574 45.2011C65.3574 45.2011 64.0279 44.9527 63.9168 44.1806C63.8058 43.4095 65.0514 41.1472 65.6895 39.2168C66.3254 37.2874 64.47 37.3698 61.5889 36.5977C61.2884 38.6496 61.051 40.619 61.0641 42.1124V42.1113Z" fill="#FFDFD1"/>
</g>
<path d="M78.5641 45.4774C78.5641 45.4774 81.4626 44.4449 82.7399 41.3357C84.0171 38.2264 86.1458 27.4582 76.0445 24.7383L78.5641 45.4774Z" fill="#FD635E"/>
<path d="M76.1065 43.9042C76.5311 41.6397 78.1992 39.7613 79.8303 39.7104C79.9621 39.706 80.0884 39.718 80.2114 39.7375L80.2136 39.7331C81.6585 39.8242 82.5405 40.4977 82.9259 40.9001C83.3103 41.3024 80.6502 48.6099 79.6812 48.5762C78.7154 48.5426 77.4632 48.1576 76.775 47.2672C76.125 46.5558 75.8397 45.3227 76.1065 43.9031V43.9042Z" fill="#232234"/>
<path d="M77.8194 44.5841C77.3947 46.8485 78.3725 48.6434 80.0036 48.5913C81.6358 48.5404 83.3028 46.662 83.7275 44.3975C84.1521 42.1331 83.1743 40.3382 81.5432 40.3903C79.911 40.4412 78.244 42.3196 77.8194 44.5841Z" fill="#323142"/>
<path d="M78.4792 44.8594C78.0785 46.997 79.0007 48.691 80.5415 48.6422C82.0811 48.5934 83.6556 46.8213 84.0563 44.6837C84.457 42.5461 83.5347 40.8521 81.994 40.9009C80.4544 40.9497 78.8799 42.7218 78.4792 44.8594Z" fill="#1E1D2F"/>
<path d="M68.1982 55.2328C69.3807 55.2328 70.8093 55.0463 71.8394 54.3088C75.1114 51.9695 77.3413 48.8895 77.435 48.7594L77.4774 48.6758L78.2124 46.5827L77.5852 46.3647L76.8666 48.4112C76.602 48.7691 74.4428 51.6322 71.4517 53.7709C69.641 55.0669 66.2035 54.3966 66.1686 54.388L66.0369 55.0376C66.1131 55.0528 67.0364 55.2328 68.1972 55.2328H68.1982Z" fill="#323142"/>
<path d="M64.8699 53.4421L67.5771 53.823C67.6432 53.8323 67.6892 53.8932 67.6799 53.959L67.4322 55.7051C67.4229 55.771 67.3618 55.8168 67.2957 55.8075L64.5884 55.4266C64.5223 55.4173 64.4763 55.3564 64.4857 55.2906L64.7333 53.5445C64.7426 53.4787 64.8038 53.4328 64.8699 53.4421Z" fill="#323142"/>
<path d="M65.3063 24.953C66.0304 24.5908 70.3771 22.8697 75.0569 24.5854C78.4934 25.8456 79.9132 28.2705 81.3516 30.9666C82.79 33.6627 81.7545 38.2188 81.7566 40.339C81.7566 40.339 81.0816 40.0418 79.8991 40.673C79.8969 38.5528 80.9324 33.9968 79.494 31.3007C78.0556 28.6046 76.7904 26.5039 73.354 25.2437C68.6741 23.528 65.5665 25.1103 64.8424 25.4725C64.8424 25.4725 65.0526 25.1005 65.3063 24.953Z" fill="#232234"/>
<path d="M68.8046 23.7711C70.3334 23.41 72.6298 23.2592 75.4673 24.3004C78.9037 25.5606 80.3236 27.9855 81.762 30.6816C83.2003 33.3777 82.1735 38.1941 82.1757 40.3143C82.1757 40.3143 81.4582 39.9206 80.3105 40.3891C80.3083 38.2689 81.3438 33.7129 79.9055 31.0168C78.4671 28.3207 77.2019 26.22 73.7654 24.9598C69.0856 23.2441 66.0313 24.5921 65.3073 24.9543C65.3073 24.9543 65.7286 24.7071 66.2034 24.5281C66.4222 24.4457 67.8127 24.0065 68.8057 23.7722L68.8046 23.7711Z" fill="#323142"/>
<path d="M65.3159 61.73L64.7105 62.8264L65.7308 66.2394C65.7308 66.2394 69.0322 66.3034 74.4427 64.4922C79.8532 62.6811 81.9438 60.5056 81.7075 56.4842C81.0563 55.5244 79.4786 53.7697 79.1879 53.6742C78.8972 53.5799 78.1959 53.3022 78.1959 53.3022C78.1959 53.3022 79.3087 54.9366 79.8608 55.1687C80.2201 58.2346 71.2545 61.8948 65.3159 61.73Z" fill="white"/>
<path d="M80.8278 55.3477C80.8278 55.3477 83.882 57.0232 84.4221 57.7119C84.9622 58.4006 87.8966 61.2962 79.0225 69.7771C75.2148 69.8183 73.7753 70.4799 73.7753 70.4799C73.7753 70.4799 75.9062 73.1271 75.8224 73.5826C75.7396 74.0381 58.8853 95.8607 58.8853 95.8607C58.8853 95.8607 59.7575 90.4511 60.879 85.8962C62.0005 81.3412 74.2076 67.0983 76.0772 65.0291C77.9467 62.9609 82.7573 59.3289 80.8267 55.3487L80.8278 55.3477Z" fill="#6A7273"/>
<path opacity="0.28" d="M38.3964 69.1789C38.5456 73.3868 41.4006 77.56 46.9678 80.7615C58.4563 87.3684 77.141 87.3337 88.7013 80.6867C94.482 77.3627 97.386 73.0149 97.4099 68.6714L98.4846 98.0606C98.4596 102.561 95.45 107.069 89.4591 110.513C77.4774 117.403 58.1122 117.438 46.2057 110.591C40.2518 107.167 37.2912 102.672 37.3152 98.1712L38.3964 69.1789Z" fill="url(#paint12_linear_92_13437)"/>
<path d="M67.6603 105.178C77.449 105.178 87.2563 103.027 94.7312 98.7282C101.997 94.5496 106 88.998 106 83.0939C106 77.2419 102.057 71.7521 94.8989 67.6353C93.981 67.1071 93.0043 66.6017 91.9993 66.131L91.8981 66.3447C92.8976 66.8132 93.8678 67.3153 94.7802 67.8413C101.863 71.9126 105.763 77.3297 105.763 83.0939C105.763 88.909 101.803 94.3891 94.6136 98.5232C79.7922 107.046 55.7482 107.092 41.0183 98.6208C33.9364 94.5485 30.0372 89.1314 30.0372 83.3672C30.0372 77.603 33.9974 72.072 41.1859 67.9378C43.883 66.3859 46.9427 65.0823 50.28 64.0629L50.2114 63.8384C46.8567 64.8632 43.7807 66.1733 41.0684 67.7339C33.8025 71.9126 29.7998 77.4642 29.7998 83.3683C29.7998 89.2723 33.7415 94.7101 40.8996 98.8269C48.2657 103.063 57.9521 105.179 67.6592 105.179L67.6603 105.178Z" fill="#009EF2"/>
<path d="M105.004 76.6226C104.467 76.9317 103.59 76.9306 103.049 76.6193C102.507 76.3081 102.504 75.8038 103.042 75.4947C103.58 75.1856 104.457 75.1867 104.998 75.4979C105.54 75.8092 105.542 76.3124 105.004 76.6226Z" fill="#009EF2"/>
<path d="M31.4637 87.2769C30.9258 87.586 30.0493 87.5849 29.5081 87.2736C28.9659 86.9624 28.9637 86.4591 29.5016 86.149C30.0395 85.8399 30.916 85.841 31.4572 86.1522C31.9994 86.4635 32.0016 86.9678 31.4637 87.2769Z" fill="#009EF2"/>
<path d="M90.7375 101.231C90.3683 101.444 89.7684 101.443 89.3971 101.229C89.0258 101.016 89.0236 100.671 89.3927 100.458C89.7618 100.245 90.3618 100.247 90.7331 100.46C91.1044 100.674 91.1066 101.019 90.7375 101.231Z" fill="#009EF2"/>
<path d="M47.2443 65.6918C46.8752 65.9043 46.2752 65.9033 45.9039 65.6896C45.5326 65.476 45.5304 65.1311 45.8996 64.9185C46.2687 64.7059 46.8686 64.707 47.2399 64.9207C47.6112 65.1343 47.6134 65.4792 47.2443 65.6918Z" fill="#009EF2"/>
</g>
<defs>
<linearGradient id="paint0_linear_92_13437" x1="88.6741" y1="139.198" x2="233.31" y2="95.8893" gradientUnits="userSpaceOnUse">
<stop stop-color="#25054D"/>
<stop offset="1" stop-color="#45108A"/>
</linearGradient>
<linearGradient id="paint1_linear_92_13437" x1="-58.62" y1="156.488" x2="128.848" y2="114.464" gradientUnits="userSpaceOnUse">
<stop stop-color="#25054D"/>
<stop offset="1" stop-color="#45108A"/>
</linearGradient>
<linearGradient id="paint2_linear_92_13437" x1="136.007" y1="-21.4277" x2="61.3489" y2="120.856" gradientUnits="userSpaceOnUse">
<stop stop-color="#25054D"/>
<stop offset="1" stop-color="#45108A"/>
</linearGradient>
<linearGradient id="paint3_linear_92_13437" x1="62.8096" y1="133.94" x2="163.218" y2="103.874" gradientUnits="userSpaceOnUse">
<stop offset="0.00505051" stop-color="#FFE4A7"/>
<stop offset="0.099793" stop-color="#FAC098"/>
<stop offset="0.202" stop-color="#F49587"/>
<stop offset="0.4638" stop-color="#A142B5"/>
<stop offset="0.596" stop-color="#7C1DC9"/>
<stop offset="0.6346" stop-color="#7926CB"/>
<stop offset="0.6973" stop-color="#703ED1"/>
<stop offset="0.7764" stop-color="#6165DB"/>
<stop offset="0.8686" stop-color="#4C9CE9"/>
<stop offset="0.9709" stop-color="#32E1FA"/>
<stop offset="1" stop-color="#2AF6FF"/>
</linearGradient>
<linearGradient id="paint4_linear_92_13437" x1="-36.4483" y1="139.288" x2="66.5625" y2="116.196" gradientUnits="userSpaceOnUse">
<stop offset="0.00505051" stop-color="#FFE4A7"/>
<stop offset="0.099793" stop-color="#FAC098"/>
<stop offset="0.202" stop-color="#F49587"/>
<stop offset="0.4638" stop-color="#A142B5"/>
<stop offset="0.596" stop-color="#7C1DC9"/>
<stop offset="0.6346" stop-color="#7926CB"/>
<stop offset="0.6973" stop-color="#703ED1"/>
<stop offset="0.7764" stop-color="#6165DB"/>
<stop offset="0.8686" stop-color="#4C9CE9"/>
<stop offset="0.9709" stop-color="#32E1FA"/>
<stop offset="1" stop-color="#2AF6FF"/>
</linearGradient>
<linearGradient id="paint5_linear_92_13437" x1="88.6741" y1="121.611" x2="233.31" y2="78.3015" gradientUnits="userSpaceOnUse">
<stop stop-color="#25054D"/>
<stop offset="1" stop-color="#45108A"/>
</linearGradient>
<linearGradient id="paint6_linear_92_13437" x1="-58.62" y1="138.899" x2="128.848" y2="96.8745" gradientUnits="userSpaceOnUse">
<stop stop-color="#25054D"/>
<stop offset="1" stop-color="#45108A"/>
</linearGradient>
<linearGradient id="paint7_linear_92_13437" x1="136.007" y1="-39.0155" x2="61.3489" y2="103.268" gradientUnits="userSpaceOnUse">
<stop stop-color="#25054D"/>
<stop offset="1" stop-color="#45108A"/>
</linearGradient>
<linearGradient id="paint8_linear_92_13437" x1="67.8955" y1="97.1832" x2="67.8955" y2="51.7552" gradientUnits="userSpaceOnUse">
<stop offset="0.02" stop-color="#009EF2"/>
<stop offset="0.97" stop-color="#009EF2"/>
</linearGradient>
<linearGradient id="paint9_linear_92_13437" x1="74.036" y1="52.4462" x2="80.4021" y2="22.7272" gradientUnits="userSpaceOnUse">
<stop offset="0.12" stop-color="#F7413E"/>
<stop offset="0.38" stop-color="#F74541"/>
<stop offset="0.65" stop-color="#FA514D"/>
<stop offset="0.92" stop-color="#FD6660"/>
<stop offset="0.99" stop-color="#FF6D67"/>
</linearGradient>
<linearGradient id="paint10_linear_92_13437" x1="80.8279" y1="51.7051" x2="60.9509" y2="51.7051" gradientUnits="userSpaceOnUse">
<stop stop-color="#FFDBA7"/>
<stop offset="1" stop-color="#FFC5A4"/>
</linearGradient>
<linearGradient id="paint11_linear_92_13437" x1="79.3556" y1="40.0615" x2="61.0629" y2="40.0615" gradientUnits="userSpaceOnUse">
<stop stop-color="#FFDBA7"/>
<stop offset="1" stop-color="#FFC5A4"/>
</linearGradient>
<linearGradient id="paint12_linear_92_13437" x1="67.8999" y1="115.704" x2="67.8999" y2="68.6725" gradientUnits="userSpaceOnUse">
<stop offset="0.02" stop-color="#009EF2"/>
<stop offset="0.97" stop-color="#009EF2"/>
</linearGradient>
<clipPath id="clip0_92_13437">
<rect width="84.9314" height="118.509" fill="white" transform="matrix(-1 0 0 1 106 0)"/>
</clipPath>
</defs>
</svg>
