<svg width="391" height="71" viewBox="0 0 391 71" fill="none" xmlns="http://www.w3.org/2000/svg">
<path d="M35.155 53V49.325L44.605 40.4C45.3517 39.7233 45.9 39.1167 46.25 38.58C46.6 38.0433 46.8333 37.5533 46.95 37.11C47.09 36.6667 47.16 36.2583 47.16 35.885C47.16 34.905 46.8217 34.1583 46.145 33.645C45.4917 33.1083 44.5233 32.84 43.24 32.84C42.2133 32.84 41.2567 33.0383 40.37 33.435C39.5067 33.8317 38.7717 34.45 38.165 35.29L34.035 32.63C34.9683 31.23 36.275 30.1217 37.955 29.305C39.635 28.4883 41.5717 28.08 43.765 28.08C45.585 28.08 47.1717 28.3833 48.525 28.99C49.9017 29.5733 50.9633 30.4017 51.71 31.475C52.48 32.5483 52.865 33.8317 52.865 35.325C52.865 36.1183 52.76 36.9117 52.55 37.705C52.3633 38.475 51.9667 39.2917 51.36 40.155C50.7767 41.0183 49.9133 41.9867 48.77 43.06L40.93 50.445L39.845 48.38H53.67V53H35.155ZM76.4216 53.42C74.415 53.42 72.6183 52.93 71.0316 51.95C69.445 50.9467 68.1966 49.5 67.2866 47.61C66.3766 45.72 65.9216 43.4333 65.9216 40.75C65.9216 38.0667 66.3766 35.78 67.2866 33.89C68.1966 32 69.445 30.565 71.0316 29.585C72.6183 28.5817 74.415 28.08 76.4216 28.08C78.4516 28.08 80.2483 28.5817 81.8116 29.585C83.3983 30.565 84.6466 32 85.5566 33.89C86.4666 35.78 86.9216 38.0667 86.9216 40.75C86.9216 43.4333 86.4666 45.72 85.5566 47.61C84.6466 49.5 83.3983 50.9467 81.8116 51.95C80.2483 52.93 78.4516 53.42 76.4216 53.42ZM76.4216 48.625C77.3783 48.625 78.2066 48.3567 78.9066 47.82C79.63 47.2833 80.19 46.4317 80.5866 45.265C81.0066 44.0983 81.2166 42.5933 81.2166 40.75C81.2166 38.9067 81.0066 37.4017 80.5866 36.235C80.19 35.0683 79.63 34.2167 78.9066 33.68C78.2066 33.1433 77.3783 32.875 76.4216 32.875C75.4883 32.875 74.66 33.1433 73.9366 33.68C73.2366 34.2167 72.6766 35.0683 72.2566 36.235C71.86 37.4017 71.6616 38.9067 71.6616 40.75C71.6616 42.5933 71.86 44.0983 72.2566 45.265C72.6766 46.4317 73.2366 47.2833 73.9366 47.82C74.66 48.3567 75.4883 48.625 76.4216 48.625ZM100.177 53.42C98.1699 53.42 96.3732 52.93 94.7865 51.95C93.1999 50.9467 91.9515 49.5 91.0415 47.61C90.1315 45.72 89.6765 43.4333 89.6765 40.75C89.6765 38.0667 90.1315 35.78 91.0415 33.89C91.9515 32 93.1999 30.565 94.7865 29.585C96.3732 28.5817 98.1699 28.08 100.177 28.08C102.207 28.08 104.003 28.5817 105.567 29.585C107.153 30.565 108.402 32 109.312 33.89C110.222 35.78 110.677 38.0667 110.677 40.75C110.677 43.4333 110.222 45.72 109.312 47.61C108.402 49.5 107.153 50.9467 105.567 51.95C104.003 52.93 102.207 53.42 100.177 53.42ZM100.177 48.625C101.133 48.625 101.962 48.3567 102.662 47.82C103.385 47.2833 103.945 46.4317 104.342 45.265C104.762 44.0983 104.972 42.5933 104.972 40.75C104.972 38.9067 104.762 37.4017 104.342 36.235C103.945 35.0683 103.385 34.2167 102.662 33.68C101.962 33.1433 101.133 32.875 100.177 32.875C99.2432 32.875 98.4149 33.1433 97.6915 33.68C96.9915 34.2167 96.4315 35.0683 96.0115 36.235C95.6149 37.4017 95.4165 38.9067 95.4165 40.75C95.4165 42.5933 95.6149 44.0983 96.0115 45.265C96.4315 46.4317 96.9915 47.2833 97.6915 47.82C98.4149 48.3567 99.2432 48.625 100.177 48.625ZM123.931 53.42C121.925 53.42 120.128 52.93 118.541 51.95C116.955 50.9467 115.706 49.5 114.796 47.61C113.886 45.72 113.431 43.4333 113.431 40.75C113.431 38.0667 113.886 35.78 114.796 33.89C115.706 32 116.955 30.565 118.541 29.585C120.128 28.5817 121.925 28.08 123.931 28.08C125.961 28.08 127.758 28.5817 129.321 29.585C130.908 30.565 132.156 32 133.066 33.89C133.976 35.78 134.431 38.0667 134.431 40.75C134.431 43.4333 133.976 45.72 133.066 47.61C132.156 49.5 130.908 50.9467 129.321 51.95C127.758 52.93 125.961 53.42 123.931 53.42ZM123.931 48.625C124.888 48.625 125.716 48.3567 126.416 47.82C127.14 47.2833 127.7 46.4317 128.096 45.265C128.516 44.0983 128.726 42.5933 128.726 40.75C128.726 38.9067 128.516 37.4017 128.096 36.235C127.7 35.0683 127.14 34.2167 126.416 33.68C125.716 33.1433 124.888 32.875 123.931 32.875C122.998 32.875 122.17 33.1433 121.446 33.68C120.746 34.2167 120.186 35.0683 119.766 36.235C119.37 37.4017 119.171 38.9067 119.171 40.75C119.171 42.5933 119.37 44.0983 119.766 45.265C120.186 46.4317 120.746 47.2833 121.446 47.82C122.17 48.3567 122.998 48.625 123.931 48.625ZM145.516 57.2V24.3H149.016V57.2H145.516ZM146.776 53.42C144.816 53.42 142.938 53.1633 141.141 52.65C139.345 52.1133 137.898 51.425 136.801 50.585L138.726 46.315C139.776 47.0617 141.013 47.68 142.436 48.17C143.883 48.6367 145.341 48.87 146.811 48.87C147.931 48.87 148.83 48.765 149.506 48.555C150.206 48.3217 150.72 48.0067 151.046 47.61C151.373 47.2133 151.536 46.7583 151.536 46.245C151.536 45.5917 151.28 45.0783 150.766 44.705C150.253 44.3083 149.576 43.9933 148.736 43.76C147.896 43.5033 146.963 43.27 145.936 43.06C144.933 42.8267 143.918 42.5467 142.891 42.22C141.888 41.8933 140.966 41.4733 140.126 40.96C139.286 40.4467 138.598 39.77 138.061 38.93C137.548 38.09 137.291 37.0167 137.291 35.71C137.291 34.31 137.665 33.0383 138.411 31.895C139.181 30.7283 140.325 29.8067 141.841 29.13C143.381 28.43 145.306 28.08 147.616 28.08C149.156 28.08 150.673 28.2667 152.166 28.64C153.66 28.99 154.978 29.5267 156.121 30.25L154.371 34.555C153.228 33.9017 152.085 33.4233 150.941 33.12C149.798 32.7933 148.678 32.63 147.581 32.63C146.485 32.63 145.586 32.7583 144.886 33.015C144.186 33.2717 143.685 33.61 143.381 34.03C143.078 34.4267 142.926 34.8933 142.926 35.43C142.926 36.06 143.183 36.5733 143.696 36.97C144.21 37.3433 144.886 37.6467 145.726 37.88C146.566 38.1133 147.488 38.3467 148.491 38.58C149.518 38.8133 150.533 39.0817 151.536 39.385C152.563 39.6883 153.496 40.0967 154.336 40.61C155.176 41.1233 155.853 41.8 156.366 42.64C156.903 43.48 157.171 44.5417 157.171 45.825C157.171 47.2017 156.786 48.4617 156.016 49.605C155.246 50.7483 154.091 51.67 152.551 52.37C151.035 53.07 149.11 53.42 146.776 53.42Z" fill="white"/>
<path d="M170.8 34.32V33.28L178.22 24H179.82L172.46 33.28L171.68 33.04H182.94V34.32H170.8ZM178.7 38V34.32L178.74 33.04V29.8H180.14V38H178.7ZM195.077 38.12C193.997 38.12 193.037 37.84 192.197 37.28C191.357 36.7067 190.697 35.8933 190.217 34.84C189.737 33.7733 189.497 32.4933 189.497 31C189.497 29.5067 189.737 28.2333 190.217 27.18C190.697 26.1133 191.357 25.3 192.197 24.74C193.037 24.1667 193.997 23.88 195.077 23.88C196.157 23.88 197.117 24.1667 197.957 24.74C198.797 25.3 199.457 26.1133 199.937 27.18C200.43 28.2333 200.677 29.5067 200.677 31C200.677 32.4933 200.43 33.7733 199.937 34.84C199.457 35.8933 198.797 36.7067 197.957 37.28C197.117 37.84 196.157 38.12 195.077 38.12ZM195.077 36.8C195.904 36.8 196.624 36.58 197.237 36.14C197.85 35.6867 198.33 35.0333 198.677 34.18C199.024 33.3133 199.197 32.2533 199.197 31C199.197 29.7467 199.024 28.6933 198.677 27.84C198.33 26.9733 197.85 26.32 197.237 25.88C196.624 25.4267 195.904 25.2 195.077 25.2C194.277 25.2 193.564 25.4267 192.937 25.88C192.31 26.32 191.824 26.9733 191.477 27.84C191.13 28.6933 190.957 29.7467 190.957 31C190.957 32.2533 191.13 33.3133 191.477 34.18C191.824 35.0333 192.31 35.6867 192.937 36.14C193.564 36.58 194.277 36.8 195.077 36.8ZM208.319 38.12C207.239 38.12 206.279 37.84 205.439 37.28C204.599 36.7067 203.939 35.8933 203.459 34.84C202.979 33.7733 202.739 32.4933 202.739 31C202.739 29.5067 202.979 28.2333 203.459 27.18C203.939 26.1133 204.599 25.3 205.439 24.74C206.279 24.1667 207.239 23.88 208.319 23.88C209.399 23.88 210.359 24.1667 211.199 24.74C212.039 25.3 212.699 26.1133 213.179 27.18C213.673 28.2333 213.919 29.5067 213.919 31C213.919 32.4933 213.673 33.7733 213.179 34.84C212.699 35.8933 212.039 36.7067 211.199 37.28C210.359 37.84 209.399 38.12 208.319 38.12ZM208.319 36.8C209.146 36.8 209.866 36.58 210.479 36.14C211.093 35.6867 211.573 35.0333 211.919 34.18C212.266 33.3133 212.439 32.2533 212.439 31C212.439 29.7467 212.266 28.6933 211.919 27.84C211.573 26.9733 211.093 26.32 210.479 25.88C209.866 25.4267 209.146 25.2 208.319 25.2C207.519 25.2 206.806 25.4267 206.179 25.88C205.553 26.32 205.066 26.9733 204.719 27.84C204.373 28.6933 204.199 29.7467 204.199 31C204.199 32.2533 204.373 33.3133 204.719 34.18C205.066 35.0333 205.553 35.6867 206.179 36.14C206.806 36.58 207.519 36.8 208.319 36.8ZM221.561 38.12C220.481 38.12 219.521 37.84 218.681 37.28C217.841 36.7067 217.181 35.8933 216.701 34.84C216.221 33.7733 215.981 32.4933 215.981 31C215.981 29.5067 216.221 28.2333 216.701 27.18C217.181 26.1133 217.841 25.3 218.681 24.74C219.521 24.1667 220.481 23.88 221.561 23.88C222.641 23.88 223.601 24.1667 224.441 24.74C225.281 25.3 225.941 26.1133 226.421 27.18C226.915 28.2333 227.161 29.5067 227.161 31C227.161 32.4933 226.915 33.7733 226.421 34.84C225.941 35.8933 225.281 36.7067 224.441 37.28C223.601 37.84 222.641 38.12 221.561 38.12ZM221.561 36.8C222.388 36.8 223.108 36.58 223.721 36.14C224.335 35.6867 224.815 35.0333 225.161 34.18C225.508 33.3133 225.681 32.2533 225.681 31C225.681 29.7467 225.508 28.6933 225.161 27.84C224.815 26.9733 224.335 26.32 223.721 25.88C223.108 25.4267 222.388 25.2 221.561 25.2C220.761 25.2 220.048 25.4267 219.421 25.88C218.795 26.32 218.308 26.9733 217.961 27.84C217.615 28.6933 217.441 29.7467 217.441 31C217.441 32.2533 217.615 33.3133 217.961 34.18C218.308 35.0333 218.795 35.6867 219.421 36.14C220.048 36.58 220.761 36.8 221.561 36.8ZM233.904 40.4V21.6H234.904V40.4H233.904ZM234.324 38.12C233.284 38.12 232.284 37.9533 231.324 37.62C230.377 37.2733 229.644 36.8333 229.124 36.3L229.704 35.16C230.197 35.64 230.857 36.0467 231.684 36.38C232.524 36.7 233.404 36.86 234.324 36.86C235.204 36.86 235.917 36.7533 236.464 36.54C237.024 36.3133 237.43 36.0133 237.684 35.64C237.95 35.2667 238.084 34.8533 238.084 34.4C238.084 33.8533 237.924 33.4133 237.604 33.08C237.297 32.7467 236.89 32.4867 236.384 32.3C235.877 32.1 235.317 31.9267 234.704 31.78C234.09 31.6333 233.477 31.48 232.864 31.32C232.25 31.1467 231.684 30.92 231.164 30.64C230.657 30.36 230.244 29.9933 229.924 29.54C229.617 29.0733 229.464 28.4667 229.464 27.72C229.464 27.0267 229.644 26.3933 230.004 25.82C230.377 25.2333 230.944 24.7667 231.704 24.42C232.464 24.06 233.437 23.88 234.624 23.88C235.41 23.88 236.19 23.9933 236.964 24.22C237.737 24.4333 238.404 24.7333 238.964 25.12L238.464 26.3C237.864 25.9 237.224 25.6067 236.544 25.42C235.877 25.2333 235.23 25.14 234.604 25.14C233.764 25.14 233.07 25.2533 232.524 25.48C231.977 25.7067 231.57 26.0133 231.304 26.4C231.05 26.7733 230.924 27.2 230.924 27.68C230.924 28.2267 231.077 28.6667 231.384 29C231.704 29.3333 232.117 29.5933 232.624 29.78C233.144 29.9667 233.71 30.1333 234.324 30.28C234.937 30.4267 235.544 30.5867 236.144 30.76C236.757 30.9333 237.317 31.16 237.824 31.44C238.344 31.7067 238.757 32.0667 239.064 32.52C239.384 32.9733 239.544 33.5667 239.544 34.3C239.544 34.98 239.357 35.6133 238.984 36.2C238.61 36.7733 238.037 37.24 237.264 37.6C236.504 37.9467 235.524 38.12 234.324 38.12Z" fill="#BDBDBD"/>
<line x1="169" y1="30.5" x2="246" y2="30.5" stroke="#BDBDBD"/>
<rect x="292" y="22" width="98" height="31" rx="15.5" fill="#C6E3F8"/>
<path d="M317.58 40.48V38.4H323.08V40.48H317.58ZM329.696 45.2C328.709 45.2 327.742 45.06 326.796 44.78C325.862 44.4867 325.076 44.0867 324.436 43.58L325.536 41.56C326.042 41.9733 326.656 42.3067 327.376 42.56C328.109 42.8133 328.869 42.94 329.656 42.94C330.576 42.94 331.296 42.7467 331.816 42.36C332.349 41.9733 332.616 41.4533 332.616 40.8C332.616 40.36 332.502 39.9733 332.276 39.64C332.062 39.3067 331.676 39.0533 331.116 38.88C330.569 38.7067 329.816 38.62 328.856 38.62H325.476L326.196 31H334.416V33.18H327.156L328.516 31.94L327.976 37.64L326.616 36.42H329.436C330.822 36.42 331.936 36.6067 332.776 36.98C333.629 37.34 334.249 37.8467 334.636 38.5C335.036 39.14 335.236 39.8733 335.236 40.7C335.236 41.5133 335.036 42.26 334.636 42.94C334.236 43.62 333.622 44.1667 332.796 44.58C331.982 44.9933 330.949 45.2 329.696 45.2ZM342.575 45.2C341.469 45.2 340.469 44.92 339.575 44.36C338.695 43.8 338.002 42.9867 337.495 41.92C336.989 40.84 336.735 39.5333 336.735 38C336.735 36.4667 336.989 35.1667 337.495 34.1C338.002 33.02 338.695 32.2 339.575 31.64C340.469 31.08 341.469 30.8 342.575 30.8C343.695 30.8 344.695 31.08 345.575 31.64C346.455 32.2 347.149 33.02 347.655 34.1C348.175 35.1667 348.435 36.4667 348.435 38C348.435 39.5333 348.175 40.84 347.655 41.92C347.149 42.9867 346.455 43.8 345.575 44.36C344.695 44.92 343.695 45.2 342.575 45.2ZM342.575 42.94C343.229 42.94 343.795 42.7667 344.275 42.42C344.755 42.06 345.129 41.5133 345.395 40.78C345.675 40.0467 345.815 39.12 345.815 38C345.815 36.8667 345.675 35.94 345.395 35.22C345.129 34.4867 344.755 33.9467 344.275 33.6C343.795 33.24 343.229 33.06 342.575 33.06C341.949 33.06 341.389 33.24 340.895 33.6C340.415 33.9467 340.035 34.4867 339.755 35.22C339.489 35.94 339.355 36.8667 339.355 38C339.355 39.12 339.489 40.0467 339.755 40.78C340.035 41.5133 340.415 42.06 340.895 42.42C341.389 42.7667 341.949 42.94 342.575 42.94ZM352.153 45L361.713 31H363.673L354.113 45H352.153ZM353.313 38.54C352.659 38.54 352.079 38.38 351.573 38.06C351.066 37.74 350.673 37.2933 350.393 36.72C350.113 36.1467 349.972 35.4733 349.972 34.7C349.972 33.9267 350.113 33.2533 350.393 32.68C350.673 32.1067 351.066 31.66 351.573 31.34C352.079 31.02 352.659 30.86 353.313 30.86C353.993 30.86 354.579 31.02 355.073 31.34C355.579 31.66 355.973 32.1067 356.253 32.68C356.533 33.2533 356.673 33.9267 356.673 34.7C356.673 35.4733 356.533 36.1467 356.253 36.72C355.973 37.2933 355.579 37.74 355.073 38.06C354.579 38.38 353.993 38.54 353.313 38.54ZM353.333 37.14C353.866 37.14 354.279 36.9333 354.573 36.52C354.879 36.0933 355.033 35.4867 355.033 34.7C355.033 33.9133 354.879 33.3133 354.573 32.9C354.279 32.4733 353.866 32.26 353.333 32.26C352.799 32.26 352.373 32.4733 352.053 32.9C351.746 33.3267 351.593 33.9267 351.593 34.7C351.593 35.4733 351.746 36.0733 352.053 36.5C352.373 36.9267 352.799 37.14 353.333 37.14ZM362.493 45.14C361.839 45.14 361.259 44.98 360.753 44.66C360.246 44.34 359.853 43.8933 359.573 43.32C359.293 42.7467 359.153 42.0733 359.153 41.3C359.153 40.5267 359.293 39.8533 359.573 39.28C359.853 38.7067 360.246 38.26 360.753 37.94C361.259 37.62 361.839 37.46 362.493 37.46C363.173 37.46 363.759 37.62 364.253 37.94C364.759 38.26 365.153 38.7067 365.433 39.28C365.713 39.8533 365.853 40.5267 365.853 41.3C365.853 42.0733 365.713 42.7467 365.433 43.32C365.153 43.8933 364.759 44.34 364.253 44.66C363.759 44.98 363.173 45.14 362.493 45.14ZM362.493 43.74C363.026 43.74 363.446 43.5267 363.753 43.1C364.059 42.6733 364.213 42.0733 364.213 41.3C364.213 40.5267 364.059 39.9267 363.753 39.5C363.446 39.0733 363.026 38.86 362.493 38.86C361.973 38.86 361.553 39.0733 361.233 39.5C360.926 39.9133 360.773 40.5133 360.773 41.3C360.773 42.0867 360.926 42.6933 361.233 43.12C361.553 43.5333 361.973 43.74 362.493 43.74Z" fill="black"/>
<path d="M159.333 62C159.333 63.4728 160.527 64.6667 162 64.6667C163.473 64.6667 164.667 63.4728 164.667 62C164.667 60.5272 163.473 59.3333 162 59.3333C160.527 59.3333 159.333 60.5272 159.333 62ZM0 62.5H162V61.5H0V62.5Z" fill="white"/>
</svg>
