<svg width="71" height="21" viewBox="0 0 71 21" fill="none" xmlns="http://www.w3.org/2000/svg">
<path d="M32.1846 16.3V4.28H25.4846L25.3646 7.68C25.3246 8.73333 25.2579 9.74667 25.1646 10.72C25.0846 11.68 24.9513 12.5467 24.7646 13.32C24.5913 14.08 24.3513 14.7 24.0446 15.18C23.7513 15.66 23.3646 15.94 22.8846 16.02L21.2646 15.72C21.7979 15.7467 22.2379 15.5533 22.5846 15.14C22.9446 14.7267 23.2179 14.1467 23.4046 13.4C23.6046 12.6533 23.7513 11.78 23.8446 10.78C23.9379 9.78 24.0046 8.7 24.0446 7.54L24.2046 3H33.6446V16.3H32.1846ZM20.7446 20.14L20.7646 15.72H35.7446V20.14H34.3646V17H22.1446L22.1246 20.14H20.7446ZM40.1724 17.12C39.4124 17.12 38.6591 17.0133 37.9124 16.8C37.1658 16.5867 36.5058 16.26 35.9324 15.82L36.3924 14.76C36.8991 15.1333 37.4858 15.42 38.1524 15.62C38.8191 15.8067 39.4791 15.9 40.1324 15.9C40.7858 15.8867 41.3524 15.7933 41.8324 15.62C42.3124 15.4467 42.6858 15.2067 42.9524 14.9C43.2191 14.5933 43.3524 14.2467 43.3524 13.86C43.3524 13.3 43.0991 12.8667 42.5924 12.56C42.0858 12.24 41.3924 12.08 40.5124 12.08H38.7124V11.04H40.4124C40.9324 11.04 41.3924 10.9733 41.7924 10.84C42.1924 10.7067 42.4991 10.5133 42.7124 10.26C42.9391 10.0067 43.0524 9.70667 43.0524 9.36C43.0524 8.98667 42.9191 8.66667 42.6524 8.4C42.3991 8.13333 42.0458 7.93333 41.5924 7.8C41.1391 7.66667 40.6258 7.6 40.0524 7.6C39.5324 7.61333 38.9924 7.69333 38.4324 7.84C37.8724 7.97333 37.3191 8.18 36.7724 8.46L36.3724 7.36C36.9858 7.04 37.5924 6.8 38.1924 6.64C38.8058 6.46667 39.4191 6.38 40.0324 6.38C40.8724 6.35333 41.6258 6.45333 42.2924 6.68C42.9724 6.90667 43.5124 7.23333 43.9124 7.66C44.3124 8.07333 44.5124 8.57333 44.5124 9.16C44.5124 9.68 44.3524 10.1333 44.0324 10.52C43.7124 10.9067 43.2858 11.2067 42.7524 11.42C42.2191 11.6333 41.6124 11.74 40.9324 11.74L40.9924 11.36C42.1924 11.36 43.1258 11.5933 43.7924 12.06C44.4724 12.5267 44.8124 13.16 44.8124 13.96C44.8124 14.5867 44.6058 15.14 44.1924 15.62C43.7791 16.0867 43.2191 16.4533 42.5124 16.72C41.8191 16.9867 41.0391 17.12 40.1724 17.12ZM51.836 17.1C50.7427 17.1 49.7827 16.8733 48.956 16.42C48.1293 15.9533 47.4827 15.32 47.016 14.52C46.5493 13.7067 46.316 12.78 46.316 11.74C46.316 10.7 46.536 9.78 46.976 8.98C47.4293 8.18 48.0427 7.55333 48.816 7.1C49.6027 6.63333 50.4827 6.4 51.456 6.4C52.4427 6.4 53.316 6.62667 54.076 7.08C54.8493 7.52 55.456 8.14667 55.896 8.96C56.336 9.76 56.556 10.6867 56.556 11.74C56.556 11.8067 56.5493 11.88 56.536 11.96C56.536 12.0267 56.536 12.1 56.536 12.18H47.396V11.12H55.776L55.216 11.54C55.216 10.78 55.0493 10.1067 54.716 9.52C54.396 8.92 53.956 8.45333 53.396 8.12C52.836 7.78667 52.1893 7.62 51.456 7.62C50.736 7.62 50.0893 7.78667 49.516 8.12C48.9427 8.45333 48.496 8.92 48.176 9.52C47.856 10.12 47.696 10.8067 47.696 11.58V11.8C47.696 12.6 47.8693 13.3067 48.216 13.92C48.576 14.52 49.0693 14.9933 49.696 15.34C50.336 15.6733 51.0627 15.84 51.876 15.84C52.516 15.84 53.1093 15.7267 53.656 15.5C54.216 15.2733 54.696 14.9267 55.096 14.46L55.896 15.38C55.4293 15.94 54.8427 16.3667 54.136 16.66C53.4427 16.9533 52.676 17.1 51.836 17.1ZM58.9993 17V6.5H60.4193V11.14H67.0393V6.5H68.4593V17H67.0393V12.36H60.4193V17H58.9993Z" fill="white"/>
<g clip-path="url(#clip0_137_469)">
<path d="M8.35 11.35C7.25 12.485 7.17 13.9 7.075 17C9.965 17 11.96 16.99 12.99 15.99C13.99 14.96 14 12.87 14 10.075C10.9 10.175 9.485 10.25 8.35 11.35ZM0 10.075C0 12.87 0.00999999 14.96 1.01 15.99C2.04 16.99 4.035 17 6.925 17C6.825 13.9 6.75 12.485 5.65 11.35C4.515 10.25 3.1 10.17 0 10.075ZM6.925 3C4.04 3 2.04 3.01 1.01 4.01C0.00999999 5.04 0 7.13 0 9.925C3.1 9.825 4.515 9.75 5.65 8.65C6.75 7.515 6.83 6.1 6.925 3ZM8.35 8.65C7.25 7.515 7.17 6.1 7.075 3C9.965 3 11.96 3.01 12.99 4.01C13.99 5.04 14 7.13 14 9.925C10.9 9.825 9.485 9.75 8.35 8.65Z" fill="white"/>
</g>
<defs>
<clipPath id="clip0_137_469">
<rect width="14" height="14" fill="white" transform="translate(0 3)"/>
</clipPath>
</defs>
</svg>
