<svg width="90" height="122" viewBox="0 0 90 122" fill="none" xmlns="http://www.w3.org/2000/svg">
<g clip-path="url(#clip0_101_354)">
<path style="mix-blend-mode:overlay" d="M37.9622 79.4216L67.7879 61.7585C68.3641 61.4163 68.8329 60.4968 68.8355 59.7079L68.8538 32.6672C68.8538 31.8758 68.3876 31.5127 67.8088 31.8549L37.9832 49.518C37.407 49.8602 36.9382 50.7797 36.9356 51.5686L36.9172 77.8152C36.9172 78.6067 37.3834 79.7664 37.9622 79.4243V79.4216Z" fill="url(#paint0_linear_101_354)"/>
<g style="mix-blend-mode:multiply" opacity="0.02">
<path d="M34.2275 103.385L-2.46792 82.1697C-7.48862 79.2677 -6.84958 74.2132 -1.04054 70.8827L29.9873 53.0863C35.7963 49.7559 44.5753 49.4085 49.596 52.3105L86.2914 73.5262C91.3121 76.4283 90.6731 81.4827 84.864 84.8132L53.8362 102.61C48.0272 105.94 39.2482 106.287 34.2275 103.385Z" fill="#FCF9FD"/>
</g>
<g style="mix-blend-mode:multiply" opacity="0.05">
<path d="M34.28 103.213L-2.16664 82.1413C-7.1533 79.2575 -6.51949 74.2396 -0.749738 70.93L30.0685 53.2564C35.8383 49.9468 44.5571 49.602 49.5437 52.4858L85.9903 73.5552C90.977 76.439 90.3432 81.4569 84.5734 84.7664L53.7551 102.44C47.9854 105.75 39.2666 106.094 34.28 103.211V103.213Z" fill="#F9F3FC"/>
</g>
<g style="mix-blend-mode:multiply" opacity="0.07">
<path d="M34.3322 103.038L-1.86294 82.1123C-6.81555 79.2494 -6.18436 74.2655 -0.453899 70.9794L30.1522 53.426C35.8827 50.1399 44.5412 49.7977 49.4939 52.6606L85.689 73.5863C90.6416 76.4492 90.0104 81.4331 84.28 84.7192L53.6738 102.273C47.9434 105.559 39.2848 105.901 34.3322 103.038Z" fill="#F6ECFA"/>
</g>
<g style="mix-blend-mode:multiply" opacity="0.1">
<path d="M34.3847 102.866L-1.56166 82.0836C-6.48023 79.239 -5.85427 74.289 -0.163095 71.0265L30.2309 53.5932C35.9221 50.3306 44.5204 49.9884 49.439 52.833L85.3853 73.6151C90.3039 76.4597 89.6779 81.4097 83.9867 84.6722L53.5928 102.106C47.9016 105.368 39.3033 105.71 34.3847 102.866Z" fill="#F3E6F8"/>
</g>
<g style="mix-blend-mode:multiply" opacity="0.12">
<path d="M34.437 102.691L-1.26053 82.0521C-6.14505 79.2284 -5.52171 74.3124 0.127559 71.0708L30.312 53.7602C35.9639 50.5186 44.502 50.1816 49.3865 53.0053L85.084 73.6437C89.9686 76.4674 89.3452 81.3834 83.696 84.6251L53.5115 101.936C47.8596 105.177 39.3215 105.514 34.437 102.691Z" fill="#F0E0F7"/>
</g>
<g style="mix-blend-mode:multiply" opacity="0.15">
<path d="M34.4894 102.518L-0.959376 82.0233C-5.80984 79.2204 -5.19175 74.3384 0.418241 71.1202L30.3906 53.9299C36.0005 50.7117 44.481 50.3748 49.3315 53.1802L84.7776 73.6749C89.6281 76.4777 89.01 81.3598 83.4 84.5779L53.4277 101.768C47.8177 104.986 39.3372 105.323 34.4867 102.518H34.4894Z" fill="#EEDAF5"/>
</g>
<g style="mix-blend-mode:multiply" opacity="0.17">
<path d="M34.5418 102.343L-0.655531 81.995C-5.47195 79.2104 -4.85909 74.3623 0.714228 71.1677L30.477 54.0975C36.0477 50.9029 44.4706 50.5685 49.2844 53.353L84.4817 73.7015C89.2981 76.486 88.6852 81.3341 83.1119 84.5287L53.3491 101.599C47.7784 104.794 39.3556 105.128 34.5418 102.343Z" fill="#EBD3F3"/>
</g>
<g style="mix-blend-mode:multiply" opacity="0.2">
<path d="M34.5942 102.171L-0.354277 81.9659C-5.13665 79.2023 -4.52641 74.3882 1.00501 71.2144L30.5557 54.267C36.0871 51.0932 44.4497 50.7641 49.2294 53.5277L84.1779 73.7325C88.9603 76.4961 88.3501 81.3103 82.8186 84.484L53.268 101.431C47.7366 104.605 39.374 104.934 34.5942 102.171Z" fill="#E8CDF2"/>
</g>
<g style="mix-blend-mode:multiply" opacity="0.22">
<path d="M34.6466 101.996L-0.05312 81.9346C-4.80144 79.1893 -4.19644 74.4117 1.29569 71.2615L30.6368 54.4342C36.129 51.2839 44.4313 50.9548 49.177 53.7002L83.8767 73.7613C88.625 76.5066 88.02 81.2842 82.5279 84.4344L53.1868 101.262C47.6946 104.412 39.3923 104.741 34.6466 101.996Z" fill="#E5C7F0"/>
</g>
<g style="mix-blend-mode:multiply" opacity="0.24">
<path d="M34.6989 101.823L0.24804 81.9058C-4.46624 79.1814 -3.86648 74.4378 1.58899 71.3084L30.718 54.6013C36.1708 51.4746 44.4129 51.1481 49.1246 53.8725L83.5729 73.79C88.2871 76.5144 87.6848 81.258 82.2319 84.3874L53.1029 101.094C47.6501 104.221 39.408 104.548 34.6963 101.823H34.6989Z" fill="#E2C1EE"/>
</g>
<g style="mix-blend-mode:multiply" opacity="0.27">
<path d="M34.7513 101.648L0.551856 81.8772C-4.12837 79.171 -3.53123 74.4614 1.88233 71.3582L30.7992 54.7738C36.2127 51.668 44.3946 51.3441 49.0749 54.0502L83.2743 73.8214C87.9545 76.5276 87.3574 81.2372 81.9438 84.3404L53.027 100.925C47.6134 104.031 39.4315 104.355 34.7513 101.648Z" fill="#DFBBEC"/>
</g>
<g style="mix-blend-mode:multiply" opacity="0.29">
<path d="M34.8037 101.476L0.853014 81.8484C-3.79317 79.1631 -3.20126 74.4874 2.17301 71.4051L30.8803 54.9409C36.2546 51.8586 44.3763 51.5373 49.0224 54.2226L82.9731 73.8501C87.6193 76.5354 87.0274 81.2111 81.6531 84.2934L52.9458 100.758C47.5715 103.84 39.4498 104.161 34.8037 101.476Z" fill="#DCB4EB"/>
</g>
<g style="mix-blend-mode:multiply" opacity="0.32">
<path d="M34.8561 101.301L1.1543 81.8173C-3.45521 79.1529 -2.86855 74.5112 2.46644 71.4497L30.9616 55.1057C36.2966 52.0469 44.358 51.7256 48.9702 54.3926L82.6694 73.8764C87.2789 76.5408 86.6922 81.1825 81.3572 84.2439L52.8621 100.588C47.5271 103.647 39.4657 103.968 34.8535 101.301H34.8561Z" fill="#D9AEE9"/>
</g>
<g style="mix-blend-mode:multiply" opacity="0.34">
<path d="M34.9085 101.129L1.45546 81.7885C-3.12001 79.1425 -2.53858 74.5347 2.75712 71.4994L31.0428 55.2781C36.3385 52.2402 44.3397 51.9241 48.9177 54.5702L82.3681 73.9104C86.9436 76.5565 86.3622 81.1643 81.0665 84.1995L52.7808 100.421C47.4851 103.459 39.484 103.775 34.9059 101.129H34.9085Z" fill="#D6A8E7"/>
</g>
<g style="mix-blend-mode:multiply" opacity="0.37">
<path d="M34.9583 100.954L1.7593 81.7598C-2.78212 79.1346 -2.20593 74.5608 3.05049 71.5464L31.124 55.4452C36.3804 52.4308 44.3214 52.1174 48.8654 54.7426L82.067 73.9365C86.6084 76.5616 86.0322 81.1355 80.7758 84.1499L52.7023 100.251C47.4459 103.265 39.5049 103.579 34.9609 100.954H34.9583Z" fill="#D3A2E6"/>
</g>
<g style="mix-blend-mode:multiply" opacity="0.39">
<path d="M35.0106 100.781L2.06043 81.7309C-2.44694 79.124 -1.87337 74.5867 3.34114 71.5959L31.2051 55.6149C36.4223 52.624 44.3056 52.3105 48.813 54.9174L81.7658 73.9677C86.2731 76.5746 85.6996 81.1118 80.485 84.1027L52.621 100.084C47.4039 103.075 39.5206 103.388 35.0132 100.781H35.0106Z" fill="#D19BE4"/>
</g>
<g style="mix-blend-mode:multiply" opacity="0.41">
<path d="M35.063 100.606L2.36159 81.6994C-2.11173 79.1134 -1.5434 74.6101 3.63445 71.6401L31.2863 55.7819C36.4641 52.8119 44.2872 52.5037 48.7605 55.0897L81.4619 73.9963C85.9352 76.5823 85.3669 81.0856 80.1891 84.0556L52.5372 99.9138C47.3594 102.884 39.5363 103.192 35.063 100.606Z" fill="#CE95E2"/>
</g>
<g style="mix-blend-mode:multiply" opacity="0.44">
<path d="M35.1154 100.434L2.66285 81.6707C-1.77643 79.103 -1.21072 74.6337 3.92522 71.6872L31.3649 55.9491C36.5009 53.0027 44.2663 52.6944 48.7056 55.2621L81.1582 74.025C85.5974 76.5928 85.0317 81.0621 79.8958 84.0086L52.4561 99.7466C47.3201 102.693 39.5547 103.001 35.1154 100.434Z" fill="#CB8FE1"/>
</g>
<g style="mix-blend-mode:multiply" opacity="0.46">
<path d="M35.1677 100.259L2.964 81.6423C-1.44123 79.0954 -0.880752 74.66 4.2159 71.7371L31.4461 56.1192C36.5427 53.1962 44.248 52.8906 48.6532 55.4374L80.8569 74.054C85.2622 76.6009 84.7017 81.0362 79.605 83.9592L52.3749 99.5771C47.2782 102.5 39.573 102.806 35.1677 100.259Z" fill="#C889DF"/>
</g>
<g style="mix-blend-mode:multiply" opacity="0.49">
<path d="M35.2202 100.086L3.26785 81.6132C-1.10333 79.0847 -0.548097 74.6859 4.51189 71.7838L31.5299 56.2887C36.5873 53.3866 44.2323 53.0862 48.6035 55.6121L80.5558 74.0851C84.927 76.6136 84.3717 81.0124 79.3117 83.9145L52.2937 99.4096C47.2363 102.312 39.5913 102.612 35.2202 100.086Z" fill="#C583DD"/>
</g>
<g style="mix-blend-mode:multiply" opacity="0.51">
<path d="M35.2725 99.9112L3.56898 81.5819C-0.768155 79.0743 -0.215538 74.7068 4.80255 71.8308L31.6111 56.4559C36.6291 53.5773 44.2139 53.2769 48.551 55.7846L80.2545 74.1138C84.5917 76.6215 84.039 80.9889 79.021 83.8649L52.2124 99.2399C47.1944 102.118 39.6096 102.419 35.2725 99.9112Z" fill="#C27CDC"/>
</g>
<g style="mix-blend-mode:multiply" opacity="0.54">
<path d="M35.3248 99.7387L3.87014 81.5531C-0.432951 79.0664 0.114429 74.7329 5.09323 71.8778L31.6896 56.623C36.6684 53.768 44.1929 53.4702 48.496 55.9569L79.9507 74.1425C84.2538 76.6293 83.7064 80.9628 78.7276 83.8178L52.1312 99.0726C47.1524 101.928 39.6279 102.225 35.3248 99.7387Z" fill="#BF76DA"/>
</g>
<g style="mix-blend-mode:multiply" opacity="0.56">
<path d="M35.3772 99.564L4.17398 81.5247C-0.0950597 79.0562 0.447082 74.7593 5.3866 71.9251L31.7734 56.7931C36.713 53.9589 44.1772 53.6637 48.4489 56.1322L79.6521 74.1715C83.9212 76.64 83.379 80.9369 78.4395 83.7711L52.0527 98.9031C47.1132 101.737 39.6489 102.032 35.3772 99.564Z" fill="#BC70D8"/>
</g>
<g style="mix-blend-mode:multiply" opacity="0.59">
<path d="M35.4297 99.3914L4.47523 81.4957C0.240242 79.0481 0.779766 74.7852 5.67999 71.9745L31.8547 56.9626C36.7549 54.152 44.1616 53.8594 48.3966 56.307L79.351 74.2027C83.586 76.6502 83.0465 80.9132 78.1463 83.7238L51.9716 98.7357C47.0713 101.546 39.6647 101.839 35.4297 99.3914Z" fill="#B96AD7"/>
</g>
<g style="mix-blend-mode:multiply" opacity="0.61">
<path d="M35.482 99.2166L4.77639 81.4646C0.575447 79.0353 1.10973 74.8063 5.97067 72.0191L31.9332 57.1274C36.7942 54.3403 44.1406 54.0477 48.3415 56.477L79.0472 74.229C83.2481 76.6583 82.7138 80.8873 77.8529 83.6744L51.8903 98.5661C47.0294 101.353 39.683 101.646 35.482 99.2166Z" fill="#B664D5"/>
</g>
<g style="mix-blend-mode:multiply" opacity="0.63">
<path d="M35.5344 99.0442L5.07752 81.4358C0.910626 79.0275 1.44229 74.8324 6.26133 72.0688L32.0144 57.2998C36.836 54.5336 44.1222 54.2462 48.2891 56.6546L78.7459 74.2629C82.9128 76.6713 82.3812 80.8664 77.5621 83.63L51.8091 98.399C46.9874 101.165 39.7013 101.453 35.5344 99.0442Z" fill="#B45DD3"/>
</g>
<g style="mix-blend-mode:multiply" opacity="0.66">
<path d="M35.5868 98.8693L5.38137 81.4046C1.24852 79.0145 1.77495 74.856 6.55732 72.1133L32.0982 57.4645C36.8806 54.7218 44.1065 54.437 48.2394 56.8245L78.4448 74.2892C82.5776 76.6793 82.0512 80.8378 77.2688 83.5805L51.7279 98.2293C46.9456 100.972 39.7196 101.257 35.5868 98.8693Z" fill="#B157D2"/>
</g>
<g style="mix-blend-mode:multiply" opacity="0.68">
<path d="M35.6391 98.6967L5.68252 81.3784C1.58372 79.0092 2.10491 74.882 6.848 72.1628L32.1794 57.6342C36.9225 54.9149 44.0882 54.6302 48.187 56.9994L78.1436 74.3178C82.2424 76.687 81.7212 80.8141 76.9781 83.5334L51.6467 98.062C46.9036 100.781 39.7379 101.066 35.6391 98.6967Z" fill="#AE51D0"/>
</g>
<g style="mix-blend-mode:multiply" opacity="0.71">
<path d="M35.6916 98.5215L5.98378 81.3468C1.91902 78.9959 2.43759 74.9053 7.13878 72.2096L32.258 57.8037C36.9618 55.108 44.0673 54.8259 48.132 57.1742L77.8398 74.3489C81.9046 76.6998 81.386 80.7904 76.6848 83.4861L51.5656 97.892C46.8618 100.588 39.7563 100.87 35.6916 98.5215Z" fill="#AB4BCE"/>
</g>
<g style="mix-blend-mode:multiply" opacity="0.73">
<path d="M35.744 98.3491L6.28762 81.318C2.25692 78.988 2.77025 74.9314 7.43214 72.2566L32.3419 57.9708C37.0037 55.296 44.0516 55.0165 48.0823 57.3465L77.5387 74.3776C81.5694 76.7076 81.056 80.7642 76.3915 83.4391L51.4818 97.7248C46.8199 100.4 39.7721 100.679 35.7414 98.3491H35.744Z" fill="#A844CD"/>
</g>
<g style="mix-blend-mode:multiply" opacity="0.76">
<path d="M35.7963 98.1742L6.58878 81.2868C2.59212 78.9777 3.10022 74.955 7.72544 72.3011L32.423 58.1355C37.0456 55.4842 44.0332 55.2073 48.0299 57.5165L77.2374 74.4038C81.2341 76.713 80.726 80.7356 76.1008 83.3895L51.4032 97.5551C46.7806 100.206 39.793 100.483 35.7963 98.1742Z" fill="#A53ECB"/>
</g>
<g style="mix-blend-mode:multiply" opacity="0.78">
<path d="M35.8487 98.0018L6.88991 81.2607C2.9273 78.9698 3.43278 74.9811 8.0161 72.3533L32.5015 58.3106C37.0848 55.6828 44.0122 55.4059 47.9748 57.6967L76.9336 74.4378C80.8962 76.7286 80.3907 80.7174 75.8074 83.3452L51.322 97.3879C46.7386 100.016 39.8113 100.293 35.8487 98.0018Z" fill="#A238C9"/>
</g>
<g style="mix-blend-mode:multiply" opacity="0.8">
<path d="M35.9011 97.8268L7.19119 81.2294C3.26263 78.9594 3.76286 75.0047 8.3069 72.3978L32.5828 58.4752C37.1268 55.8683 43.9966 55.5966 47.9225 57.8665L76.6325 74.464C80.561 76.7339 80.0608 80.6887 75.5168 83.2956L51.2409 97.2182C46.6968 99.8251 39.8271 100.097 35.9011 97.8268Z" fill="#9F32C7"/>
</g>
<g style="mix-blend-mode:multiply" opacity="0.83">
<path d="M35.9535 97.6547L7.49501 81.2009C3.60049 78.9493 4.09811 75.0311 8.60286 72.4477L32.6666 58.6452C37.1714 56.0618 43.9809 55.7928 47.8728 58.0418L76.3313 74.4956C80.2258 76.7472 79.7282 80.6654 75.2234 83.2488L51.1597 97.0513C46.6549 99.6347 39.8454 99.9037 35.9535 97.6547Z" fill="#9C2CC6"/>
</g>
<g style="mix-blend-mode:multiply" opacity="0.85">
<path d="M36.0059 97.4792L7.79617 81.1691C3.9357 78.9383 4.42808 75.0515 8.89355 72.4916L32.7478 58.8119C37.2132 56.2521 43.9625 55.983 47.8204 58.2138L76.0301 74.5239C79.8905 76.7546 79.3982 80.6415 74.9327 83.2013L51.0785 96.881C46.613 99.4409 39.8637 99.71 36.0059 97.4792Z" fill="#9925C4"/>
</g>
<g style="mix-blend-mode:multiply" opacity="0.88">
<path d="M36.0582 97.307L8.09732 81.1432C4.2709 78.9307 4.75805 75.0804 9.18423 72.5414L32.8263 58.9819C37.2525 56.4429 43.9415 56.1791 47.768 58.3889L75.7289 74.5528C79.5553 76.7652 79.0681 80.6155 74.642 83.1545L50.9999 96.714C46.5737 99.253 39.8846 99.5168 36.0582 97.307Z" fill="#971FC2"/>
</g>
<g style="mix-blend-mode:multiply" opacity="0.9">
<path d="M36.108 97.132L8.39858 81.1119C4.60621 78.9203 5.09073 75.104 9.47762 72.5885L32.9076 59.1491C37.2945 56.6336 43.9233 56.3698 47.7156 58.5614L75.4251 74.5815C79.2175 76.7731 78.733 80.5894 74.3461 83.1049L50.9161 96.5443C46.5292 99.0598 39.9004 99.3236 36.108 97.132Z" fill="#9419C1"/>
</g>
<g style="mix-blend-mode:multiply" opacity="0.93">
<path d="M36.1604 96.9595L8.69974 81.083C4.94141 78.9097 5.4207 75.1299 9.76831 72.6354L32.9887 59.3188C37.3363 56.8268 43.9049 56.5656 47.6632 58.7389L75.1239 74.6154C78.8822 76.7886 78.4029 80.5684 74.0553 83.063L50.8349 96.3796C46.4873 98.8715 39.9187 99.1328 36.1604 96.9595Z" fill="#9113BF"/>
</g>
<g style="mix-blend-mode:multiply" opacity="0.95">
<path d="M36.2128 96.7872L9.00093 81.0544C5.27927 78.902 5.7507 75.1536 10.059 72.6852L33.0673 59.4887C37.3756 57.0177 43.8839 56.7617 47.6082 58.914L74.8201 74.6469C78.5417 76.7993 78.0703 80.5477 73.762 83.0161L50.7537 96.2126C46.4454 98.6836 39.9371 98.9396 36.2128 96.7872Z" fill="#8E0CBD"/>
</g>
<g style="mix-blend-mode:multiply" opacity="0.98">
<path d="M36.2651 96.6123L9.30206 81.0257C5.61445 78.8942 6.08326 75.1798 10.3497 72.7322L33.1484 59.6559C37.4175 57.2084 43.8656 56.9524 47.5558 59.0865L74.5188 74.673C78.2064 76.8045 77.7376 80.519 73.4712 82.9665L50.6724 96.0428C46.4034 98.4904 39.9553 98.7464 36.2651 96.6123Z" fill="#8B06BC"/>
</g>
<g style="mix-blend-mode:multiply">
<path d="M36.3175 96.4396L9.6059 80.9968C5.95234 78.8836 6.41591 75.2057 10.6457 72.779L33.2323 59.8255C37.462 57.4015 43.8525 57.1481 47.5061 59.2613L74.2177 74.7042C77.8712 76.8174 77.4077 80.4952 73.1779 82.9219L50.5913 95.8754C46.3615 98.2995 39.9711 98.5529 36.3175 96.4396Z" fill="#8800BA"/>
</g>
<path d="M80.8177 74.1292L80.7889 68.8057L75.5743 68.7796L48.1713 52.9371C44.083 50.5731 36.9304 50.8552 32.1978 53.5692L6.924 68.0639C6.7171 68.1814 6.52067 68.3042 6.32948 68.4296L3.0033 68.4139V73.3482H3.00592C3.03734 74.8136 3.94353 76.2111 5.75853 77.2612L35.6497 94.543C39.738 96.907 46.8906 96.6249 51.6232 93.9109L76.897 79.4162C79.5265 77.909 80.8543 75.9656 80.8124 74.1345L80.8177 74.1292Z" fill="url(#paint1_linear_101_354)"/>
<path d="M35.6526 89.6063L5.76143 72.3245C1.67311 69.9605 2.19168 65.8438 6.92429 63.1298L32.198 48.6351C36.9307 45.9211 44.0806 45.639 48.1716 48.003L78.0627 65.2848C82.151 67.6488 81.6325 71.7655 76.8999 74.4795L51.6261 88.9742C46.8935 91.6882 39.7435 91.9703 35.6526 89.6063Z" fill="url(#paint2_linear_101_354)"/>
<path d="M55.0935 20.9102L48.3023 16.9842C47.823 16.7073 47.3804 16.6785 47.0373 16.8562C47.0373 16.8562 47.0269 16.8614 47.0216 16.8666L19.4955 32.6856L28.89 68.3411L56.2773 52.6031C56.7409 52.3837 57.0395 51.8038 57.0395 50.9601L57.0866 24.7265C57.0866 23.2585 56.1987 21.5528 55.0961 20.9154L55.0935 20.9102Z" fill="url(#paint3_linear_101_354)"/>
<path d="M27.6066 68.2183L20.8154 64.2923C19.7128 63.6549 18.8223 61.9492 18.825 60.4812L18.8721 34.2476C18.8747 32.7796 19.7704 32.1083 20.873 32.7457L27.6642 36.6717C28.7668 37.309 29.6573 39.0148 29.6547 40.4828L29.6076 66.7163C29.6049 68.1844 28.7092 68.8557 27.6066 68.2183Z" fill="#AB95F9"/>
<path d="M26.2421 65.1177L21.8945 62.6048C21.19 62.1973 20.619 61.1054 20.619 60.1651L20.6347 36.7213C20.6347 35.7809 21.2083 35.3525 21.9154 35.76L26.2631 38.2729C26.9676 38.6804 27.5385 39.7722 27.5385 40.7126L27.5228 64.1564C27.5228 65.0942 26.9466 65.5252 26.2421 65.1177Z" fill="url(#paint4_linear_101_354)"/>
<path d="M24.0132 61.5027C23.3087 61.0952 22.7378 60.0034 22.7378 59.063L22.7535 36.2487L21.918 35.7655C21.2135 35.358 20.6399 35.789 20.6373 36.7267L20.6216 60.1706C20.6216 61.1083 21.1899 62.2002 21.8971 62.6103L26.2447 65.1231C26.9492 65.5306 27.5228 65.0996 27.5254 64.1619V63.5324L24.0132 61.5027Z" fill="url(#paint5_linear_101_354)"/>
<path style="mix-blend-mode:overlay" d="M23.6178 66.6538L19.2702 64.1409C18.5657 63.7334 17.9948 62.6416 17.9948 61.7012L18.0105 38.2574C18.0105 37.317 18.584 36.8886 19.2912 37.2961L23.6388 39.809C24.3433 40.2165 24.9143 41.3084 24.9143 42.2487L24.8985 65.6925C24.8985 66.6303 24.3224 67.0613 23.6178 66.6538Z" fill="url(#paint6_linear_101_354)"/>
<g style="mix-blend-mode:overlay">
<path d="M22.1643 68.5529C21.9364 68.5529 21.6955 68.4823 21.4572 68.3439L17.1095 65.831C16.2846 65.353 15.6376 64.1331 15.6403 63.0517L15.656 39.6079C15.656 38.9705 15.8917 38.4716 16.2976 38.2391C16.6565 38.0328 17.0938 38.0589 17.526 38.3097L21.8736 40.8225C22.7012 41.3006 23.3455 42.5204 23.3429 43.6018L23.3272 67.0457C23.3272 67.683 23.0914 68.1819 22.6855 68.4144C22.5231 68.5058 22.3476 68.5529 22.1617 68.5529H22.1643ZM16.8215 38.887C16.7743 38.887 16.7298 38.8974 16.6879 38.9209C16.57 38.9888 16.4417 39.2056 16.4417 39.6131L16.426 63.0569C16.426 63.8562 16.9184 64.8175 17.505 65.1571L21.8526 67.67C21.9574 67.73 22.1538 67.8215 22.2953 67.7379C22.4131 67.67 22.5414 67.4531 22.5414 67.0457L22.5572 43.6018C22.5572 42.8025 22.0648 41.8413 21.4781 41.5017L17.1305 38.9888C17.0545 38.947 16.9341 38.887 16.8188 38.887H16.8215Z" fill="#57FFFE"/>
</g>
<g style="mix-blend-mode:overlay">
<path d="M12.6152 73.9965C12.3874 73.9965 12.1464 73.926 11.9081 73.7902L7.56048 71.2773C6.73286 70.7993 6.08858 69.5794 6.09119 68.498L6.10691 45.0542C6.10691 44.4168 6.34262 43.9179 6.74857 43.6854C7.10738 43.4791 7.54476 43.5052 7.97691 43.756L12.3245 46.2688C13.1521 46.7468 13.7964 47.9667 13.7938 49.0481L13.7781 72.4919C13.7781 73.1293 13.5424 73.6282 13.1364 73.8607C12.974 73.9521 12.7986 73.9991 12.6126 73.9991L12.6152 73.9965ZM7.27238 44.3306C7.22524 44.3306 7.18072 44.3411 7.13881 44.3646C7.02095 44.4325 6.89262 44.6493 6.89262 45.0568L6.87691 68.5006C6.87691 69.2999 7.36929 70.2612 7.95595 70.6008L12.3036 73.1136C12.4083 73.1737 12.6048 73.2651 12.7462 73.1815C12.864 73.1136 12.9924 72.8968 12.9924 72.4893L13.0081 49.0455C13.0081 48.2462 12.5157 47.2849 11.929 46.9454L7.58143 44.4325C7.50548 44.3881 7.385 44.3306 7.26976 44.3306H7.27238Z" fill="#57FFFE"/>
</g>
<path style="mix-blend-mode:overlay" opacity="0.6" d="M26.2369 65.1597L21.8892 62.6468C21.1847 62.2393 20.6138 61.1474 20.6138 60.2071L20.6295 36.7633C20.6295 35.8229 21.2031 35.3945 21.9102 35.802L26.2578 38.3149C26.9623 38.7223 27.5333 39.8142 27.5333 40.7546L27.5176 64.1984C27.5176 65.1362 26.9414 65.5671 26.2369 65.1597Z" fill="url(#paint7_linear_101_354)"/>
<g style="mix-blend-mode:overlay">
<path d="M51.3509 40.7101V39.404C51.1466 39.5268 50.9161 39.66 50.6621 39.8063L50.319 40.0022V41.303L49.2295 41.9299V40.6291L48.2238 41.209L48.229 31.6826L49.2347 31.1027V29.8018L50.3242 29.1749V30.4758L51.0916 30.0343C51.1833 29.9821 51.2697 29.9325 51.3561 29.8881V28.582L52.4456 27.9551V29.3709C52.6892 29.3003 52.9092 29.2977 53.1056 29.363C53.3283 29.4335 53.5116 29.5929 53.6583 29.841C53.8049 30.0892 53.8783 30.4183 53.8783 30.8284C53.8783 31.2751 53.7866 31.7348 53.6059 32.2128C53.4252 32.6882 53.179 33.1088 52.8699 33.4745C53.3073 33.3935 53.6425 33.4876 53.8756 33.7592C54.1087 34.0309 54.2266 34.4436 54.2266 34.9921C54.2266 35.4258 54.1506 35.8907 53.9987 36.387C53.8468 36.8833 53.6399 37.33 53.3754 37.7296C53.1214 38.1136 52.8097 38.4428 52.4404 38.7144V40.0779L51.3509 40.7049V40.7101ZM49.6721 36.2251V38.7719L51.0104 38.0013C51.5316 37.7009 51.8616 37.4919 52.003 37.3718C52.2178 37.1968 52.3933 36.9695 52.5295 36.69C52.6656 36.4105 52.7337 36.1023 52.7337 35.7653C52.7337 35.4806 52.6814 35.2664 52.5766 35.128C52.4718 34.9895 52.3226 34.9295 52.1235 34.953C51.9271 34.9765 51.5002 35.175 50.8402 35.5537L49.6721 36.2251ZM49.6721 32.4375V34.6395L50.6202 34.0936C51.1833 33.7697 51.5342 33.5581 51.6704 33.4562C51.9192 33.276 52.113 33.0487 52.2545 32.7797C52.3959 32.5106 52.4666 32.2207 52.4666 31.9124C52.4666 31.6173 52.4064 31.4135 52.2833 31.2986C52.1602 31.1837 51.9795 31.1784 51.7385 31.2777C51.5945 31.3378 51.1833 31.565 50.5023 31.9569L49.6721 32.4349V32.4375Z" fill="url(#paint8_linear_101_354)"/>
</g>
<g style="mix-blend-mode:overlay">
<path d="M51.9952 41.1515V39.8454C51.7909 39.9682 51.5604 40.1014 51.3064 40.2477L50.9633 40.4436V41.7444L49.8738 42.3714V41.0705L48.868 41.6504L48.8733 32.124L49.8816 31.5441V30.2433L50.9711 29.6163V30.9172L51.7385 30.4757C51.8302 30.4235 51.9166 30.3739 52.003 30.3295V29.0234L53.0926 28.3965V29.8123C53.3361 29.7417 53.5561 29.7391 53.7526 29.8044C53.9752 29.8749 54.1585 30.0343 54.3052 30.2824C54.4518 30.5306 54.5252 30.8597 54.5252 31.2698C54.5252 31.7165 54.4335 32.1762 54.2528 32.6542C54.0721 33.1297 53.8259 33.5502 53.5168 33.9159C53.9542 33.8349 54.2895 33.929 54.5226 34.2006C54.7556 34.4723 54.8735 34.885 54.8735 35.4335C54.8735 35.8672 54.7976 36.3321 54.6456 36.8284C54.4937 37.3247 54.2868 37.7714 54.0223 38.1711C53.7683 38.555 53.4566 38.8842 53.0873 39.1558V40.5194L51.9978 41.1463L51.9952 41.1515ZM50.3164 36.6665V39.2133L51.6547 38.4427C52.1759 38.1423 52.5059 37.9333 52.6473 37.8132C52.8621 37.6382 53.0376 37.4109 53.1737 37.1314C53.3099 36.8519 53.378 36.5437 53.378 36.2067C53.378 35.922 53.3257 35.7078 53.2209 35.5694C53.1161 35.4309 52.9668 35.3709 52.7678 35.3944C52.5714 35.4179 52.1445 35.6164 51.4845 35.9952L50.3164 36.6665ZM50.3164 32.8789V35.0809L51.2645 34.535C51.8276 34.2111 52.1785 33.9995 52.3147 33.8976C52.5635 33.7174 52.7573 33.4901 52.8987 33.2211C53.0402 32.952 53.1109 32.6621 53.1109 32.3539C53.1109 32.0587 53.0507 31.8549 52.9276 31.74C52.8045 31.6251 52.6237 31.6198 52.3828 31.7191C52.2387 31.7792 51.8276 32.0064 51.1466 32.3983L50.3164 32.8763V32.8789Z" fill="url(#paint9_linear_101_354)"/>
</g>
<path d="M14.0949 91.0824L14.0452 63.2764C14.0452 62.4588 14.5297 61.5106 15.1268 61.1553L45.9503 42.9018C46.207 42.7503 46.4427 42.7399 46.6261 42.8365L46.6313 42.8313L47.3908 43.3093L47.0294 44.7199L47.0111 71.6874C47.0111 72.505 46.5265 73.4532 45.9294 73.8085L15.4359 92.5374L14.4459 91.9653C14.2311 91.8165 14.0975 91.5134 14.0975 91.0851L14.0949 91.0824Z" fill="url(#paint10_linear_101_354)"/>
<path d="M15.8287 92.5191L46.6522 74.2656C47.2493 73.9129 47.7339 72.9621 47.7339 72.1445L47.7522 44.2C47.7522 43.3824 47.2703 43.0063 46.6731 43.3589L15.8496 61.6125C15.2525 61.9651 14.768 62.9159 14.768 63.7335L14.7496 90.8552C14.7496 91.6728 15.2315 92.8717 15.8287 92.5165V92.5191Z" fill="url(#paint11_linear_101_354)"/>
<path style="mix-blend-mode:overlay" d="M46.6731 43.3591L15.8496 61.6126C15.2525 61.9653 14.768 62.9161 14.768 63.7337L14.7496 90.8554C14.7496 91.673 15.2315 92.8719 15.8287 92.5167L24.9168 87.1331C24.9168 87.1331 29.4372 75.2166 35.3746 67.6519C39.7274 62.1037 45.1567 58.2195 47.7443 56.5399L47.7522 44.1976C47.7522 43.38 47.2703 43.0038 46.6731 43.3565V43.3591Z" fill="url(#paint12_linear_101_354)"/>
<path d="M22.6802 70.486L23.7933 69.8225C24.173 69.5953 24.4821 69.7598 24.4821 70.1856L24.4899 73.7877C24.4899 74.2161 24.1835 74.7464 23.8037 74.9736L22.6907 75.6371L22.6802 70.486Z" fill="white"/>
<path d="M22.2244 75.9138L20.4277 76.9848L20.4172 71.8337L22.2139 70.7627L22.2244 75.9138Z" fill="white"/>
<path d="M18.8511 72.7689L19.9511 72.1133L19.9616 77.2644L18.8616 77.92C18.4818 78.1473 18.1728 77.9827 18.1728 77.5569L18.1649 73.9548C18.1649 73.5264 18.4713 72.9962 18.8511 72.7689Z" fill="white"/>
<path d="M30.6865 63.6263C30.5765 63.689 30.5189 63.6446 30.5189 63.4983L30.5477 58.9793C30.5477 58.8331 30.6053 58.7234 30.718 58.6607L30.7337 58.6502C30.8437 58.5875 30.9013 58.6319 30.9013 58.7782L30.8882 60.9619C31.1003 60.51 31.412 60.1182 31.763 59.9197C32.4177 59.5488 32.9546 59.9563 32.9494 60.8261C32.9442 61.6803 32.3994 62.7304 31.7446 63.1039C31.3937 63.3024 31.0846 63.2554 30.8777 63.036V63.2998C30.8777 63.4461 30.8175 63.5558 30.7075 63.6159L30.6918 63.6263H30.6865ZM32.5775 61.0351C32.5801 60.416 32.2318 60.1078 31.7656 60.3742C31.3099 60.6328 30.9039 61.3694 30.8987 61.9885C30.8961 62.5945 31.2942 62.9001 31.7525 62.6415C32.2187 62.3777 32.5749 61.6411 32.5775 61.0377V61.0351Z" fill="white"/>
<path d="M33.4601 58.0546C33.4601 57.8874 33.5727 57.6732 33.7142 57.5923C33.8451 57.5165 33.9604 57.6053 33.9577 57.7725C33.9577 57.9606 33.8399 58.1721 33.7089 58.2453C33.5675 58.3263 33.4575 58.2427 33.4601 58.0546ZM33.6775 61.9284C33.5675 61.9911 33.5099 61.9467 33.5099 61.8004L33.5256 59.1883C33.5256 59.042 33.5832 58.9323 33.6958 58.8696L33.7273 58.8513C33.8373 58.7886 33.8949 58.833 33.8923 58.9793L33.8766 61.5914C33.8766 61.7377 33.8189 61.8474 33.7089 61.9101L33.6775 61.9284Z" fill="white"/>
<path d="M35.4715 58.2846L35.1205 58.4832L35.1048 60.8942C35.1048 61.0404 35.0446 61.1501 34.9346 61.2128L34.9189 61.2233C34.8089 61.286 34.7513 61.2416 34.7513 61.0953L34.767 58.6843L34.5889 58.7862C34.4789 58.8489 34.4213 58.8045 34.4213 58.6582C34.4213 58.5276 34.4789 58.4231 34.5915 58.3604L34.7696 58.2585L34.7748 57.279C34.7748 57.1327 34.8351 57.023 34.9451 56.9603L34.9608 56.9525C35.0708 56.8898 35.1284 56.9342 35.1284 57.0805L35.1232 58.06L35.4741 57.8615C35.5841 57.7988 35.6417 57.8354 35.6417 57.9738C35.6417 58.1122 35.5815 58.222 35.4715 58.2846Z" fill="white"/>
<path d="M37.9805 57.4276C37.8915 57.4773 37.8339 57.4616 37.7763 57.3989C37.6322 57.2187 37.3965 57.1795 37.1241 57.3336C36.6579 57.5974 36.2913 58.3105 36.2886 58.9296C36.286 59.5356 36.6422 59.8647 37.111 59.5983C37.3834 59.4442 37.6217 59.1281 37.7684 58.7755C37.826 58.6449 37.8836 58.5639 37.9753 58.5143L38.0277 58.4855C38.1534 58.415 38.2163 58.4908 38.1534 58.6788C37.9465 59.2666 37.551 59.8099 37.111 60.0607C36.4563 60.4316 35.9194 59.9954 35.9246 59.1412C35.9298 58.2714 36.4746 57.25 37.1294 56.8765C37.5641 56.6283 37.9465 56.725 38.1534 57.0724C38.2215 57.1873 38.156 57.3336 38.0251 57.4094L37.9832 57.4329L37.9805 57.4276Z" fill="white"/>
<path d="M38.6144 57.6107C38.6197 56.7409 39.1644 55.7195 39.8192 55.3486C40.4739 54.9777 41.0108 55.3852 41.0056 56.255C41.0004 57.1092 40.4556 58.1619 39.8008 58.5328C39.1461 58.9037 38.6092 58.4675 38.6144 57.6133V57.6107ZM38.9811 57.4017C38.9785 58.0077 39.3347 58.3369 39.8035 58.0704C40.2697 57.8066 40.6363 57.0648 40.6389 56.4614C40.6416 55.8423 40.2827 55.5419 39.8166 55.8057C39.3504 56.0696 38.9837 56.7827 38.9811 57.4017Z" fill="white"/>
<path d="M41.5188 53.4809C41.5188 53.3137 41.6315 53.0995 41.7729 53.0185C41.9038 52.9428 42.0191 53.0316 42.0165 53.1988C42.0165 53.3868 41.8986 53.5984 41.7677 53.6716C41.6262 53.7525 41.5162 53.6689 41.5188 53.4809ZM41.7362 57.3547C41.6262 57.4173 41.5686 57.3729 41.5686 57.2267L41.5843 54.6119C41.5843 54.4656 41.6446 54.3559 41.7546 54.2959L41.786 54.2776C41.896 54.2149 41.9536 54.2593 41.9536 54.4056L41.9379 57.0177C41.9379 57.164 41.8777 57.2737 41.7677 57.3364L41.7362 57.3547Z" fill="white"/>
<path d="M42.8416 56.725C42.7316 56.7877 42.674 56.7433 42.674 56.597L42.6897 53.9849C42.6897 53.8386 42.7473 53.7289 42.8599 53.6662L42.8756 53.6583C42.9856 53.5956 43.0432 53.6401 43.0432 53.7863V53.9326C43.2266 53.5643 43.4859 53.2665 43.8001 53.0863C44.4601 52.7101 44.743 52.94 44.7351 53.9117L44.7247 55.4346C44.7247 55.5809 44.6644 55.6906 44.5544 55.7533L44.5387 55.7611C44.4287 55.8238 44.3711 55.7794 44.3711 55.6331L44.3816 54.1102C44.3842 53.5042 44.1773 53.3266 43.7949 53.5434C43.3287 53.7942 43.038 54.3061 43.0328 54.9931L43.0249 56.3985C43.0249 56.5447 42.9673 56.6544 42.8547 56.7171L42.8389 56.725H42.8416Z" fill="white"/>
<path d="M18.7777 87.1149C18.3037 87.397 18.0732 87.1018 18.0627 86.3731C18.0523 85.6599 18.2723 85.0801 18.7463 84.7979C19.2099 84.5237 19.4508 84.8293 19.4613 85.5424C19.4718 86.2712 19.2518 86.8328 18.7777 87.1149ZM18.7489 85.0278C18.3796 85.2472 18.2225 85.707 18.2304 86.2738C18.2382 86.8589 18.4058 87.1044 18.7751 86.885C19.1444 86.6656 19.3015 86.2268 19.2937 85.6417C19.2858 85.0722 19.1182 84.8084 18.7489 85.0252V85.0278Z" fill="white"/>
<path d="M20.3413 86.1872C19.8673 86.4693 19.6368 86.1741 19.6263 85.4453C19.6159 84.7322 19.8359 84.1523 20.3099 83.8702C20.7735 83.5959 21.0144 83.9016 21.0249 84.6147C21.0354 85.3434 20.8154 85.9051 20.3413 86.1872ZM20.3125 84.1001C19.9432 84.3195 19.7861 84.7792 19.794 85.3461C19.8018 85.9312 19.9694 86.1767 20.3387 85.9573C20.708 85.7379 20.8651 85.299 20.8573 84.7139C20.8494 84.1445 20.6818 83.8807 20.3125 84.1001Z" fill="white"/>
<path d="M21.9022 85.2599C21.4282 85.542 21.1977 85.2469 21.1872 84.5181C21.1768 83.805 21.3968 83.2251 21.8708 82.943C22.3344 82.6687 22.5753 82.9743 22.5858 83.6874C22.5963 84.4162 22.3763 84.9778 21.9022 85.2599ZM21.8734 83.1728C21.5041 83.3923 21.347 83.852 21.3549 84.4188C21.3627 85.0039 21.5303 85.2495 21.8996 85.03C22.2689 84.8106 22.4261 84.3718 22.4182 83.7867C22.4103 83.2172 22.2427 82.9534 21.8734 83.1702V83.1728Z" fill="white"/>
<path d="M23.4658 84.3327C22.9918 84.6148 22.7613 84.3196 22.7508 83.5908C22.7404 82.8777 22.9604 82.2978 23.4344 82.0157C23.898 81.7414 24.1389 82.0471 24.1494 82.7602C24.1599 83.489 23.9399 84.0506 23.4658 84.3327ZM23.437 82.2456C23.0677 82.465 22.9106 82.9247 22.9185 83.4916C22.9263 84.0767 23.0939 84.3222 23.4632 84.1028C23.8325 83.8834 23.9897 83.4445 23.9818 82.8594C23.9739 82.29 23.8063 82.0262 23.437 82.243V82.2456Z" fill="white"/>
<path d="M25.7261 82.9899C25.252 83.272 25.0216 82.9768 25.0111 82.2481C25.0006 81.5349 25.2206 80.9551 25.6947 80.6729C26.1582 80.3987 26.3992 80.7043 26.4097 81.4174C26.4201 82.1462 26.2001 82.7078 25.7261 82.9899ZM25.6973 80.9028C25.328 81.1222 25.1709 81.582 25.1787 82.1488C25.1866 82.7339 25.3542 82.9794 25.7235 82.76C26.0928 82.5406 26.2499 82.1018 26.242 81.5167C26.2342 80.9472 26.0666 80.6834 25.6973 80.9002V80.9028Z" fill="white"/>
<path d="M27.287 82.0627C26.813 82.3448 26.5825 82.0496 26.572 81.3208C26.5615 80.6077 26.7815 80.0278 27.2556 79.7457C27.7192 79.4714 27.9601 79.777 27.9706 80.4902C27.9811 81.2189 27.7584 81.7805 27.287 82.0627ZM27.2582 79.9756C26.8889 80.195 26.7318 80.6547 26.7396 81.2215C26.7475 81.8067 26.9151 82.0522 27.2844 81.8328C27.6537 81.6134 27.8108 81.1745 27.803 80.5894C27.7951 80.02 27.6275 79.7561 27.2582 79.973V79.9756Z" fill="white"/>
<path d="M28.8506 81.1354C28.3766 81.4175 28.1461 81.1223 28.1356 80.3936C28.1251 79.6805 28.3451 79.1006 28.8192 78.8185C29.2828 78.5442 29.5237 78.8498 29.5342 79.5629C29.5447 80.2917 29.322 80.8533 28.8506 81.1354ZM28.8218 79.0483C28.4525 79.2677 28.2954 79.7275 28.3032 80.2943C28.3111 80.8794 28.4787 81.125 28.848 80.9055C29.2173 80.6861 29.3744 80.2473 29.3666 79.6622C29.3587 79.0927 29.1911 78.8289 28.8218 79.0483Z" fill="white"/>
<path d="M30.4115 80.2082C29.9375 80.4903 29.707 80.1951 29.6965 79.4663C29.686 78.7532 29.906 78.1733 30.3801 77.8912C30.8437 77.6169 31.0846 77.9226 31.0951 78.6357C31.1056 79.3644 30.8856 79.926 30.4115 80.2082ZM30.3827 78.1211C30.0134 78.3405 29.8563 78.8002 29.8641 79.3671C29.872 79.9522 30.0396 80.1977 30.4089 79.9783C30.7782 79.7589 30.9353 79.32 30.9275 78.7349C30.9196 78.1655 30.752 77.9017 30.3827 78.1185V78.1211Z" fill="white"/>
<path d="M32.6718 78.8654C32.1977 79.1475 31.9673 78.8523 31.9568 78.1235C31.9463 77.4104 32.1663 76.8305 32.6403 76.5484C33.1039 76.2742 33.3449 76.5798 33.3553 77.2929C33.3658 78.0217 33.1432 78.5833 32.6718 78.8654ZM32.643 76.7783C32.2737 76.9977 32.1165 77.4575 32.1244 78.0243C32.1323 78.6094 32.2999 78.8549 32.6692 78.6355C33.0384 78.4161 33.1956 77.9773 33.1877 77.3922C33.1799 76.8227 33.0123 76.5589 32.643 76.7783Z" fill="white"/>
<path d="M34.2354 77.9381C33.7613 78.2202 33.5309 77.9251 33.5204 77.1963C33.5099 76.4832 33.7299 75.9033 34.2039 75.6212C34.6675 75.3469 34.9085 75.6525 34.9189 76.3656C34.9294 77.0944 34.7094 77.656 34.2354 77.9381ZM34.2066 75.8511C33.8373 76.0705 33.6801 76.5302 33.688 77.097C33.6959 77.6822 33.8635 77.9277 34.2328 77.7083C34.602 77.4889 34.7592 77.05 34.7513 76.4649C34.7435 75.8955 34.5758 75.6316 34.2066 75.8484V75.8511Z" fill="white"/>
<path d="M35.7963 77.0109C35.3222 77.293 35.0918 76.9978 35.0813 76.2691C35.0708 75.5559 35.2908 74.9761 35.7649 74.6939C36.2284 74.4197 36.4694 74.7253 36.4799 75.4384C36.4903 76.1672 36.2703 76.7288 35.7963 77.0109ZM35.7675 74.9238C35.3982 75.1432 35.2411 75.603 35.2489 76.1698C35.2568 76.7549 35.4244 77.0004 35.7937 76.781C36.163 76.5616 36.3201 76.1228 36.3122 75.5377C36.3044 74.9682 36.1368 74.7044 35.7675 74.9212V74.9238Z" fill="white"/>
<path d="M37.3599 76.0836C36.8858 76.3658 36.6554 76.0706 36.6449 75.3418C36.6344 74.6287 36.8544 74.0488 37.3285 73.7667C37.792 73.4924 38.033 73.798 38.0435 74.5112C38.0539 75.2399 37.8339 75.8015 37.3599 76.0836ZM37.3311 73.9966C36.9618 74.216 36.8046 74.6757 36.8125 75.2425C36.8204 75.8277 36.988 76.0732 37.3573 75.8538C37.7266 75.6344 37.8837 75.1955 37.8758 74.6104C37.868 74.041 37.7004 73.7771 37.3311 73.9939V73.9966Z" fill="white"/>
<path d="M39.62 74.7409C39.146 75.023 38.9155 74.7278 38.905 73.999C38.8945 73.2859 39.1145 72.706 39.5886 72.4239C40.0522 72.1496 40.2931 72.4553 40.3036 73.1684C40.3141 73.8972 40.0941 74.4588 39.62 74.7409ZM39.5912 72.6538C39.2219 72.8732 39.0648 73.3329 39.0726 73.8998C39.0805 74.4849 39.2481 74.7304 39.6174 74.5136C39.9867 74.2942 40.1438 73.8554 40.136 73.2702C40.1281 72.7008 39.9605 72.437 39.5912 72.6538Z" fill="white"/>
<path d="M41.1811 73.8136C40.707 74.0957 40.4765 73.8006 40.4661 73.0718C40.4556 72.3587 40.6756 71.7788 41.1496 71.4967C41.6132 71.2224 41.8541 71.528 41.8646 72.2411C41.8751 72.9699 41.6551 73.5315 41.1811 73.8136ZM41.1522 71.7265C40.783 71.946 40.6258 72.4057 40.6337 72.9725C40.6415 73.5576 40.8091 73.8032 41.1784 73.5838C41.5477 73.3643 41.7049 72.9255 41.697 72.3404C41.6891 71.7736 41.5215 71.5071 41.1522 71.7265Z" fill="white"/>
<path d="M42.7445 72.8864C42.2705 73.1685 42.04 72.8733 42.0295 72.1445C42.0191 71.4314 42.2391 70.8515 42.7131 70.5694C43.1767 70.2952 43.4176 70.6008 43.4281 71.3139C43.4386 72.0427 43.2186 72.6043 42.7445 72.8864ZM42.7157 70.7993C42.3464 71.0187 42.1893 71.4784 42.1972 72.0453C42.205 72.6304 42.3726 72.8759 42.7419 72.6565C43.1112 72.4371 43.2683 71.9983 43.2605 71.4131C43.2526 70.8437 43.085 70.5799 42.7157 70.7967V70.7993Z" fill="white"/>
<path d="M44.3056 71.9591C43.8315 72.2413 43.601 71.9461 43.5906 71.2173C43.5801 70.5042 43.8001 69.9243 44.2741 69.6422C44.7377 69.3679 44.9787 69.6735 44.9891 70.3866C44.9996 71.1154 44.7796 71.677 44.3056 71.9591ZM44.2768 69.8721C43.9075 70.0915 43.7503 70.5512 43.7582 71.118C43.766 71.7032 43.9337 71.9487 44.3029 71.7293C44.6722 71.5099 44.8294 71.071 44.8215 70.4859C44.8137 69.9165 44.646 69.6526 44.2768 69.8721Z" fill="white"/>
<path style="mix-blend-mode:overlay" d="M19.5504 94.606L50.3739 76.3525C50.971 75.9999 51.4555 75.049 51.4555 74.2315L51.4739 46.2869C51.4739 45.4694 50.992 45.0932 50.3948 45.4458L19.5713 63.6994C18.9742 64.052 18.4896 65.0028 18.4896 65.8204L18.4713 92.9421C18.4713 93.7597 18.9532 94.9587 19.5504 94.6034V94.606Z" fill="url(#paint13_linear_101_354)"/>
<path d="M88.1065 75.0442C87.8603 74.0228 86.4748 73.4116 86.4748 73.4116L85.0396 72.6802L80.5872 75.9662C77.0725 77.382 71.4153 79.7616 70.8418 80.143C70.022 80.689 64.5534 86.0438 63.4063 87.1566C62.2592 88.2693 61.3896 89.6485 61.0596 89.9124C60.727 90.1762 60.8318 90.0221 60.0487 91.2132C59.8968 91.4431 59.7842 91.6233 59.7004 91.7644H55.3816C55.4235 91.4196 55.413 91.1244 55.3239 90.9363C54.9337 90.1239 52.5635 87.6685 50.8794 87.5614C50.2744 87.5223 49.3918 87.4204 48.4751 87.3211L43.3785 84.3799L41.1837 85.3438C41.1837 85.3438 40.2854 86.211 40.2854 87.4935C40.2854 88.541 40.6809 89.1548 41.4797 89.6015C42.2785 90.0508 43.1113 90.4296 43.1113 90.4296L51.5892 94.669L53.6609 95.6669C54.9258 96.2755 56.4161 96.2076 57.6208 95.484L60.8973 93.5197L86.302 78.3171C86.302 78.3171 86.6294 78.1134 87.3732 77.4995C88.117 76.8857 88.3527 76.0681 88.1065 75.0468V75.0442Z" fill="url(#paint14_linear_101_354)"/>
<path style="mix-blend-mode:multiply" opacity="0.2" d="M88.096 75.0467C87.8498 74.0254 86.4643 73.4141 86.4643 73.4141L84.4739 73.3384L80.5767 75.9688C77.062 77.3846 71.4048 79.7642 70.8313 80.1456C70.0115 80.6915 64.543 86.0464 63.3958 87.1591C62.2487 88.2719 61.3791 89.6511 61.0491 89.9149C60.7165 90.1787 60.8213 90.0246 60.0382 91.2158C59.8863 91.4456 59.7737 91.6259 59.6899 91.7669H55.3711C55.413 91.4221 55.4025 91.1269 55.3134 90.9389C54.9232 90.1265 52.553 87.6711 50.8689 87.564C50.2639 87.5248 49.3813 87.4229 48.4646 87.3237L43.6116 84.9728L41.1732 85.3489C41.1732 85.3489 40.2749 86.2161 40.2749 87.4987C40.2749 88.5462 40.6704 89.16 41.4692 89.6067C42.268 90.056 43.1008 90.4347 43.1008 90.4347L51.5787 94.6742L53.6503 95.672C54.9153 96.2807 56.4056 96.2127 57.6103 95.4892L60.8868 93.5249L86.2915 78.3223C86.2915 78.3223 86.6189 78.1186 87.3627 77.5047C88.1065 76.8909 88.3422 76.0733 88.096 75.0519V75.0467Z" fill="url(#paint15_linear_101_354)"/>
<path style="mix-blend-mode:multiply" opacity="0.3" d="M88.1064 75.0466C87.8602 74.0253 86.4748 73.4141 86.4748 73.4141L84.0155 73.4402L80.5898 75.9687C77.075 77.3845 71.4179 79.7641 70.8443 80.1455C70.0246 80.6914 64.556 86.0463 63.4089 87.1591C62.2617 88.2718 61.3922 89.651 61.0622 89.9149C60.7296 90.1787 60.8343 90.0246 60.0513 91.2157C59.8994 91.4456 59.7867 91.6258 59.7029 91.7668H55.3841C55.426 91.422 55.4156 91.1269 55.3265 90.9388C54.9363 90.1264 52.566 87.671 50.882 87.5639C50.277 87.5248 49.3944 87.4229 48.4777 87.3236L43.6351 85.2914L41.1863 85.3489C41.1863 85.3489 40.288 86.2161 40.288 87.4986C40.288 88.5461 40.6834 89.16 41.4822 89.6066C42.2811 90.0533 43.1139 90.4347 43.1139 90.4347L51.5918 94.6741L53.6634 95.672C54.9284 96.2806 56.4186 96.2127 57.6234 95.4891L60.8998 93.5248L86.3045 78.3222C86.3045 78.3222 86.6319 78.1185 87.3757 77.5046C88.1195 76.8908 88.3552 76.0732 88.1091 75.0519L88.1064 75.0466Z" fill="url(#paint16_linear_101_354)"/>
<path d="M41.6551 84.957L70.4122 67.7405C71.6379 67.0064 73.1517 66.9385 74.4377 67.5602L86.1762 73.2259C87.3836 73.8084 87.4596 75.4932 86.3098 76.1828L57.7256 93.3262C56.5208 94.0498 55.0332 94.1177 53.7656 93.5091L42.0296 87.8643C40.5211 87.078 40.5708 85.61 41.6525 84.9622L41.6551 84.957Z" fill="url(#paint17_linear_101_354)"/>
<path d="M43.1454 85.1631L57.8461 92.1245C58.0766 92.2342 58.3463 92.2211 58.5663 92.0905L84.9191 76.423C85.092 76.3211 85.0815 76.0703 84.9008 75.9815L70.2368 68.8635C70.0273 68.7616 69.7811 68.7721 69.5794 68.8922L43.1218 84.7557C42.9647 84.8497 42.9752 85.0822 43.1428 85.1605L43.1454 85.1631Z" fill="url(#paint18_linear_101_354)"/>
<path d="M43.0982 85.0874L69.5558 69.224C69.7548 69.1038 70.0036 69.0934 70.2131 69.1953L84.8772 76.3133C84.9086 76.329 84.9322 76.3472 84.9505 76.3708C85.0605 76.2532 85.0343 76.0521 84.8772 75.9737L70.2131 68.8557C70.0036 68.7538 69.7574 68.7642 69.5558 68.8844L43.0982 84.7478C42.962 84.8314 42.9515 85.0169 43.0615 85.1161C43.072 85.1057 43.0825 85.0952 43.0982 85.0874Z" fill="url(#paint19_linear_101_354)"/>
<path d="M63.3644 90.5963C63.2937 90.578 63.2203 90.5885 63.1522 90.6224L60.8973 91.9755C60.7925 92.0382 60.7008 92.1557 60.6615 92.3046C60.5934 92.558 60.6904 92.8062 60.8789 92.8558C60.947 92.8741 61.0204 92.8636 61.0858 92.8323C61.0858 92.8323 61.0989 92.8244 61.1042 92.8192L63.3146 91.4923C63.4325 91.4348 63.5346 91.312 63.5792 91.1475C63.6472 90.8941 63.5503 90.6459 63.3618 90.5963H63.3644Z" fill="#828282"/>
<path d="M63.4613 90.6617C63.3906 90.6434 63.3173 90.6539 63.2492 90.6879L60.9942 92.0409C60.8894 92.1036 60.7978 92.2212 60.7585 92.3701C60.6904 92.6234 60.7873 92.8716 60.9758 92.9212C61.0439 92.9395 61.1173 92.9291 61.1827 92.8977C61.1827 92.8977 61.1958 92.8899 61.2011 92.8847L63.4116 91.5577C63.5294 91.5002 63.6316 91.3775 63.6761 91.2129C63.7442 90.9595 63.6473 90.7114 63.4587 90.6617H63.4613Z" fill="url(#paint20_linear_101_354)"/>
<path d="M48.1478 88.9145L48.2133 88.8727C48.2892 88.8283 48.3835 88.8257 48.4621 88.8623L50.6883 89.9358C50.7406 89.9698 50.7171 90.0273 50.6883 90.0534L50.6254 90.0952C50.5495 90.137 50.4578 90.1422 50.3792 90.103L48.1504 89.0477C48.0954 89.0216 48.0902 88.9432 48.1452 88.9119L48.1478 88.9145Z" fill="url(#paint21_linear_101_354)"/>
<path d="M48.0142 88.7025C48.0142 88.7757 47.9173 88.8358 47.7968 88.8358C47.6764 88.8358 47.5795 88.7757 47.5795 88.7025C47.5795 88.6294 47.6764 88.5693 47.7968 88.5693C47.9173 88.5693 48.0142 88.6294 48.0142 88.7025Z" fill="url(#paint22_linear_101_354)"/>
<path style="mix-blend-mode:multiply" opacity="0.3" d="M43.1454 85.1631L57.8461 92.1245C58.0766 92.2342 58.3463 92.2211 58.5663 92.0905L84.9191 76.423C85.092 76.3211 85.0815 76.0703 84.9008 75.9815L70.2368 68.8635C70.0273 68.7616 69.7811 68.7721 69.5794 68.8922L43.1218 84.7557C42.9647 84.8497 42.9752 85.0822 43.1428 85.1605L43.1454 85.1631Z" fill="url(#paint23_linear_101_354)"/>
<path d="M79.1625 72.0948L77.2191 71.1597C77.0803 71.0944 77.096 70.9638 77.2506 70.8697L78.1463 70.3264C78.3008 70.2324 78.5391 70.2089 78.6779 70.2768L80.6213 71.2119C80.7601 71.2772 80.7444 71.4078 80.5898 71.5019L79.6941 72.0452C79.5396 72.1392 79.3013 72.1627 79.1625 72.0948Z" fill="url(#paint24_linear_101_354)"/>
<path d="M77.2506 71.0474L78.1463 70.504C78.3008 70.41 78.5391 70.3865 78.6779 70.4544L80.6213 71.3895C80.6448 71.4 80.6605 71.4131 80.6763 71.4287C80.7417 71.3478 80.726 71.2616 80.6213 71.2093L78.6779 70.2742C78.5391 70.2089 78.3034 70.2298 78.1463 70.3238L77.2506 70.8671C77.1196 70.9455 77.0908 71.05 77.1641 71.1205C77.1851 71.0944 77.2139 71.0709 77.2506 71.0474Z" fill="url(#paint25_linear_101_354)"/>
<path style="mix-blend-mode:overlay" d="M42.818 82.3736L57.5187 89.3349C57.7492 89.4446 58.0189 89.4315 58.2389 89.3009L84.5918 73.6334C84.7646 73.5316 84.7541 73.2808 84.5734 73.192L69.9094 66.0739C69.6999 65.9721 69.4537 65.9825 69.252 66.1027L42.7945 81.9661C42.6373 82.0601 42.6478 82.2926 42.8154 82.371L42.818 82.3736Z" fill="url(#paint26_linear_101_354)"/>
<path d="M63.1758 83.9121L58.5087 81.2712V78.5259L63.1758 81.1667V83.9121Z" fill="#286BF1"/>
<path d="M67.657 81.3365L63.1758 78.8419L67.657 78.5781V81.3365Z" fill="#286BF1"/>
<path d="M64.1108 71.8623L64.1082 77.2433L69.0634 75.5219L72.1486 70.5614L69.3096 68.2393L64.1108 71.8623Z" fill="url(#paint27_linear_101_354)"/>
<path d="M64.116 63.8612L64.1134 68.5134L70.0193 65.8725L70.9727 61.27L68.1284 60.5908L64.116 63.8612Z" fill="url(#paint28_linear_101_354)"/>
<path d="M56.395 59.6268L58.5217 58.4043L63.1888 61.0452L61.0622 62.2702L56.395 59.6268Z" fill="#15FFFF"/>
<path d="M67.67 58.4827L63.0029 55.8418L60.8239 57.0799L65.491 59.7234L67.67 58.4827Z" fill="#15FFFF"/>
<path d="M71.3655 57.3755L66.9079 54.8208L65.4937 56.3176L70.2839 58.3002L71.3655 57.3755Z" fill="#15FFFF"/>
<path d="M58.5243 55.6592L63.1915 58.3L63.1889 61.0454L58.5217 58.4045L58.5243 55.6592Z" fill="#286BF1"/>
<path d="M63.0055 53.0835L67.6727 55.7244L67.6701 58.4828L63.0029 55.8419L63.0055 53.0835Z" fill="#286BF1"/>
<path d="M65.3076 51.7593L69.9748 54.4001L67.6726 55.7245L63.0055 53.0836L65.3076 51.7593Z" fill="#15FFFF"/>
<path d="M60.8264 54.335L65.4936 56.9784L63.1914 58.3002L58.5243 55.6593L60.8264 54.335Z" fill="#15FFFF"/>
<path d="M67.6569 81.3361V78.5777C67.2248 78.8363 66.7402 79.121 66.2033 79.4293L65.4805 79.8446V82.5899L63.1757 83.9143V81.169L61.0491 82.3914L61.0622 62.2702L63.1888 61.0478V58.3024L65.4936 56.9781V59.7234L67.1122 58.7909C67.306 58.6812 67.4919 58.5767 67.67 58.4827V55.7243L69.9748 54.3999V57.3908C70.4881 57.2419 70.9543 57.2341 71.3655 57.3725C71.8343 57.524 72.2219 57.861 72.531 58.3834C72.84 58.9058 72.9945 59.6006 72.9945 60.4705C72.9945 61.4135 72.8033 62.3878 72.4183 63.3934C72.036 64.3991 71.5174 65.2872 70.8626 66.0578C71.7845 65.8854 72.4943 66.0865 72.9893 66.6612C73.4843 67.2359 73.7305 68.1057 73.7305 69.2681C73.7305 70.1824 73.5707 71.1645 73.2486 72.2146C72.9291 73.2647 72.4891 74.2103 71.9312 75.0514C71.3943 75.8637 70.7369 76.5559 69.9591 77.1332V80.0144L67.6543 81.3387L67.6569 81.3361ZM64.1134 71.862V77.2429L66.9393 75.6156C68.0393 74.9834 68.7386 74.5394 69.0345 74.286C69.4903 73.9151 69.8595 73.4345 70.145 72.8441C70.4305 72.2538 70.5745 71.6034 70.5745 70.8876C70.5745 70.2842 70.4645 69.8349 70.2445 69.5398C70.0245 69.2446 69.7076 69.1218 69.2886 69.1689C68.8722 69.2159 67.9686 69.639 66.5779 70.4383L64.1107 71.8567L64.1134 71.862ZM64.1186 63.861V68.5132L66.1195 67.3613C67.3112 66.6769 68.0498 66.2276 68.3405 66.016C68.8643 65.632 69.2755 65.1566 69.5767 64.5846C69.8752 64.0151 70.0245 63.4039 70.0271 62.7561C70.0271 62.1344 69.8988 61.7034 69.6421 61.4631C69.3829 61.2228 69.0005 61.2071 68.4924 61.4187C68.1886 61.5467 67.3191 62.0247 65.8812 62.8527L64.1264 63.861H64.1186Z" fill="#03D7FB"/>
<path d="M56.3951 59.627L61.0622 62.2704L61.0491 82.3916L56.382 79.7481L56.3951 59.627Z" fill="#286BF1"/>
<g style="mix-blend-mode:overlay">
<path d="M68.694 82.0549V79.2965C68.2619 79.5551 67.7774 79.8398 67.2405 80.148L66.5176 80.5634V83.3087L64.2128 84.633V81.8877L62.0862 83.1102L62.0993 62.989L64.2259 61.7665V59.0212L66.5307 57.6968V60.4422L68.1493 59.5096C68.3431 59.3999 68.529 59.2954 68.7071 59.2014V56.443L71.0119 55.1187V58.1095C71.5252 57.9606 71.9914 57.9528 72.4026 58.0913C72.8714 58.2428 73.259 58.5797 73.5681 59.1021C73.8771 59.6246 74.0316 60.3194 74.0316 61.1892C74.0316 62.1322 73.8404 63.1065 73.4554 64.1122C73.0731 65.1179 72.5545 66.006 71.8997 66.7766C72.8216 66.6042 73.5314 66.8053 74.0264 67.38C74.5214 67.9546 74.7676 68.8245 74.7676 69.9869C74.7676 70.9011 74.6078 71.8833 74.2857 72.9333C73.9662 73.9834 73.5262 74.929 72.9683 75.7701C72.4314 76.5825 71.774 77.2747 70.9962 77.852V80.7331L68.6914 82.0575L68.694 82.0549ZM65.1505 72.5807V77.9617L67.9764 76.3343C69.0764 75.7022 69.7757 75.2581 70.0716 75.0048C70.5274 74.6338 70.8966 74.1532 71.1821 73.5629C71.4676 72.9725 71.6116 72.3221 71.6116 71.6064C71.6116 71.003 71.5016 70.5537 71.2816 70.2585C71.0616 69.9634 70.7447 69.8406 70.3257 69.8876C69.9093 69.9346 69.0057 70.3578 67.615 71.1571L65.1478 72.5755L65.1505 72.5807ZM65.1557 64.5798V69.232L67.1566 68.08C68.3483 67.3956 69.0869 66.9464 69.3776 66.7348C69.9014 66.3508 70.3126 65.8754 70.6138 65.3033C70.9124 64.7339 71.0643 64.1226 71.0643 63.4748C71.0643 62.8532 70.9359 62.4222 70.6793 62.1818C70.42 61.9415 70.0376 61.9259 69.5295 62.1374C69.2257 62.2654 68.3562 62.7434 66.9183 63.5715L65.1636 64.5798H65.1557Z" fill="#57FFFE"/>
</g>
<path style="mix-blend-mode:overlay" d="M46.8068 105.961L65.9415 94.6296C66.3108 94.4102 66.612 93.8198 66.612 93.3131L66.6251 75.966C66.6251 75.4592 66.3265 75.2241 65.9546 75.4436L46.8199 86.7749C46.4506 86.9944 46.1494 87.5847 46.1494 88.0915L46.1364 104.929C46.1364 105.436 46.4349 106.18 46.8068 105.961Z" fill="url(#paint29_linear_101_354)"/>
</g>
<defs>
<linearGradient id="paint0_linear_101_354" x1="56.0048" y1="63.5086" x2="50.3634" y2="48.6357" gradientUnits="userSpaceOnUse">
<stop stop-color="#4F47FF"/>
<stop offset="1" stop-color="#0090E2"/>
</linearGradient>
<linearGradient id="paint1_linear_101_354" x1="51.3849" y1="73.7374" x2="33.5989" y2="73.7374" gradientUnits="userSpaceOnUse">
<stop stop-color="#BA83FF"/>
<stop offset="1" stop-color="#D8ABFF"/>
</linearGradient>
<linearGradient id="paint2_linear_101_354" x1="193.748" y1="157.111" x2="5.09867" y2="46.8112" gradientUnits="userSpaceOnUse">
<stop stop-color="#9C74FF"/>
<stop offset="1" stop-color="#FFF6FF"/>
</linearGradient>
<linearGradient id="paint3_linear_101_354" x1="37.2997" y1="35.9403" x2="35.4737" y2="32.7155" gradientUnits="userSpaceOnUse">
<stop stop-color="#886AFF"/>
<stop offset="1" stop-color="#D3C2FF"/>
</linearGradient>
<linearGradient id="paint4_linear_101_354" x1="22.7693" y1="63.2422" x2="24.989" y2="41.4271" gradientUnits="userSpaceOnUse">
<stop stop-color="#3124FF"/>
<stop offset="1" stop-color="#00FFE2"/>
</linearGradient>
<linearGradient id="paint5_linear_101_354" x1="26.5956" y1="56.0774" x2="28.2004" y2="58.5184" gradientUnits="userSpaceOnUse">
<stop stop-color="#8942FF"/>
<stop offset="1" stop-color="#D3C2FF"/>
</linearGradient>
<linearGradient id="paint6_linear_101_354" x1="20.145" y1="64.7783" x2="22.3648" y2="42.9633" gradientUnits="userSpaceOnUse">
<stop stop-color="#3124FF"/>
<stop offset="1" stop-color="#00FFE2"/>
</linearGradient>
<linearGradient id="paint7_linear_101_354" x1="22.764" y1="63.2842" x2="24.9838" y2="41.4691" gradientUnits="userSpaceOnUse">
<stop stop-color="#3124FF"/>
<stop offset="1" stop-color="#00FFE2"/>
</linearGradient>
<linearGradient id="paint8_linear_101_354" x1="47.5507" y1="58.6998" x2="50.3307" y2="39.543" gradientUnits="userSpaceOnUse">
<stop stop-color="#4F47FF"/>
<stop offset="1" stop-color="#00FFFF"/>
</linearGradient>
<linearGradient id="paint9_linear_101_354" x1="48.1949" y1="59.1412" x2="50.975" y2="39.9844" gradientUnits="userSpaceOnUse">
<stop stop-color="#4F47FF"/>
<stop offset="1" stop-color="#00FFFF"/>
</linearGradient>
<linearGradient id="paint10_linear_101_354" x1="30.4394" y1="67.6517" x2="29.0351" y2="70.6549" gradientUnits="userSpaceOnUse">
<stop stop-color="#4F3BFF"/>
<stop offset="1" stop-color="#134297"/>
</linearGradient>
<linearGradient id="paint11_linear_101_354" x1="24.6077" y1="92.109" x2="36.4659" y2="48.7317" gradientUnits="userSpaceOnUse">
<stop stop-color="#4F47FF"/>
<stop offset="1" stop-color="#0090E2"/>
</linearGradient>
<linearGradient id="paint12_linear_101_354" x1="14.0975" y1="131.544" x2="37.9395" y2="31.6073" gradientUnits="userSpaceOnUse">
<stop stop-color="#4F47FF"/>
<stop offset="1" stop-color="#13FFE2"/>
</linearGradient>
<linearGradient id="paint13_linear_101_354" x1="27.0801" y1="102.933" x2="39.9223" y2="49.1031" gradientUnits="userSpaceOnUse">
<stop stop-color="#4F47FF"/>
<stop offset="1" stop-color="#00FFFF"/>
</linearGradient>
<linearGradient id="paint14_linear_101_354" x1="88.2008" y1="84.3773" x2="40.2854" y2="84.3773" gradientUnits="userSpaceOnUse">
<stop stop-color="#BAA1FF"/>
<stop offset="1" stop-color="#EFBFFF"/>
</linearGradient>
<linearGradient id="paint15_linear_101_354" x1="40.2723" y1="84.709" x2="88.1877" y2="84.709" gradientUnits="userSpaceOnUse">
<stop stop-color="#333333"/>
<stop offset="1" stop-color="#051E51"/>
</linearGradient>
<linearGradient id="paint16_linear_101_354" x1="40.2853" y1="84.7455" x2="88.2007" y2="84.7455" gradientUnits="userSpaceOnUse">
<stop stop-color="#444444"/>
<stop offset="1" stop-color="#051E51"/>
</linearGradient>
<linearGradient id="paint17_linear_101_354" x1="112.018" y1="124.379" x2="63.1371" y2="79.4367" gradientUnits="userSpaceOnUse">
<stop stop-color="#9C74FF"/>
<stop offset="1" stop-color="#FFF6FF"/>
</linearGradient>
<linearGradient id="paint18_linear_101_354" x1="1.89812" y1="134.848" x2="137.59" y2="15.7167" gradientUnits="userSpaceOnUse">
<stop stop-color="#9C74FF"/>
<stop offset="1" stop-color="#FFF6FF"/>
</linearGradient>
<linearGradient id="paint19_linear_101_354" x1="48.8287" y1="76.9506" x2="135.44" y2="76.9506" gradientUnits="userSpaceOnUse">
<stop stop-color="#4F47FF"/>
<stop offset="1" stop-color="#13FFE2"/>
</linearGradient>
<linearGradient id="paint20_linear_101_354" x1="64.0244" y1="93.4437" x2="62.2007" y2="91.7671" gradientUnits="userSpaceOnUse">
<stop stop-color="#9C74FF"/>
<stop offset="1" stop-color="#FFF6FF"/>
</linearGradient>
<linearGradient id="paint21_linear_101_354" x1="47.4616" y1="89.1731" x2="55.6162" y2="90.4702" gradientUnits="userSpaceOnUse">
<stop stop-color="#4F47FF"/>
<stop offset="1" stop-color="#13FFE2"/>
</linearGradient>
<linearGradient id="paint22_linear_101_354" x1="47.5428" y1="88.6634" x2="55.6948" y2="89.9631" gradientUnits="userSpaceOnUse">
<stop stop-color="#4F47FF"/>
<stop offset="1" stop-color="#13FFE2"/>
</linearGradient>
<linearGradient id="paint23_linear_101_354" x1="85.0422" y1="80.4979" x2="43.0118" y2="80.4979" gradientUnits="userSpaceOnUse">
<stop stop-color="#BA83FF"/>
<stop offset="1" stop-color="#D8ABFF"/>
</linearGradient>
<linearGradient id="paint24_linear_101_354" x1="71.7558" y1="77.1101" x2="80.5028" y2="69.8361" gradientUnits="userSpaceOnUse">
<stop stop-color="#4F47FF"/>
<stop offset="1" stop-color="#13FFE2"/>
</linearGradient>
<linearGradient id="paint25_linear_101_354" x1="77.3815" y1="70.6294" x2="84.2927" y2="71.3647" gradientUnits="userSpaceOnUse">
<stop stop-color="#4F47FF"/>
<stop offset="1" stop-color="#13FFE2"/>
</linearGradient>
<linearGradient id="paint26_linear_101_354" x1="63.6997" y1="103.054" x2="63.6997" y2="87.9035" gradientUnits="userSpaceOnUse">
<stop stop-color="#3124FF"/>
<stop offset="1" stop-color="#00FFE2"/>
</linearGradient>
<linearGradient id="paint27_linear_101_354" x1="71.5567" y1="71.1831" x2="57.4419" y2="75.7396" gradientUnits="userSpaceOnUse">
<stop stop-color="#4F47FF"/>
<stop offset="1" stop-color="#13FFE2"/>
</linearGradient>
<linearGradient id="paint28_linear_101_354" x1="70.5327" y1="62.2809" x2="58.1381" y2="70.4137" gradientUnits="userSpaceOnUse">
<stop stop-color="#4F47FF"/>
<stop offset="1" stop-color="#13FFE2"/>
</linearGradient>
<linearGradient id="paint29_linear_101_354" x1="58.383" y1="95.7528" x2="54.7645" y2="86.2122" gradientUnits="userSpaceOnUse">
<stop stop-color="#4F47FF"/>
<stop offset="1" stop-color="#0090E2"/>
</linearGradient>
<clipPath id="clip0_101_354">
<rect width="90" height="122" fill="white"/>
</clipPath>
</defs>
</svg>
