<svg width="1914" height="948" viewBox="0 0 1914 948" fill="none" xmlns="http://www.w3.org/2000/svg">
<g clip-path="url(#clip0_325_16651)">
<path d="M1424 301.564C1424 316.711 1419.55 328.063 1412.07 334.821C1409.72 336.951 1395.56 346.905 1392.67 348.07C1382.84 352.065 1381.58 342.245 1367.66 334.188C1336.47 316.178 1311.22 272.368 1311.22 236.348C1311.22 222.599 1302.15 220.568 1308.43 213.677C1310.06 211.88 1324.61 201.759 1326.6 200.494C1336.87 193.836 1351.45 194.369 1367.63 203.723C1398.75 221.733 1424 265.544 1424 301.597V301.564Z" fill="url(#paint0_linear_325_16651)"/>
<path d="M1394.22 347.233C1416.25 334.492 1416.25 293.184 1394.23 254.97C1372.22 216.756 1336.52 196.106 1314.5 208.848C1292.48 221.589 1292.47 262.896 1314.49 301.111C1336.5 339.325 1372.2 359.974 1394.22 347.233Z" fill="url(#paint1_linear_325_16651)"/>
<path d="M1389.48 339.173C1408.96 327.902 1408.96 291.363 1389.49 257.559C1370.01 223.756 1338.43 205.489 1318.96 216.759C1299.48 228.03 1299.47 264.57 1318.95 298.373C1338.42 332.177 1370 350.443 1389.48 339.173Z" stroke="#84E4A4" stroke-width="0.69" stroke-miterlimit="10"/>
<path d="M1369.75 261.449V249.897L1360.62 244.604V255.19L1351.48 249.897V239.311L1342.35 234.018V244.604L1333.21 239.311V292.209L1342.35 297.502V308.089L1351.48 313.382V302.796L1360.62 308.089V318.675L1369.75 323.968V312.416C1374.07 313.182 1377.36 310.952 1378.49 306.457C1379.62 301.963 1378.42 295.838 1375.33 290.145C1378.42 288.015 1379.62 283.287 1378.49 277.495C1377.36 271.702 1374.07 265.677 1369.75 261.449ZM1342.31 255.19L1365.17 268.407C1367.69 269.871 1369.75 273.433 1369.75 276.33C1369.75 279.226 1367.69 280.424 1365.17 278.96L1342.31 265.743V255.157V255.19ZM1365.17 300.166L1342.31 286.949V276.363L1365.17 289.579C1367.69 291.044 1369.75 294.606 1369.75 297.502C1369.75 300.399 1367.69 301.597 1365.17 300.132V300.166Z" fill="white"/>
</g>
<defs>
<linearGradient id="paint0_linear_325_16651" x1="1495.62" y1="230.555" x2="1364.09" y2="272.206" gradientUnits="userSpaceOnUse">
<stop offset="0.09" stop-color="#84E4A4"/>
<stop offset="0.97" stop-color="#3C53D7"/>
</linearGradient>
<linearGradient id="paint1_linear_325_16651" x1="34.887" y1="-539.52" x2="-14.9445" y2="-441.487" gradientUnits="userSpaceOnUse">
<stop offset="0.09" stop-color="#84E4A4"/>
<stop offset="0.97" stop-color="#3C53D7"/>
</linearGradient>
<clipPath id="clip0_325_16651">
<rect width="126" height="155" fill="white" transform="translate(1298 196)"/>
</clipPath>
</defs>
</svg>
