<svg width="154" height="137" viewBox="0 0 154 137" fill="none" xmlns="http://www.w3.org/2000/svg">
<g clip-path="url(#clip0_92_11754)">
<path d="M77.0742 123.659V135.421L145.103 96.3208V84.5588L77.0742 123.659Z" fill="url(#paint0_linear_92_11754)"/>
<path d="M77.106 123.659V135.421L10.063 96.3207V84.5906L77.106 123.659Z" fill="url(#paint1_linear_92_11754)"/>
<path d="M10.063 84.5907L77.106 123.659L145.103 84.559L77.9643 45.4585L10.063 84.5907Z" fill="url(#paint2_linear_92_11754)"/>
<path d="M77.106 110.308V121.561L142.083 84.1773V72.9558L77.106 110.308Z" fill="url(#paint3_linear_92_11754)"/>
<path d="M77.1379 110.308V121.561L13.0513 84.2091V72.9875L77.1379 110.308Z" fill="url(#paint4_linear_92_11754)"/>
<path d="M77.0742 105.826V117.587L145.103 78.487V66.7251L77.0742 105.826Z" fill="url(#paint5_linear_92_11754)"/>
<path d="M77.106 105.826V117.588L10.063 78.4872V66.7571L77.106 105.826Z" fill="url(#paint6_linear_92_11754)"/>
<path d="M10.063 66.757L77.106 105.826L145.103 66.7252L77.9643 27.6248L10.063 66.757Z" fill="url(#paint7_linear_92_11754)"/>
<path d="M93.8588 32.0115C93.1595 32.1387 90.1395 32.0433 89.5673 31.9479C88.9951 31.8526 88.5183 31.5982 88.4865 31.2804C88.4547 30.9307 89.0587 31.026 89.2494 31.0578C90.1395 31.0896 90.4892 30.9625 90.4892 30.9625C90.4892 30.9625 89.1541 30.7082 88.8044 30.6446C88.2004 30.5174 88.1368 29.8816 88.6137 29.8816C89.1541 29.8816 89.8852 30.0406 90.3938 30.0406C90.9025 30.0406 91.3157 29.9134 91.3157 29.9134C91.3157 29.9134 88.7726 29.977 88.7726 29.373C88.7726 28.7372 89.7898 29.0551 90.521 29.0869C91.2521 29.1187 93.7953 29.1187 93.7953 29.1187L93.8588 32.0115Z" fill="url(#paint8_radial_92_11754)"/>
<path d="M89.4719 33.3786H92.7462C92.9051 33.3786 93.0323 33.2515 93.0323 33.0925V26.3532C93.0323 26.1943 92.9051 26.0671 92.7462 26.0671H89.4719C89.3129 26.0671 89.1858 26.1943 89.1858 26.3532V33.0607C89.1858 33.2197 89.3129 33.3786 89.4719 33.3786Z" fill="url(#paint9_linear_92_11754)"/>
<path d="M92.7462 32.8065V26.5758C92.7462 26.4487 92.619 26.3215 92.4919 26.3215H89.7262C89.5991 26.3215 89.4719 26.4487 89.4719 26.5758V32.8065C89.4719 32.9336 89.5991 33.0608 89.7262 33.0608H92.4919C92.619 33.0608 92.7462 32.9654 92.7462 32.8065Z" fill="url(#paint10_linear_92_11754)"/>
<path d="M90.0122 29.3096H92.2056V27.0208H90.0122V29.3096Z" fill="url(#paint11_linear_92_11754)"/>
<path d="M90.8389 29.7229C90.966 29.7229 91.0614 29.7865 91.125 29.8818C91.1886 29.7865 91.2839 29.7229 91.4111 29.7229C91.6018 29.7229 91.729 29.8818 91.729 30.0408C91.729 30.3587 91.125 30.7719 91.125 30.7719C91.125 30.7719 90.521 30.3587 90.521 30.0408C90.521 29.8818 90.6799 29.7229 90.8389 29.7229Z" fill="url(#paint12_linear_92_11754)"/>
<path d="M94.5582 28.4513C94.5582 28.4513 94.145 27.5295 93.1277 27.4341C92.1105 27.3387 90.8707 26.7983 90.6482 27.0844C90.4257 27.3387 90.9025 28.0063 91.4111 28.1335C91.888 28.2606 93.0006 28.5467 93.2231 29.0871C93.4456 29.6275 94.1768 30.4858 94.4311 30.6448C94.6218 30.7719 94.5582 28.4513 94.5582 28.4513Z" fill="url(#paint13_radial_92_11754)"/>
<path d="M90.0123 33.9825C90.2667 33.1878 90.521 32.4249 90.5528 32.107C90.5845 31.7573 91.3793 30.454 91.1568 30.1361C90.9342 29.85 90.6163 30.1361 90.3302 30.4222C90.0759 30.7083 89.6309 31.1851 89.6309 31.1851C89.6309 31.1851 89.7898 30.899 89.5355 30.8354C89.2812 30.7401 88.1686 30.8037 87.8507 31.2487C87.5328 31.6937 87.4374 32.4567 87.4056 32.8699C87.3739 33.2832 87.5646 34.523 87.6282 34.8726C87.6917 35.1905 90.0123 33.9825 90.0123 33.9825Z" fill="url(#paint14_radial_92_11754)"/>
<path d="M89.2495 31.6619C88.9634 31.9162 88.7091 31.9162 88.6773 31.7572C88.6455 31.6301 88.4866 31.4076 88.4866 31.4076L88.8998 31.0897C88.8998 31.0897 88.8998 31.2804 89.1224 31.2168C89.2813 31.1532 89.5356 30.9943 89.6628 30.8989C89.7263 31.0261 89.631 31.1532 89.631 31.1532C89.631 31.1532 89.631 31.1532 89.6628 31.1214C89.5674 31.3122 89.4085 31.5347 89.2495 31.6619Z" fill="url(#paint15_radial_92_11754)"/>
<path d="M108.259 21.2034C110.103 22.6657 109.817 24.5412 109.785 26.4168C109.753 28.2605 111.025 31.7573 109.308 33.315C107.592 34.8726 103.141 34.364 103.141 34.364L108.259 21.2034Z" fill="url(#paint16_linear_92_11754)"/>
<path opacity="0.1" d="M92.5237 77.8513C98.6907 80.2037 101.456 78.4235 105.684 75.9757C109.912 73.528 111.756 71.4299 107.147 69.6179C102.633 67.8378 98.1503 69.7133 93.9224 72.1611C89.6945 74.577 89.1858 76.5797 92.5237 77.8513Z" fill="black"/>
<path d="M107.751 72.1929C107.751 72.1929 108.069 73.3691 107.814 73.8777C107.592 74.3863 106.479 74.7678 105.621 74.3545C104.731 73.9413 104.349 73.0194 104.031 72.7969C103.714 72.5743 101.838 72.3518 100.439 71.1438C99.0405 69.9676 99.2313 68.6643 100.63 68.6325C102.029 68.6007 104.572 69.2365 105.462 69.8405C106.352 70.4445 107.751 72.1929 107.751 72.1929Z" fill="#10054D"/>
<path d="M107.115 73.4962C106.098 73.7188 104.826 72.8287 104.254 72.32C103.682 71.8114 102.601 72.0975 101.266 71.0167C99.8987 69.9359 99.4536 69.2047 100.058 68.855C100.662 68.5054 102.919 68.6007 104.667 69.5544C106.415 70.5081 107.592 71.1756 107.592 71.1756C107.592 71.1756 108.005 72.479 107.814 72.7651C107.56 73.0512 107.655 73.3691 107.115 73.4962Z" fill="url(#paint17_linear_92_11754)"/>
<path d="M107.115 43.551C107.115 43.551 107.878 46.7617 107.369 50.7989C106.861 54.8679 107.655 63.0059 107.846 65.8987C108.037 68.7915 109.022 72.3201 107.56 73.0512C106.733 73.4645 105.208 73.2419 104.031 71.875C102.855 70.5081 102.601 69.2047 102.76 68.9504C102.887 68.6961 103.11 67.5835 102.664 65.1993C102.188 62.8152 101.266 56.9978 101.361 55.1222C101.425 53.2467 102.124 44.3775 102.124 44.3775L107.115 43.551Z" fill="url(#paint18_linear_92_11754)"/>
<path d="M101.298 55.154C101.234 57.0295 102.156 62.8469 102.601 65.2311C103.078 67.6153 102.855 68.7279 102.696 68.9822C102.569 69.2365 102.792 70.5399 103.968 71.9068C104.413 72.4472 104.953 72.7969 105.43 73.0194C104.922 72.0657 104.159 70.0948 104.159 66.8205C104.159 61.8932 103.141 55.6308 102.982 52.2294C102.887 50.2267 103.364 46.4438 103.364 44.0278L101.965 44.4411C102.06 44.4093 101.393 53.2466 101.298 55.154Z" fill="#D1D3D4"/>
<path d="M100.312 76.4209C100.312 76.4209 100.82 77.9785 100.185 78.2964C99.5489 78.6143 98.5317 78.8051 97.737 78.4554C96.9422 78.1057 96.5926 77.756 95.7343 77.756C94.876 77.756 91.5699 76.103 90.9023 75.3083C90.2665 74.5135 90.9023 73.5599 92.4918 73.687C94.0812 73.8142 96.37 74.0049 96.7515 74.1321C97.1965 74.291 100.312 76.4209 100.312 76.4209Z" fill="#10054D"/>
<path d="M99.6126 77.5653C98.1185 77.756 97.6416 77.3428 96.2747 77.0567C94.9078 76.7706 90.9977 75.1811 91.0613 74.291C91.1249 73.4009 92.0468 73.5917 92.7779 73.6553C93.5409 73.7188 95.9568 73.8778 96.1476 73.8778C96.3383 73.8778 100.28 75.658 100.28 75.658C100.28 75.658 100.566 76.9295 100.312 77.1203C100.026 77.3428 99.994 77.5335 99.6126 77.5653Z" fill="url(#paint19_linear_92_11754)"/>
<path d="M102.474 44.6001C102.474 44.6001 103.364 46.5074 102.505 49.8452C101.647 53.1513 100.662 57.0613 100.63 61.2575C100.598 65.4536 101.107 76.3255 100.439 76.9295C99.7715 77.5335 97.5463 77.756 96.6244 77.0566C95.1303 75.9758 94.3356 74.4181 94.4946 73.8777C94.6217 73.3373 95.7661 71.43 95.3846 69.7134C95.0032 67.9968 93.668 62.084 93.9223 58.0786C94.1767 54.0414 94.8442 43.551 94.8442 43.551L102.474 44.6001Z" fill="url(#paint20_linear_92_11754)"/>
<path d="M98.8498 11.3805C97.8961 11.8574 96.9425 12.6203 96.9107 14.9727C96.8789 17.3569 96.8471 18.5013 97.3239 18.7874C97.8008 19.1053 98.1504 18.7874 98.2458 19.4549C98.3412 20.1225 98.1504 21.2033 98.1504 21.2033L103.332 20.0272C103.332 20.0272 102.982 19.2006 103.3 18.3423C103.618 17.484 105.112 15.831 104 13.3833C102.823 10.9991 99.9624 10.8401 98.8498 11.3805Z" fill="url(#paint21_radial_92_11754)"/>
<path d="M96.8469 13.415C96.8151 13.8601 97.1012 14.5912 97.737 14.6548C98.3727 14.7184 98.6906 15.4495 98.5317 15.831C98.4045 16.1807 98.4999 16.276 98.4999 16.276C98.4999 16.276 98.9767 16.0853 99.1992 16.4668C99.4218 16.8482 99.1357 17.643 98.9767 17.9609C98.8496 18.2788 99.8986 19.2324 100.789 19.296C101.679 19.3596 102.855 19.2642 103.236 18.8192C103.618 18.3741 105.017 16.8482 104.508 14.4323C103.999 12.0163 101.774 10.554 99.7079 10.9673C97.6416 11.3488 96.8787 12.7793 96.8469 13.415Z" fill="url(#paint22_linear_92_11754)"/>
<path d="M97.292 22.5703C97.292 22.5703 97.8642 20.6312 99.0086 20.3768C100.185 20.1543 101.202 20.2815 101.965 19.9318C102.76 19.5821 103.173 18.9146 103.173 18.9146C103.173 18.9146 104.063 19.1689 103.395 19.9636C102.76 20.7901 97.292 22.5703 97.292 22.5703Z" fill="url(#paint23_linear_92_11754)"/>
<path d="M97.5462 43.9324L94.876 43.5828C94.876 43.5828 94.2084 54.0731 93.9541 58.1103C93.6998 62.1475 95.0349 68.0285 95.4164 69.7451C95.7978 71.4617 94.6534 73.369 94.5263 73.9095C94.3991 74.3863 95.0349 75.7214 96.2747 76.7705C96.0839 74.5134 96.2747 72.1929 96.4018 70.5716C96.5608 68.7279 95.1621 62.0204 95.5435 58.015C95.8932 54.5182 97.1966 46.0623 97.5462 43.9324Z" fill="#D1D3D4"/>
<path d="M101.584 20.7584C102.664 20.4087 103.777 19.7411 103.777 19.7411C103.777 19.7411 105.43 19.7093 106.384 19.8683C107.337 20.0272 108.768 20.8855 108.672 22.6657C108.577 24.4459 108.196 26.7347 107.592 29.2142C106.988 31.6938 107.019 33.5058 107.465 36.0171C107.91 38.4966 109.467 43.9643 109.372 44.5683C109.245 45.1723 107.91 47.2704 104.794 48.3512C101.679 49.432 96.4973 49.7181 94.431 47.3022C92.333 44.918 95.2258 37.7019 95.3529 33.6647C95.4801 29.6275 93.827 26.8619 95.5436 24.7956C97.2603 22.6975 99.1676 21.4577 100.28 21.1716C101.329 20.8537 101.584 20.7584 101.584 20.7584Z" fill="url(#paint24_linear_92_11754)"/>
<path d="M97.133 22.7293C97.6416 22.0617 98.6271 21.1716 99.549 21.0444C100.471 20.9173 102.251 20.5676 102.855 20.1226C103.523 19.6139 103.618 19.2007 103.618 19.2007L105.017 19.7093C105.017 19.7093 105.144 21.3623 103.205 21.9663C101.266 22.5703 99.0721 22.5385 97.6416 23.365C96.3065 24.128 95.48 24.8909 95.48 24.8909L97.133 22.7293Z" fill="#D1D3D4"/>
<path d="M97.133 22.7293C97.6416 22.0617 98.6271 21.1716 99.549 21.0444C100.471 20.9173 102.251 20.5676 102.855 20.1226C103.523 19.6139 103.618 19.2007 103.618 19.2007L105.017 19.7093C105.017 19.7093 104.985 21.0762 103.046 21.6484C101.107 22.2524 98.5635 22.4114 97.3237 23.3332C96.084 24.2551 95.48 24.8909 95.48 24.8909L97.133 22.7293Z" fill="url(#paint25_linear_92_11754)"/>
<path d="M104.858 19.6458C104.826 19.9319 104.603 21.0127 102.887 21.5213C100.948 22.1253 98.4046 22.2842 97.1648 23.2061C96.688 23.5558 96.3383 23.8737 96.0204 24.0962L95.4482 24.8591C95.4482 24.8591 96.0522 24.2552 97.292 23.3015C98.5318 22.3796 101.075 22.2207 103.014 21.6167C104.953 21.0127 104.985 19.6775 104.985 19.6775L104.858 19.6458Z" fill="url(#paint26_radial_92_11754)"/>
<path d="M99.3266 26.2578C97.9914 24.2869 96.0841 25.8764 94.6854 27.2115C94.7172 28.5466 95.2258 30.1361 95.1622 32.6156C95.0351 36.6528 92.333 44.918 94.4311 47.3021C95.4483 48.4465 97.1649 48.987 99.0405 49.1141C98.8815 48.1922 98.7226 47.0796 98.6908 45.8399C98.5318 42.3749 99.5809 40.4357 99.9941 35.7627C100.407 31.0898 101.075 28.8327 99.3266 26.2578Z" fill="#D1D3D4"/>
<path d="M104.54 14.5913C104.095 14.941 103.364 15.386 102.092 15.6086C100.789 15.8629 99.4856 15.6403 98.5637 15.4178C98.5955 15.5768 98.5955 15.7039 98.5637 15.7993C98.4365 16.149 98.5319 16.2443 98.5319 16.2443C98.5319 16.2443 99.0087 16.0536 99.2313 16.4351C99.4538 16.8165 99.1677 17.6113 99.0087 17.9292C98.8816 18.247 99.9306 19.2007 100.821 19.2643C101.711 19.3279 102.887 19.2325 103.268 18.7875C103.586 18.3742 104.921 16.9119 104.54 14.5913Z" fill="#D1D3D4"/>
<path d="M97.8324 24.2233C99.6444 24.4459 101.075 26.0671 100.407 28.3877C99.7397 30.7083 96.9105 36.6211 95.6072 37.8608C94.3038 39.1006 92.7461 39.4503 91.0931 38.5284C89.4083 37.6065 87.6281 36.9389 87.501 35.5402C87.3738 34.1415 88.995 32.8064 89.8533 32.7746C90.7116 32.7428 92.2057 33.6329 92.5872 33.315C92.9687 32.9971 94.1131 28.7056 94.5581 27.3069C94.9396 25.8446 95.6707 23.9372 97.8324 24.2233Z" fill="url(#paint27_linear_92_11754)"/>
<path opacity="0.1" d="M49.0045 75.785C54.4086 78.0421 57.0789 76.2619 61.1479 73.9095C65.2169 71.5571 65.6619 69.2365 62.5466 67.7742C56.6657 65.0086 53.296 67.806 49.227 70.1584C45.158 72.5108 45.8256 74.4499 49.0045 75.785Z" fill="black"/>
<path opacity="0.1" d="M71.8609 90.9166C77.7737 93.1736 80.4439 91.457 84.5129 89.1046C88.5819 86.7522 90.3303 84.7495 85.9117 82.9693C81.5884 81.2527 77.265 83.0647 73.1961 85.4171C69.1271 87.7694 68.6502 89.6768 71.8609 90.9166Z" fill="black"/>
<path d="M72.4965 62.1794C72.433 63.0695 72.0833 63.9278 71.8608 64.4365C71.5747 65.0087 71.5111 65.6444 71.1932 65.5491C70.8753 65.4537 71.2886 62.8152 71.2886 62.8152L72.4965 62.1794Z" fill="url(#paint28_radial_92_11754)"/>
<path d="M86.5154 85.4807C86.5154 85.4807 86.8015 86.6251 86.579 87.102C86.3565 87.5788 85.3075 87.9603 84.4491 87.547C83.5908 87.1338 83.2412 86.2755 82.9233 86.0529C82.6054 85.8304 80.7934 85.6079 79.4583 84.4635C78.1231 83.3191 78.2821 82.0793 79.649 82.0475C81.0159 82.0157 83.4319 82.6515 84.322 83.2237C85.1803 83.7959 86.5154 85.4807 86.5154 85.4807Z" fill="#10054D"/>
<path d="M85.8797 86.7206C84.9261 86.9113 83.6863 86.0848 83.1141 85.608C82.5419 85.1311 81.5246 85.3854 80.2213 84.3364C78.9179 83.2874 78.4729 82.588 79.0451 82.2701C79.6491 81.9204 81.8107 82.0158 83.4956 82.9377C85.1804 83.8596 86.3248 84.4953 86.3248 84.4953C86.3248 84.4953 86.738 85.7669 86.5155 86.0212C86.3248 86.3073 86.4202 86.6252 85.8797 86.7206Z" fill="url(#paint29_linear_92_11754)"/>
<path d="M85.8798 57.9197C85.8798 57.9197 86.611 61.0032 86.1341 64.9133C85.6573 68.8233 86.4202 76.6752 86.5792 79.4408C86.7381 82.2065 87.7236 85.6397 86.2931 86.339C85.4984 86.7523 84.0361 86.498 82.8917 85.1946C81.7473 83.8913 81.5247 82.6197 81.6519 82.3972C81.779 82.1429 82.0016 81.0939 81.5565 78.805C81.1115 76.5162 80.2214 70.9214 80.285 69.1094C80.3485 67.2974 81.0161 58.7462 81.0161 58.7462L85.8798 57.9197Z" fill="url(#paint30_linear_92_11754)"/>
<path d="M80.285 69.0775C80.2214 70.8895 81.1115 76.4844 81.5565 78.7732C82.0016 81.062 81.8108 82.1428 81.6519 82.3653C81.5247 82.6197 81.7473 83.8594 82.8917 85.1628C83.3367 85.6714 83.8136 86.0211 84.3222 86.2118C83.8453 85.2899 83.1142 83.3826 83.1142 80.2355C83.1142 75.4989 82.1287 69.4908 82.0016 66.1847C81.9062 64.2456 82.383 60.6217 82.383 58.2693L81.0479 58.6825C81.0161 58.7461 80.3803 67.2656 80.285 69.0775Z" fill="#D1D3D4"/>
<path d="M72.1787 37.7336C72.1787 37.7336 69.2541 37.4475 68.0779 37.9879C66.9017 38.5601 65.0262 40.4039 64.9944 40.9761C64.9944 41.5165 66.5838 42.1841 67.5375 41.9298C68.4912 41.6755 68.5865 41.5165 69.3813 41.3576C70.1442 41.1986 71.7019 40.69 72.2423 40.4039C72.8145 40.1178 72.1787 37.7336 72.1787 37.7336Z" fill="url(#paint31_radial_92_11754)"/>
<path d="M55.3304 66.1531L54.949 68.3783C54.949 68.3783 56.0298 69.0141 56.5384 69.173C57.047 69.332 57.8736 69.0141 58.2868 69.5227C58.7001 70.0313 60.3849 71.3983 61.7836 71.6844C63.2777 71.9705 64.3267 71.4936 64.3585 71.0804C64.3903 70.6353 64.0088 69.936 62.6101 69.0459C61.2114 68.1558 60.067 65.9941 60.067 65.9941L55.3304 66.1531Z" fill="#10054D"/>
<path d="M55.2034 67.5517C55.3941 67.806 57.9372 68.41 58.3505 68.9186C58.8273 69.5226 61.1797 70.9531 62.3559 71.1756C63.4367 71.3664 64.2632 70.826 64.1679 70.4127C64.0089 69.8087 63.0235 69.2683 62.1652 68.6007C61.3069 67.9332 60.3532 66.4073 60.3532 66.4073L55.2034 66.0576V67.5517Z" fill="url(#paint32_linear_92_11754)"/>
<path d="M47.9236 70.1903L47.8918 72.2566L48.8137 73.1785L49.0998 73.0513C49.0998 73.0513 49.7038 74.5454 51.5158 75.7216C53.0734 76.707 54.949 76.4845 55.394 76.103C55.8391 75.7534 55.8391 75.4037 54.6947 73.8778C53.5503 72.3519 51.8973 70.1267 51.8973 70.1267L47.9236 70.1903Z" fill="#10054D"/>
<path d="M48.0509 71.3983C48.0509 71.3983 49.7039 72.9242 50.2761 73.846C51.1344 75.213 53.4232 76.262 54.9491 75.7534C56.4432 75.2448 54.4087 73.6871 54.0272 72.9877C53.614 72.2884 52.4378 70.6036 52.4378 70.6036L47.9873 70.5718L48.0509 71.3983Z" fill="url(#paint33_linear_92_11754)"/>
<path d="M60.4803 40.7854C60.4803 40.7854 60.9571 50.6082 60.8936 52.9924C60.83 55.3448 59.4631 61.5118 59.6856 62.5926C59.9399 63.6735 60.4485 64.6589 60.5757 65.3265C60.7028 66.0259 60.9254 66.9477 60.9254 66.9477C60.9254 66.9477 59.4631 68.3465 57.7782 68.1557C56.0934 67.965 55.2351 67.6471 55.0762 67.2338C54.9172 66.8206 55.3305 56.1077 55.3305 56.1077L55.108 42.2159L60.4803 40.7854Z" fill="url(#paint34_linear_92_11754)"/>
<path d="M56.4112 65.1676C56.1569 62.4337 56.9517 59.0323 57.81 55.313C58.5411 52.1977 58.1596 44.6319 58.0007 42.3113L55.1079 43.0742L55.2668 56.1077C55.2668 56.1077 54.8854 66.8206 55.0125 67.2338C55.1715 67.6153 55.9662 67.9332 57.4921 68.1239C57.047 67.2021 56.5066 65.9941 56.4112 65.1676Z" fill="#D1D3D4"/>
<path d="M55.8393 41.4211C55.8393 41.4211 55.1717 49.2412 55.0127 52.7062C54.8538 56.1712 53.9955 61.0349 53.5504 62.8468C53.1054 64.6588 52.5968 67.2337 52.7239 68.5053C52.8511 69.7768 53.4551 70.7623 52.6921 71.3027C51.9292 71.8431 49.4179 72.161 48.7821 71.8431C48.1463 71.5252 47.6377 71.5888 47.6377 70.3808C47.6377 69.1411 47.7966 62.1793 48.2735 59.4136C48.7503 56.648 47.9874 46.9206 47.9556 45.6808C47.9238 42.7562 49.0364 41.1667 49.0364 41.1667L55.8393 41.4211Z" fill="url(#paint35_linear_92_11754)"/>
<path d="M54.1544 17.3252C52.9146 17.6749 51.3888 17.5795 52.7239 20.7584C54.059 23.9373 58.891 34.8091 58.891 34.8091C58.891 34.8091 60.544 30.8673 60.2897 27.4341C60.0354 24.0009 58.0009 18.1517 58.0009 18.1517L54.1544 17.3252Z" fill="url(#paint36_linear_92_11754)"/>
<path d="M56.5702 21.2352L57.1107 21.0127L57.4603 21.3624L57.3332 22.1253C57.3332 22.1253 58.7955 24.9863 59.3359 26.7029C59.8763 28.4513 60.0034 30.8037 59.7809 31.8845C59.5902 32.9654 58.5729 34.5866 58.5729 34.5866C58.5729 34.5866 57.8418 29.3414 57.6193 28.0699C57.3968 26.7983 56.6974 22.3478 56.6974 22.3478L56.157 22.0299L56.5702 21.2352Z" fill="url(#paint37_linear_92_11754)"/>
<path d="M56.761 17.4523C56.761 17.4523 58.2869 17.2615 59.4631 18.3106C60.2896 19.0735 60.7664 20.059 61.0207 21.9663C61.2432 23.6829 60.9571 27.434 61.0207 28.4195C61.0843 29.3732 61.4022 35.4449 61.5611 37.3204C61.7201 39.196 62.3241 41.3576 61.2432 42.4384C60.1942 43.4875 59.0498 44.0597 58.7637 43.4239C58.4776 42.8199 57.6829 37.2886 58.1279 35.6356C58.573 33.9826 59.8127 30.6447 59.7491 28.6102C59.6856 26.5757 58.7955 21.1716 58.1915 20.1226C57.6193 19.0735 56.761 17.4523 56.761 17.4523Z" fill="url(#paint38_linear_92_11754)"/>
<path d="M60.5439 25.177C60.4168 23.3015 60.3532 21.8392 60.3532 21.8392L59.622 21.4577L60.0989 20.5994C60.0989 20.5994 59.2406 20.0908 58.9227 19.4232C58.6684 18.851 58.0008 18.1199 57.4604 17.4205C57.0471 17.3887 56.7292 17.4523 56.7292 17.4523C56.7292 17.4523 57.5876 19.0735 58.1598 20.1226C58.732 21.1716 59.622 26.6075 59.7174 28.6102C59.7492 29.85 59.3042 31.6302 58.8591 33.1561C59.0816 32.6792 59.4631 31.6302 59.5585 31.3759C60.0671 29.8182 60.6711 27.0526 60.5439 25.177Z" fill="#D1D3D4"/>
<path d="M60.3849 24.9863C60.2578 23.1107 60.1942 21.6484 60.1942 21.6484L59.3359 21.4259L59.9399 20.3451C59.9399 20.3451 59.2723 20.0907 58.9862 19.4868C58.7319 18.9146 58.2233 17.9927 57.4921 17.4523C57.0789 17.4205 56.761 17.484 56.761 17.484C56.761 17.484 57.6193 19.1053 58.1915 20.1543C58.7637 21.2034 59.6538 26.6393 59.7491 28.642C59.7809 29.8818 59.3359 31.6619 58.8908 33.1878C59.1134 32.711 59.4948 31.6619 59.5902 31.4076C60.067 29.8182 60.5121 26.8618 60.3849 24.9863Z" fill="url(#paint39_linear_92_11754)"/>
<path d="M49.0682 41.1667C49.0682 41.1667 47.9237 42.788 47.9873 45.6808C47.9873 46.9206 48.782 56.648 48.3052 59.4136C47.8284 62.1793 47.6694 69.1411 47.6694 70.3808C47.6694 71.6206 48.1781 71.557 48.8138 71.8431C49.0682 71.9703 49.5768 72.0021 50.1808 71.9385C49.7039 71.112 49.1953 69.8086 49.0364 67.9331C48.7503 63.9595 50.1808 59.5726 49.99 55.9486C49.7993 52.7379 49.7039 45.5536 50.2443 41.2939L49.0682 41.1667Z" fill="#D1D3D4"/>
<path d="M57.2379 17.9928L54.1862 17.3252C53.2325 17.5795 52.0881 17.5795 52.2471 19.0418C52.8829 20.1544 53.7412 21.4896 54.2498 22.03C55.2352 22.9836 55.9346 23.8737 55.9346 23.8737L56.8247 20.7266L58.3506 22.7929C58.3506 22.7929 58.4459 20.9809 58.287 20.3769C58.1916 20.0273 57.7148 18.9782 57.2379 17.9928Z" fill="#D1D3D4"/>
<path d="M57.2379 17.9928L54.1862 17.3252C53.2325 17.5795 52.0881 17.5795 52.2471 19.0418C52.8829 20.1544 53.7412 21.4896 54.2498 22.03C55.2352 22.9836 55.9028 23.3969 55.9028 23.3969L56.8247 20.6948L58.287 22.2843C58.287 22.2843 58.4141 20.9491 58.287 20.3451C58.1916 20.0273 57.7148 18.9782 57.2379 17.9928Z" fill="url(#paint40_linear_92_11754)"/>
<path d="M53.0734 17.4204C53.0734 17.4204 52.1197 17.7065 52.6284 19.0734C53.1688 20.4404 55.2351 22.761 56.5702 25.9081C57.9053 29.0552 58.8272 32.393 58.7319 36.2077C58.6365 40.0224 58.3504 43.4556 57.4921 44.3775C56.5066 45.3947 53.5503 46.5391 50.4031 45.9987C47.256 45.4583 46.3342 44.2503 46.6838 43.4874C47.0335 42.7244 48.8773 34.8726 49.0044 33.6964C49.1316 32.5202 48.0508 29.4366 47.7011 28.1969C47.3514 26.9571 46.7792 24.4776 47.1925 23.1106C47.6057 21.7437 48.4004 21.5848 49.1952 20.7583C49.7038 20.2178 50.4985 19.4549 51.4204 18.6602C51.9926 18.2151 52.4694 17.6111 53.0734 17.4204Z" fill="url(#paint41_linear_92_11754)"/>
<path d="M56.6022 25.9081C55.2671 22.761 53.169 20.4404 52.6604 19.0734C52.2153 17.8972 52.8511 17.5158 53.0418 17.4204C52.4696 17.6111 51.961 17.929 51.516 18.3105C51.4206 19.2324 51.3252 19.4549 51.7067 21.0761C52.12 22.8245 52.0246 23.5239 52.0246 23.5239L53.2008 23.7782V24.9226C53.2008 24.9226 53.7094 24.5094 55.2353 26.9889C56.7929 29.5002 57.9055 30.7718 58.7321 33.7599C58.446 30.9307 57.6512 28.3558 56.6022 25.9081Z" fill="#D1D3D4"/>
<path d="M56.6022 25.9081C55.2671 22.761 53.169 20.4404 52.6604 19.0734C52.2153 17.8972 52.8511 17.5158 53.0418 17.4204C52.4696 17.6111 51.961 17.929 51.516 18.3105C51.4206 19.2324 51.3252 19.4549 51.7067 21.0761C52.12 22.8245 52.2471 23.206 52.2471 23.206L53.4233 23.4603V24.6047C53.4233 24.6047 54.218 24.5094 55.6485 27.0525C56.9837 29.4366 57.9055 30.7718 58.7321 33.7599C58.446 30.9307 57.6512 28.3558 56.6022 25.9081Z" fill="url(#paint42_linear_92_11754)"/>
<path d="M55.712 26.9888C54.2815 24.4457 53.4867 24.4457 53.4867 24.4457V23.3013L52.3105 23.047C52.3105 23.047 52.1834 22.6655 51.7701 20.9172C51.3887 19.3277 51.484 19.0416 51.5794 18.2151C51.5476 18.2469 51.484 18.2787 51.4522 18.3105C51.3569 19.2323 51.2615 19.4549 51.643 21.0761C52.0562 22.8245 52.1834 23.206 52.1834 23.206L53.3596 23.4603V24.6047C53.3596 24.6047 54.1543 24.5093 55.5848 27.0524C56.9199 29.4366 57.8418 30.7717 58.6683 33.7599C58.6366 33.4102 58.573 33.1877 58.5412 32.8698C57.7783 30.4538 56.9199 29.1505 55.712 26.9888Z" fill="url(#paint43_radial_92_11754)"/>
<path d="M49.4178 37.4792C49.4178 37.4792 50.3715 37.8607 51.3888 38.1786C52.406 38.4647 53.614 38.7826 53.614 38.7826C53.614 38.7826 53.614 40.2767 53.01 40.2767C52.406 40.3085 49.386 39.5137 49.1953 39.1323C49.0046 38.7826 49.4178 37.4792 49.4178 37.4792Z" fill="#D1D3D4"/>
<path d="M49.4177 37.4792C49.4177 37.4792 50.3714 37.8607 51.3886 38.1786C52.4059 38.4647 53.6139 38.7826 53.6139 38.7826C53.6139 38.7826 53.5185 39.9906 52.9145 40.0224C52.3105 40.0542 49.2906 39.2594 49.0998 38.878C48.9409 38.5283 49.4177 37.4792 49.4177 37.4792Z" fill="url(#paint44_linear_92_11754)"/>
<path d="M63.7864 36.335C63.7864 36.335 63.8818 37.4158 63.3414 38.433C62.801 39.4503 61.8155 40.245 61.8155 40.245C61.8155 40.245 61.6566 38.1787 62.197 37.384C62.7374 36.6211 63.7864 36.335 63.7864 36.335Z" fill="url(#paint45_linear_92_11754)"/>
<path d="M63.1187 36.4302C63.1187 36.4302 63.7863 36.9706 64.3267 37.0024C64.8353 37.066 66.6155 36.9706 67.1877 37.1931C67.7281 37.3838 69.4447 37.8925 69.4765 38.3693C69.5083 38.8143 68.9043 38.5282 68.3957 38.4647C67.8871 38.4011 67.0606 38.3375 67.0606 38.3375C67.0606 38.3375 68.0778 39.3866 68.6818 39.7362C69.3176 40.0859 70.303 40.2766 70.462 40.6263C70.6209 40.976 70.3984 41.3257 69.8898 41.6754C69.1268 42.2158 68.4911 42.025 67.8235 42.0568C66.6791 42.0886 65.3757 41.6436 64.8353 41.1985C64.2949 40.7535 62.8008 39.5773 62.483 39.3865C62.1651 39.1958 60.9253 38.719 60.9253 38.719L62.9598 36.4302H63.1187Z" fill="url(#paint46_radial_92_11754)"/>
<path d="M69.9535 41.6119C70.4621 41.2622 70.6846 40.9126 70.5257 40.5629C70.4939 40.4993 70.4303 40.4357 70.3667 40.4039C69.9535 40.9443 68.5865 41.1987 67.76 41.0397C66.8699 40.849 64.5811 39.2913 63.9136 38.6555C63.5639 38.3376 62.4513 37.8926 61.434 37.5747L61.0208 38.6873C61.0208 38.6873 62.2287 39.1324 62.5784 39.3549C62.8963 39.5456 64.4222 40.7218 64.9308 41.1669C65.4712 41.6119 66.7746 42.057 67.919 42.0252C68.5547 41.9616 69.1905 42.1523 69.9535 41.6119Z" fill="url(#paint47_radial_92_11754)"/>
<path d="M51.2934 41.9933C51.3252 39.482 52.9782 36.2713 53.7412 34.3957C54.5359 32.4884 53.5187 26.7982 52.3425 24.2868C51.3888 22.2523 48.5596 22.9517 47.1291 23.5875C46.9383 24.9862 47.447 27.0843 47.7331 28.1651C48.0827 29.4049 49.1636 32.5202 49.0364 33.6646C48.9093 34.8408 47.0337 42.6926 46.7158 43.4556C46.3661 44.2185 47.288 45.4265 50.4351 45.9669C50.9755 46.0623 51.516 46.0941 52.0246 46.0941C51.7067 45.1722 51.2616 43.6145 51.2934 41.9933Z" fill="#D1D3D4"/>
<path d="M48.0189 21.9345C46.6838 22.3477 46.6202 24.9226 47.4467 26.7982C47.9872 28.0062 49.2905 30.8036 49.7356 31.9798C50.1806 33.156 50.9117 35.6037 52.2151 36.3031C53.4867 37.0025 56.8563 38.1151 58.1914 38.6873C59.5266 39.2595 61.8154 40.2767 61.8154 40.2767C61.8154 40.2767 62.1968 38.6873 62.769 37.7336C63.3412 36.7481 63.7863 36.3667 63.7863 36.3667C63.7863 36.3667 59.2722 34.2368 57.7146 33.3785C56.1569 32.5202 55.3622 32.0434 55.0125 31.2169C54.6628 30.4221 53.5502 26.9571 53.2006 26.0988C52.2787 23.969 51.1978 20.9172 48.0189 21.9345Z" fill="url(#paint48_linear_92_11754)"/>
<path d="M79.3313 89.5496C79.3313 89.5496 79.8399 91.0437 79.2041 91.3616C78.6001 91.6795 77.6147 91.8702 76.8517 91.5205C76.0888 91.1708 75.7709 90.8212 74.9444 90.8212C74.1179 90.8212 70.939 89.2317 70.3032 88.4688C69.6992 87.7058 70.3032 86.8157 71.8291 86.9111C73.3549 87.0383 75.5484 87.1972 75.9298 87.3562C76.3431 87.5151 79.3313 89.5496 79.3313 89.5496Z" fill="#10054D"/>
<path d="M78.6636 90.6623C77.2331 90.8212 76.7562 90.4397 75.4529 90.1536C74.1178 89.8675 70.3667 88.3416 70.4302 87.5151C70.4938 86.6568 71.3521 86.8476 72.0833 86.9111C72.8144 86.9747 75.135 87.1337 75.3257 87.1337C75.5165 87.1337 79.2994 88.8503 79.2994 88.8503C79.2994 88.8503 79.5855 90.09 79.3312 90.2808C79.0768 90.4397 79.0451 90.5987 78.6636 90.6623Z" fill="url(#paint49_linear_92_11754)"/>
<path d="M81.4292 58.9369C81.4292 58.9369 82.2876 60.7807 81.461 63.9596C80.6345 67.1385 79.6809 70.9214 79.6491 74.9586C79.6173 78.9958 80.0941 89.4544 79.4901 90.0266C78.8861 90.5988 76.6927 90.8213 75.8344 90.1537C74.4039 89.1047 73.6409 87.6106 73.7681 87.102C73.8953 86.5933 75.0079 84.7496 74.6264 83.0966C74.2449 81.4435 72.9734 75.7533 73.2277 71.9068C73.482 68.0286 74.1178 57.9197 74.1178 57.9197L81.4292 58.9369Z" fill="url(#paint50_linear_92_11754)"/>
<path d="M77.9325 26.9572C77.0106 27.4023 76.1205 28.1334 76.0569 30.4222C76.0252 32.711 75.9934 33.7919 76.4384 34.1097C76.8835 34.4276 77.2331 34.1097 77.3285 34.7455C77.4239 35.3813 77.2331 36.4303 77.2331 36.4303L82.224 35.3177C82.224 35.3177 81.8743 34.523 82.1922 33.6965C82.5101 32.87 83.9406 31.2805 82.8598 28.9281C81.7472 26.5758 79.0133 26.4486 77.9325 26.9572Z" fill="url(#paint51_radial_92_11754)"/>
<path d="M75.9934 28.8963C75.9616 29.3413 76.2477 30.0407 76.8517 30.0725C77.4556 30.1043 77.7735 30.8354 77.6146 31.1851C77.4874 31.5348 77.5828 31.6301 77.5828 31.6301C77.5828 31.6301 78.0278 31.4394 78.2504 31.8209C78.4411 32.1706 78.1868 32.9653 78.0596 33.2514C77.9325 33.5375 78.9497 34.4594 79.808 34.5229C80.6663 34.5865 81.8107 34.4912 82.1604 34.0779C82.5101 33.6328 83.877 32.1706 83.4002 29.85C82.9233 27.5294 80.7617 26.1306 78.7908 26.5121C76.7881 26.9254 76.0251 28.2923 75.9934 28.8963Z" fill="url(#paint52_linear_92_11754)"/>
<path d="M71.7972 37.5748C71.7972 37.5748 71.1614 38.0516 71.2885 38.9099C71.4157 39.7682 72.2104 41.1033 72.2104 41.1033L80.857 40.6265C80.857 40.6265 87.5327 40.3404 87.2466 37.6065C86.9605 34.9998 85.1803 35.127 81.3339 36.1442C77.4874 37.1615 75.9615 37.3204 74.7217 37.4158C73.482 37.5112 71.7972 37.5748 71.7972 37.5748Z" fill="url(#paint53_linear_92_11754)"/>
<path d="M76.4385 37.7337C76.4385 37.7337 76.9789 35.8581 78.0915 35.6356C79.2041 35.4131 80.1896 35.5402 80.9525 35.1905C81.7155 34.8409 82.1287 34.2051 82.1287 34.2051C82.1287 34.2051 82.987 34.4276 82.3512 35.2223C81.6837 35.9853 76.4385 37.7337 76.4385 37.7337Z" fill="url(#paint54_linear_92_11754)"/>
<path d="M71.6702 40.1177C71.9881 40.7535 72.2106 41.1032 72.2106 41.1032L80.8572 40.6264C80.8572 40.6264 87.5011 40.3402 87.2468 37.6382C85.6573 38.0197 81.6201 39.6727 77.9644 39.8634C74.5948 40.0541 72.5603 40.0859 71.6702 40.1177Z" fill="#D1D3D4"/>
<path d="M76.6927 58.3011L74.1178 57.9514C74.1178 57.9514 73.482 68.0603 73.2277 71.9386C72.9734 75.8168 74.2449 81.5071 74.6264 83.1283C75.0079 84.7813 73.8953 86.6251 73.7681 87.1337C73.6409 87.6105 74.2767 88.8821 75.4529 89.8993C75.2622 87.7377 75.4529 85.4807 75.5801 83.9548C75.739 82.1746 74.4039 75.7215 74.7536 71.8432C75.0715 68.4736 76.343 60.3356 76.6927 58.3011Z" fill="#D1D3D4"/>
<path d="M80.571 35.9534C81.5883 35.6037 82.6691 34.9679 82.6691 34.9679C82.6691 34.9679 84.2586 34.9361 85.1487 35.0951C86.0705 35.2222 87.4693 36.0805 87.3739 37.7971C87.2785 39.5138 86.8971 41.7072 86.3566 44.0914C85.7844 46.4755 85.8162 48.2239 86.2295 50.6399C86.6745 53.0241 88.1686 58.301 88.0415 58.8732C87.9143 59.4455 86.611 61.48 83.6228 62.529C80.6346 63.578 75.6438 63.8323 73.641 61.5117C71.6383 59.1911 74.245 51.2439 74.3404 47.3656C74.4676 43.4874 73.0371 41.8661 74.6901 39.8316C76.3431 37.8289 78.1869 36.621 79.2359 36.3349C80.3167 36.0805 80.571 35.9534 80.571 35.9534Z" fill="url(#paint55_linear_92_11754)"/>
<path d="M76.2794 37.8609C76.7562 37.2251 77.7099 36.3668 78.6 36.2397C79.4901 36.1125 81.2067 35.7628 81.7789 35.3496C82.4465 34.8727 82.51 34.4595 82.51 34.4595L83.8452 34.9681C83.8452 34.9681 83.9723 36.5575 82.0968 37.1298C80.2212 37.702 78.1232 37.6702 76.7562 38.4649C75.4847 39.196 74.6899 39.959 74.6899 39.959L76.2794 37.8609Z" fill="#D1D3D4"/>
<path d="M76.2794 37.8609C76.7562 37.2251 77.7099 36.3668 78.6 36.2397C79.4901 36.1125 81.2067 35.7628 81.7789 35.3496C82.4465 34.8727 82.51 34.4595 82.51 34.4595L83.8452 34.9681C83.8452 34.9681 83.8134 36.2714 81.9696 36.8436C80.0941 37.4158 77.6463 37.5748 76.4701 38.4649C75.2939 39.355 74.6899 39.959 74.6899 39.959L76.2794 37.8609Z" fill="url(#paint56_linear_92_11754)"/>
<path d="M83.718 34.9043C83.6862 35.1586 83.4637 36.2076 81.8425 36.7163C79.9669 37.2885 77.5192 37.4474 76.343 38.3375C75.8979 38.6872 75.5482 38.9733 75.2621 39.1958L74.6899 39.927C74.6899 39.927 75.2939 39.323 76.4701 38.4329C77.6463 37.5428 80.0941 37.3838 81.9696 36.8116C83.8452 36.2394 83.8452 34.9361 83.8452 34.9361L83.718 34.9043Z" fill="url(#paint57_radial_92_11754)"/>
<path d="M53.1371 16.9436L52.7556 17.8019C52.7556 17.8019 53.9318 19.7092 54.7901 20.2814C55.6484 20.8219 56.6975 21.4576 56.9836 21.0126C57.2697 20.5675 57.5875 19.3914 57.5875 19.3914L53.1371 16.9436Z" fill="url(#paint58_radial_92_11754)"/>
<path d="M53.0735 17.4205L53.5504 17.4523C53.5504 17.4523 55.0127 19.1371 55.9027 19.5186C56.7928 19.8683 57.6511 19.9318 58.0644 19.3279C58.4459 18.7239 59.0181 14.941 58.7002 13.4469C58.3823 11.9528 56.2842 9.15538 53.2325 11.1899C50.1807 13.2244 52.3424 16.8165 52.4695 16.9119C52.5649 17.0073 53.0735 17.4205 53.0735 17.4205Z" fill="url(#paint59_radial_92_11754)"/>
<path d="M52.4377 16.9436C52.4377 16.9436 51.9927 15.9264 52.4059 15.6403C52.4695 15.6085 52.5331 15.5767 52.5967 15.5449C52.8192 15.4813 53.0417 15.5767 53.2007 15.7357L53.6139 16.1807C53.6139 16.1807 53.6775 15.7039 53.9 14.782C54.0272 14.2098 54.7583 13.7012 56.2842 13.8283C57.0789 13.8919 58.0962 14.3051 58.6366 13.8601C59.177 13.4151 58.7637 12.4932 58.4776 12.0481C58.1915 11.6031 55.6166 8.93281 52.9146 10.8719C50.1807 12.8429 51.7066 16.2443 52.4377 16.9436Z" fill="url(#paint60_linear_92_11754)"/>
<path d="M78.3775 41.2623C77.1059 39.355 75.2304 40.8808 73.927 42.1842C73.9588 43.4875 74.4674 45.0134 74.3721 47.3658C74.2449 51.2441 71.67 59.1913 73.6727 61.5119C74.6582 62.6245 76.3112 63.1331 78.0914 63.2603C77.9324 62.3702 77.8053 61.3212 77.7417 60.1132C77.5828 56.7753 78.6 54.9316 79.0133 50.4175C79.4265 45.9353 80.0623 43.7419 78.3775 41.2623Z" fill="#D1D3D4"/>
<path d="M83.4002 30.0725C82.987 30.4222 82.2558 30.8354 81.0479 31.058C79.7763 31.2805 78.5365 31.0898 77.6464 30.8672C77.6782 30.9944 77.6782 31.1533 77.6464 31.2487C77.5193 31.5984 77.6147 31.6937 77.6147 31.6937C77.6147 31.6937 78.0597 31.503 78.2822 31.8845C78.473 32.2342 78.2186 33.0289 78.0915 33.315C77.9643 33.6011 78.9816 34.523 79.8399 34.5865C80.6982 34.6501 81.8426 34.5548 82.1923 34.1415C82.5102 33.6647 83.7817 32.266 83.4002 30.0725Z" fill="#D1D3D4"/>
<path d="M75.3574 69.8087V79.4408L76.5018 78.7732V69.1094L75.3574 69.8087Z" fill="url(#paint61_linear_92_11754)"/>
<path d="M75.3575 69.8087V79.4407L63.6592 72.7015V63.0376L75.3575 69.8087Z" fill="url(#paint62_linear_92_11754)"/>
<path d="M70.0488 73.2103V73.8461C70.0488 74.1004 69.7945 74.2275 69.572 74.1322L68.6819 73.6235C68.4912 73.5282 68.364 73.3056 68.364 73.1149V72.6381C68.364 72.3838 68.6183 72.2566 68.8408 72.352L69.8899 72.956C69.9852 73.0195 70.0488 73.1149 70.0488 73.2103Z" fill="url(#paint63_linear_92_11754)"/>
<path d="M75.3575 69.8087V72.7332C75.3575 73.1147 75.0714 73.4008 74.69 73.4008H69.9216C69.3812 73.4008 68.9044 73.1465 68.5865 72.765L64.2314 67.2973C63.8499 66.8205 63.6592 66.2483 63.6592 65.6443V63.0376L75.3575 69.8087Z" fill="url(#paint64_linear_92_11754)"/>
<path d="M75.3575 69.8087V72.7332C75.3575 73.1147 75.0714 73.4008 74.69 73.4008H69.9216C69.3812 73.4008 68.9044 73.1465 68.5865 72.765L64.2314 67.2973C63.8499 66.8205 63.6592 66.2483 63.6592 65.6443V63.0376L75.3575 69.8087Z" fill="url(#paint65_radial_92_11754)"/>
<path d="M63.6592 63.0377L75.3575 69.8087L76.5019 69.1094L64.8036 62.3701L63.6592 63.0377Z" fill="url(#paint66_linear_92_11754)"/>
<path d="M70.9706 63.9278L69.4448 63.0695C69.0633 62.8469 68.7454 62.8469 68.4911 62.9741L68.1096 63.1648L68.1732 63.4509C68.1414 63.5463 68.1414 63.6735 68.1414 63.8006V64.7861L68.4911 64.9768L68.5865 65.4536L68.9679 65.2629V64.3728C68.9679 63.9596 69.254 63.8006 69.6355 63.9913L70.8435 64.6907C71.1931 64.9132 71.511 65.4219 71.511 65.8351V66.7252L71.8925 66.9477L71.9561 67.3928L72.3376 67.202V66.2166C72.274 65.3583 71.7018 64.341 70.9706 63.9278Z" fill="url(#paint67_linear_92_11754)"/>
<path d="M67.76 64.0232V65.0086L68.5865 65.4854V64.5954C68.5865 64.1821 68.8726 64.0232 69.2541 64.2139L70.4621 64.9132C70.8118 65.1358 71.1296 65.6444 71.1296 66.0576V66.9477L71.9562 67.4246V66.4391C71.9562 65.6126 71.384 64.5954 70.6528 64.1821L69.1269 63.3238C68.3322 62.847 67.76 63.1648 67.76 64.0232Z" fill="url(#paint68_linear_92_11754)"/>
<path d="M75.3893 73.0511L75.4847 69.8722L76.502 69.1093L75.3258 69.6179L67.3149 65.1675L75.2304 69.8087L75.3893 73.0511Z" fill="url(#paint69_radial_92_11754)"/>
<path d="M70.5893 59.6045C70.5893 59.6045 69.3177 61.1622 68.7137 62.243C68.3958 62.8152 68.4276 62.9106 68.5548 64.1185C68.6184 64.6589 68.7137 65.0722 69.0316 65.104C69.1588 65.1358 69.0952 64.7861 69.0952 64.7861C69.0952 64.7861 69.1588 65.3265 69.5085 65.4219C69.8581 65.5172 69.6674 65.0722 69.6674 65.0722C69.6674 65.0722 69.7628 65.6444 70.1125 65.708C70.4621 65.7716 70.2714 65.3265 70.2714 65.3265C70.2714 65.3265 70.3985 65.9305 70.6846 66.0259C70.9707 66.1212 71.0025 65.9305 71.0025 65.5172C71.0025 65.0404 71.2251 64.5954 71.6701 63.8006C72.1469 62.9741 72.5284 62.5927 72.4966 61.7979C72.4648 61.0032 73.1006 60.3356 73.1006 60.3356L70.5893 59.6045Z" fill="url(#paint70_radial_92_11754)"/>
<path d="M75.4211 40.1496C77.0106 39.5774 78.5682 40.5946 78.9815 42.2476C79.363 43.9007 78.5365 50.2267 77.9007 52.0069C77.2649 53.7553 73.2913 61.6389 73.2913 61.6389C73.2913 61.6389 71.8926 61.4482 71.0343 61.0667C70.176 60.6853 69.7627 59.8905 69.7627 59.8905C69.7627 59.8905 72.4966 53.1195 73.037 51.53C73.5774 49.9406 73.3866 45.967 73.5456 44.1868C73.7045 41.9933 73.8635 40.69 75.4211 40.1496Z" fill="url(#paint71_linear_92_11754)"/>
<path d="M65.5349 38.8144C65.3759 39.0052 65.4713 39.4502 66.0435 39.5138C66.6157 39.5774 67.8555 39.4184 68.3323 39.4184C68.8091 39.4184 71.098 38.5283 71.098 38.5283L65.5349 38.8144Z" fill="#D1D3D4"/>
<path d="M68.3322 37.7972C67.7918 38.1151 66.9335 38.274 66.4884 38.5283C66.0434 38.7508 65.6301 38.6237 65.5348 38.8462C65.4076 39.0369 65.503 39.6091 66.6156 39.3548C67.7282 39.1005 68.364 38.9416 69.0316 38.9734C69.6991 39.0052 71.0025 38.9734 71.225 38.6237C71.4475 38.274 71.0025 37.7654 71.0025 37.7654L68.3322 37.7972Z" fill="url(#paint72_radial_92_11754)"/>
<path d="M64.5494 40.9761C64.4222 40.7536 65.5666 40.8172 65.8845 40.9444C66.2342 41.0715 67.3786 41.5484 67.6647 41.7073C67.8554 41.8345 68.1097 42.0252 67.4104 42.0888C66.0435 42.1841 64.9626 41.7391 64.5494 40.9761Z" fill="url(#paint73_radial_92_11754)"/>
</g>
<defs>
<linearGradient id="paint0_linear_92_11754" x1="99.9474" y1="113.321" x2="246.563" y2="69.4196" gradientUnits="userSpaceOnUse">
<stop stop-color="#25054D"/>
<stop offset="1" stop-color="#45108A"/>
</linearGradient>
<linearGradient id="paint1_linear_92_11754" x1="-49.3632" y1="130.847" x2="140.671" y2="88.2474" gradientUnits="userSpaceOnUse">
<stop stop-color="#25054D"/>
<stop offset="1" stop-color="#45108A"/>
</linearGradient>
<linearGradient id="paint2_linear_92_11754" x1="147.928" y1="-49.5032" x2="72.248" y2="94.728" gradientUnits="userSpaceOnUse">
<stop stop-color="#25054D"/>
<stop offset="1" stop-color="#45108A"/>
</linearGradient>
<linearGradient id="paint3_linear_92_11754" x1="73.7289" y1="107.991" x2="175.512" y2="77.5133" gradientUnits="userSpaceOnUse">
<stop offset="0.00505051" stop-color="#FFE4A7"/>
<stop offset="0.099793" stop-color="#FAC098"/>
<stop offset="0.202" stop-color="#F49587"/>
<stop offset="0.4638" stop-color="#A142B5"/>
<stop offset="0.596" stop-color="#7C1DC9"/>
<stop offset="0.6346" stop-color="#7926CB"/>
<stop offset="0.6973" stop-color="#703ED1"/>
<stop offset="0.7764" stop-color="#6165DB"/>
<stop offset="0.8686" stop-color="#4C9CE9"/>
<stop offset="0.9709" stop-color="#32E1FA"/>
<stop offset="1" stop-color="#2AF6FF"/>
</linearGradient>
<linearGradient id="paint4_linear_92_11754" x1="-26.8878" y1="113.412" x2="77.5333" y2="90.0039" gradientUnits="userSpaceOnUse">
<stop offset="0.00505051" stop-color="#FFE4A7"/>
<stop offset="0.099793" stop-color="#FAC098"/>
<stop offset="0.202" stop-color="#F49587"/>
<stop offset="0.4638" stop-color="#A142B5"/>
<stop offset="0.596" stop-color="#7C1DC9"/>
<stop offset="0.6346" stop-color="#7926CB"/>
<stop offset="0.6973" stop-color="#703ED1"/>
<stop offset="0.7764" stop-color="#6165DB"/>
<stop offset="0.8686" stop-color="#4C9CE9"/>
<stop offset="0.9709" stop-color="#32E1FA"/>
<stop offset="1" stop-color="#2AF6FF"/>
</linearGradient>
<linearGradient id="paint5_linear_92_11754" x1="99.9474" y1="95.4927" x2="246.563" y2="51.5908" gradientUnits="userSpaceOnUse">
<stop stop-color="#25054D"/>
<stop offset="1" stop-color="#45108A"/>
</linearGradient>
<linearGradient id="paint6_linear_92_11754" x1="-49.3632" y1="113.018" x2="140.671" y2="70.4188" gradientUnits="userSpaceOnUse">
<stop stop-color="#25054D"/>
<stop offset="1" stop-color="#45108A"/>
</linearGradient>
<linearGradient id="paint7_linear_92_11754" x1="147.928" y1="-67.332" x2="72.248" y2="76.8991" gradientUnits="userSpaceOnUse">
<stop stop-color="#25054D"/>
<stop offset="1" stop-color="#45108A"/>
</linearGradient>
<radialGradient id="paint8_radial_92_11754" cx="0" cy="0" r="1" gradientUnits="userSpaceOnUse" gradientTransform="translate(91.064 30.4932) rotate(180) scale(2.25864 2.25864)">
<stop offset="0.030303" stop-color="#FEDFCB"/>
<stop offset="1" stop-color="#F9B69E"/>
</radialGradient>
<linearGradient id="paint9_linear_92_11754" x1="93.0346" y1="29.7046" x2="89.1808" y2="29.7046" gradientUnits="userSpaceOnUse">
<stop offset="0.0555556" stop-color="#200041"/>
<stop offset="0.2576" stop-color="#210243"/>
<stop offset="0.3572" stop-color="#25084B"/>
<stop offset="0.4341" stop-color="#2C1358"/>
<stop offset="0.4697" stop-color="#311B61"/>
<stop offset="0.6263" stop-color="#311B61"/>
<stop offset="0.6724" stop-color="#2A1155"/>
<stop offset="0.7491" stop-color="#230446"/>
<stop offset="0.8131" stop-color="#200041"/>
<stop offset="1" stop-color="#200041"/>
</linearGradient>
<linearGradient id="paint10_linear_92_11754" x1="92.6944" y1="26.6683" x2="88.6522" y2="34.4039" gradientUnits="userSpaceOnUse">
<stop offset="0.010101" stop-color="#9F19AB"/>
<stop offset="0.4293" stop-color="#5F27BD"/>
<stop offset="0.904" stop-color="#3D065F"/>
</linearGradient>
<linearGradient id="paint11_linear_92_11754" x1="89.7696" y1="30.6186" x2="91.7142" y2="27.0536" gradientUnits="userSpaceOnUse">
<stop offset="0.0353535" stop-color="#9D9EB3"/>
<stop offset="0.5808" stop-color="#D4D1D8"/>
<stop offset="1" stop-color="#EEEBF2"/>
</linearGradient>
<linearGradient id="paint12_linear_92_11754" x1="90.68" y1="30.6873" x2="91.4521" y2="29.6255" gradientUnits="userSpaceOnUse">
<stop offset="0.0353535" stop-color="#9F19AB"/>
<stop offset="0.2438" stop-color="#AE25B1"/>
<stop offset="0.6455" stop-color="#D744BF"/>
<stop offset="1" stop-color="#FF63CE"/>
</linearGradient>
<radialGradient id="paint13_radial_92_11754" cx="0" cy="0" r="1" gradientUnits="userSpaceOnUse" gradientTransform="translate(92.5666 28.8167) rotate(180) scale(1.90931)">
<stop offset="0.030303" stop-color="#FEDFCB"/>
<stop offset="1" stop-color="#F9B69E"/>
</radialGradient>
<radialGradient id="paint14_radial_92_11754" cx="0" cy="0" r="1" gradientUnits="userSpaceOnUse" gradientTransform="translate(88.7633 32.3767) rotate(178.814) scale(2.21255 2.21254)">
<stop offset="0.030303" stop-color="#FEDFCB"/>
<stop offset="1" stop-color="#F9B69E"/>
</radialGradient>
<radialGradient id="paint15_radial_92_11754" cx="0" cy="0" r="1" gradientUnits="userSpaceOnUse" gradientTransform="translate(89.6123 26.014) rotate(178.814) scale(5.73359 5.73358)">
<stop offset="0.030303" stop-color="#FEDFCB"/>
<stop offset="1" stop-color="#F9B69E"/>
</radialGradient>
<linearGradient id="paint16_linear_92_11754" x1="110.205" y1="27.8353" x2="103.149" y2="27.8353" gradientUnits="userSpaceOnUse">
<stop offset="0.0353535" stop-color="#138BBD"/>
<stop offset="0.2257" stop-color="#169AC7"/>
<stop offset="0.5946" stop-color="#1FC3DF"/>
<stop offset="1" stop-color="#2AF6FF"/>
</linearGradient>
<linearGradient id="paint17_linear_92_11754" x1="103.804" y1="71.8252" x2="103.804" y2="67.159" gradientUnits="userSpaceOnUse">
<stop offset="0.0909091" stop-color="#25054D"/>
<stop offset="0.4708" stop-color="#330A68"/>
<stop offset="0.8939" stop-color="#45108A"/>
</linearGradient>
<linearGradient id="paint18_linear_92_11754" x1="101.305" y1="58.3928" x2="108.323" y2="58.3928" gradientUnits="userSpaceOnUse">
<stop offset="0.0353535" stop-color="#138BBD"/>
<stop offset="0.2257" stop-color="#169AC7"/>
<stop offset="0.5946" stop-color="#1FC3DF"/>
<stop offset="1" stop-color="#2AF6FF"/>
</linearGradient>
<linearGradient id="paint19_linear_92_11754" x1="95.2257" y1="77.0044" x2="97.0765" y2="71.5675" gradientUnits="userSpaceOnUse">
<stop offset="0.0909091" stop-color="#25054D"/>
<stop offset="0.4708" stop-color="#330A68"/>
<stop offset="0.8939" stop-color="#45108A"/>
</linearGradient>
<linearGradient id="paint20_linear_92_11754" x1="93.9077" y1="60.5365" x2="102.89" y2="60.5365" gradientUnits="userSpaceOnUse">
<stop offset="0.0353535" stop-color="#138BBD"/>
<stop offset="0.2257" stop-color="#169AC7"/>
<stop offset="0.5946" stop-color="#1FC3DF"/>
<stop offset="1" stop-color="#2AF6FF"/>
</linearGradient>
<radialGradient id="paint21_radial_92_11754" cx="0" cy="0" r="1" gradientUnits="userSpaceOnUse" gradientTransform="translate(98.2446 15.4191) scale(6.2522 6.25219)">
<stop offset="0.030303" stop-color="#FEDFCB"/>
<stop offset="1" stop-color="#F9B69E"/>
</radialGradient>
<linearGradient id="paint22_linear_92_11754" x1="103.371" y1="18.8996" x2="99.1542" y2="11.4438" gradientUnits="userSpaceOnUse">
<stop offset="0.0353535" stop-color="#602213"/>
<stop offset="0.571" stop-color="#6D310E"/>
<stop offset="1" stop-color="#7A4108"/>
</linearGradient>
<linearGradient id="paint23_linear_92_11754" x1="101.353" y1="22.5179" x2="100.042" y2="20.1911" gradientUnits="userSpaceOnUse">
<stop offset="0.0353535" stop-color="#9D9EB3"/>
<stop offset="0.5808" stop-color="#D4D1D8"/>
<stop offset="1" stop-color="#EEEBF2"/>
</linearGradient>
<linearGradient id="paint24_linear_92_11754" x1="93.6675" y1="34.4256" x2="109.384" y2="34.4256" gradientUnits="userSpaceOnUse">
<stop offset="0.0353535" stop-color="#138BBD"/>
<stop offset="0.2257" stop-color="#169AC7"/>
<stop offset="0.5946" stop-color="#1FC3DF"/>
<stop offset="1" stop-color="#2AF6FF"/>
</linearGradient>
<linearGradient id="paint25_linear_92_11754" x1="97.7446" y1="28.7937" x2="101.601" y2="18.87" gradientUnits="userSpaceOnUse">
<stop offset="0.0353535" stop-color="#138BBD"/>
<stop offset="0.2257" stop-color="#169AC7"/>
<stop offset="0.5946" stop-color="#1FC3DF"/>
<stop offset="1" stop-color="#2AF6FF"/>
</linearGradient>
<radialGradient id="paint26_radial_92_11754" cx="0" cy="0" r="1" gradientUnits="userSpaceOnUse" gradientTransform="translate(100.662 22.8786) scale(3.84494 3.84494)">
<stop stop-color="white"/>
<stop offset="1"/>
</radialGradient>
<linearGradient id="paint27_linear_92_11754" x1="98.3682" y1="37.9049" x2="90.4946" y2="25.577" gradientUnits="userSpaceOnUse">
<stop offset="0.0353535" stop-color="#138BBD"/>
<stop offset="0.2257" stop-color="#169AC7"/>
<stop offset="0.5946" stop-color="#1FC3DF"/>
<stop offset="1" stop-color="#2AF6FF"/>
</linearGradient>
<radialGradient id="paint28_radial_92_11754" cx="0" cy="0" r="1" gradientUnits="userSpaceOnUse" gradientTransform="translate(75.2365 63.7566) scale(3.95017)">
<stop offset="0.030303" stop-color="#FEDFCB"/>
<stop offset="0.7778" stop-color="#F9B69E"/>
<stop offset="0.9949" stop-color="#F2A78C"/>
</radialGradient>
<linearGradient id="paint29_linear_92_11754" x1="82.7012" y1="85.1284" x2="82.7012" y2="80.6376" gradientUnits="userSpaceOnUse">
<stop offset="0.0909091" stop-color="#25054D"/>
<stop offset="0.4708" stop-color="#330A68"/>
<stop offset="0.8939" stop-color="#45108A"/>
</linearGradient>
<linearGradient id="paint30_linear_92_11754" x1="80.2958" y1="72.2008" x2="87.0508" y2="72.2008" gradientUnits="userSpaceOnUse">
<stop offset="0.0353535" stop-color="#6B24D6"/>
<stop offset="0.2945" stop-color="#7733DC"/>
<stop offset="0.7943" stop-color="#975CED"/>
<stop offset="1" stop-color="#A56EF4"/>
</linearGradient>
<radialGradient id="paint31_radial_92_11754" cx="0" cy="0" r="1" gradientUnits="userSpaceOnUse" gradientTransform="translate(71.4818 42.3342) rotate(4.44484) scale(5.08396 5.08395)">
<stop offset="0.030303" stop-color="#FEDFCB"/>
<stop offset="0.7778" stop-color="#F9B69E"/>
<stop offset="0.9949" stop-color="#F2A78C"/>
</radialGradient>
<linearGradient id="paint32_linear_92_11754" x1="55.1893" y1="68.6285" x2="64.1717" y2="68.6285" gradientUnits="userSpaceOnUse">
<stop offset="0.0909091" stop-color="#25054D"/>
<stop offset="0.4708" stop-color="#330A68"/>
<stop offset="0.8939" stop-color="#45108A"/>
</linearGradient>
<linearGradient id="paint33_linear_92_11754" x1="47.975" y1="73.1836" x2="55.4906" y2="73.1836" gradientUnits="userSpaceOnUse">
<stop offset="0.0909091" stop-color="#25054D"/>
<stop offset="0.4708" stop-color="#330A68"/>
<stop offset="0.8939" stop-color="#45108A"/>
</linearGradient>
<linearGradient id="paint34_linear_92_11754" x1="55.016" y1="54.49" x2="60.9112" y2="54.49" gradientUnits="userSpaceOnUse">
<stop offset="0.0353535" stop-color="#138BBD"/>
<stop offset="0.2257" stop-color="#169AC7"/>
<stop offset="0.5946" stop-color="#1FC3DF"/>
<stop offset="1" stop-color="#2AF6FF"/>
</linearGradient>
<linearGradient id="paint35_linear_92_11754" x1="47.6173" y1="56.5818" x2="55.8247" y2="56.5818" gradientUnits="userSpaceOnUse">
<stop offset="0.0353535" stop-color="#138BBD"/>
<stop offset="0.2257" stop-color="#169AC7"/>
<stop offset="0.5946" stop-color="#1FC3DF"/>
<stop offset="1" stop-color="#2AF6FF"/>
</linearGradient>
<linearGradient id="paint36_linear_92_11754" x1="54.7907" y1="27.0269" x2="60.3825" y2="22.9196" gradientUnits="userSpaceOnUse">
<stop offset="0.0353535" stop-color="#9D9EB3"/>
<stop offset="0.5808" stop-color="#D4D1D8"/>
<stop offset="1" stop-color="#EEEBF2"/>
</linearGradient>
<linearGradient id="paint37_linear_92_11754" x1="56.6337" y1="28.4932" x2="59.9987" y2="26.4149" gradientUnits="userSpaceOnUse">
<stop offset="0.0353535" stop-color="#9F19AB"/>
<stop offset="0.2438" stop-color="#AE25B1"/>
<stop offset="0.6455" stop-color="#D744BF"/>
<stop offset="1" stop-color="#FF63CE"/>
</linearGradient>
<linearGradient id="paint38_linear_92_11754" x1="56.7243" y1="30.5272" x2="66.8687" y2="30.8241" gradientUnits="userSpaceOnUse">
<stop offset="0.0353535" stop-color="#138BBD"/>
<stop offset="0.2257" stop-color="#169AC7"/>
<stop offset="0.5946" stop-color="#1FC3DF"/>
<stop offset="1" stop-color="#2AF6FF"/>
</linearGradient>
<linearGradient id="paint39_linear_92_11754" x1="56.7655" y1="25.3076" x2="60.3992" y2="25.3076" gradientUnits="userSpaceOnUse">
<stop offset="0.0353535" stop-color="#138BBD"/>
<stop offset="0.2257" stop-color="#169AC7"/>
<stop offset="0.5946" stop-color="#1FC3DF"/>
<stop offset="1" stop-color="#2AF6FF"/>
</linearGradient>
<linearGradient id="paint40_linear_92_11754" x1="51.1594" y1="22.3164" x2="57.0234" y2="19.2173" gradientUnits="userSpaceOnUse">
<stop offset="0.0353535" stop-color="#9D9EB3"/>
<stop offset="0.5808" stop-color="#D4D1D8"/>
<stop offset="1" stop-color="#EEEBF2"/>
</linearGradient>
<linearGradient id="paint41_linear_92_11754" x1="46.8472" y1="32.8876" x2="61.0434" y2="30.3382" gradientUnits="userSpaceOnUse">
<stop offset="0.0353535" stop-color="#138BBD"/>
<stop offset="0.2257" stop-color="#169AC7"/>
<stop offset="0.5946" stop-color="#1FC3DF"/>
<stop offset="1" stop-color="#2AF6FF"/>
</linearGradient>
<linearGradient id="paint42_linear_92_11754" x1="49.7652" y1="28.1632" x2="56.0993" y2="25.4911" gradientUnits="userSpaceOnUse">
<stop offset="0.0353535" stop-color="#138BBD"/>
<stop offset="0.2257" stop-color="#169AC7"/>
<stop offset="0.5946" stop-color="#1FC3DF"/>
<stop offset="1" stop-color="#2AF6FF"/>
</linearGradient>
<radialGradient id="paint43_radial_92_11754" cx="0" cy="0" r="1" gradientUnits="userSpaceOnUse" gradientTransform="translate(52.006 27.1097) scale(5.20017 5.20017)">
<stop stop-color="white"/>
<stop offset="1"/>
</radialGradient>
<linearGradient id="paint44_linear_92_11754" x1="47.9013" y1="39.0736" x2="54.1365" y2="38.4797" gradientUnits="userSpaceOnUse">
<stop offset="0.0353535" stop-color="#138BBD"/>
<stop offset="0.2257" stop-color="#169AC7"/>
<stop offset="0.5946" stop-color="#1FC3DF"/>
<stop offset="1" stop-color="#2AF6FF"/>
</linearGradient>
<linearGradient id="paint45_linear_92_11754" x1="61.7691" y1="38.2928" x2="63.7837" y2="38.2928" gradientUnits="userSpaceOnUse">
<stop offset="0.0353535" stop-color="#138BBD"/>
<stop offset="0.2257" stop-color="#169AC7"/>
<stop offset="0.5946" stop-color="#1FC3DF"/>
<stop offset="1" stop-color="#2AF6FF"/>
</linearGradient>
<radialGradient id="paint46_radial_92_11754" cx="0" cy="0" r="1" gradientUnits="userSpaceOnUse" gradientTransform="translate(68.2826 37.5973) scale(6.1383)">
<stop offset="0.030303" stop-color="#FEDFCB"/>
<stop offset="1" stop-color="#F9B69E"/>
</radialGradient>
<radialGradient id="paint47_radial_92_11754" cx="0" cy="0" r="1" gradientUnits="userSpaceOnUse" gradientTransform="translate(69.928 34.8459) scale(9.53469 9.5347)">
<stop offset="0.030303" stop-color="#FEDFCB"/>
<stop offset="0.7778" stop-color="#F9B69E"/>
<stop offset="0.9949" stop-color="#F2A78C"/>
</radialGradient>
<linearGradient id="paint48_linear_92_11754" x1="39.2307" y1="31.7822" x2="60.8452" y2="30.7281" gradientUnits="userSpaceOnUse">
<stop offset="0.0353535" stop-color="#138BBD"/>
<stop offset="0.2257" stop-color="#169AC7"/>
<stop offset="0.5946" stop-color="#1FC3DF"/>
<stop offset="1" stop-color="#2AF6FF"/>
</linearGradient>
<linearGradient id="paint49_linear_92_11754" x1="74.4456" y1="90.1127" x2="76.2269" y2="84.8801" gradientUnits="userSpaceOnUse">
<stop offset="0.0909091" stop-color="#25054D"/>
<stop offset="0.4708" stop-color="#330A68"/>
<stop offset="0.8939" stop-color="#45108A"/>
</linearGradient>
<linearGradient id="paint50_linear_92_11754" x1="73.177" y1="74.2639" x2="81.8212" y2="74.2639" gradientUnits="userSpaceOnUse">
<stop offset="0.0353535" stop-color="#6B24D6"/>
<stop offset="0.2945" stop-color="#7733DC"/>
<stop offset="0.7943" stop-color="#975CED"/>
<stop offset="1" stop-color="#A56EF4"/>
</linearGradient>
<radialGradient id="paint51_radial_92_11754" cx="0" cy="0" r="1" gradientUnits="userSpaceOnUse" gradientTransform="translate(77.3509 30.8426) scale(6.01711 6.01712)">
<stop offset="0.030303" stop-color="#FEDFCB"/>
<stop offset="1" stop-color="#F9B69E"/>
</radialGradient>
<linearGradient id="paint52_linear_92_11754" x1="82.2844" y1="34.1922" x2="78.2265" y2="27.0168" gradientUnits="userSpaceOnUse">
<stop offset="0.0353535" stop-color="#602213"/>
<stop offset="0.571" stop-color="#6D310E"/>
<stop offset="1" stop-color="#7A4108"/>
</linearGradient>
<linearGradient id="paint53_linear_92_11754" x1="71.263" y1="38.2978" x2="87.2576" y2="38.2978" gradientUnits="userSpaceOnUse">
<stop offset="0.0353535" stop-color="#6B24D6"/>
<stop offset="0.2945" stop-color="#7733DC"/>
<stop offset="0.7943" stop-color="#975CED"/>
<stop offset="1" stop-color="#A56EF4"/>
</linearGradient>
<linearGradient id="paint54_linear_92_11754" x1="80.3428" y1="37.6745" x2="79.0809" y2="35.4352" gradientUnits="userSpaceOnUse">
<stop offset="0.0353535" stop-color="#9D9EB3"/>
<stop offset="0.5808" stop-color="#D4D1D8"/>
<stop offset="1" stop-color="#EEEBF2"/>
</linearGradient>
<linearGradient id="paint55_linear_92_11754" x1="72.9157" y1="49.1344" x2="88.072" y2="49.1344" gradientUnits="userSpaceOnUse">
<stop offset="0.0353535" stop-color="#6B24D6"/>
<stop offset="0.2945" stop-color="#7733DC"/>
<stop offset="0.7943" stop-color="#975CED"/>
<stop offset="1" stop-color="#A56EF4"/>
</linearGradient>
<linearGradient id="paint56_linear_92_11754" x1="76.8697" y1="43.7146" x2="80.5811" y2="34.1638" gradientUnits="userSpaceOnUse">
<stop offset="0.0353535" stop-color="#6B24D6"/>
<stop offset="0.2945" stop-color="#7733DC"/>
<stop offset="0.7943" stop-color="#975CED"/>
<stop offset="1" stop-color="#A56EF4"/>
</linearGradient>
<radialGradient id="paint57_radial_92_11754" cx="0" cy="0" r="1" gradientUnits="userSpaceOnUse" gradientTransform="translate(79.6774 38.0215) scale(3.70037 3.70037)">
<stop stop-color="white"/>
<stop offset="1"/>
</radialGradient>
<radialGradient id="paint58_radial_92_11754" cx="0" cy="0" r="1" gradientUnits="userSpaceOnUse" gradientTransform="translate(59.2948 15.1494) scale(6.72932 6.72931)">
<stop offset="0.030303" stop-color="#FEDFCB"/>
<stop offset="1" stop-color="#F9B69E"/>
</radialGradient>
<radialGradient id="paint59_radial_92_11754" cx="0" cy="0" r="1" gradientUnits="userSpaceOnUse" gradientTransform="translate(58.1071 15.2051) scale(7.17802 7.17802)">
<stop offset="0.030303" stop-color="#FEDFCB"/>
<stop offset="1" stop-color="#F9B69E"/>
</radialGradient>
<linearGradient id="paint60_linear_92_11754" x1="51.7536" y1="10.9704" x2="58.728" y2="17.5462" gradientUnits="userSpaceOnUse">
<stop offset="0.0909091" stop-color="#25054D"/>
<stop offset="0.7005" stop-color="#400A62"/>
<stop offset="0.8939" stop-color="#490C69"/>
</linearGradient>
<linearGradient id="paint61_linear_92_11754" x1="74.8303" y1="74.6091" x2="82.3068" y2="72.3704" gradientUnits="userSpaceOnUse">
<stop offset="0.0909091" stop-color="#25054D"/>
<stop offset="0.4708" stop-color="#330A68"/>
<stop offset="0.8939" stop-color="#45108A"/>
</linearGradient>
<linearGradient id="paint62_linear_92_11754" x1="57.6871" y1="73.897" x2="96.2268" y2="65.2576" gradientUnits="userSpaceOnUse">
<stop offset="0.0909091" stop-color="#25054D"/>
<stop offset="0.4708" stop-color="#330A68"/>
<stop offset="0.8939" stop-color="#45108A"/>
</linearGradient>
<linearGradient id="paint63_linear_92_11754" x1="66.6831" y1="73.8127" x2="71.8845" y2="72.6467" gradientUnits="userSpaceOnUse">
<stop offset="0.0353535" stop-color="#FFA98C"/>
<stop offset="0.3169" stop-color="#FFB892"/>
<stop offset="0.8601" stop-color="#FEE1A3"/>
<stop offset="1" stop-color="#FEECA8"/>
</linearGradient>
<linearGradient id="paint64_linear_92_11754" x1="53.0287" y1="71.8611" x2="86.8459" y2="64.2805" gradientUnits="userSpaceOnUse">
<stop offset="0.0909091" stop-color="#25054D"/>
<stop offset="0.4708" stop-color="#330A68"/>
<stop offset="0.8939" stop-color="#45108A"/>
</linearGradient>
<radialGradient id="paint65_radial_92_11754" cx="0" cy="0" r="1" gradientUnits="userSpaceOnUse" gradientTransform="translate(66.668 76.6308) scale(6.78545 6.78546)">
<stop stop-color="white"/>
<stop offset="1"/>
</radialGradient>
<linearGradient id="paint66_linear_92_11754" x1="71.6895" y1="63.0203" x2="69.8522" y2="66.5219" gradientUnits="userSpaceOnUse">
<stop offset="0.0909091" stop-color="#25054D"/>
<stop offset="0.4708" stop-color="#330A68"/>
<stop offset="0.8939" stop-color="#45108A"/>
</linearGradient>
<linearGradient id="paint67_linear_92_11754" x1="71.3029" y1="67.2331" x2="69.5708" y2="64.0166" gradientUnits="userSpaceOnUse">
<stop offset="0.0909091" stop-color="#25054D"/>
<stop offset="0.4708" stop-color="#330A68"/>
<stop offset="0.8939" stop-color="#45108A"/>
</linearGradient>
<linearGradient id="paint68_linear_92_11754" x1="63.1394" y1="63.2521" x2="75.7652" y2="61.3173" gradientUnits="userSpaceOnUse">
<stop offset="0.0909091" stop-color="#25054D"/>
<stop offset="0.4708" stop-color="#330A68"/>
<stop offset="0.8939" stop-color="#45108A"/>
</linearGradient>
<radialGradient id="paint69_radial_92_11754" cx="0" cy="0" r="1" gradientUnits="userSpaceOnUse" gradientTransform="translate(71.9146 69.1227) scale(4.28271 4.28271)">
<stop stop-color="white"/>
<stop offset="1"/>
</radialGradient>
<radialGradient id="paint70_radial_92_11754" cx="0" cy="0" r="1" gradientUnits="userSpaceOnUse" gradientTransform="translate(69.1315 61.2897) rotate(6.44207) scale(4.20062 4.20063)">
<stop offset="0.030303" stop-color="#FEDFCB"/>
<stop offset="1" stop-color="#F9B69E"/>
</radialGradient>
<linearGradient id="paint71_linear_92_11754" x1="69.7426" y1="50.8138" x2="79.071" y2="50.8138" gradientUnits="userSpaceOnUse">
<stop offset="0.0353535" stop-color="#6B24D6"/>
<stop offset="0.2945" stop-color="#7733DC"/>
<stop offset="0.7943" stop-color="#975CED"/>
<stop offset="1" stop-color="#A56EF4"/>
</linearGradient>
<radialGradient id="paint72_radial_92_11754" cx="0" cy="0" r="1" gradientUnits="userSpaceOnUse" gradientTransform="translate(65.4179 35.3931) rotate(4.44485) scale(5.69901 5.69901)">
<stop offset="0.030303" stop-color="#FEDFCB"/>
<stop offset="1" stop-color="#F9B69E"/>
</radialGradient>
<radialGradient id="paint73_radial_92_11754" cx="0" cy="0" r="1" gradientUnits="userSpaceOnUse" gradientTransform="translate(66.7827 40.5259) scale(2.75801 2.75801)">
<stop offset="0.030303" stop-color="#FEDFCB"/>
<stop offset="1" stop-color="#F9B69E"/>
</radialGradient>
<clipPath id="clip0_92_11754">
<rect width="154" height="136.339" fill="white"/>
</clipPath>
</defs>
</svg>
