<svg width="96" height="66" viewBox="0 0 96 66" fill="none" xmlns="http://www.w3.org/2000/svg">
<g clip-path="url(#clip0_101_251)">
<path d="M94.5626 28.8586C92.729 26.981 92.6696 28.664 93.0289 30.7018L59.4246 10.9962C57.9334 10.2406 56.1677 10.295 54.7274 11.1422L5.42155 39.8748C3.42385 38.9503 1.59026 38.6498 0.766849 40.0065C-0.724353 42.4707 0.277327 43.8102 1.12055 44.6373C1.31862 44.8577 1.57329 45.0638 1.8902 45.2441C1.91567 45.2613 1.93265 45.2699 1.93265 45.2699L36.4397 65.482C37.9054 66.2233 39.6428 66.1689 41.0604 65.3332L94.0448 34.4254C94.0448 34.4254 98.0741 32.4534 94.5626 28.8586Z" fill="url(#paint0_linear_101_251)"/>
<path style="mix-blend-mode:multiply" opacity="0.8" d="M94.5626 28.8586C92.729 26.981 92.6696 28.664 93.0289 30.7018L59.4246 10.9962C57.9334 10.2406 56.1677 10.295 54.7274 11.1422L5.42155 39.8748C3.42385 38.9503 1.59026 38.6498 0.766849 40.0065C-0.724353 42.4707 0.277327 43.8102 1.12055 44.6373C1.31862 44.8577 1.57329 45.0638 1.8902 45.2441C1.91567 45.2613 1.93265 45.2699 1.93265 45.2699L36.4397 65.482C37.9054 66.2233 39.6428 66.1689 41.0604 65.3332L94.0448 34.4254C94.0448 34.4254 98.0741 32.4534 94.5626 28.8586Z" fill="url(#paint1_linear_101_251)"/>
<path style="mix-blend-mode:multiply" opacity="0.8" d="M94.5626 28.8586C92.729 26.981 92.6696 28.664 93.0289 30.7018L59.4246 10.9962C57.9334 10.2406 56.1677 10.295 54.7274 11.1422L5.42155 39.8748C3.42385 38.9503 1.59026 38.6498 0.766849 40.0065C-0.724353 42.4707 0.277327 43.8102 1.12055 44.6373C1.31862 44.8577 1.57329 45.0638 1.8902 45.2441C1.91567 45.2613 1.93265 45.2699 1.93265 45.2699L36.4397 65.482C37.9054 66.2233 39.6428 66.1689 41.0604 65.3332L94.0448 34.4254C94.0448 34.4254 98.0741 32.4534 94.5626 28.8586Z" fill="url(#paint2_linear_101_251)"/>
<path d="M1.51674 39.2335L54.702 8.23985C56.1423 7.39267 57.9108 7.33829 59.3991 8.09388L93.909 28.3289C95.3068 29.0387 95.3663 31.0307 94.0165 31.8264L41.0322 62.7342C39.6145 63.5671 37.88 63.6243 36.4114 62.883L1.90722 42.6738C0.212291 41.652 0.308498 40.0521 1.51674 39.2335Z" fill="url(#paint3_linear_101_251)"/>
<path d="M3.91626 39.8343L40.5144 60.908C40.7832 61.0425 41.0973 61.031 41.3548 60.8793L91.7132 31.6802C91.9141 31.5629 91.9057 31.2652 91.6991 31.1593L55.1462 9.9025C54.9029 9.77942 54.6143 9.78801 54.3794 9.92539L3.89928 39.3564C3.71535 39.4651 3.72384 39.7399 3.91626 39.8343Z" fill="url(#paint4_linear_101_251)"/>
<path d="M3.86238 39.7429L54.3454 10.3119C54.5802 10.1745 54.8688 10.166 55.1122 10.289L91.6622 31.5458C91.6961 31.563 91.7244 31.5888 91.7471 31.6145C91.8772 31.4771 91.8489 31.2367 91.6679 31.1451L55.115 9.88833C54.8717 9.76526 54.5831 9.77385 54.3482 9.91123L3.86804 39.3422C3.70675 39.4366 3.69261 39.657 3.81994 39.7772C3.83409 39.7658 3.8454 39.7543 3.86238 39.7429Z" fill="url(#paint5_linear_101_251)"/>
<path d="M18.466 50.4215L18.4434 50.4072C18.3217 50.3385 18.3387 50.2155 18.4773 50.1325C18.616 50.0523 18.8254 50.0409 18.9471 50.1124L18.9697 50.1267C19.0914 50.1954 19.0744 50.3185 18.9357 50.4015C18.7971 50.4816 18.5877 50.4931 18.466 50.4215Z" fill="url(#paint6_linear_101_251)"/>
<path d="M23.3188 53.232L19.1452 50.8164C19.0235 50.7477 19.0405 50.6246 19.1791 50.5416C19.3178 50.4615 19.5272 50.45 19.6488 50.5216L23.8225 52.9372C23.9442 53.0059 23.9272 53.129 23.7886 53.212C23.6499 53.2921 23.4405 53.3036 23.3188 53.232Z" fill="url(#paint7_linear_101_251)"/>
<path d="M75.4687 20.7387L72.9022 19.2675C72.3929 18.967 72.4608 18.4461 73.0522 18.1055C73.6436 17.7649 74.5349 17.7306 75.0442 18.0311L77.6107 19.5022C78.12 19.8027 78.0521 20.3236 77.4607 20.6642C76.8693 21.0048 75.978 21.0392 75.4687 20.7387Z" fill="url(#paint8_linear_101_251)"/>
<path d="M72.9613 18.5377C73.5527 18.1971 74.444 18.1628 74.9534 18.4633L77.5198 19.9344C77.7009 20.0403 77.8084 20.1777 77.8452 20.3208C78.0376 20.0317 77.9641 19.7112 77.6075 19.5022L75.0411 18.0311C74.5318 17.7306 73.6404 17.7621 73.049 18.1055C72.6699 18.3259 72.5058 18.6178 72.5737 18.8812C72.6557 18.7581 72.7831 18.6407 72.9585 18.5377H72.9613Z" fill="url(#paint9_linear_101_251)"/>
<path d="M50.8961 57.8884C50.8282 57.8684 50.7575 57.8798 50.6924 57.9113L48.5306 59.1821C48.4287 59.2422 48.3438 59.3509 48.3014 59.4969C48.2335 59.7402 48.3212 59.9806 48.4995 60.0321C48.5645 60.0521 48.6325 60.0407 48.6975 60.0121C48.6975 60.0121 48.7089 60.0035 48.7173 60.0006L50.8367 58.7527C50.9499 58.7012 51.0489 58.581 51.0942 58.4236C51.1621 58.1803 51.0744 57.9399 50.8961 57.8884Z" fill="url(#paint10_linear_101_251)"/>
<path d="M51.1112 58.0456C51.0433 58.0256 50.9726 58.037 50.9075 58.0685L48.7457 59.3393C48.6438 59.3994 48.5589 59.5081 48.5165 59.6541C48.4486 59.8974 48.5363 60.1378 48.7146 60.1893C48.7796 60.2094 48.8475 60.1979 48.9126 60.1693C48.9126 60.1693 48.9239 60.1607 48.9324 60.1578L51.0518 58.91C51.165 58.8584 51.264 58.7382 51.3093 58.5808C51.3772 58.3375 51.2895 58.0971 51.1112 58.0456Z" fill="url(#paint11_linear_101_251)"/>
<path d="M54.2294 55.9709C54.1615 55.9509 54.0907 55.9623 54.0257 55.9938L51.8638 57.2646C51.762 57.3247 51.6771 57.4334 51.6346 57.5794C51.5667 57.8227 51.6545 58.0631 51.8327 58.1146C51.8978 58.1347 51.9657 58.1232 52.0308 58.0946C52.0308 58.0946 52.0421 58.086 52.0506 58.0831L54.17 56.8353C54.2832 56.7837 54.3822 56.6635 54.4275 56.5061C54.4954 56.2628 54.4077 56.0224 54.2294 55.9709Z" fill="url(#paint12_linear_101_251)"/>
<path d="M54.4445 56.1281C54.3766 56.1081 54.3058 56.1195 54.2407 56.151L52.0789 57.4218C51.9771 57.4819 51.8922 57.5907 51.8497 57.7366C51.7818 57.9799 51.8695 58.2203 52.0478 58.2718C52.1129 58.2919 52.1808 58.2804 52.2459 58.2518C52.2459 58.2518 52.2572 58.2432 52.2657 58.2404L54.3851 56.9925C54.4982 56.941 54.5973 56.8208 54.6426 56.6633C54.7105 56.4201 54.6227 56.1796 54.4445 56.1281Z" fill="url(#paint13_linear_101_251)"/>
<path d="M47.5543 59.8576C47.4864 59.8376 47.4157 59.849 47.3506 59.8805L46.8243 60.1753C46.7224 60.2354 46.6375 60.3442 46.5951 60.4901C46.5272 60.7334 46.6149 60.9738 46.7932 61.0254C46.8582 61.0454 46.9262 61.0339 46.9912 61.0053C46.9912 61.0053 47.0026 60.9967 47.011 60.9939L47.4949 60.722C47.6081 60.6705 47.7071 60.5502 47.7524 60.3928C47.8203 60.1496 47.7326 59.9091 47.5543 59.8576Z" fill="url(#paint14_linear_101_251)"/>
<path d="M47.7694 60.0148C47.7015 59.9948 47.6308 60.0063 47.5657 60.0377L47.0394 60.3325C46.9375 60.3926 46.8526 60.5014 46.8102 60.6474C46.7423 60.8906 46.83 61.1311 47.0083 61.1826C47.0733 61.2026 47.1412 61.1912 47.2063 61.1625C47.2063 61.1625 47.2176 61.154 47.2261 61.1511L47.71 60.8792C47.8232 60.8277 47.9222 60.7075 47.9675 60.5501C48.0354 60.3068 47.9477 60.0664 47.7694 60.0148Z" fill="url(#paint15_linear_101_251)"/>
<path d="M33.978 62.7343C34.0204 63.1779 33.7714 63.4069 33.4262 63.2466C33.081 63.0863 32.7641 62.5969 32.7244 62.1533C32.682 61.7097 32.931 61.4807 33.2762 61.641C33.6214 61.8013 33.9383 62.2907 33.978 62.7343Z" fill="url(#paint16_linear_101_251)"/>
<path d="M33.6723 63.4411C33.5761 63.4497 33.4714 63.4268 33.3667 63.3781C32.9734 63.195 32.6282 62.6655 32.5801 62.1675C32.5546 61.8813 32.6339 61.6494 32.8008 61.5292C32.948 61.4233 33.1347 61.4176 33.3356 61.5092C33.7289 61.6924 34.0741 62.2247 34.1223 62.7198C34.1505 63.0061 34.0685 63.2379 33.9015 63.3581C33.8336 63.4067 33.7572 63.4354 33.6752 63.4411H33.6723ZM33.0498 61.7353C33.0187 61.7353 32.9904 61.7467 32.9649 61.7639C32.8857 61.8211 32.8461 61.9614 32.8631 62.1388C32.8999 62.5281 33.1828 62.9746 33.4828 63.1148C33.5563 63.1492 33.6582 63.1778 33.7318 63.1234C33.811 63.0662 33.8506 62.9259 33.8336 62.7485C33.7968 62.3592 33.5139 61.9127 33.2139 61.7725C33.1658 61.7496 33.1064 61.7296 33.047 61.7353H33.0498Z" fill="#E7E1FF"/>
<path d="M88.6147 30.722L85.4455 32.5909L82.432 30.845L85.6012 28.9761L88.6147 30.722ZM85.4823 31.738L87.1574 30.7506L85.5644 29.829L83.8893 30.8164L85.4823 31.738Z" fill="url(#paint17_linear_101_251)"/>
<path d="M82.432 30.8452V31.7353L85.4455 33.4812V32.5882L82.432 30.8452Z" fill="#C2AEFF"/>
<path d="M88.6147 30.7222V31.6123L85.4456 33.4812V32.5883L88.6147 30.7222Z" fill="#9F84F4"/>
<path d="M85.5643 29.8291V30.7192L86.3934 31.2L87.1574 30.7507L85.5643 29.8291Z" fill="#C2AEFF"/>
<path d="M83.8893 30.8165L85.5644 29.8291V30.7192L84.6533 31.2573L83.8893 30.8165Z" fill="#9F84F4"/>
<path d="M70.9523 43.716L63.55 39.4285L68.7056 36.3403L68.9942 36.8326L64.6734 39.4199L71.5239 43.3868L70.9523 43.716Z" fill="url(#paint18_linear_101_251)"/>
<path d="M79.9589 22.7136L79.9391 22.7022C78.663 22.0153 75.9098 23.3977 74.7298 26.4544C73.315 30.1179 69.1272 32.4648 69.1272 32.4648L64.3169 35.1552L69.9195 38.3979L74.7298 35.7075C74.7298 35.7075 78.9177 33.3606 80.3325 29.6971C81.402 26.9295 83.7591 25.5356 85.1428 25.8075L82.432 24.1475L80.0014 22.7394C80.0014 22.7394 79.9731 22.7222 79.9589 22.7165V22.7136Z" fill="url(#paint19_linear_101_251)"/>
<path d="M85.7087 22.7308C84.7777 23.2345 83.5044 23.9243 82.432 24.1447L85.1428 25.8018C85.2475 25.8247 85.3465 25.8505 85.4399 25.8906L85.4597 25.8992C85.754 26.0308 85.9803 26.2626 86.1077 26.6004C86.7868 28.4321 89.6164 26.8866 91.3141 25.9707L93.0119 25.0548L87.4093 21.8149C87.4093 21.8149 86.9424 22.0668 85.7115 22.7308H85.7087Z" fill="url(#paint20_linear_101_251)"/>
<path d="M23.4149 45.7621L64.314 21.8579C64.314 21.8579 64.082 15.7959 61.4505 14.5023C58.8161 13.2086 55.9978 22.5705 52.4608 21.0879C48.9238 19.6054 48.8531 3.54614 44.1531 6.02186C39.4559 8.49757 37.4384 19.4709 33.627 21.6461C29.043 24.262 26.2445 0 26.2445 0L23.4149 1.61995V45.7621Z" fill="url(#paint21_linear_101_251)"/>
<path d="M25.9191 47.2817L66.8182 23.3774C66.8182 23.3774 66.5862 17.3155 63.9546 16.0219C61.3203 14.7282 58.502 24.0901 54.965 22.6075C51.428 21.125 51.3572 5.06574 46.6572 7.54146C41.9601 10.0172 39.9426 20.9905 36.1311 23.1657C31.5472 25.7816 28.7487 1.52246 28.7487 1.52246L25.9191 3.14241V47.2817Z" fill="url(#paint22_linear_101_251)"/>
<path style="mix-blend-mode:overlay" d="M25.9191 47.2817L66.8182 23.3774C66.8182 23.3774 66.5862 17.3155 63.9546 16.0219C61.3203 14.7282 58.502 24.0901 54.965 22.6075C51.428 21.125 51.3572 5.06574 46.6572 7.54146C41.9601 10.0172 39.9426 20.9905 36.1311 23.1657C31.5472 25.7816 28.7487 1.52246 28.7487 1.52246L25.9191 3.14241V47.2817Z" fill="url(#paint23_linear_101_251)"/>
<path opacity="0.3" d="M31.035 50.3012L71.9341 26.3941C71.9341 26.3941 71.7021 20.3321 69.0706 19.0385C66.4391 17.7448 63.6179 27.1067 60.0809 25.6241C56.5439 24.1416 56.4732 8.08234 51.7732 10.5581C47.0761 13.0338 45.0586 24.0071 41.2471 26.1823C36.6631 28.7982 33.8646 4.53906 33.8646 4.53906L31.035 6.15901V50.3012Z" fill="url(#paint24_linear_101_251)"/>
<path style="mix-blend-mode:overlay" d="M31.035 50.3012L71.9341 26.3941C71.9341 26.3941 71.7021 20.3321 69.0706 19.0385C66.4391 17.7448 63.6179 27.1067 60.0809 25.6241C56.5439 24.1416 56.4732 8.08234 51.7732 10.5581C47.0761 13.0338 45.0586 24.0071 41.2471 26.1823C36.6631 28.7982 33.8646 4.53906 33.8646 4.53906L31.035 6.15901V50.3012Z" fill="url(#paint25_linear_101_251)"/>
<g style="mix-blend-mode:overlay">
<path d="M31.0237 50.3015V8.30593L34.5409 6.29102L34.6258 7.03802C35.4605 14.2791 37.5799 25.4986 39.9935 26.7235C40.2397 26.8495 40.4632 26.838 40.7207 26.6921C42.2431 25.822 43.4966 23.1574 44.8237 20.3325C46.3998 16.981 48.0268 13.5178 50.4744 12.227C51.1309 11.8807 51.759 11.8378 52.3419 12.0954C54.0595 12.8538 54.9055 16.1166 55.8054 19.5683C56.5467 22.4189 57.3843 25.6474 58.5812 26.1511C59.9621 26.7293 61.3684 24.8231 62.7266 22.9799C64.1103 21.1024 65.4147 19.3279 66.9285 20.0692C69.5997 21.38 69.8459 27.0613 69.8544 27.3017L69.8657 27.5993L31.0237 50.3015ZM32.014 8.88122V48.5757L68.8498 27.0412C68.7395 25.3812 68.1622 21.775 66.4928 20.9564C65.7231 20.5786 64.6054 22.0955 63.5245 23.5666C62.0135 25.6188 60.3016 27.9428 58.202 27.0641C56.5524 26.3744 55.7261 23.1888 54.849 19.8173C54.0878 16.8865 53.2248 13.5665 51.943 12.9998C51.7534 12.9168 51.4421 12.8366 50.9356 13.1028C48.7795 14.2391 47.2232 17.5505 45.7178 20.7532C44.3228 23.7212 43.0042 26.5261 41.2103 27.5507C40.667 27.8627 40.0897 27.8798 39.5465 27.6051C36.1849 25.8993 34.2042 11.6746 33.7316 7.89379L32.0084 8.88122H32.014Z" fill="url(#paint26_linear_101_251)"/>
</g>
<path d="M56.0516 39.9835L58.7171 38.4351L61.3826 40.0207L58.7171 41.5719L56.0516 39.9835Z" fill="url(#paint27_linear_101_251)"/>
<path d="M58.7172 44.1992V41.5718L61.3827 40.0205V42.6479L58.7172 44.1992Z" fill="#A887F9"/>
<path d="M56.0516 39.9834V42.6108L58.7171 44.1993V41.5719L56.0516 39.9834Z" fill="#C2AEFF"/>
<path d="M52.1665 39.185L54.832 37.6338L57.4975 39.2223L54.832 40.7735L52.1665 39.185Z" fill="url(#paint28_linear_101_251)"/>
<path d="M54.832 46.4547V40.7734L57.4975 39.2222V44.9034L54.832 46.4547Z" fill="#A887F9"/>
<path d="M52.1665 39.1851V44.8692L54.832 46.4548V40.7735L52.1665 39.1851Z" fill="#C2AEFF"/>
<path d="M48.1655 36.5405L50.831 34.9893L53.4993 36.5777L50.831 38.129L48.1655 36.5405Z" fill="url(#paint29_linear_101_251)"/>
<path d="M50.8311 48.7244V38.1289L53.4994 36.5776V47.176L50.8311 48.7244Z" fill="#A887F9"/>
<path d="M48.1655 36.5405V47.1389L50.831 48.7245V38.129L48.1655 36.5405Z" fill="#C2AEFF"/>
<path d="M44.1672 41.3174L46.8327 39.7661L49.4982 41.3517L46.8327 42.903L44.1672 41.3174Z" fill="url(#paint30_linear_101_251)"/>
<path d="M46.8328 50.9625V42.9028L49.4983 41.3516V49.4112L46.8328 50.9625Z" fill="#A887F9"/>
<path d="M44.1672 41.3174V49.3742L46.8327 50.9627V42.903L44.1672 41.3174Z" fill="#C2AEFF"/>
<path d="M40.1691 46.7783L42.8346 45.2271L45.5 46.8155L42.8346 48.3668L40.1691 46.7783Z" fill="url(#paint31_linear_101_251)"/>
<path d="M42.8346 53.2036V48.3667L45.5001 46.8154V51.6524L42.8346 53.2036Z" fill="#A887F9"/>
<path d="M40.1691 46.7783V51.6181L42.8346 53.2037V48.3668L40.1691 46.7783Z" fill="#C2AEFF"/>
<path d="M36.1708 51.2314L38.8363 49.6802L41.5018 51.2686L38.8363 52.8199L36.1708 51.2314Z" fill="url(#paint32_linear_101_251)"/>
<path d="M38.8363 55.4444V52.8198L41.5018 51.2686V53.8931L38.8363 55.4444Z" fill="#A887F9"/>
<path d="M36.1708 51.2314V53.856L38.8363 55.4445V52.8199L36.1708 51.2314Z" fill="#C2AEFF"/>
<g style="mix-blend-mode:overlay">
<path d="M56.0516 39.9946L58.7171 38.4434L61.3826 40.0318L58.7171 41.5831L56.0516 39.9946Z" fill="url(#paint33_linear_101_251)"/>
<path d="M58.7172 44.2075V41.583L61.3827 40.0317V42.6563L58.7172 44.2075Z" fill="#A887F9"/>
<path d="M56.0516 39.9946V42.6192L58.7171 44.2076V41.5831L56.0516 39.9946Z" fill="#C2AEFF"/>
<path d="M52.1665 39.1933L54.832 37.6421L57.4975 39.2306L54.832 40.7818L52.1665 39.1933Z" fill="url(#paint34_linear_101_251)"/>
<path d="M54.832 46.4659V40.7817L57.4975 39.2305V44.9146L54.832 46.4659Z" fill="#A887F9"/>
<path d="M52.1665 39.1934V44.8775L54.832 46.466V40.7818L52.1665 39.1934Z" fill="#C2AEFF"/>
<path d="M48.1655 36.5517L50.831 35.0005L53.4993 36.5861L50.831 38.1373L48.1655 36.5517Z" fill="url(#paint35_linear_101_251)"/>
<path d="M50.8311 48.7355V38.1372L53.4994 36.5859V47.1843L50.8311 48.7355Z" fill="#A887F9"/>
<path d="M48.1655 36.5518V47.1472L50.831 48.7357V38.1374L48.1655 36.5518Z" fill="#C2AEFF"/>
<path d="M44.1672 41.3257L46.8327 39.7744L49.4982 41.3629L46.8327 42.9141L44.1672 41.3257Z" fill="url(#paint36_linear_101_251)"/>
<path d="M46.8328 50.9737V42.9141L49.4983 41.3628V49.4225L46.8328 50.9737Z" fill="#A887F9"/>
<path d="M44.1672 41.3257V49.3854L46.8327 50.9738V42.9141L44.1672 41.3257Z" fill="#C2AEFF"/>
<path d="M40.1691 46.7895L42.8346 45.2383L45.5 46.8239L42.8346 48.3751L40.1691 46.7895Z" fill="url(#paint37_linear_101_251)"/>
<path d="M42.8346 53.2148V48.375L45.5001 46.8237V51.6635L42.8346 53.2148Z" fill="#A887F9"/>
<path d="M40.1691 46.7896V51.6265L42.8346 53.215V48.3752L40.1691 46.7896Z" fill="#C2AEFF"/>
<path d="M36.1708 51.2427L38.8363 49.6914L41.5018 51.2799L38.8363 52.8283L36.1708 51.2427Z" fill="url(#paint38_linear_101_251)"/>
<path d="M38.8363 55.4556V52.8282L41.5018 51.2798V53.9043L38.8363 55.4556Z" fill="#A887F9"/>
<path d="M36.1708 51.2427V53.8672L38.8363 55.4557V52.8283L36.1708 51.2427Z" fill="#C2AEFF"/>
</g>
</g>
<defs>
<linearGradient id="paint0_linear_101_251" x1="41.5245" y1="38.232" x2="35.7068" y2="38.232" gradientUnits="userSpaceOnUse">
<stop stop-color="#A688FF"/>
<stop offset="1" stop-color="#C0ABFF"/>
</linearGradient>
<linearGradient id="paint1_linear_101_251" x1="58.2418" y1="55.2729" x2="57.0183" y2="53.1383" gradientUnits="userSpaceOnUse">
<stop stop-color="#3300BF"/>
<stop offset="1" stop-color="#C0ABFF"/>
</linearGradient>
<linearGradient id="paint2_linear_101_251" x1="32.6141" y1="63.6016" x2="34.1078" y2="61.0606" gradientUnits="userSpaceOnUse">
<stop stop-color="#3300BF"/>
<stop offset="1" stop-color="#C0ABFF"/>
</linearGradient>
<linearGradient id="paint3_linear_101_251" x1="156.836" y1="139.437" x2="44.3367" y2="34.5131" gradientUnits="userSpaceOnUse">
<stop stop-color="#9C74FF"/>
<stop offset="1" stop-color="#FFF6FF"/>
</linearGradient>
<linearGradient id="paint4_linear_101_251" x1="10.2093" y1="70.5361" x2="119.761" y2="-29.2007" gradientUnits="userSpaceOnUse">
<stop stop-color="#0E9CFF"/>
<stop offset="1" stop-color="#FFF6FF"/>
</linearGradient>
<linearGradient id="paint5_linear_101_251" x1="14.9063" y1="24.5967" x2="164.853" y2="26.5381" gradientUnits="userSpaceOnUse">
<stop stop-color="#4F47FF"/>
<stop offset="1" stop-color="#13FFE2"/>
</linearGradient>
<linearGradient id="paint6_linear_101_251" x1="18.1971" y1="49.4077" x2="22.1394" y2="55.9129" gradientUnits="userSpaceOnUse">
<stop stop-color="#4F47FF"/>
<stop offset="1" stop-color="#13FFE2"/>
</linearGradient>
<linearGradient id="paint7_linear_101_251" x1="19.54" y1="48.5934" x2="27.1084" y2="61.0796" gradientUnits="userSpaceOnUse">
<stop stop-color="#4F47FF"/>
<stop offset="1" stop-color="#13FFE2"/>
</linearGradient>
<linearGradient id="paint8_linear_101_251" x1="72.1156" y1="17.5703" x2="78.091" y2="20.946" gradientUnits="userSpaceOnUse">
<stop stop-color="#FF4AFF"/>
<stop offset="1" stop-color="#13FFE2"/>
</linearGradient>
<linearGradient id="paint9_linear_101_251" x1="73.5442" y1="17.5703" x2="79.4039" y2="23.4766" gradientUnits="userSpaceOnUse">
<stop stop-color="#4F47FF"/>
<stop offset="1" stop-color="#13FFE2"/>
</linearGradient>
<linearGradient id="paint10_linear_101_251" x1="48.3891" y1="59.5112" x2="53.8601" y2="57.2545" gradientUnits="userSpaceOnUse">
<stop stop-color="#3818D6"/>
<stop offset="1" stop-color="#13FFE2"/>
</linearGradient>
<linearGradient id="paint11_linear_101_251" x1="52.162" y1="61.2533" x2="49.4241" y2="58.7011" gradientUnits="userSpaceOnUse">
<stop stop-color="#9C74FF"/>
<stop offset="1" stop-color="#FFF6FF"/>
</linearGradient>
<linearGradient id="paint12_linear_101_251" x1="51.7224" y1="57.5937" x2="57.1962" y2="55.337" gradientUnits="userSpaceOnUse">
<stop stop-color="#3818D6"/>
<stop offset="1" stop-color="#13FFE2"/>
</linearGradient>
<linearGradient id="paint13_linear_101_251" x1="55.4969" y1="59.3375" x2="52.7561" y2="56.7824" gradientUnits="userSpaceOnUse">
<stop stop-color="#9C74FF"/>
<stop offset="1" stop-color="#FFF6FF"/>
</linearGradient>
<linearGradient id="paint14_linear_101_251" x1="46.6262" y1="60.6733" x2="48.9174" y2="59.7274" gradientUnits="userSpaceOnUse">
<stop stop-color="#3818D6"/>
<stop offset="1" stop-color="#13FFE2"/>
</linearGradient>
<linearGradient id="paint15_linear_101_251" x1="48.813" y1="61.9469" x2="47.0827" y2="60.3334" gradientUnits="userSpaceOnUse">
<stop stop-color="#9C74FF"/>
<stop offset="1" stop-color="#FFF6FF"/>
</linearGradient>
<linearGradient id="paint16_linear_101_251" x1="3.25372" y1="47.6365" x2="3.4289" y2="49.4655" gradientUnits="userSpaceOnUse">
<stop stop-color="#4F47FF"/>
<stop offset="1" stop-color="#13FFE2"/>
</linearGradient>
<linearGradient id="paint17_linear_101_251" x1="110.165" y1="38.4096" x2="82.3018" y2="29.9812" gradientUnits="userSpaceOnUse">
<stop stop-color="#CAB9FF"/>
<stop offset="1" stop-color="white"/>
</linearGradient>
<linearGradient id="paint18_linear_101_251" x1="64.8488" y1="37.1417" x2="72.5773" y2="41.5275" gradientUnits="userSpaceOnUse">
<stop stop-color="#6318FF"/>
<stop offset="1" stop-color="#13FFE2"/>
</linearGradient>
<linearGradient id="paint19_linear_101_251" x1="68.6377" y1="36.735" x2="86.3444" y2="18.9747" gradientUnits="userSpaceOnUse">
<stop stop-color="#6318FF"/>
<stop offset="1" stop-color="#13FFE2"/>
</linearGradient>
<linearGradient id="paint20_linear_101_251" x1="86.4048" y1="26.1911" x2="91.5866" y2="20.0787" gradientUnits="userSpaceOnUse">
<stop stop-color="#6318FF"/>
<stop offset="1" stop-color="#13FFE2"/>
</linearGradient>
<linearGradient id="paint21_linear_101_251" x1="91.4499" y1="74.2801" x2="24.7998" y2="15.5188" gradientUnits="userSpaceOnUse">
<stop stop-color="#CAB9FF"/>
<stop offset="1" stop-color="white"/>
</linearGradient>
<linearGradient id="paint22_linear_101_251" x1="31.3849" y1="-33.0545" x2="85.1285" y2="17.4601" gradientUnits="userSpaceOnUse">
<stop stop-color="#6318FF"/>
<stop offset="1" stop-color="#13FFE2"/>
</linearGradient>
<linearGradient id="paint23_linear_101_251" x1="38.1794" y1="-26.5196" x2="91.9229" y2="23.9949" gradientUnits="userSpaceOnUse">
<stop stop-color="#6318FF"/>
<stop offset="1" stop-color="#13FFE2"/>
</linearGradient>
<linearGradient id="paint24_linear_101_251" x1="39.0698" y1="-31.5543" x2="92.8134" y2="18.9603" gradientUnits="userSpaceOnUse">
<stop stop-color="#6318FF"/>
<stop offset="1" stop-color="#13FFE2"/>
</linearGradient>
<linearGradient id="paint25_linear_101_251" x1="46.6192" y1="-24.2952" x2="100.363" y2="26.2194" gradientUnits="userSpaceOnUse">
<stop stop-color="#6318FF"/>
<stop offset="1" stop-color="#13FFE2"/>
</linearGradient>
<linearGradient id="paint26_linear_101_251" x1="-15.1809" y1="14.1847" x2="25.9972" y2="26.0249" gradientUnits="userSpaceOnUse">
<stop stop-color="#6318FF"/>
<stop offset="1" stop-color="#13FFE2"/>
</linearGradient>
<linearGradient id="paint27_linear_101_251" x1="63.4143" y1="44.2394" x2="57.3292" y2="38.8733" gradientUnits="userSpaceOnUse">
<stop stop-color="#CAB9FF"/>
<stop offset="1" stop-color="white"/>
</linearGradient>
<linearGradient id="paint28_linear_101_251" x1="59.5291" y1="43.441" x2="53.4412" y2="38.0749" gradientUnits="userSpaceOnUse">
<stop stop-color="#CAB9FF"/>
<stop offset="1" stop-color="white"/>
</linearGradient>
<linearGradient id="paint29_linear_101_251" x1="55.531" y1="40.7965" x2="49.4431" y2="35.4304" gradientUnits="userSpaceOnUse">
<stop stop-color="#CAB9FF"/>
<stop offset="1" stop-color="white"/>
</linearGradient>
<linearGradient id="paint30_linear_101_251" x1="51.5327" y1="45.5733" x2="45.4448" y2="40.2072" gradientUnits="userSpaceOnUse">
<stop stop-color="#CAB9FF"/>
<stop offset="1" stop-color="white"/>
</linearGradient>
<linearGradient id="paint31_linear_101_251" x1="47.5317" y1="51.0342" x2="41.4466" y2="45.6682" gradientUnits="userSpaceOnUse">
<stop stop-color="#CAB9FF"/>
<stop offset="1" stop-color="white"/>
</linearGradient>
<linearGradient id="paint32_linear_101_251" x1="43.5334" y1="55.4874" x2="37.4455" y2="50.1213" gradientUnits="userSpaceOnUse">
<stop stop-color="#CAB9FF"/>
<stop offset="1" stop-color="white"/>
</linearGradient>
<linearGradient id="paint33_linear_101_251" x1="63.4143" y1="44.2506" x2="57.3292" y2="38.8845" gradientUnits="userSpaceOnUse">
<stop stop-color="#CAB9FF"/>
<stop offset="1" stop-color="white"/>
</linearGradient>
<linearGradient id="paint34_linear_101_251" x1="59.5291" y1="43.4493" x2="53.4412" y2="38.0832" gradientUnits="userSpaceOnUse">
<stop stop-color="#CAB9FF"/>
<stop offset="1" stop-color="white"/>
</linearGradient>
<linearGradient id="paint35_linear_101_251" x1="55.531" y1="40.8077" x2="49.443" y2="35.4388" gradientUnits="userSpaceOnUse">
<stop stop-color="#CAB9FF"/>
<stop offset="1" stop-color="white"/>
</linearGradient>
<linearGradient id="paint36_linear_101_251" x1="51.5327" y1="45.5816" x2="45.4448" y2="40.2155" gradientUnits="userSpaceOnUse">
<stop stop-color="#CAB9FF"/>
<stop offset="1" stop-color="white"/>
</linearGradient>
<linearGradient id="paint37_linear_101_251" x1="47.5317" y1="51.0455" x2="41.4466" y2="45.6765" gradientUnits="userSpaceOnUse">
<stop stop-color="#CAB9FF"/>
<stop offset="1" stop-color="white"/>
</linearGradient>
<linearGradient id="paint38_linear_101_251" x1="43.5334" y1="55.4986" x2="37.4455" y2="50.1325" gradientUnits="userSpaceOnUse">
<stop stop-color="#CAB9FF"/>
<stop offset="1" stop-color="white"/>
</linearGradient>
<clipPath id="clip0_101_251">
<rect width="96" height="66" fill="white"/>
</clipPath>
</defs>
</svg>
