<svg width="95" height="85" viewBox="0 0 95 85" fill="none" xmlns="http://www.w3.org/2000/svg">
<g clip-path="url(#clip0_101_890)">
<path d="M47.6661 84.9879L94.9757 57.9813V55.5796L47.6661 82.5862V84.9879Z" fill="#3A2AD1"/>
<path d="M47.5 28.3491L0 55.5355L47.5 82.7219L95 55.5355L47.5 28.3491Z" fill="#C8D5F5"/>
<path d="M47.6824 85L0.101318 57.9974V55.5957L47.6824 82.6023V85Z" fill="#1D5FFF"/>
<path d="M53.4036 12.0007C53.2294 13.0837 53.4441 14.3505 53.4441 15.2657C53.4481 19.4577 50.8955 22.9984 48.2091 26.0595C46.6451 27.8418 50.0405 29.9798 51.5883 28.2135C55.8955 23.3021 58.6021 18.0231 57.1394 11.3893C56.8517 10.0905 55.312 9.57103 54.3071 10.3263C53.7642 10.7339 53.513 11.3334 53.4036 12.0007Z" fill="#1D5FFF"/>
<path d="M58.0996 1.94193C57.7876 1.56229 57.1353 1.62223 56.8111 1.94193C56.7949 1.95792 56.7828 1.9779 56.7666 1.99388C56.3047 1.79407 55.6928 1.96191 55.6077 2.52538C55.4457 2.21767 54.9392 2.16572 54.7933 2.59332C54.7001 2.86906 54.6029 3.04889 54.6069 3.3526C54.615 3.65232 54.7406 3.96403 54.8663 4.22778C55.1539 4.82322 55.5956 5.31476 56.1628 5.66643C56.6167 5.94616 57.2123 5.66643 57.3581 5.18688C57.3663 5.15491 57.3703 5.12294 57.3784 5.09097C57.6175 5.18288 57.8687 5.24283 58.1239 5.2668C58.5048 5.29877 58.9222 4.97108 58.9992 4.61142C59.222 3.5684 58.7398 2.7252 58.0956 1.93794L58.0996 1.94193Z" fill="#040E67"/>
<g style="mix-blend-mode:multiply">
<path d="M66.9287 50.5842C65.859 53.7133 60.2269 55.3797 54.9757 54.4166C50.3039 53.5574 47.5851 50.8759 48.4603 48.3423C49.3315 45.8127 53.6021 43.9824 58.4563 44.2821C63.9182 44.6178 67.9984 47.4592 66.9287 50.5842Z" fill="#C8D5F5"/>
</g>
<path d="M54.5988 22.6147L54.0964 23.7856C53.359 25.508 53.0551 27.3783 53.201 29.2445L54.3193 48.5144C55.3241 49.0379 57.0057 48.7941 57.2852 48.5144C57.1677 43.5231 57.1637 38.5358 57.1799 33.5445C57.188 31.4344 57.7593 29.3724 57.9214 27.2784C57.9457 26.9866 57.8282 23.2501 57.6094 23.2062L54.5988 22.6147Z" fill="#050E68"/>
<path d="M62.4393 1.93008C61.7221 0.30361 59.5219 -0.0560517 57.9457 0.00788816C57.2731 0.0358618 56.1184 0.203704 55.7132 0.799143C55.1783 1.5864 55.2472 3.15293 56.2642 3.48861C56.7788 3.66045 57.3542 3.74038 57.8931 3.8163C58.1443 3.85227 58.4765 3.82829 58.7115 3.93619C58.983 4.06007 59.0681 4.29585 59.1329 4.57559C59.3761 5.65857 59.5705 6.92937 59.5705 6.92937L60.2877 5.77446C60.2877 5.77446 60.8347 5.8344 61.1548 6.23403C61.0292 6.74155 60.3485 7.2171 60.1581 7.70864C60.1581 7.70864 61.7748 7.76858 62.6013 5.74649C62.9174 4.91527 63.3955 4.10403 62.4393 1.93008Z" fill="#040E67"/>
<path d="M55.624 12.2363C55.4943 11.9286 55.2796 11.6009 55.4052 11.3651C55.778 10.6458 56.2115 9.88254 56.4263 9.11126C54.8865 8.44389 54.5543 7.32095 54.769 5.70247C54.9109 4.65546 55.154 2.05391 56.6896 2.01394C57.4271 1.99796 58.5292 2.23374 59.0559 2.78122C59.5583 3.30872 59.5827 4.17591 59.9919 4.77135C60.3768 5.33082 60.8468 4.53157 61.2115 4.33176C61.7747 4.01606 62.5284 4.74337 62.5284 5.29486C62.5284 6.03416 61.953 6.42979 61.3209 6.67755C61.3209 6.72151 61.3128 6.76147 61.2844 6.80543C60.9036 7.38089 60.4416 7.96035 59.9149 8.42791C59.8055 8.88348 59.6556 9.34704 59.6921 9.76665C59.7812 10.7178 60.1094 12.1124 60.9076 12.572C60.9117 12.572 60.1256 12.8717 59.9473 12.8917C59.2018 12.9636 58.4765 12.7199 57.7391 12.7678C57.2447 12.8038 56.7504 13.1595 56.2642 12.9716C56.0089 12.8717 55.7618 12.572 55.6199 12.2363H55.624Z" fill="#F0A681"/>
<path d="M63.9424 25.0166C64.2018 24.0335 64.0559 22.8826 64.0518 21.9075C64.0518 20.5927 63.9343 19.1421 63.6629 17.6954C63.6588 17.6635 63.6507 17.6315 63.6426 17.6035C63.3022 13.5314 62.342 10.4263 60.1702 10.73C60.1499 10.71 60.1337 10.69 60.1134 10.6701C59.6556 10.1905 59.5583 10.9977 59.0235 11.0817C58.7439 11.1256 58.4238 11.1496 58.1118 11.1256V10.5821L56.4586 9.77489C55.2836 9.51914 54.457 10.6061 53.8776 12.4044C53.7642 12.7041 53.6669 13.0079 53.5899 13.3315C52.8241 16.5245 52.5932 19.9573 52.6134 23.3341C52.5972 24.0415 52.5932 24.7288 52.5891 25.3842C54.5178 26.715 57.9416 27.4223 63.9424 25.0166Z" fill="#050E68"/>
<path d="M54.5624 47.7548C54.1693 47.9586 53.8371 48.2823 53.4197 48.642C53.4197 48.642 51.3776 49.8089 51.3168 49.9647C51.2561 50.1206 51.1629 50.5921 51.2277 50.6801C51.2925 50.768 51.9975 51.2395 53.0227 50.8799C53.8371 50.5921 54.6191 50.2165 55.4173 49.9408C55.8954 49.7769 57.0421 49.7569 57.2974 49.2254C57.427 48.9537 57.4554 48.1385 57.2893 47.8747C57.0259 47.4511 56.1183 47.531 55.6928 47.515C55.2269 47.4991 54.8784 47.587 54.5664 47.7508L54.5624 47.7548Z" fill="#040E67"/>
<mask id="mask0_101_890" style="mask-type:luminance" maskUnits="userSpaceOnUse" x="52" y="9" width="13" height="18">
<path d="M63.9424 25.0166C64.2018 24.0335 64.0559 22.8826 64.0518 21.9075C64.0518 20.5927 63.9343 19.1421 63.6629 17.6954C63.6588 17.6635 63.6507 17.6315 63.6426 17.6035C63.3022 13.5314 62.342 10.4263 60.1702 10.73C60.1499 10.71 60.1337 10.69 60.1134 10.6701C59.6556 10.1905 59.5583 10.9977 59.0235 11.0817C58.7439 11.1256 58.4238 11.1496 58.1118 11.1256V10.5821L56.4586 9.77489C55.2836 9.51914 54.457 10.6061 53.8776 12.4044C53.7642 12.7041 53.6669 13.0079 53.5899 13.3315C52.8241 16.5245 52.5932 19.9573 52.6134 23.3341C52.5972 24.0415 52.5932 24.7288 52.5891 25.3842C54.5178 26.715 57.9416 27.4223 63.9424 25.0166Z" fill="white"/>
</mask>
<g mask="url(#mask0_101_890)">
<path d="M59.2545 10.8018L54.2139 21.9593C54.2139 21.9593 54.137 13.7511 55.782 10.1545C57.4271 6.55784 59.9595 8.70782 59.9595 8.70782L59.2504 10.8058L59.2545 10.8018Z" fill="#286BF1"/>
</g>
<path d="M56.2034 9.70683L56.0372 10.1344L56.2277 10.6739L56.6166 10.538L56.7666 10.5221L57.423 10.9577C57.423 10.9577 58.1523 10.9936 58.2131 10.9736C58.2739 10.9497 59.0397 10.4661 59.0397 10.4421C59.0397 10.4182 58.4481 9.2113 58.3792 9.17533C58.3103 9.13936 57.6134 8.81567 57.5 8.83965C57.3865 8.86362 56.2074 9.71083 56.2074 9.71083L56.2034 9.70683Z" fill="#F0A681"/>
<path d="M56.3047 9.51514C56.3047 9.51514 55.7941 10.3583 56.7585 10.5262L55.239 11.0697L56.3047 9.51514Z" fill="white"/>
<path d="M59.692 9.771C59.692 9.771 58.1401 10.9978 56.7625 10.5263L57.6012 12.3686L60.3889 10.6422L59.692 9.771Z" fill="white"/>
<path d="M58.8655 49.1297C59.0843 48.79 59.3922 48.9618 59.9474 48.9059C60.4376 48.8579 61.5681 49.6612 61.2075 48.2065C61.3939 48.2145 61.2399 48.2825 61.2723 48.4863C61.329 48.826 61.6613 50.1847 61.6653 50.4165C61.6775 51.8511 57.419 55.6995 57.4109 52.5265C57.4109 52.3307 58.5576 50.3605 58.5981 50.0968C58.6791 49.5932 58.7602 49.2975 58.8696 49.1297H58.8655Z" fill="#040E67"/>
<path d="M56.8882 24.6446C56.9449 26.339 57.0057 28.0374 57.0624 29.7318C57.107 31.0266 57.1597 32.3214 57.1961 33.6162C57.3298 38.4197 58.0997 43.2431 58.6872 48.0026C58.752 48.5341 58.8209 49.0656 58.8858 49.5971L61.4546 49.3294C61.4506 48.8339 61.4465 48.3423 61.4425 47.8468C61.3939 43.1752 61.013 38.2918 61.4668 33.6402C61.7545 30.6829 61.8558 27.6858 62.0584 24.7206L56.8922 24.6406L56.8882 24.6446Z" fill="#050E68"/>
<path d="M58.8452 1.01078C58.5332 0.631137 57.8809 0.691081 57.5567 1.01078C57.5405 1.02676 57.5284 1.04675 57.5122 1.06273C57.0502 0.862919 56.4425 1.03076 56.3533 1.59423C56.1912 1.28652 55.6848 1.23457 55.5389 1.66217C55.4457 1.93791 55.3444 2.11774 55.3525 2.42145C55.3606 2.72117 55.4862 3.03288 55.6118 3.29663C55.9036 3.89207 56.3412 4.38361 56.9084 4.73527C57.3622 5.01501 57.9579 4.73527 58.1037 4.25573C58.1118 4.22376 58.1159 4.19179 58.124 4.15982C58.363 4.25173 58.6143 4.31167 58.8736 4.33565C59.2545 4.36762 59.6718 4.03993 59.7488 3.68027C59.9716 2.63725 59.4895 1.79404 58.8452 1.00678V1.01078Z" fill="#040E67"/>
<path d="M60.8103 27.9778C60.6685 27.758 60.4457 27.6461 60.2026 27.6102C59.8946 27.4024 59.4813 27.3504 59.0923 27.6222C58.2739 28.2016 57.265 28.4614 56.5113 29.1407C55.5915 29.968 55.859 31.6264 57.2731 31.9341C58.4197 32.1859 59.4975 31.2667 60.1215 30.5434C60.2633 30.3796 60.393 30.1957 60.4943 30.0119C60.4214 30.1398 60.6766 29.4924 60.547 29.8441C60.5915 29.7202 60.6442 29.5963 60.6928 29.4764C60.9035 28.9569 61.1466 28.5173 60.8022 27.9778H60.8103Z" fill="#F0A681"/>
<path d="M60.4416 13.7672C62.6215 19.1461 60.7496 23.7937 57.8606 28.4733C56.6167 30.4874 60.3241 32.042 61.5559 30.0478C64.9797 24.5011 66.7666 18.8504 64.2058 12.5483C63.3103 10.3424 59.5461 11.5612 60.4416 13.7672Z" fill="#1D5FFF"/>
<path d="M46.9935 29.4164C47.5324 30.0678 48.6183 29.9919 49.7164 29.4404C51.0495 28.773 52.1475 26.5192 49.9595 26.0036C48.6872 25.7039 46.9733 26.9507 46.6127 28.1416C46.6248 28.1416 46.6329 28.0497 46.6451 28.0537C46.6167 28.6731 46.7504 29.1207 46.9935 29.4124V29.4164Z" fill="#F0A681"/>
<g style="mix-blend-mode:multiply">
<path d="M37.8606 58.3811C36.7868 61.5101 31.1588 63.1766 25.9076 62.2135C21.2358 61.3543 18.517 58.6728 19.3922 56.1392C20.2633 53.6096 24.534 51.7793 29.3881 52.079C34.85 52.4147 38.9303 55.256 37.8606 58.3811Z" fill="#C8D5F5"/>
</g>
<path d="M22.5081 55.8714C22.5567 56.4469 22.5081 56.4469 22.5081 56.4469C22.5081 56.4469 22.4797 56.9984 22.9052 57.1782C23.3306 57.362 24.1815 57.5458 24.7123 57.0463C25.2431 56.5508 25.2958 56.2071 26.1183 55.6596C26.9408 55.1121 26.5681 53.7214 26.4384 53.3818C26.3047 53.0421 24.3963 53.4857 24.2342 53.6175C24.0762 53.7494 22.419 54.8644 22.5081 55.8674V55.8714Z" fill="#24009D"/>
<path d="M30.3038 57.2979L32.3379 57.9492C32.3379 57.9492 34.4489 58.3049 34.8419 58.5607C35.235 58.8164 35.3322 59.252 35.0162 59.6197C34.7001 59.9873 33.2171 60.4629 31.2925 60.5348C29.3679 60.6027 28.4764 61.0663 27.7998 60.7226C27.1231 60.3789 27.3662 59.0682 27.3662 59.0682C27.3662 59.0682 27.2001 58.6965 27.6499 58.173C28.0996 57.6495 30.3038 57.2979 30.3038 57.2979Z" fill="#24009D"/>
<path d="M29.8744 32.9409L30.3768 34.1118C31.1143 35.8342 31.4182 37.7044 31.2723 39.5707L30.154 58.8405C29.1491 59.3641 27.4676 59.1203 27.188 58.8405C27.188 58.8405 26.6045 43.7028 26.2277 41.2251L24.4733 37.7604L26.8679 33.5324L29.8785 32.9409H29.8744Z" fill="#1D5FFF"/>
<path d="M25.2836 30.0117L25.786 31.1826C26.5235 32.905 26.8273 34.7752 26.6815 36.6415L25.5632 55.9113C24.5583 56.4349 22.8768 56.1911 22.5972 55.9113C22.5972 55.9113 23.0024 40.7736 22.6256 38.2959L22.2771 38.3359V30.6072L25.2876 30.0157L25.2836 30.0117Z" fill="#1D5FFF"/>
<path d="M32.808 38.4479L32.7026 29.5603C32.6945 29.5203 32.6864 29.4803 32.6783 29.4404C32.2934 24.1653 31.2075 20.1411 28.748 20.5367C28.7278 20.5128 28.7075 20.4848 28.6872 20.4608C28.1686 19.8374 28.0592 20.8884 27.4514 20.9963C27.1354 21.0523 26.7707 21.0842 26.4182 21.0523V20.3489L24.5503 19.3059C23.2172 18.9742 22.2812 20.3849 21.6289 22.7147C21.5033 23.1023 21.3898 23.498 21.3007 23.9136C20.4376 28.0537 20.1743 32.4975 20.1986 36.8734C20.1905 37.281 20.1864 37.6846 20.1824 38.0802C21.8679 39.8026 25.5916 41.8127 32.808 38.4559V38.4479Z" fill="#7EA8F2"/>
<path d="M31.0292 39.695C31.1872 39.4632 31.4181 39.3633 31.6613 39.3433C31.9814 39.1435 32.3987 39.1235 32.7674 39.4632C33.5413 40.1825 34.5259 40.5662 35.231 41.3894C36.0859 42.3925 35.6969 44.2068 34.2626 44.4146C33.0997 44.5824 32.0908 43.4635 31.5235 42.6043C31.3938 42.4085 31.2804 42.1967 31.1872 41.9809C31.248 42.1287 31.0454 41.3894 31.1467 41.789C31.1102 41.6492 31.0697 41.5053 31.0292 41.3654C30.859 40.77 30.6442 40.2585 31.0292 39.691V39.695Z" fill="#F0A681"/>
<path d="M32.4392 23.9776C29.8703 29.7322 31.3979 35.0631 33.9384 40.526C35.0324 42.8758 31.2196 44.2465 30.1377 41.9207C27.1272 35.4468 25.7617 29.0168 28.7763 22.2672C29.8298 19.9094 33.4967 21.6158 32.4432 23.9776H32.4392Z" fill="#B9D4F5"/>
<path d="M30.4295 17.5994C30.9806 17.3716 31.4546 16.9241 31.7991 16.1528C32.5 14.5943 32.2569 13.1676 31.9409 11.5611C31.6451 10.0745 31.2764 9.2393 29.6232 10.1065C29.3679 10.2424 29.1653 10.4182 28.9344 10.586C28.7318 10.7379 28.517 10.7818 28.3226 10.9657C28.0713 11.2094 27.812 11.4372 27.6378 11.7409C27.3542 12.2285 27.265 12.8199 26.9409 13.2875C26.4425 14.0148 25.8307 12.9798 25.3606 12.72C24.6273 12.3124 23.6508 13.2555 23.6508 13.9708C23.6508 15.2656 26.0414 16.972 27.1597 17.3477C28.3185 17.7393 29.4814 17.9871 30.4214 17.5994H30.4295Z" fill="#F0A681"/>
<path d="M28.5818 16.2328C28.5696 16.037 28.4359 15.9051 28.2374 15.8932C27.7309 15.8612 27.2325 15.7653 26.7301 15.7093C26.3046 15.6614 25.9157 15.8612 25.4902 15.8012C25.4538 15.7972 25.4213 15.8012 25.3889 15.8012C25.3363 15.6254 25.2714 15.4536 25.1742 15.2857C25.1053 15.1658 24.8946 15.2138 24.9068 15.3577C24.9756 16.3487 24.9999 17.2359 24.7649 18.211C24.6312 18.7744 24.3881 19.5097 24.6069 20.0612C25.1458 21.416 27.7512 20.8405 28.8046 20.6367C28.9546 20.6087 29.0559 20.4529 29.0559 20.309C29.0883 18.9223 28.6831 17.6075 28.5858 16.2328H28.5818Z" fill="#F0A681"/>
<path d="M31.795 11.7289C31.2885 12.1445 30.6645 12.5401 30.6078 13.1675C30.5673 13.6271 30.7577 14.4703 29.7326 13.4552C28.7074 12.4362 28.91 16.2606 27.7228 16.6722C26.5316 17.0838 24.9108 16.4204 24.6758 16.1647C24.4408 15.9089 22.5932 14.1786 22.8768 10.9616C23.0186 9.33911 25.4822 7.84852 27.0948 7.57677C28.2253 7.38495 29.5138 7.78857 30.4903 8.33206C31.1872 8.7197 32.8201 10.1583 32.3622 11.1015C32.2488 11.3372 32.034 11.537 31.795 11.7369V11.7289Z" fill="#040E67"/>
<path d="M30.7577 13.6152C30.308 13.831 29.8096 13.0557 29.4125 12.832C28.6791 12.4243 27.7026 13.3675 27.7067 14.0828C27.7067 15.0419 28.4522 15.5494 29.2707 15.8731C29.2707 15.929 29.2788 15.985 29.3153 16.0409C29.8096 16.7842 30.466 15.2377 31.1508 15.8451L31.1913 15.4575L30.7577 13.6152Z" fill="#F0A681"/>
<path d="M24.6353 18.8819C24.6353 18.8819 24.3881 19.3575 25.5794 19.6292C26.7747 19.901 27.6053 19.6292 29.2585 19.2616L29.7406 20.5284C29.7406 20.5284 24.927 22.2627 24.0397 20.0169L24.4368 18.9379L24.6272 18.8779L24.6353 18.8819Z" fill="white"/>
<g style="mix-blend-mode:multiply">
<path d="M57.7107 68.2195C56.6369 71.3485 51.0089 73.015 45.7577 72.0519C41.0859 71.1927 38.3671 68.5112 39.2423 65.9776C40.1134 63.448 44.3841 61.6177 49.2382 61.9174C54.7001 62.2531 58.7804 65.0944 57.7107 68.2195Z" fill="#C8D5F5"/>
</g>
<path d="M42.3582 65.7098C42.4068 66.2853 42.3582 66.2853 42.3582 66.2853C42.3582 66.2853 42.3298 66.8367 42.7553 67.0166C43.1807 67.2004 44.0276 67.3842 44.5624 66.8847C45.0932 66.3892 45.1459 66.0455 45.9684 65.498C46.7909 64.9505 46.4182 63.5598 46.2885 63.2201C46.1548 62.8805 44.2464 63.324 44.0843 63.4559C43.9263 63.5878 42.2691 64.7027 42.3582 65.7058V65.7098Z" fill="#24009D"/>
<path d="M50.1539 67.1367L52.188 67.7881C52.188 67.7881 54.299 68.1438 54.692 68.3995C55.085 68.6553 55.1823 69.0909 54.8663 69.4585C54.5502 69.8262 53.0672 70.3017 51.1426 70.3737C49.218 70.4416 48.3265 70.9052 47.6499 70.5615C46.9732 70.2178 47.2163 68.907 47.2163 68.907C47.2163 68.907 47.0462 68.5354 47.5 68.0119C47.9497 67.4884 50.1539 67.1367 50.1539 67.1367Z" fill="#24009D"/>
<path d="M49.7245 42.7793L50.2269 43.9502C50.9644 45.6726 51.2683 47.5428 51.1224 49.4091L50.0041 68.6789C48.9992 69.2024 47.3177 68.9587 47.0381 68.6789C47.0381 68.6789 46.4546 53.5412 46.0778 51.0635L44.3234 47.5988L46.718 43.3707L49.7286 42.7793H49.7245Z" fill="#1D5FFF"/>
<path d="M45.1337 39.8501L45.6361 41.021C46.3735 42.7434 46.6774 44.6136 46.5316 46.4799L45.4133 65.7497C44.4084 66.2732 42.7269 66.0295 42.4473 65.7497C42.4473 65.7497 42.8525 50.612 42.4757 48.1343L42.1272 48.1743V40.4455L45.1377 39.8541L45.1337 39.8501Z" fill="#1D5FFF"/>
<path d="M52.658 48.2863L52.5526 39.3986C52.5445 39.3587 52.5364 39.3187 52.5283 39.2787C52.1434 34.0037 51.0575 29.9795 48.598 30.3751C48.5777 30.3511 48.5575 30.3232 48.5372 30.2992C48.0186 29.6758 47.9092 30.7268 47.3014 30.8347C46.9853 30.8906 46.6207 30.9226 46.2682 30.8906V30.1873L44.4003 29.1443C43.0672 28.8126 42.1312 30.2233 41.4789 32.5531C41.3533 32.9407 41.2398 33.3363 41.1507 33.7519C40.2876 37.892 40.0242 42.3359 40.0486 46.7117C40.0404 47.1194 40.0364 47.523 40.0323 47.9186C41.7179 49.641 45.4416 51.6511 52.658 48.2943V48.2863Z" fill="#100097"/>
<path d="M50.8793 49.5334C51.0373 49.3016 51.2682 49.2017 51.5114 49.1817C51.8315 48.9819 52.2488 48.9619 52.6175 49.3016C53.3914 50.0209 54.376 50.4046 55.0811 51.2278C55.936 52.2308 55.547 54.0451 54.1127 54.2529C52.9498 54.4208 51.9409 53.3018 51.3736 52.4426C51.2439 52.2468 51.1305 52.035 51.0373 51.8192C51.0981 51.9671 50.8955 51.2278 50.9968 51.6274C50.9603 51.4875 50.9198 51.3437 50.8793 51.2038C50.7091 50.6084 50.4943 50.0969 50.8793 49.5294V49.5334Z" fill="#F0A681"/>
<path d="M52.2893 33.816C49.7204 39.5705 51.248 44.9015 53.7885 50.3644C54.8825 52.7142 51.0697 54.0849 49.9878 51.7591C46.9773 45.2852 45.6118 38.8552 48.6264 32.1056C49.6799 29.7478 53.3468 31.4542 52.2933 33.816H52.2893Z" fill="#3600FF"/>
<path d="M50.2795 27.4378C50.8306 27.21 51.3046 26.7624 51.649 25.9912C52.35 24.4326 52.1069 23.006 51.7908 21.3995C51.4951 19.9129 51.1263 19.0777 49.4732 19.9449C49.2179 20.0807 49.0153 20.2566 48.7844 20.4244C48.5818 20.5763 48.367 20.6202 48.1725 20.8041C47.9213 21.0478 47.662 21.2756 47.4878 21.5793C47.2041 22.0669 47.115 22.6583 46.7908 23.1259C46.2925 23.8532 45.6806 22.8182 45.2106 22.5584C44.4772 22.1508 43.5007 23.0939 43.5007 23.8092C43.5007 25.104 45.8913 26.8104 47.0096 27.186C48.1685 27.5777 49.3314 27.8254 50.2714 27.4378H50.2795Z" fill="#F0A681"/>
<path d="M48.4359 26.0712C48.4238 25.8754 48.2901 25.7435 48.0915 25.7315C47.585 25.6996 47.0867 25.6037 46.5842 25.5477C46.1588 25.4997 45.7698 25.6996 45.3444 25.6396C45.3079 25.6356 45.2755 25.6396 45.2431 25.6396C45.1904 25.4638 45.1255 25.2919 45.0283 25.1241C44.9594 25.0042 44.7487 25.0522 44.7609 25.196C44.8298 26.1871 44.8541 27.0743 44.6191 28.0493C44.4854 28.6128 44.2422 29.3481 44.461 29.8996C44.9999 31.2543 47.6053 30.6789 48.6588 30.4751C48.8087 30.4471 48.91 30.2912 48.91 30.1474C48.9424 28.7607 48.5372 27.4459 48.44 26.0712H48.4359Z" fill="#F0A681"/>
<path d="M51.6369 21.5555C51.6369 21.5555 50.5024 22.5465 50.4619 23.0061C50.4214 23.4657 50.6118 24.3089 49.5867 23.2938C48.5616 22.2748 48.7642 26.0992 47.577 26.5108C46.3857 26.9224 44.765 26.259 44.53 26.0033C44.295 25.7475 42.4473 24.0171 42.7309 20.8002C42.8728 19.1777 45.3363 17.6871 46.9489 17.4154C48.5616 17.1436 51.5194 18.2985 51.7261 19.7412C51.9327 21.1838 51.641 21.5595 51.641 21.5595L51.6369 21.5555Z" fill="#040E67"/>
<path d="M50.6077 23.4575C50.1579 23.6733 49.6596 22.898 49.2625 22.6742C48.5291 22.2666 47.5526 23.2097 47.5567 23.9251C47.5567 24.8842 48.3022 25.3917 49.1207 25.7154C49.1207 25.7713 49.1288 25.8273 49.1652 25.8832C49.6596 26.6265 50.316 25.08 51.0007 25.6874L51.0413 25.2998L50.6077 23.4575Z" fill="#F0A681"/>
<path d="M44.4854 28.7247C44.4854 28.7247 44.2382 29.2003 45.4295 29.472C46.6248 29.7437 47.4554 29.472 49.1086 29.1043L49.5907 30.3711C49.5907 30.3711 44.7771 32.1055 43.8898 29.8596L44.2869 28.7806L44.4773 28.7207L44.4854 28.7247Z" fill="white"/>
</g>
<defs>
<clipPath id="clip0_101_890">
<rect width="95" height="85" fill="white"/>
</clipPath>
</defs>
</svg>
