<svg width="82" height="108" viewBox="0 0 82 108" fill="none" xmlns="http://www.w3.org/2000/svg">
<g clip-path="url(#clip0_101_116)">
<path style="mix-blend-mode:overlay" d="M79.0137 36.6668L78.8932 79.5406L21.9208 46.3025L22.0413 3.42871L79.0137 36.6668Z" fill="url(#paint0_linear_101_116)"/>
<path d="M31.0817 44.4858L31.1077 70.3457L25.3011 73.6794L25.275 47.8195L31.0817 44.4858Z" fill="url(#paint1_linear_101_116)"/>
<path d="M25.3011 73.6792L19.3121 70.1646L19.286 44.3047L25.275 47.8194L25.3011 73.6792Z" fill="url(#paint2_linear_101_116)"/>
<path d="M25.275 47.8194L19.286 44.3047L25.0927 40.9678L31.0817 44.4857L25.275 47.8194Z" fill="url(#paint3_linear_101_116)"/>
<path d="M22.4483 58.4424L22.4711 75.3839L16.6677 78.7209L16.6416 61.7794L22.4483 58.4424Z" fill="url(#paint4_linear_101_116)"/>
<path d="M16.6677 78.7207L10.6786 75.2028L10.6526 58.2612L16.6416 61.7792L16.6677 78.7207Z" fill="url(#paint5_linear_101_116)"/>
<path d="M16.6416 61.7793L10.6526 58.2613L16.4593 54.9243L22.4483 58.4423L16.6416 61.7793Z" fill="url(#paint6_linear_101_116)"/>
<path d="M13.4859 71.7607L13.5087 80.6264L7.702 83.9601L7.6792 75.0944L13.4859 71.7607Z" fill="url(#paint7_linear_101_116)"/>
<path d="M7.70202 83.96L1.71298 80.4453L1.69019 71.5796L7.67922 75.0943L7.70202 83.96Z" fill="url(#paint8_linear_101_116)"/>
<path d="M7.67922 75.0943L1.69019 71.5796L7.49685 68.2427L13.4859 71.7606L7.67922 75.0943Z" fill="url(#paint9_linear_101_116)"/>
<path d="M69.8264 34.7876C69.8134 39.8885 66.2408 41.9486 61.8443 39.385C57.451 36.8214 53.9045 30.6081 53.9175 25.5073C53.9305 20.4064 57.5031 18.3496 61.8964 20.9132C66.2897 23.4768 69.8394 29.69 69.8264 34.7876ZM61.8508 37.4335C65.3192 39.4574 68.1362 37.835 68.1492 33.8102C68.159 29.7887 65.3582 24.8853 61.8931 22.8614C58.428 20.8408 55.611 22.4632 55.598 26.4879C55.5882 30.5127 58.3889 35.4129 61.8508 37.4335Z" fill="url(#paint10_linear_101_116)"/>
<path d="M66.192 32.6681C66.1855 35.4423 64.2445 36.5579 61.8541 35.1659C59.4669 33.7738 57.539 30.3974 57.5487 27.6264C57.5553 24.8555 59.4962 23.7399 61.8834 25.1319C64.2705 26.524 66.1985 29.9004 66.192 32.6714V32.6681ZM61.8606 33.1946C63.3098 34.0404 64.4887 33.3625 64.4952 31.6775C64.4985 29.9959 63.3294 27.9456 61.8769 27.0999C60.4276 26.2541 59.2487 26.9353 59.2455 28.6137C59.2422 30.2986 60.4114 32.3489 61.8606 33.1913" fill="url(#paint11_linear_101_116)"/>
<path d="M61.8509 37.4334C65.3192 39.4573 68.1363 37.8349 68.1493 33.8101C68.1591 29.7886 65.3583 24.8852 61.8932 22.8613C58.4281 20.8407 55.6111 22.4631 55.598 26.4878C55.5883 30.5126 58.389 35.4128 61.8509 37.4334ZM61.8574 35.1659C59.4702 33.7739 57.5423 30.3974 57.5521 27.6265C57.5586 24.8556 59.4996 23.7399 61.8867 25.132C64.2738 26.524 66.2018 29.9005 66.1953 32.6714C66.1888 35.4457 64.2478 36.5613 61.8574 35.1692" fill="url(#paint12_linear_101_116)"/>
<path d="M51.8724 24.3127C51.8528 30.7267 56.3145 38.536 61.8378 41.7578C67.3612 44.9795 71.8521 42.3929 71.8717 35.9789C71.8912 29.5683 67.4263 21.759 61.903 18.5339C56.3829 15.3121 51.8919 17.8987 51.8724 24.3094V24.3127ZM61.8443 39.3817C57.4511 36.8181 53.9045 30.6049 53.9176 25.504C53.9306 20.4031 57.5032 18.3463 61.8964 20.9099C66.2897 23.4735 69.8395 29.6867 69.8265 34.7843C69.8134 39.8852 66.2409 41.9453 61.8443 39.3817Z" fill="url(#paint13_linear_101_116)"/>
<path d="M59.2488 28.6172C59.252 26.9355 60.431 26.2576 61.8802 27.1033C63.3294 27.9491 64.5018 29.9993 64.4986 31.681C64.4953 33.3659 63.3164 34.0438 61.8639 33.1981C60.4147 32.3523 59.2455 30.3021 59.2488 28.6204V28.6172Z" fill="url(#paint14_linear_101_116)"/>
<path d="M61.0888 18.1026C60.9292 18.0236 60.7696 17.9512 60.6133 17.8821C60.5579 17.8591 60.5026 17.8328 60.444 17.8097C60.2942 17.7472 60.1476 17.6913 60.0011 17.6386C59.9652 17.6254 59.9294 17.609 59.8936 17.5991C59.7112 17.5366 59.5321 17.4806 59.353 17.4313C59.2488 17.4017 59.1445 17.3786 59.0403 17.3523C58.9915 17.3424 58.9459 17.326 58.897 17.3161C58.744 17.2832 58.5942 17.2536 58.4444 17.2305C58.2164 17.1943 57.9949 17.1746 57.7767 17.1614C57.7312 17.1614 57.6888 17.1548 57.6432 17.1548C57.4478 17.1483 57.2524 17.1483 57.0635 17.1581C57.031 17.1581 56.9984 17.1647 56.9658 17.168C56.8128 17.1812 56.663 17.1976 56.5132 17.2207C56.4676 17.2272 56.422 17.2338 56.3731 17.2437C56.2038 17.2766 56.0377 17.3128 55.8748 17.3589C55.8683 17.3589 55.8586 17.3655 55.852 17.3655C55.699 17.4115 55.5492 17.4675 55.4026 17.5267C55.3603 17.5432 55.3179 17.5629 55.2756 17.5827C55.1486 17.6386 55.0281 17.6978 54.9076 17.7637C54.8685 17.7867 54.8262 17.8031 54.7871 17.8262L57.4348 16.2729C57.4543 16.263 57.4706 16.2531 57.4902 16.24C57.5097 16.2268 57.5325 16.2202 57.5553 16.2071C57.6758 16.1412 57.7995 16.082 57.9233 16.0261C57.9461 16.0162 57.9689 16.003 57.9917 15.9932C58.0112 15.9866 58.0308 15.98 58.0503 15.9734C58.1969 15.9142 58.3467 15.8582 58.4997 15.8122C58.5062 15.8122 58.5128 15.8089 58.5193 15.8056H58.5225C58.6854 15.7562 58.8514 15.72 59.0208 15.6871C59.0403 15.6838 59.0599 15.6772 59.0794 15.6739C59.1055 15.6706 59.1348 15.6674 59.1608 15.6641C59.3074 15.641 59.4605 15.6213 59.6135 15.6114C59.6396 15.6114 59.6624 15.6048 59.6852 15.6015C59.6949 15.6015 59.7014 15.6015 59.7112 15.6015C59.9001 15.5917 60.0922 15.5884 60.2909 15.5982C60.3104 15.5982 60.3267 15.5982 60.3463 15.5982C60.3723 15.5982 60.3984 15.6048 60.4212 15.6048C60.6394 15.618 60.8608 15.6377 61.0888 15.6739C61.2386 15.697 61.3884 15.7266 61.5382 15.7595C61.5871 15.7694 61.6359 15.7825 61.6848 15.7957C61.7792 15.8187 61.8737 15.8385 61.9681 15.8648C61.9779 15.8648 61.9876 15.8714 61.9974 15.8747C62.1765 15.924 62.3556 15.98 62.538 16.0425C62.5738 16.0557 62.6097 16.0688 62.6455 16.082C62.792 16.1347 62.9386 16.1906 63.0884 16.2531C63.1079 16.2597 63.1275 16.2663 63.147 16.2762C63.1828 16.2926 63.2219 16.3124 63.2577 16.3255C63.4141 16.3946 63.5736 16.467 63.7332 16.546C63.7951 16.5756 63.8537 16.6053 63.9156 16.6349C64.124 16.7435 64.3357 16.8554 64.5506 16.9804C64.8177 17.1351 65.0782 17.3029 65.3388 17.4806C65.3844 17.5103 65.4267 17.5399 65.4723 17.5695C65.7198 17.7406 65.964 17.9216 66.2083 18.1092C66.2571 18.1454 66.3027 18.1849 66.3483 18.2211C66.5958 18.4153 66.8401 18.6193 67.0778 18.8332C67.0974 18.8529 67.1202 18.8727 67.1397 18.8891C67.3709 19.0965 67.5989 19.3104 67.8236 19.5342C67.8464 19.5572 67.8692 19.5769 67.892 19.6C67.905 19.6131 67.9181 19.6296 67.9343 19.6428C68.1069 19.8139 68.2763 19.9916 68.4456 20.1726C68.4554 20.1858 68.4684 20.1989 68.4782 20.2088C68.6345 20.3766 68.7876 20.551 68.9407 20.7255C68.9569 20.7419 68.97 20.7584 68.9862 20.7748C69.0058 20.7979 69.0221 20.8209 69.0416 20.8439C69.2924 21.1368 69.5399 21.4396 69.7776 21.7489C69.7841 21.7588 69.7906 21.7654 69.8004 21.7753C69.82 21.7983 69.8362 21.8246 69.8525 21.8477C70.0414 22.0978 70.227 22.3512 70.4094 22.6111C70.429 22.6375 70.4485 22.6605 70.4648 22.6868C70.4745 22.7 70.4811 22.7099 70.4876 22.723C70.6602 22.9731 70.8295 23.2298 70.9924 23.4865C71.0086 23.5129 71.0249 23.5359 71.0412 23.5589C71.064 23.5951 71.0868 23.6346 71.1096 23.6708C71.2431 23.8814 71.3701 24.0953 71.4971 24.3125C71.5167 24.3455 71.5395 24.3784 71.559 24.4113C71.5655 24.4244 71.5721 24.4376 71.5818 24.4508C71.7251 24.6976 71.8619 24.9477 71.9954 25.2011C72.0052 25.2208 72.0182 25.2406 72.028 25.2636C72.0508 25.3064 72.0703 25.3492 72.0899 25.3887C72.1941 25.5894 72.295 25.7934 72.3927 25.9942C72.4123 26.037 72.4351 26.0765 72.4546 26.1192C72.4676 26.1456 72.4774 26.1686 72.4904 26.1949C72.6109 26.4516 72.7314 26.7116 72.8422 26.9716C72.8454 26.9815 72.8487 26.988 72.8519 26.9946C72.865 27.0242 72.8747 27.0506 72.8877 27.0802C72.9887 27.3138 73.0832 27.5508 73.1743 27.7877C73.1906 27.8272 73.2069 27.8634 73.2199 27.9029C73.233 27.9358 73.2427 27.9654 73.2525 27.9984C73.3567 28.2781 73.4577 28.5578 73.5521 28.8408C73.5521 28.8474 73.5554 28.8507 73.5586 28.8573C73.5651 28.8737 73.5684 28.8902 73.5749 28.9099C73.6694 29.1995 73.7573 29.4891 73.8387 29.7787C73.8485 29.8149 73.8615 29.8511 73.8713 29.8873C73.8778 29.9071 73.881 29.9268 73.8843 29.9466C73.9755 30.2822 74.0569 30.6212 74.1285 30.9569C74.1351 30.9865 74.1448 31.0161 74.1513 31.0457C74.1611 31.0885 74.1676 31.1313 74.1774 31.1774C74.2035 31.309 74.2295 31.4406 74.2523 31.5723C74.2686 31.6644 74.2849 31.7566 74.3011 31.8487C74.3239 31.9836 74.3435 32.1218 74.363 32.2568C74.3728 32.3193 74.3826 32.3851 74.3923 32.4476C74.3923 32.4641 74.3923 32.4806 74.3956 32.497C74.4314 32.7866 74.4607 33.0762 74.4803 33.3625C74.4835 33.425 74.4868 33.4843 74.49 33.5468C74.5063 33.843 74.5194 34.1359 74.5194 34.4255C74.5096 37.6111 73.399 39.8522 71.6014 40.9085L68.9537 42.4618C70.7481 41.4088 71.8619 39.1677 71.8717 35.9788C71.8717 35.6892 71.8619 35.3963 71.8424 35.1001C71.8391 35.0376 71.8358 34.9783 71.8326 34.9158C71.813 34.6295 71.7837 34.3399 71.7479 34.0503C71.7381 33.968 71.7251 33.8891 71.7153 33.8068C71.6958 33.6719 71.6763 33.5369 71.6535 33.402C71.6372 33.3099 71.6209 33.2177 71.6046 33.1256C71.5818 32.9939 71.5558 32.8623 71.5297 32.7307C71.5134 32.6583 71.5004 32.5826 71.4841 32.5102C71.4125 32.1745 71.3311 31.8355 71.2399 31.4999C71.2236 31.4439 71.2073 31.388 71.1943 31.332C71.1129 31.0424 71.0249 30.7495 70.9305 30.4599C70.924 30.4369 70.9175 30.4139 70.9077 30.3941C70.8132 30.1144 70.7155 29.8314 70.6081 29.5517C70.582 29.4825 70.556 29.4101 70.5267 29.341C70.4355 29.1041 70.341 28.8704 70.2401 28.6335C70.2238 28.5973 70.2108 28.5611 70.1945 28.5249C70.0837 28.2649 69.9633 28.0049 69.8428 27.7482C69.8102 27.6824 69.7776 27.6133 69.7451 27.5475C69.6474 27.3435 69.5431 27.1394 69.4389 26.9387C69.4064 26.8762 69.377 26.8136 69.3445 26.7544C69.211 26.501 69.0742 26.2509 68.9309 26.0041C68.9048 25.958 68.8755 25.9119 68.8495 25.8658C68.7225 25.6486 68.5954 25.4347 68.4619 25.2241C68.4228 25.1616 68.3838 25.0991 68.3447 25.0398C68.1818 24.7831 68.0125 24.5265 67.8399 24.2763C67.8138 24.2401 67.7878 24.2007 67.7617 24.1645C67.5826 23.9078 67.397 23.6511 67.2048 23.4043C67.1788 23.3713 67.156 23.3351 67.1299 23.3022C66.8922 22.9929 66.6447 22.6901 66.3939 22.3972C66.3614 22.3577 66.3288 22.3183 66.293 22.2788C66.1399 22.1011 65.9836 21.9266 65.8273 21.7588C65.8175 21.7489 65.8077 21.7358 65.798 21.7259C65.6319 21.5449 65.4593 21.3705 65.2867 21.1961C65.2508 21.1599 65.215 21.1237 65.1759 21.0875C64.9512 20.867 64.7232 20.6498 64.492 20.4424C64.4725 20.4227 64.4497 20.403 64.4301 20.3865C64.1892 20.1726 63.9482 19.9718 63.7007 19.7777C63.6551 19.7415 63.6062 19.702 63.5606 19.6658C63.3196 19.4782 63.0721 19.2972 62.8246 19.1261C62.779 19.0965 62.7367 19.0669 62.6911 19.0372C62.4305 18.8628 62.17 18.6917 61.903 18.537C61.6913 18.412 61.4796 18.3001 61.2679 18.1915C61.206 18.1619 61.1474 18.1322 61.0888 18.1026Z" fill="url(#paint15_linear_101_116)"/>
<path d="M19.3316 33.3789L24.3176 29.2949L23.3211 35.676L21.8556 34.8335L19.0418 39.76L16.8696 38.5061L10.5256 49.6096L6.83575 47.487L2.44574 55.1713L1.49805 54.625L6.82924 45.292L10.5191 47.4146L16.8631 36.3111L19.0353 37.5617L20.9079 34.2872L19.3316 33.3789Z" fill="url(#paint16_linear_101_116)"/>
<path d="M9.86121 30.9273C9.86446 30.8319 9.86772 30.7331 9.86772 30.6377C9.86772 30.7331 9.86772 30.8286 9.86121 30.9273Z" fill="#127171"/>
<path d="M9.0177 34.3663C9.08609 34.2084 9.15122 34.0471 9.2131 33.8892C9.3564 33.5173 9.47689 33.1388 9.57785 32.7637C9.48015 33.1388 9.3564 33.5173 9.2131 33.8924C9.15122 34.0537 9.08609 34.2117 9.0177 34.3696V34.3663Z" fill="#1BAFAF"/>
<path d="M8.41199 27.4321C8.71486 27.6065 8.98191 27.8534 9.2001 28.1594C8.98191 27.8501 8.71812 27.6065 8.41199 27.4321Z" fill="#1BAFAF"/>
<path d="M7.38611 27.1162C7.76063 27.1491 8.10584 27.2577 8.41196 27.4321C8.10584 27.2577 7.76063 27.1524 7.38611 27.1162Z" fill="#1BAFAF"/>
<path d="M7.25261 27.1065C6.92043 27.0933 6.56871 27.1361 6.19745 27.2381C6.09649 27.2644 5.99228 27.2973 5.88806 27.3335C5.99228 27.2973 6.09649 27.2644 6.19745 27.2348C6.56871 27.1328 6.92369 27.09 7.25261 27.1065Z" fill="#1BAFAF"/>
<path d="M4.91759 27.7876L4.93387 33.3097L8.94936 34.5274C8.79304 34.8696 8.62369 35.2053 8.43806 35.5311C8.13519 36.0609 7.79324 36.5677 7.41872 37.0383C7.05072 37.5023 6.6534 37.9301 6.23003 38.3053C5.82295 38.6706 5.39632 38.9865 4.95341 39.2432C4.5105 39.4999 4.08388 39.6842 3.67679 39.7961C3.25668 39.9113 2.85611 39.9508 2.48485 39.9178C2.11033 39.8849 1.76512 39.7796 1.46225 39.6019C1.15612 39.4275 0.892331 39.1807 0.674133 38.8746C0.459192 38.5719 0.293101 38.2033 0.175861 37.7788C0.061877 37.374 0 36.9067 0 36.3966C0 35.8832 0.0553636 35.3534 0.162834 34.817C0.273561 34.2608 0.439652 33.6981 0.651336 33.1452C0.866277 32.5857 1.13007 32.0296 1.43294 31.4997C1.73581 30.9699 2.07776 30.4631 2.45228 29.9925C2.82029 29.5285 3.22086 29.1007 3.64097 28.7255C4.04806 28.3635 4.47468 28.0443 4.91759 27.7876Z" fill="url(#paint17_linear_101_116)"/>
<path d="M4.91756 27.7875C5.24974 27.5933 5.57216 27.4419 5.8848 27.3333C5.98901 27.2971 6.09323 27.2642 6.19418 27.2379C6.5915 27.1293 6.96602 27.0865 7.31448 27.1096C7.33728 27.1096 7.36007 27.1129 7.38287 27.1161C7.75739 27.1491 8.1026 27.2577 8.40873 27.4321C8.7116 27.6098 8.97865 27.8533 9.19684 28.1594C9.32385 28.3404 9.43458 28.5411 9.52903 28.7649C9.59416 28.9196 9.64952 29.0808 9.69512 29.2519C9.80584 29.6633 9.86446 30.1273 9.86772 30.6374C9.86772 30.7328 9.86772 30.8316 9.86121 30.927C9.84492 31.3548 9.78956 31.7859 9.70489 32.217C9.66906 32.398 9.62673 32.579 9.57788 32.76C9.48017 33.1352 9.35642 33.5137 9.21313 33.8855C9.15125 34.0468 9.08612 34.2047 9.01773 34.3627C8.99493 34.4186 8.96888 34.4713 8.94608 34.524L4.93059 33.3063L4.91431 27.7842L4.91756 27.7875Z" fill="url(#paint18_linear_101_116)"/>
<path d="M72.0735 70.6189C73.057 71.1948 73.8581 70.7308 73.8614 69.5889C73.8614 68.4469 73.07 67.0549 72.0865 66.479C71.103 65.9064 70.3018 66.3671 70.2986 67.509C70.2986 68.651 71.09 70.043 72.0735 70.6189Z" fill="url(#paint19_linear_101_116)"/>
<path d="M73.1808 77.6415C73.1742 77.7337 73.1352 77.7995 73.0765 77.8324L75.3823 76.4798C75.4409 76.4436 75.48 76.3811 75.4865 76.289L75.6395 74.5415L73.3338 75.8941L73.1808 77.6415Z" fill="url(#paint20_linear_101_116)"/>
<path d="M67.1234 61.6543L67.1103 61.6477C67.1103 61.6477 67.0843 61.6378 67.0713 61.6345C67.0615 61.6345 67.0517 61.6279 67.042 61.6279C67.0322 61.6279 67.0257 61.6279 67.0159 61.6279C67.0094 61.6279 66.9996 61.6279 66.9931 61.6279C66.9866 61.6279 66.9768 61.6279 66.9703 61.6279C66.9638 61.6279 66.9573 61.6279 66.9508 61.6345C66.9443 61.6345 66.9377 61.6378 66.9312 61.6411C66.9247 61.6411 66.9182 61.6477 66.9117 61.651L64.606 63.0068C64.606 63.0068 64.619 63.0002 64.6255 62.9969C64.632 62.9969 64.6385 62.9904 64.645 62.9904C64.6515 62.9904 64.6581 62.9871 64.6646 62.9838C64.6711 62.9838 64.6776 62.9838 64.6874 62.9838C64.6939 62.9838 64.7037 62.9838 64.7102 62.9838C64.7199 62.9838 64.7265 62.9838 64.7362 62.9838C64.746 62.9838 64.7558 62.9871 64.7655 62.9904C64.7786 62.9937 64.7916 63.0002 64.8046 63.0035L64.8176 63.0101L66.3971 63.7604L68.7029 62.4079L67.1234 61.6575V61.6543Z" fill="url(#paint21_linear_101_116)"/>
<path d="M81.9934 70.7406V70.7307C81.9901 70.711 81.9868 70.6912 81.9803 70.6682C81.9803 70.6583 81.9771 70.6484 81.9738 70.6419V70.6287L81.9673 70.6155C81.9673 70.6155 81.9575 70.5826 81.9543 70.5662C81.9543 70.5563 81.9478 70.5464 81.9445 70.5365V70.53L81.938 70.5234C81.938 70.5234 81.9282 70.4971 81.9217 70.4839C81.9152 70.4707 81.9119 70.4576 81.9054 70.4477V70.4411L81.8989 70.4345C81.8989 70.4345 81.8924 70.4214 81.8891 70.4115C81.8826 70.3983 81.8761 70.3885 81.8696 70.3786C81.8631 70.3687 81.8566 70.3588 81.8501 70.3457C81.8501 70.3457 81.837 70.3193 81.8273 70.3095C81.8208 70.2963 81.811 70.2864 81.8012 70.2766L81.7914 70.2667L81.7849 70.2601C81.7849 70.2601 81.7752 70.2469 81.7719 70.2437C81.7589 70.2305 81.7459 70.214 81.7328 70.2009H81.7296C81.7035 70.1713 81.6775 70.1515 81.6514 70.1318L80.0719 69.0392C80.0491 68.9108 80.0263 68.7858 80.0003 68.6574C80.0003 68.6443 79.997 68.6311 79.9938 68.618C79.9872 68.5818 79.9775 68.5455 79.9677 68.5093C79.9547 68.4501 79.9416 68.3942 79.9286 68.3349C79.9156 68.2823 79.9026 68.2296 79.8895 68.177C79.8765 68.1177 79.8602 68.0618 79.8439 68.0026C79.8374 67.9828 79.8342 67.9631 79.8277 67.9433C79.8244 67.9269 79.8179 67.9104 79.8146 67.894C79.7658 67.7162 79.7137 67.5418 79.6551 67.3674C79.6551 67.3608 79.6518 67.3542 79.6485 67.3444C79.642 67.3279 79.6355 67.3115 79.6323 67.295C79.5769 67.1338 79.5215 66.9725 79.4597 66.8113C79.4597 66.8014 79.4531 66.7948 79.4499 66.7849V66.7751C79.4043 66.6632 79.3587 66.5513 79.3131 66.4394L80.3292 65.6134C80.3455 65.6002 80.3585 65.5837 80.3715 65.564C80.3748 65.5574 80.378 65.5475 80.3813 65.541C80.3878 65.5278 80.3943 65.5113 80.3976 65.4949C80.3976 65.485 80.4008 65.4751 80.4041 65.462C80.4041 65.4455 80.4106 65.4291 80.4106 65.4126C80.4106 65.3995 80.4106 65.3863 80.4106 65.3731C80.4106 65.3567 80.4106 65.3369 80.4106 65.3205C80.4106 65.3172 80.4106 65.3106 80.4106 65.3073C80.4106 65.2876 80.4041 65.2645 80.4008 65.2448V65.2382C80.4008 65.2382 80.3943 65.2086 80.3878 65.1921C80.3846 65.1757 80.378 65.1592 80.3748 65.1428C80.3715 65.1263 80.365 65.1099 80.3585 65.0967C80.352 65.0835 80.3487 65.0671 80.3422 65.0539L80.3357 65.0407V65.0309C80.3357 65.0309 80.3259 65.0177 80.3227 65.0111C80.3162 64.998 80.3097 64.9815 80.3031 64.9683C80.2966 64.9552 80.2901 64.942 80.2836 64.9321L79.3131 63.2308C79.3033 63.211 79.2968 63.1978 79.2871 63.1814C79.2773 63.1682 79.2675 63.1518 79.2577 63.1386C79.2545 63.132 79.248 63.1254 79.2447 63.1222L79.2382 63.1123C79.2382 63.1123 79.2284 63.0991 79.2252 63.0958C79.2122 63.0794 79.1991 63.0629 79.1861 63.0498C79.1796 63.0432 79.1731 63.0366 79.1698 63.03L79.1535 63.0136C79.1535 63.0136 79.1405 63.0004 79.1372 62.9938C79.1242 62.9806 79.1112 62.9708 79.0982 62.9576C79.0884 62.951 79.0819 62.9412 79.0721 62.9346C79.0461 62.9115 79.02 62.8951 78.994 62.8786C78.9744 62.8688 78.9581 62.8589 78.9386 62.8523H78.9353C78.9353 62.8523 78.9288 62.849 78.9256 62.8457C78.9158 62.8424 78.906 62.8391 78.8963 62.8358C78.8897 62.8358 78.8832 62.8358 78.8767 62.8326H78.8637C78.8637 62.8326 78.8474 62.8293 78.8376 62.826C78.8311 62.826 78.8213 62.826 78.8148 62.826C78.8148 62.826 78.8018 62.826 78.7953 62.826C78.7888 62.826 78.7823 62.826 78.7758 62.8293C78.7725 62.8293 78.766 62.8293 78.7627 62.8326L77.5382 63.2966C77.5187 63.2702 77.4991 63.2472 77.4796 63.2209C77.4568 63.1913 77.434 63.1649 77.4112 63.1353C77.3689 63.0794 77.3265 63.0267 77.2842 62.9741C77.2516 62.9346 77.2191 62.8918 77.1832 62.8523C77.1409 62.7996 77.0986 62.747 77.053 62.6976C77.0367 62.6812 77.0237 62.6614 77.0074 62.6417C76.9944 62.6252 76.9781 62.6088 76.9618 62.5923C76.8901 62.51 76.8152 62.4278 76.7403 62.3455C76.7175 62.3225 76.698 62.2994 76.6752 62.2731C76.5808 62.1711 76.4863 62.0724 76.3886 61.9769C76.3821 61.9703 76.3756 61.9638 76.3723 61.9572C76.356 61.9407 76.3398 61.9276 76.3267 61.9144C76.2453 61.8354 76.1639 61.7564 76.0825 61.6807C76.0532 61.6544 76.0271 61.6281 75.9978 61.6018C75.8968 61.5096 75.7926 61.4175 75.6884 61.3286L73.3827 62.6812C73.4869 62.77 73.5911 62.8622 73.6921 62.9543C73.7214 62.9806 73.7474 63.007 73.7767 63.0333C73.8582 63.109 73.9396 63.188 74.021 63.267C74.0438 63.2867 74.0633 63.3097 74.0861 63.3295C74.1838 63.4249 74.2783 63.5236 74.3727 63.6257C74.3955 63.6487 74.4151 63.6717 74.4379 63.6981C74.5128 63.7803 74.5844 63.8593 74.6561 63.9449C74.6854 63.9811 74.7179 64.014 74.7472 64.0502C74.7896 64.1028 74.8352 64.1522 74.8775 64.2049C74.9101 64.2443 74.9459 64.2871 74.9785 64.3266C75.0208 64.3793 75.0631 64.4352 75.1055 64.4879C75.1478 64.5405 75.1901 64.5932 75.2292 64.6491L76.4537 64.1851C76.4537 64.1851 76.4863 64.1752 76.5058 64.1752C76.5221 64.1752 76.5417 64.1752 76.5612 64.1785H76.5677C76.5677 64.1785 76.6003 64.1884 76.6166 64.195C76.6198 64.195 76.6231 64.195 76.6263 64.1983C76.6459 64.2049 76.6654 64.2147 76.685 64.2279C76.711 64.2443 76.7371 64.2641 76.7631 64.2838C76.7729 64.2904 76.7794 64.3003 76.7892 64.3069C76.8087 64.3233 76.8283 64.3398 76.8445 64.3595L76.8608 64.376C76.8836 64.4023 76.9064 64.4286 76.9292 64.4615L76.9357 64.4714C76.9618 64.5043 76.9846 64.5405 77.0074 64.58L77.9779 66.2814C77.9974 66.3143 78.0137 66.3472 78.03 66.3801V66.39C78.0495 66.4229 78.0625 66.4558 78.0723 66.4887C78.0821 66.5249 78.0919 66.5546 78.0984 66.5875C78.1049 66.6204 78.1081 66.6434 78.1114 66.6697C78.1114 66.6895 78.1114 66.7059 78.1114 66.7224C78.1114 66.7356 78.1114 66.7487 78.1114 66.7619C78.1114 66.7783 78.1081 66.7948 78.1049 66.8113C78.1049 66.8211 78.1049 66.8343 78.0984 66.8442C78.0951 66.8606 78.0886 66.8738 78.0821 66.8902C78.0821 66.8968 78.0756 66.9067 78.0723 66.9133C78.0625 66.933 78.0463 66.9495 78.03 66.9626L77.0139 67.7886C77.0595 67.9005 77.1051 68.0124 77.1474 68.1243C77.1507 68.1375 77.1572 68.1474 77.1604 68.1605C77.2223 68.3218 77.2777 68.483 77.333 68.6443C77.3396 68.6673 77.3493 68.6904 77.3558 68.7134C77.4145 68.8878 77.4666 69.0655 77.5154 69.2399C77.5252 69.2761 77.535 69.3123 77.5447 69.3485C77.561 69.4078 77.574 69.4637 77.5903 69.5229C77.6033 69.5756 77.6164 69.6283 77.6294 69.6809C77.6424 69.7401 77.6555 69.7961 77.6685 69.8553C77.6783 69.9047 77.6913 69.9541 77.701 70.0034C77.7271 70.1318 77.7532 70.2601 77.7727 70.3852L79.3522 71.4777C79.3782 71.4975 79.4043 71.5172 79.4303 71.5436C79.4499 71.5633 79.4694 71.583 79.489 71.6061L79.4955 71.6127C79.515 71.639 79.5346 71.6653 79.5508 71.6916C79.5671 71.7213 79.5834 71.7509 79.5997 71.7805V71.7871C79.616 71.8167 79.629 71.8496 79.642 71.8792V71.8858C79.6551 71.9154 79.6648 71.9451 79.6713 71.978V71.9911C79.6811 72.0207 79.6876 72.0504 79.6909 72.08V72.0866C79.6974 72.1195 79.6974 72.1524 79.6974 72.1853V72.1984L77.7629 73.3338C77.6131 74.0216 77.3461 74.5909 76.9911 75.0352L78.0007 77.0427C78.0169 77.0723 78.03 77.1052 78.0397 77.1348V77.1414C78.0528 77.171 78.0593 77.2006 78.0658 77.2302V77.2368C78.0723 77.2566 78.0723 77.2763 78.0756 77.2993C78.0756 77.329 78.0788 77.3619 78.0756 77.3882C78.0756 77.3948 78.0756 77.3981 78.0756 77.4046C78.0756 77.4376 78.0658 77.4705 78.056 77.4968C78.056 77.5034 78.0495 77.51 78.0463 77.5198C78.0365 77.5396 78.0267 77.5593 78.0137 77.5791C78.0104 77.5857 78.0039 77.5922 78.0007 77.5988C77.9811 77.6218 77.9616 77.6383 77.9388 77.6548L80.2445 76.3022C80.2706 76.289 80.2901 76.2693 80.3064 76.2463C80.3129 76.2397 80.3162 76.2331 80.3194 76.2265C80.3325 76.2101 80.3422 76.1903 80.352 76.1673C80.352 76.1607 80.3585 76.1541 80.3618 76.1442C80.3715 76.1146 80.378 76.085 80.3813 76.0521C80.3813 76.0455 80.3813 76.0422 80.3813 76.0356C80.3813 76.006 80.3813 75.9764 80.3813 75.9468C80.3813 75.9402 80.3813 75.9369 80.3813 75.9303C80.3813 75.9139 80.378 75.9007 80.3748 75.8843V75.8777C80.3748 75.8777 80.3683 75.8481 80.365 75.8349C80.3618 75.8217 80.3585 75.8119 80.3552 75.7987V75.7888L80.3487 75.7822C80.3487 75.7822 80.3455 75.7691 80.3422 75.7658C80.339 75.7559 80.3357 75.746 80.3292 75.7362C80.3259 75.7263 80.3194 75.7164 80.3162 75.7065L80.3097 75.6934L79.3001 73.6859C79.4531 73.4984 79.5834 73.2812 79.7007 73.0475V73.7912C79.7007 73.9426 79.6485 74.0479 79.5671 74.094L81.8729 72.7414C81.8924 72.7283 81.9119 72.7151 81.9282 72.6954C81.9771 72.6394 82.0031 72.5506 82.0031 72.4387V70.8393C82.0064 70.8064 82.0031 70.7735 82.0031 70.7439L81.9934 70.7406Z" fill="url(#paint22_linear_101_116)"/>
<path d="M75.5321 59.4198C75.5321 59.4198 75.5321 59.4001 75.5321 59.3902C75.5321 59.3737 75.5288 59.3573 75.5223 59.3408V59.3211C75.5223 59.3211 75.5158 59.3079 75.5125 59.298C75.5093 59.2849 75.506 59.275 75.5028 59.2618C75.4995 59.252 75.4963 59.2421 75.493 59.2322C75.493 59.2322 75.4832 59.2059 75.48 59.196C75.4767 59.1862 75.4702 59.173 75.4637 59.1631C75.4604 59.1565 75.4572 59.1467 75.4539 59.1401V59.1302C75.4539 59.1302 75.4376 59.1072 75.4311 59.0973C75.4246 59.0841 75.4181 59.0743 75.4116 59.0611L75.4051 59.0512V59.0446C75.4051 59.0446 75.392 59.0315 75.3888 59.0249C75.379 59.0117 75.3692 58.9986 75.3595 58.9854C75.3562 58.9788 75.3497 58.9755 75.3464 58.969L75.3367 58.9558C75.3367 58.9558 75.3269 58.9459 75.3236 58.9393C75.3074 58.9196 75.2911 58.9031 75.2715 58.8834C75.2553 58.8669 75.239 58.8505 75.2194 58.8373C75.2097 58.8307 75.2032 58.8209 75.1934 58.8143C75.1673 58.7945 75.138 58.7748 75.1087 58.7583L73.7311 57.9554C73.7083 57.9422 73.6855 57.929 73.6627 57.9192C73.6562 57.9192 73.653 57.9159 73.6465 57.9126C73.6399 57.9126 73.6334 57.9093 73.6302 57.906C73.6237 57.906 73.6139 57.8994 73.6074 57.8994C73.5944 57.8961 73.5781 57.8928 73.565 57.8895C73.5618 57.8895 73.5585 57.8895 73.552 57.8895H73.5455C73.5455 57.8895 73.5357 57.8895 73.5292 57.8895C73.5194 57.8895 73.5097 57.8895 73.4999 57.8895C73.4901 57.8895 73.4804 57.8895 73.4739 57.8895C73.4739 57.8895 73.4608 57.8928 73.4511 57.8961C73.4445 57.8961 73.4348 57.8994 73.4283 57.9027C73.4217 57.9027 73.4152 57.9093 73.4087 57.9126L71.103 59.2684C71.1225 59.2553 71.1453 59.2487 71.1681 59.2454C71.1909 59.2421 71.217 59.2388 71.243 59.2454H71.2495C71.2723 59.2487 71.2984 59.2553 71.3244 59.2651C71.331 59.2651 71.3375 59.2684 71.3407 59.2717C71.37 59.2816 71.3994 59.2948 71.4287 59.3112L71.9888 59.637C71.9888 59.637 71.9725 59.637 71.9628 59.637C71.8325 59.6304 71.7055 59.6337 71.5785 59.6403C71.4808 59.6469 71.3863 59.6567 71.2919 59.6699L70.0739 57.7809C70.0739 57.7809 70.0641 57.7645 70.0576 57.7546C70.0511 57.7447 70.0413 57.7349 70.0348 57.725C70.025 57.7118 70.0153 57.702 70.0087 57.6921C69.9957 57.6789 69.9827 57.6658 69.9697 57.6526C69.9306 57.6131 69.8883 57.5802 69.8427 57.5539C69.8231 57.544 69.8036 57.5341 69.784 57.5243C69.7678 57.5177 69.7515 57.5111 69.7319 57.5078C69.7189 57.5045 69.7059 57.5012 69.6928 57.4979C69.6798 57.4979 69.6701 57.4979 69.657 57.4946C69.6473 57.4946 69.6375 57.4946 69.6245 57.4946C69.6147 57.4946 69.6049 57.4946 69.5951 57.4979C69.5854 57.4979 69.5756 57.5012 69.5691 57.5045C69.5593 57.5045 69.5528 57.5111 69.543 57.5144C69.5333 57.5177 69.5268 57.521 69.517 57.5275L68.54 58.0936L66.2343 59.4461L67.2113 58.8834C67.2113 58.8834 67.2275 58.8735 67.2373 58.8702C67.2471 58.8669 67.2536 58.8636 67.2634 58.8604C67.2731 58.8604 67.2829 58.8571 67.2894 58.8538C67.2992 58.8538 67.309 58.8538 67.3187 58.8505C67.3285 58.8505 67.3383 58.8505 67.3513 58.8505C67.3643 58.8505 67.3741 58.8505 67.3871 58.8538C67.4001 58.8538 67.4132 58.8571 67.4262 58.8636C67.4425 58.8669 67.4588 58.8735 67.4783 58.8801C67.4978 58.8867 67.5174 58.8966 67.5369 58.9097C67.5793 58.936 67.6216 58.969 67.6639 59.0084C67.677 59.0216 67.69 59.0348 67.703 59.0479C67.7128 59.0578 67.7226 59.071 67.7291 59.0808C67.7356 59.0907 67.7453 59.1006 67.7519 59.1105C67.7584 59.117 67.7616 59.1269 67.7681 59.1368L68.9861 61.0258C69.0806 61.0126 69.175 60.9994 69.2727 60.9961C69.3965 60.9896 69.5268 60.9863 69.657 60.9929C69.7971 60.9994 69.9436 61.0126 70.0902 61.0356C70.2563 61.062 70.4289 61.0982 70.6015 61.1442C70.6796 61.1673 70.7578 61.1903 70.8392 61.2166L72.7574 60.0911L72.8062 60.1208C72.8355 60.1372 72.8616 60.157 72.8909 60.1767C72.9007 60.1833 72.9072 60.1932 72.917 60.1997C72.9332 60.2162 72.9528 60.2294 72.9691 60.2458C72.9919 60.2689 73.0147 60.2919 73.0342 60.3182L73.044 60.3314C73.0635 60.3544 73.0831 60.3807 73.0993 60.4071V60.4137C73.1221 60.44 73.1384 60.4696 73.1547 60.4992C73.171 60.5321 73.184 60.565 73.1938 60.5947C73.2036 60.6276 73.2133 60.6539 73.2198 60.6835V60.6901C73.2296 60.7197 73.2329 60.7493 73.2361 60.7789L73.3794 62.7008L75.6851 61.3483L75.5419 59.4264L75.5321 59.4198Z" fill="url(#paint23_linear_101_116)"/>
<path d="M75.2976 73.6759C74.6104 73.824 73.78 73.6594 72.8844 73.1362C70.5266 71.7606 68.6214 68.4269 68.6312 65.6889C68.6344 64.4482 69.0317 63.5465 69.6798 63.0562C68.5563 63.2964 67.817 64.3626 67.8137 66.0607C67.8072 68.7988 69.7124 72.1324 72.067 73.508C73.3566 74.2617 74.5127 74.2682 75.2976 73.6759Z" fill="url(#paint24_linear_101_116)"/>
<path d="M64.4659 64.9089C64.4659 65.1722 64.6158 65.4816 64.8144 65.6165L66.3939 66.7091C66.5404 67.5713 66.801 68.4467 67.1527 69.3023L66.1366 70.1283C66.0096 70.2336 66.0357 70.5265 66.1952 70.8062L67.1657 72.5076C67.2569 72.6689 67.3742 72.7939 67.4881 72.8598C67.5728 72.9091 67.6542 72.9256 67.7194 72.8992L68.9439 72.4352C69.5008 73.1724 70.1228 73.8437 70.7904 74.4032L70.9337 76.3251C70.9533 76.5653 71.1389 76.8516 71.3669 76.9832L72.7444 77.7862C72.9724 77.9179 73.1613 77.852 73.1776 77.6316L73.3306 75.8841C73.9983 76.1013 74.6235 76.1605 75.1837 76.075L76.4017 77.9639C76.4668 78.066 76.5482 78.1416 76.6329 78.191C76.7469 78.2568 76.8641 78.27 76.9586 78.2173L77.9356 77.6546C78.0952 77.5624 78.1212 77.2992 77.9975 77.0458L76.9879 75.0383C77.3461 74.5973 77.6099 74.0247 77.7597 73.3369L79.3392 74.0873C79.5379 74.1827 79.6909 74.0511 79.6909 73.7878V72.1884C79.6974 71.9251 79.5444 71.6191 79.3457 71.4809L77.7662 70.3883C77.6197 69.5261 77.3592 68.6507 77.0074 67.7951L78.0235 66.969C78.1505 66.8637 78.1245 66.5708 77.9649 66.2911L76.9944 64.5897C76.9032 64.4285 76.7827 64.3034 76.672 64.2376C76.5873 64.1882 76.5059 64.1718 76.4408 64.1981L75.2163 64.6621C74.6594 63.925 74.0373 63.2536 73.3697 62.6942L73.2264 60.7723C73.2101 60.532 73.0212 60.2457 72.7933 60.1141L71.4157 59.3111C71.1877 59.1795 70.9988 59.2453 70.9793 59.4625L70.8262 61.21C70.1586 60.9928 69.5333 60.9335 68.9732 61.0191L67.7552 59.1301C67.6901 59.0281 67.6086 58.9524 67.524 58.9031C67.41 58.8372 67.2927 58.8241 67.2016 58.8767L66.2246 59.4395C66.0617 59.5316 66.0357 59.7949 66.1627 60.0483L67.1722 62.059C66.814 62.5 66.5502 63.0726 66.4004 63.7604L64.8209 63.0101C64.6223 62.918 64.4692 63.0463 64.4692 63.3096V64.9089H64.4659ZM67.8073 66.0608C67.8138 63.3227 69.732 62.2203 72.0898 63.5959C74.4477 64.9715 76.3528 68.3051 76.3431 71.0399C76.3365 73.7779 74.4184 74.8837 72.0605 73.5081C69.7027 72.1325 67.7975 68.7988 67.8073 66.0608Z" fill="url(#paint25_linear_101_116)"/>
<path d="M60.1347 55.2241C60.7339 55.5729 61.2224 55.2932 61.2224 54.5955C61.2224 53.9012 60.7404 53.0521 60.1412 52.7033C59.542 52.3544 59.0535 52.6342 59.0535 53.3318C59.0535 54.0295 59.5355 54.8753 60.1347 55.2241Z" fill="url(#paint26_linear_101_116)"/>
<path d="M60.8088 59.5023C60.8055 59.5582 60.7795 59.5977 60.7437 59.6207L62.1473 58.798C62.1831 58.7783 62.2059 58.7388 62.2124 58.6795L62.3069 57.6133L60.9032 58.436L60.8088 59.5023Z" fill="url(#paint27_linear_101_116)"/>
<path d="M57.1222 49.7645H57.1124C57.1124 49.7645 57.0961 49.7546 57.0864 49.7513C57.0799 49.7513 57.0733 49.7513 57.0668 49.748C57.0603 49.748 57.0571 49.748 57.0505 49.748C57.0473 49.748 57.0408 49.748 57.0375 49.748C57.0343 49.748 57.0278 49.748 57.0245 49.748C57.0212 49.748 57.0147 49.748 57.0115 49.748C57.0082 49.748 57.0017 49.748 56.9984 49.7513C56.9952 49.7513 56.9887 49.7546 56.9854 49.7579L55.5818 50.5839C55.5818 50.5839 55.5883 50.5774 55.5948 50.5774C55.5981 50.5774 55.6046 50.5774 55.6078 50.5741C55.6111 50.5741 55.6176 50.5741 55.6209 50.5741C55.6241 50.5741 55.6306 50.5741 55.6339 50.5741C55.6372 50.5741 55.6437 50.5741 55.6469 50.5741C55.6534 50.5741 55.6567 50.5741 55.6632 50.5741C55.6697 50.5741 55.6762 50.5741 55.6827 50.5774C55.6893 50.5774 55.699 50.5839 55.7088 50.5872H55.7186L56.6825 51.048L58.0862 50.2252L57.1222 49.7678V49.7645Z" fill="url(#paint28_linear_101_116)"/>
<path d="M66.1758 55.2996V55.2931C66.1758 55.2931 66.1725 55.2667 66.1693 55.2569C66.1693 55.2503 66.1693 55.247 66.166 55.2404V55.2239C66.166 55.2239 66.1563 55.2042 66.153 55.1943C66.153 55.1878 66.1497 55.1812 66.1465 55.1779V55.168C66.1465 55.168 66.14 55.1515 66.1367 55.145C66.1335 55.1384 66.1302 55.1285 66.1269 55.1219V55.1153H66.1237L66.1172 55.0989C66.1172 55.0989 66.1107 55.0857 66.1041 55.0791C66.1009 55.0726 66.0976 55.066 66.0911 55.0594C66.0911 55.0594 66.0813 55.043 66.0781 55.0364C66.0748 55.0298 66.0683 55.0232 66.0618 55.0166L66.0553 55.01H66.052L66.0423 54.9936C66.0423 54.9936 66.026 54.9771 66.0195 54.9673C66.0032 54.9508 65.9902 54.9376 65.9739 54.9245L65.0132 54.2597C65.0001 54.1807 64.9838 54.105 64.9676 54.0261C64.9676 54.0162 64.9676 54.0096 64.9643 53.9997C64.961 53.9767 64.9545 53.957 64.948 53.9339C64.9415 53.8977 64.9317 53.8648 64.9252 53.8286C64.9187 53.7957 64.9089 53.7661 64.9024 53.7332C64.8927 53.697 64.8829 53.6641 64.8764 53.6279C64.8764 53.6147 64.8699 53.6048 64.8666 53.5917C64.8666 53.5818 64.8601 53.5719 64.8568 53.562C64.8275 53.4534 64.795 53.3481 64.7591 53.2395V53.2264C64.7591 53.2264 64.7494 53.2066 64.7461 53.1968C64.7135 53.098 64.6777 52.9993 64.6419 52.9006L64.6354 52.8841V52.8775C64.6061 52.8084 64.58 52.7426 64.5507 52.6735L65.1695 52.17C65.1695 52.17 65.189 52.1503 65.1955 52.1404C65.1955 52.1371 65.1988 52.1305 65.202 52.1272C65.2053 52.1173 65.2086 52.1108 65.2118 52.1009C65.2118 52.0943 65.2118 52.0877 65.2118 52.0811C65.2118 52.0713 65.2118 52.0614 65.2151 52.0515C65.2151 52.0449 65.2151 52.0351 65.2151 52.0285C65.2151 52.0186 65.2151 52.0055 65.2151 51.9956V51.989C65.2151 51.989 65.2118 51.9627 65.2086 51.9495C65.2086 51.9495 65.2053 51.9265 65.202 51.9166C65.202 51.9067 65.1955 51.8969 65.1923 51.887C65.1923 51.887 65.1858 51.8672 65.1825 51.8607C65.1792 51.8508 65.176 51.8442 65.1727 51.8343V51.8277L65.1662 51.8212L65.1597 51.808C65.1597 51.808 65.1499 51.7915 65.1467 51.7817C65.1434 51.7751 65.1369 51.7652 65.1337 51.7586L64.5409 50.722C64.5409 50.722 64.5312 50.7023 64.5247 50.6924C64.5181 50.6825 64.5116 50.6759 64.5084 50.6661L64.5019 50.6562V50.6496L64.4888 50.6397C64.4888 50.6397 64.4725 50.62 64.466 50.6101C64.4628 50.6068 64.4595 50.6035 64.4563 50.5969L64.4465 50.5871C64.4465 50.5871 64.44 50.5805 64.4367 50.5772C64.4302 50.5706 64.4204 50.564 64.4139 50.5542C64.4074 50.5509 64.4042 50.5443 64.3976 50.541C64.3814 50.5278 64.3651 50.5147 64.3488 50.5081C64.339 50.5015 64.326 50.4949 64.3162 50.4916H64.3065C64.3065 50.4916 64.2967 50.4851 64.2902 50.4818C64.2869 50.4818 64.2837 50.4818 64.2771 50.4818H64.2706C64.2706 50.4818 64.2609 50.4818 64.2544 50.4818C64.2511 50.4818 64.2446 50.4818 64.2413 50.4818C64.2413 50.4818 64.2348 50.4818 64.2283 50.4818C64.225 50.4818 64.2218 50.4818 64.2153 50.4818H64.2088L63.463 50.7681C63.463 50.7681 63.4402 50.7385 63.4272 50.722C63.4141 50.7055 63.4011 50.6858 63.3848 50.6693C63.3588 50.6364 63.3327 50.6035 63.3067 50.5706C63.2871 50.5443 63.2676 50.5213 63.2448 50.4949C63.2187 50.462 63.1927 50.4324 63.1666 50.3995C63.1569 50.3896 63.1471 50.3765 63.1406 50.3666C63.1308 50.3567 63.121 50.3468 63.1145 50.337C63.0689 50.2876 63.0266 50.2349 62.981 50.1856C62.968 50.1724 62.9549 50.156 62.9419 50.1428C62.8833 50.0803 62.8279 50.021 62.7693 49.9618L62.7595 49.9519C62.7595 49.9519 62.74 49.9355 62.7302 49.9256C62.6814 49.8762 62.6325 49.8302 62.5804 49.7841C62.5641 49.7676 62.5446 49.7512 62.5283 49.7347C62.4664 49.6788 62.4046 49.6228 62.3394 49.5669L60.9358 50.3896C61.0009 50.4423 61.0628 50.4982 61.1247 50.5575C61.141 50.5739 61.1605 50.5904 61.1768 50.6068C61.2256 50.6529 61.2777 50.7023 61.3266 50.7483C61.3396 50.7615 61.3526 50.7747 61.3657 50.7878C61.4243 50.8471 61.4829 50.9063 61.5383 50.9688C61.5513 50.982 61.5643 50.9984 61.5774 51.0116C61.623 51.061 61.6685 51.1103 61.7109 51.163C61.7304 51.1827 61.7467 51.2058 61.7662 51.2255C61.7923 51.2551 61.8183 51.288 61.8444 51.3209C61.8639 51.3473 61.8867 51.3703 61.9063 51.3966C61.9323 51.4295 61.9584 51.4625 61.9844 51.4954C62.0105 51.5283 62.0365 51.5612 62.0593 51.5941L62.8051 51.3111C62.8051 51.3111 62.8247 51.3045 62.8377 51.3045C62.8377 51.3045 62.8605 51.3045 62.8703 51.3045H62.8735C62.8735 51.3045 62.8931 51.3111 62.9028 51.3144H62.9093C62.9093 51.3144 62.9321 51.3275 62.9452 51.3341C62.9614 51.344 62.9777 51.3539 62.994 51.367C63.0005 51.3703 63.0038 51.3769 63.0103 51.3802C63.0233 51.3901 63.0331 51.3999 63.0461 51.4131L63.0559 51.423C63.0559 51.423 63.0852 51.4559 63.0982 51.4756V51.4822C63.1178 51.5019 63.1308 51.525 63.1438 51.548L63.7365 52.5846C63.7496 52.6044 63.7593 52.6241 63.7691 52.6472V52.6538C63.7789 52.6735 63.7886 52.6932 63.7952 52.713C63.8017 52.736 63.8082 52.7525 63.8114 52.7722C63.8147 52.792 63.818 52.8084 63.818 52.8216C63.818 52.8315 63.818 52.8446 63.818 52.8545C63.818 52.8611 63.818 52.871 63.818 52.8775C63.818 52.8874 63.818 52.8973 63.8147 52.9072C63.8147 52.9137 63.8147 52.9203 63.8147 52.9269C63.8147 52.9368 63.8082 52.9466 63.8049 52.9532C63.8049 52.9565 63.8049 52.9631 63.7984 52.9664C63.7919 52.9796 63.7821 52.9894 63.7724 52.996L63.1536 53.4995C63.1829 53.5686 63.209 53.6344 63.235 53.7036C63.235 53.7101 63.2415 53.72 63.2448 53.7266C63.2806 53.8253 63.3164 53.924 63.349 54.0228C63.3523 54.0359 63.3588 54.0524 63.362 54.0656C63.3978 54.1742 63.4304 54.2795 63.4597 54.3881C63.4662 54.4111 63.4727 54.4308 63.4793 54.4539C63.489 54.4901 63.4988 54.523 63.5053 54.5592C63.5118 54.5921 63.5216 54.6217 63.5281 54.6546C63.5379 54.6908 63.5444 54.727 63.5509 54.7599C63.5574 54.7895 63.5639 54.8192 63.5704 54.8488C63.5867 54.9278 63.603 55.0035 63.616 55.0824L64.5768 55.7472C64.593 55.7571 64.6093 55.7735 64.6224 55.7867C64.6354 55.7999 64.6451 55.8097 64.6582 55.8262H64.6614C64.6745 55.8459 64.6842 55.8624 64.6973 55.8788C64.707 55.8953 64.7168 55.915 64.7266 55.9315C64.7363 55.9545 64.7429 55.971 64.7494 55.9907C64.7559 56.0138 64.7624 56.0302 64.7656 56.05V56.0598C64.7722 56.0763 64.7754 56.096 64.7787 56.1125C64.7787 56.1355 64.7819 56.1586 64.7819 56.1783V56.1882L63.603 56.8793C63.5118 57.2972 63.349 57.6461 63.1341 57.9159L63.7496 59.1401C63.7593 59.1599 63.7658 59.1763 63.7724 59.1961C63.7789 59.2191 63.7854 59.2356 63.7886 59.2553C63.7886 59.2553 63.7919 59.2849 63.7952 59.2948C63.7952 59.3145 63.7952 59.331 63.7952 59.3507C63.7952 59.3507 63.7952 59.3573 63.7952 59.3606C63.7952 59.3804 63.7886 59.4001 63.7821 59.4166C63.7821 59.4198 63.7789 59.4264 63.7756 59.4297C63.7691 59.4429 63.7626 59.456 63.7561 59.4659C63.7561 59.4692 63.7496 59.4758 63.7463 59.4791C63.7365 59.4922 63.7235 59.5054 63.7072 59.512L65.1109 58.6893C65.1109 58.6893 65.1369 58.6695 65.1499 58.6564C65.1499 58.6531 65.1565 58.6498 65.1597 58.6432C65.1662 58.6333 65.1727 58.6202 65.1792 58.607C65.1792 58.6037 65.1825 58.5971 65.1858 58.5938C65.1923 58.5774 65.1955 58.5576 65.1988 58.5379C65.1988 58.5379 65.1988 58.5313 65.1988 58.528C65.1988 58.5116 65.1988 58.4918 65.1988 58.4721C65.1988 58.4721 65.1988 58.4655 65.1988 58.4622C65.1988 58.4523 65.1988 58.4424 65.1955 58.4326C65.1955 58.4326 65.1923 58.4095 65.189 58.403C65.189 58.3964 65.1858 58.3898 65.1825 58.3799V58.3733H65.1792V58.3602C65.1792 58.3602 65.1695 58.347 65.1662 58.3404C65.1662 58.3338 65.1597 58.3273 65.1565 58.3207V58.3141L64.5377 57.0899C64.6289 56.9747 64.7103 56.8431 64.7819 56.7016V57.1524C64.7819 57.2446 64.7494 57.3104 64.7005 57.3367L66.1041 56.514C66.1041 56.514 66.1269 56.4975 66.1367 56.4844C66.166 56.4482 66.1823 56.3955 66.1823 56.3264V55.3523C66.1823 55.3325 66.1823 55.3128 66.1823 55.2931L66.1758 55.2996Z" fill="url(#paint29_linear_101_116)"/>
<path d="M62.2417 48.402C62.2417 48.402 62.2417 48.3889 62.2417 48.3856C62.2417 48.3757 62.2417 48.3658 62.2352 48.356V48.3494V48.3329C62.2352 48.3329 62.2287 48.3198 62.2254 48.3099C62.2254 48.3033 62.2222 48.2967 62.2189 48.2901C62.2189 48.2901 62.2124 48.2737 62.2124 48.2671C62.2124 48.2605 62.2059 48.2539 62.2026 48.2474L62.1961 48.2342V48.2276C62.1961 48.2276 62.1863 48.2144 62.1831 48.2079C62.1798 48.2013 62.1733 48.1947 62.17 48.1881V48.1815H62.1635L62.157 48.1651C62.157 48.1651 62.144 48.1486 62.1407 48.142L62.131 48.1322L62.1245 48.1256L62.1179 48.1157C62.1179 48.1157 62.0984 48.0927 62.0886 48.0828C62.0886 48.0828 62.0691 48.0631 62.0561 48.0532C62.0496 48.0499 62.0463 48.0433 62.0398 48.04C62.0235 48.0269 62.0072 48.017 61.9877 48.0038L61.1474 47.5135C61.1474 47.5135 61.1181 47.497 61.1051 47.4937C61.1019 47.4937 61.0986 47.4937 61.0953 47.4904H61.0856C61.0856 47.4904 61.0758 47.4839 61.0725 47.4806C61.0628 47.4806 61.0563 47.4773 61.0465 47.474H61.027C61.027 47.474 61.0139 47.474 61.0074 47.474C61.0009 47.474 60.9976 47.474 60.9911 47.474C60.9911 47.474 60.9814 47.474 60.9781 47.4773C60.9748 47.4773 60.9683 47.4773 60.9651 47.4806C60.9618 47.4806 60.9553 47.4839 60.9521 47.4872L59.5484 48.3132C59.5484 48.3132 59.5745 48.3 59.5875 48.2967C59.5875 48.2967 59.6168 48.2967 59.6331 48.2967H59.6363C59.6363 48.2967 59.6657 48.3033 59.6819 48.3066H59.6917C59.708 48.3165 59.7275 48.3263 59.7438 48.3362L60.0858 48.537C60.0858 48.537 60.076 48.537 60.0695 48.537C59.9913 48.5337 59.9132 48.537 59.835 48.537C59.7764 48.5402 59.7178 48.5468 59.6591 48.5567L58.9166 47.4049L58.9069 47.3884C58.9069 47.3884 58.8971 47.3753 58.8938 47.3687C58.8873 47.3621 58.8841 47.3555 58.8775 47.3489C58.871 47.3391 58.8613 47.3325 58.8547 47.3226C58.8319 47.2996 58.8059 47.2798 58.7798 47.2634C58.7668 47.2568 58.757 47.2502 58.744 47.2469C58.7343 47.2436 58.7245 47.2403 58.7115 47.237C58.7017 47.237 58.6952 47.2338 58.6887 47.2305C58.6821 47.2305 58.6756 47.2305 58.6691 47.2305C58.6626 47.2305 58.6561 47.2305 58.6496 47.2305C58.6431 47.2305 58.6365 47.2305 58.6333 47.2305C58.6268 47.2305 58.6235 47.2305 58.617 47.2338C58.6105 47.2338 58.6072 47.2371 58.6007 47.2403C58.5942 47.2403 58.591 47.2436 58.5844 47.2469L57.9885 47.5892L56.5848 48.4119L57.1808 48.0696C57.1808 48.0696 57.1906 48.0631 57.1971 48.0598C57.2036 48.0598 57.2069 48.0565 57.2134 48.0532C57.2199 48.0532 57.2231 48.0532 57.2297 48.0499C57.2362 48.0499 57.2427 48.0499 57.2459 48.0499C57.2525 48.0499 57.259 48.0499 57.2655 48.0499C57.272 48.0499 57.2785 48.0499 57.285 48.0499C57.2915 48.0499 57.3013 48.0499 57.3078 48.0565C57.3176 48.0565 57.3274 48.0631 57.3404 48.0664C57.3534 48.0729 57.3632 48.0762 57.3762 48.0828C57.4023 48.0993 57.4283 48.119 57.4511 48.142C57.4576 48.1486 57.4674 48.1585 57.4739 48.1684C57.4804 48.175 57.4837 48.1815 57.4902 48.1881C57.4935 48.1947 57.5 48.2013 57.5032 48.2079L57.513 48.2243L58.2555 49.3761C58.3141 49.3663 58.3695 49.3597 58.4314 49.3564C58.5063 49.3531 58.5844 49.3498 58.6659 49.3564C58.7505 49.3597 58.8385 49.3696 58.9296 49.3827C59.0306 49.3992 59.1348 49.4222 59.2423 49.4485C59.2911 49.4617 59.3367 49.4749 59.3856 49.4913L60.5547 48.8068L60.584 48.8233C60.6003 48.8331 60.6199 48.8463 60.6362 48.8595C60.6427 48.8628 60.6459 48.8693 60.6524 48.8726C60.6622 48.8825 60.6752 48.8924 60.685 48.9022C60.698 48.9154 60.7111 48.9319 60.7241 48.945L60.7306 48.9516C60.7306 48.9516 60.7534 48.9812 60.7632 48.9977C60.7729 49.0207 60.786 49.0372 60.7925 49.0536C60.8022 49.0734 60.8088 49.0931 60.8153 49.1129C60.8218 49.1326 60.8283 49.1491 60.8316 49.1688C60.8348 49.1918 60.8381 49.2083 60.8413 49.228L60.9293 50.3996L62.3329 49.5769L62.245 48.4053L62.2417 48.402Z" fill="url(#paint30_linear_101_116)"/>
<path d="M62.0984 57.0867C61.6783 57.1756 61.1735 57.0769 60.6264 56.7576C59.1902 55.9218 58.0308 53.8913 58.0373 52.2228C58.0373 51.4692 58.2816 50.9196 58.6757 50.6201C57.9917 50.7649 57.5423 51.4165 57.5391 52.4499C57.5358 54.1183 58.6952 56.1488 60.1281 56.9847C60.913 57.4422 61.6197 57.4487 62.0952 57.0867H62.0984Z" fill="url(#paint31_linear_101_116)"/>
<path d="M55.5003 51.7491C55.5003 51.9103 55.5915 52.0979 55.712 52.1802L56.6727 52.8449C56.7607 53.3682 56.9202 53.9013 57.1352 54.4246L56.5164 54.9281C56.4382 54.9906 56.4545 55.1716 56.5522 55.3427L57.145 56.3794C57.2003 56.4781 57.272 56.5538 57.3404 56.5933C57.3925 56.6229 57.4413 56.6328 57.4804 56.6163L58.2262 56.3333C58.5649 56.7841 58.9459 57.1889 59.3497 57.5312L59.4377 58.6994C59.4474 58.8442 59.5647 59.022 59.7014 59.1009L60.5417 59.5913C60.6784 59.6703 60.7957 59.6308 60.8055 59.4991L60.8999 58.4329C61.307 58.5645 61.6848 58.6007 62.0267 58.5481L62.7692 59.6966C62.8083 59.7591 62.8572 59.8052 62.9093 59.8348C62.9777 59.8743 63.0493 59.8842 63.1079 59.8513L63.7039 59.509C63.8016 59.4531 63.8179 59.2918 63.7397 59.1371L63.1242 57.9129C63.3424 57.6431 63.502 57.2975 63.5932 56.8763L64.5539 57.3337C64.6744 57.3897 64.7688 57.3107 64.7688 57.1494V56.1753C64.7688 56.0141 64.6809 55.8265 64.5604 55.7442L63.5997 55.0795C63.5118 54.5562 63.3522 54.0198 63.1372 53.4998L63.756 52.9963C63.8342 52.9338 63.8179 52.7528 63.7202 52.5817L63.1275 51.545C63.0721 51.4463 63.0005 51.3706 62.9288 51.3311C62.8767 51.3015 62.8279 51.2916 62.7888 51.3048L62.043 51.5878C61.7043 51.137 61.3233 50.7322 60.9194 50.3899L60.8315 49.2184C60.8217 49.0736 60.7078 48.8992 60.5677 48.8169L59.7275 48.3265C59.5907 48.2476 59.4735 48.2871 59.4637 48.4187L59.3725 49.4849C58.9654 49.3533 58.5844 49.3171 58.2457 49.3698L57.5032 48.2179C57.4641 48.1554 57.4153 48.1093 57.3631 48.0797C57.2948 48.0402 57.2231 48.0304 57.1645 48.0633L56.5685 48.4055C56.4708 48.4615 56.4545 48.6227 56.5294 48.7774L57.145 50.0016C56.9268 50.2715 56.7672 50.617 56.676 51.0382L55.712 50.5808C55.5915 50.5249 55.4971 50.6038 55.4971 50.7651V51.7392L55.5003 51.7491ZM57.5358 52.45C57.539 50.7848 58.7082 50.1102 60.1444 50.9494C61.5805 51.7886 62.7399 53.8158 62.7334 55.4842C62.7302 57.1527 61.561 57.8241 60.1248 56.9882C58.6886 56.1523 57.5292 54.1218 57.5358 52.4533V52.45Z" fill="url(#paint32_linear_101_116)"/>
<path d="M23.6401 9.02637L23.6368 9.54962L43.3951 21.0743V20.5544L23.6401 9.02637Z" fill="#8DFFF9"/>
<path d="M23.6272 13.4331V13.9531L39.9725 23.4901L39.9757 22.9701L23.6272 13.4331Z" fill="#8DFFF9"/>
<path d="M23.6207 15.6343V16.1542L36.0906 23.4304V22.9072L23.6207 15.6343Z" fill="#8DFFF9"/>
<path d="M23.6338 11.2314L23.6305 11.7514L43.3888 23.2761V22.7562L23.6338 11.2314Z" fill="#8DFFF9"/>
<g style="mix-blend-mode:overlay">
<path d="M74.2719 45.585L74.2491 53.4041L76.633 54.7962L76.6558 46.9737L74.2719 45.585Z" fill="#8DFFF9"/>
<path d="M70.9924 47.4248L70.9794 51.5055L73.3633 52.8943L73.373 48.8169L70.9924 47.4248Z" fill="#8DFFF9"/>
<path d="M67.7422 46.9077L67.7357 49.5799L70.1196 50.9687L70.1261 48.2965L67.7422 46.9077Z" fill="#8DFFF9"/>
</g>
<path d="M65.7948 82.7957C67.9702 84.066 67.98 86.1228 65.8208 87.3931L46.2123 98.9079C44.0499 100.178 40.536 100.178 38.3605 98.9079L18.625 87.3931C16.4495 86.1228 16.4398 84.066 18.5989 82.7957L38.2074 71.2808C40.3699 70.0106 43.8838 70.0106 46.0593 71.2808L65.7948 82.7957Z" fill="url(#paint33_linear_101_116)"/>
<path d="M67.4296 85.211C67.4296 85.2406 67.4296 85.2669 67.4231 85.2966C67.4231 85.3196 67.4166 85.3459 67.4133 85.369C67.4101 85.3986 67.4068 85.4249 67.4003 85.4545C67.3971 85.4808 67.3905 85.5039 67.384 85.5302C67.3775 85.5565 67.371 85.5862 67.3645 85.6125C67.358 85.6388 67.3515 85.6618 67.3417 85.6882C67.3319 85.7145 67.3254 85.7408 67.3156 85.7704C67.3059 85.7935 67.2993 85.8198 67.2896 85.8428C67.2798 85.8725 67.2668 85.8988 67.2538 85.9284C67.244 85.9514 67.231 85.9745 67.2212 86.0008C67.2082 86.0304 67.1919 86.0568 67.1789 86.0864C67.1658 86.1094 67.1561 86.1324 67.143 86.1555C67.1235 86.1884 67.1039 86.2213 67.0812 86.2542C67.0681 86.2739 67.0551 86.2937 67.0421 86.3134C67.016 86.3496 66.99 86.3858 66.9639 86.422C66.9509 86.4385 66.9411 86.455 66.9281 86.4681C66.8825 86.5241 66.8336 86.5833 66.7848 86.6392C66.7718 86.6524 66.7587 86.6689 66.7425 86.682C66.7034 86.7248 66.661 86.7676 66.6154 86.8071C66.5959 86.8268 66.5764 86.8466 66.5536 86.863C66.5275 86.8861 66.5015 86.9091 66.4722 86.9321C66.4461 86.9552 66.4233 86.9749 66.394 86.9979C66.3647 87.021 66.3354 87.044 66.3061 87.0671C66.28 87.0868 66.2507 87.1098 66.2246 87.1296C66.1953 87.1526 66.1628 87.1757 66.1302 87.1954C66.1009 87.2151 66.0716 87.2349 66.0423 87.2546C66.0097 87.2777 65.9771 87.2974 65.9413 87.3205C65.899 87.3468 65.8566 87.3731 65.8143 87.3994L46.2058 98.9143C46.0853 98.9834 45.9583 99.0492 45.8313 99.1117C45.7987 99.1282 45.7629 99.1446 45.7303 99.1611C45.6131 99.2138 45.4959 99.2664 45.3754 99.3158C45.3591 99.3224 45.3428 99.3289 45.3298 99.3355C45.1995 99.3849 45.066 99.431 44.9325 99.4737C44.838 99.5034 44.7436 99.5297 44.6459 99.556C44.5742 99.5758 44.5026 99.5988 44.4277 99.6152C44.3267 99.6416 44.2225 99.6613 44.1215 99.6811C44.0466 99.6975 43.975 99.714 43.8968 99.7271C43.8643 99.7337 43.835 99.737 43.8024 99.7436C43.6754 99.7633 43.5484 99.7831 43.4181 99.7995C43.379 99.8028 43.3432 99.8094 43.3041 99.8127C43.1543 99.8292 43.0045 99.8423 42.8547 99.8522C42.8254 99.8522 42.7993 99.8522 42.77 99.8555C42.6691 99.8621 42.5681 99.8621 42.4671 99.8654C42.3662 99.8654 42.2652 99.8654 42.161 99.8654C42.0763 99.8654 41.9917 99.8621 41.907 99.8588C41.8126 99.8555 41.7181 99.8489 41.6237 99.8423C41.539 99.8357 41.4511 99.8292 41.3664 99.8193C41.2752 99.8094 41.1808 99.7995 41.0896 99.7864C41.0049 99.7765 40.9235 99.7633 40.8421 99.7502C40.7444 99.7337 40.6467 99.7173 40.549 99.6975C40.448 99.6778 40.3438 99.658 40.2428 99.635C40.22 99.6284 40.194 99.6251 40.1712 99.6185C40.0312 99.5856 39.8911 99.5461 39.7543 99.5067C39.7153 99.4935 39.6762 99.4836 39.6371 99.4704C39.5231 99.4342 39.4091 99.3948 39.2984 99.3553C39.2658 99.3421 39.2333 99.3322 39.2007 99.3191C39.0997 99.2796 39.002 99.2368 38.9043 99.1907C38.8555 99.171 38.8066 99.1512 38.761 99.1282C38.621 99.0624 38.4842 98.99 38.354 98.9143L18.6185 87.3994C17.5242 86.761 16.9771 85.9218 16.9804 85.0859L16.9608 90.6739C16.9608 91.5098 17.5047 92.349 18.5989 92.9874L38.3344 104.502C38.4647 104.578 38.6015 104.65 38.7415 104.716C38.7871 104.739 38.8359 104.759 38.8848 104.779C38.9695 104.815 39.0509 104.854 39.1356 104.891C39.1518 104.897 39.1649 104.9 39.1812 104.907C39.2137 104.92 39.2463 104.93 39.2789 104.943C39.3896 104.986 39.5036 105.022 39.6176 105.058C39.6566 105.072 39.6957 105.085 39.7348 105.095C39.7608 105.101 39.7869 105.111 39.813 105.118C39.9237 105.151 40.0377 105.18 40.1516 105.206C40.1744 105.213 40.2005 105.216 40.2233 105.223C40.2787 105.236 40.334 105.249 40.3894 105.262C40.435 105.272 40.4806 105.279 40.5262 105.285C40.6239 105.305 40.7216 105.322 40.8193 105.338C40.8583 105.345 40.8974 105.355 40.9365 105.358C40.9788 105.364 41.0244 105.368 41.0668 105.371C41.158 105.384 41.2524 105.394 41.3436 105.404C41.3892 105.407 41.4315 105.414 41.4771 105.42C41.5195 105.424 41.5585 105.424 41.6009 105.427C41.6953 105.434 41.7898 105.437 41.8809 105.443C41.9265 105.443 41.9754 105.45 42.021 105.45C42.0601 105.45 42.0959 105.45 42.135 105.45C42.2359 105.45 42.3369 105.45 42.4378 105.45C42.4867 105.45 42.5388 105.45 42.5876 105.45C42.6398 105.45 42.6886 105.443 42.7407 105.443C42.77 105.443 42.7961 105.443 42.8254 105.44C42.9524 105.434 43.0794 105.424 43.2032 105.411C43.226 105.411 43.252 105.404 43.2748 105.401C43.3139 105.397 43.3497 105.391 43.3888 105.387C43.5191 105.371 43.6461 105.355 43.7731 105.332C43.8056 105.325 43.835 105.322 43.8675 105.315C43.8838 105.315 43.8968 105.312 43.9131 105.308C43.975 105.299 44.0304 105.282 44.0922 105.269C44.1964 105.249 44.2974 105.226 44.3984 105.203C44.4733 105.187 44.5449 105.164 44.6166 105.144C44.7143 105.118 44.8087 105.091 44.9031 105.062C44.9227 105.055 44.9455 105.052 44.965 105.045C45.079 105.009 45.193 104.966 45.3037 104.923C45.32 104.917 45.3363 104.91 45.3493 104.904C45.4698 104.854 45.5903 104.805 45.7043 104.749C45.7369 104.733 45.7727 104.716 45.8052 104.7C45.9323 104.637 46.0593 104.571 46.1798 104.502L65.7882 92.9874C65.811 92.9742 65.8338 92.9611 65.8566 92.9479C65.8762 92.9347 65.8957 92.9216 65.9185 92.9084C65.9511 92.8887 65.9869 92.8656 66.0195 92.8426C66.0488 92.8228 66.0781 92.8031 66.1074 92.7833C66.14 92.7603 66.1693 92.7406 66.2018 92.7175C66.2312 92.6978 66.2572 92.6747 66.2865 92.655C66.3158 92.632 66.3451 92.6089 66.3745 92.5859C66.4005 92.5629 66.4266 92.5431 66.4526 92.5201C66.4787 92.497 66.508 92.474 66.5308 92.451C66.5405 92.4411 66.5536 92.4312 66.5633 92.4214C66.5731 92.4115 66.5829 92.4016 66.5926 92.395C66.635 92.3522 66.6773 92.3127 66.7197 92.27C66.7327 92.2568 66.749 92.2403 66.762 92.2272C66.8141 92.1712 66.8597 92.1153 66.9053 92.0561L66.9118 92.0495C66.9118 92.0495 66.9313 92.0232 66.9411 92.01C66.9672 91.9738 66.9932 91.9376 67.0193 91.9014C67.0323 91.8816 67.0453 91.8619 67.0584 91.8422C67.0779 91.8092 67.1007 91.7763 67.1202 91.7434C67.1267 91.7335 67.1333 91.727 67.1365 91.7171C67.143 91.7039 67.1495 91.6908 67.1561 91.6776C67.1723 91.6513 67.1854 91.6217 67.1984 91.592C67.2114 91.569 67.2212 91.546 67.231 91.5196C67.244 91.49 67.2538 91.4637 67.2668 91.4341C67.2733 91.4209 67.2766 91.4077 67.2831 91.3946C67.2863 91.3847 67.2896 91.3716 67.2928 91.3617C67.3026 91.3354 67.3124 91.309 67.3189 91.2794C67.3254 91.2531 67.3352 91.23 67.3417 91.2037C67.3482 91.1774 67.3547 91.1478 67.3612 91.1214C67.3645 91.105 67.3677 91.0918 67.371 91.0754C67.371 91.0655 67.371 91.0556 67.3743 91.0457C67.3808 91.0161 67.384 90.9898 67.3873 90.9602C67.3905 90.9372 67.3938 90.9108 67.3971 90.8878C67.3971 90.8582 67.4003 90.8318 67.4036 90.8022C67.4036 90.7858 67.4036 90.7693 67.4068 90.7529C67.4068 90.7364 67.4068 90.72 67.4068 90.7035L67.4264 85.1156C67.4264 85.1485 67.4264 85.1814 67.4231 85.2143L67.4296 85.211Z" fill="url(#paint34_linear_101_116)"/>
<path d="M60.1769 79.7976C61.7825 80.7355 61.7923 82.2526 60.1965 83.1905L45.7205 91.6909C44.1248 92.6288 41.5292 92.6288 39.9236 91.6909L25.3532 83.1905C23.7477 82.2526 23.7379 80.7355 25.3337 79.7976L39.8096 71.2972C41.4054 70.3593 44.001 70.3593 45.6065 71.2972L60.1769 79.7976Z" fill="url(#paint35_linear_101_116)"/>
<path d="M61.382 81.5781C61.382 81.5978 61.382 81.6209 61.3788 81.6406C61.3788 81.6604 61.3755 81.6768 61.3722 81.6966C61.3722 81.7163 61.3657 81.7393 61.3625 81.7591C61.3592 81.7788 61.356 81.7953 61.3527 81.815C61.3494 81.8348 61.3429 81.8545 61.3397 81.8743C61.3364 81.894 61.3299 81.9105 61.3234 81.9302C61.3169 81.95 61.3104 81.9697 61.3039 81.9895C61.2973 82.0059 61.2908 82.0257 61.2843 82.0421C61.2745 82.0619 61.268 82.0849 61.2583 82.1046C61.2517 82.1211 61.242 82.1408 61.2355 82.1573C61.2257 82.177 61.2159 82.2001 61.2029 82.2198C61.1931 82.2363 61.1834 82.2527 61.1768 82.2692C61.1638 82.2955 61.1475 82.3185 61.1312 82.3416C61.1215 82.3547 61.1117 82.3712 61.1019 82.3844C61.0824 82.4107 61.0629 82.437 61.0433 82.4633C61.0335 82.4732 61.027 82.4864 61.0173 82.4995C60.9847 82.5423 60.9489 82.5851 60.9098 82.6246C60.9 82.6345 60.8903 82.6443 60.8805 82.6575C60.8512 82.6904 60.8186 82.72 60.7893 82.7497C60.773 82.7628 60.76 82.7793 60.7437 82.7924C60.7242 82.8089 60.7046 82.8286 60.6851 82.8451C60.6655 82.8615 60.6493 82.878 60.6297 82.8912C60.6102 82.9076 60.5874 82.9241 60.5646 82.9405C60.545 82.957 60.5255 82.9701 60.5027 82.9866C60.4799 83.003 60.4571 83.0195 60.4343 83.036C60.4115 83.0524 60.392 83.0656 60.3692 83.082C60.3464 83.0985 60.3203 83.1149 60.2943 83.1281C60.2617 83.1478 60.2324 83.1676 60.1998 83.1873L45.7239 91.6877C45.636 91.7404 45.5415 91.7898 45.4471 91.8358C45.421 91.849 45.3982 91.8589 45.3722 91.872C45.2875 91.9115 45.1996 91.951 45.1084 91.9839C45.0953 91.9872 45.0856 91.9938 45.0725 91.9971C44.9781 92.0333 44.8771 92.0662 44.7794 92.0991C44.7111 92.1221 44.6394 92.1419 44.5678 92.1616C44.5157 92.1748 44.4603 92.1912 44.4082 92.2044C44.3333 92.2241 44.2584 92.2373 44.1802 92.2538C44.1249 92.2636 44.0695 92.2768 44.0141 92.2867C43.9913 92.29 43.9685 92.2933 43.9457 92.2965C43.8513 92.313 43.7568 92.3262 43.6624 92.336C43.6331 92.3393 43.607 92.3426 43.5777 92.3459C43.467 92.3591 43.3563 92.3689 43.2455 92.3755C43.226 92.3755 43.2032 92.3755 43.1837 92.3755C43.1088 92.3788 43.0339 92.3788 42.959 92.3821C42.8841 92.3821 42.8092 92.3821 42.7342 92.3821C42.6724 92.3821 42.6105 92.3821 42.5454 92.3755C42.477 92.3755 42.4053 92.3689 42.3369 92.3657C42.2751 92.3624 42.2099 92.3558 42.148 92.3492C42.0797 92.3426 42.0113 92.336 41.9429 92.3262C41.881 92.3196 41.8191 92.3097 41.7605 92.2998C41.6889 92.29 41.6139 92.2768 41.5423 92.2603C41.4674 92.2472 41.3925 92.2307 41.3176 92.2143C41.3013 92.211 41.2818 92.2077 41.2655 92.2011C41.1613 92.1748 41.0571 92.1485 40.9561 92.1188C40.9268 92.109 40.8975 92.1024 40.8682 92.0925C40.7835 92.0662 40.7021 92.0366 40.6174 92.0069C40.5946 91.9971 40.5686 91.9905 40.5458 91.9806C40.4709 91.951 40.3992 91.9181 40.3276 91.8885C40.2917 91.872 40.2559 91.8589 40.2233 91.8424C40.1191 91.793 40.0182 91.7404 39.9237 91.6844L25.3533 83.1841C24.5457 82.7135 24.1419 82.0948 24.1451 81.4761L24.1321 85.5996C24.1321 86.2183 24.5327 86.8369 25.3403 87.3075L39.9107 95.8079C40.0084 95.8639 40.1094 95.9165 40.2103 95.9659C40.2461 95.9824 40.282 95.9955 40.3145 96.012C40.3764 96.0383 40.435 96.0679 40.5002 96.0942C40.5099 96.0975 40.523 96.1008 40.5327 96.1074C40.5555 96.1173 40.5816 96.1239 40.6044 96.1337C40.6858 96.1634 40.7705 96.193 40.8551 96.2193C40.8845 96.2292 40.9138 96.239 40.9431 96.2456C40.9626 96.2522 40.9822 96.2588 41.0017 96.2654C41.0831 96.2884 41.1678 96.3114 41.2525 96.3312C41.2687 96.3345 41.2883 96.3378 41.3046 96.3443C41.3469 96.3542 41.386 96.3641 41.4283 96.374C41.4609 96.3805 41.4967 96.3838 41.5293 96.3904C41.6009 96.4036 41.6726 96.4168 41.7475 96.4299C41.7768 96.4332 41.8061 96.4398 41.8354 96.4464C41.868 96.4497 41.9005 96.4529 41.9331 96.4562C42.0015 96.4661 42.0699 96.4727 42.1383 96.4793C42.1708 96.4793 42.2034 96.4892 42.236 96.4892C42.2653 96.4892 42.2979 96.4891 42.3272 96.4957C42.3956 96.499 42.4639 96.5056 42.5356 96.5056C42.5714 96.5056 42.604 96.5089 42.6398 96.5122C42.6691 96.5122 42.6952 96.5122 42.7245 96.5122C42.7994 96.5122 42.8743 96.5122 42.9492 96.5122C42.985 96.5122 43.0241 96.5122 43.0599 96.5122C43.099 96.5122 43.1348 96.5089 43.1739 96.5056C43.1934 96.5056 43.2162 96.5056 43.2358 96.5056C43.3302 96.499 43.4214 96.4924 43.5159 96.4826C43.5321 96.4826 43.5517 96.4793 43.568 96.476C43.5973 96.476 43.6233 96.4694 43.6526 96.4661C43.7471 96.4562 43.8415 96.4398 43.936 96.4266C43.9588 96.4233 43.9816 96.42 44.0044 96.4168C44.0141 96.4168 44.0272 96.4135 44.0369 96.4102C44.0825 96.4036 44.1249 96.3904 44.1672 96.3806C44.2421 96.3641 44.3203 96.3509 44.3952 96.3312C44.4505 96.318 44.5026 96.3016 44.5547 96.2884C44.6264 96.2687 44.698 96.2489 44.7664 96.2259C44.7827 96.2226 44.7957 96.2193 44.812 96.2127C44.8967 96.1864 44.9781 96.1568 45.0595 96.1239C45.0725 96.1206 45.0823 96.114 45.0953 96.1107C45.1865 96.0745 45.2712 96.0383 45.3591 95.9988C45.3852 95.9856 45.408 95.9758 45.434 95.9626C45.5285 95.9165 45.6229 95.8672 45.7109 95.8145L60.1868 87.3141C60.2031 87.3043 60.2194 87.2944 60.2357 87.2845C60.2519 87.2746 60.265 87.2648 60.2813 87.2549C60.3073 87.2384 60.3301 87.222 60.3562 87.2088C60.379 87.1924 60.4017 87.1792 60.4213 87.1627C60.4441 87.1463 60.4669 87.1298 60.4897 87.1134C60.5092 87.0969 60.532 87.0838 60.5516 87.0673C60.5744 87.0509 60.5939 87.0344 60.6167 87.0179C60.6362 87.0015 60.6558 86.985 60.6721 86.9686C60.6916 86.9521 60.7111 86.9357 60.7307 86.9159C60.7372 86.9093 60.747 86.9028 60.7535 86.8929C60.76 86.8863 60.7665 86.8797 60.773 86.8731C60.8056 86.8435 60.8349 86.8106 60.8642 86.781C60.874 86.7711 60.8837 86.7613 60.8935 86.7481C60.9326 86.7053 60.9652 86.6658 61.001 86.623V86.6165C61.001 86.6165 61.0205 86.5967 61.027 86.5868C61.0466 86.5605 61.0661 86.5342 61.0857 86.5079C61.0954 86.4947 61.1052 86.4782 61.115 86.4651C61.1312 86.442 61.1443 86.4157 61.1606 86.3927C61.1638 86.3861 61.1703 86.3795 61.1736 86.3729C61.1801 86.3631 61.1834 86.3532 61.1899 86.3433C61.1996 86.3236 61.2127 86.3005 61.2224 86.2808C61.2322 86.2643 61.2387 86.2446 61.2452 86.2281C61.255 86.2084 61.2615 86.1853 61.2713 86.1656C61.2745 86.1557 61.2811 86.1459 61.2843 86.136C61.2843 86.1261 61.2908 86.1195 61.2941 86.1097C61.3006 86.0899 61.3071 86.0702 61.3136 86.0504C61.3201 86.0307 61.3234 86.0142 61.3299 85.9945C61.3364 85.9747 61.3397 85.955 61.3429 85.9352C61.3429 85.9254 61.3494 85.9122 61.3494 85.9023C61.3494 85.8957 61.3494 85.8892 61.3527 85.8793C61.356 85.8595 61.3592 85.8365 61.3625 85.8168C61.3625 85.797 61.369 85.7806 61.369 85.7608C61.369 85.7411 61.3722 85.718 61.3722 85.6983C61.3722 85.6851 61.3722 85.6753 61.3722 85.6621C61.3722 85.6489 61.3722 85.6391 61.3722 85.6259L61.3853 81.5024C61.3853 81.5254 61.3853 81.5518 61.3853 81.5748L61.382 81.5781Z" fill="url(#paint36_linear_101_116)"/>
<path style="mix-blend-mode:overlay" d="M27.366 12.8804V81.4462C27.3823 81.9399 27.7209 82.4302 28.3658 82.8054L40.4155 89.838C41.7442 90.6114 43.8871 90.6114 45.2093 89.838L57.1809 82.8054C57.8192 82.4302 58.1481 81.9432 58.1644 81.4594V12.8804H27.366Z" fill="url(#paint37_linear_101_116)"/>
<path d="M57.272 79.9917C58.6105 80.7716 58.617 82.0386 57.2883 82.8186L45.2255 89.9006C43.8968 90.6805 41.7344 90.6805 40.3959 89.9006L28.255 82.8186C26.9165 82.0386 26.9099 80.7716 28.2387 79.9917L40.3014 72.9097C41.6301 72.1297 43.7926 72.1297 45.1311 72.9097L57.272 79.9917Z" fill="#8DFFF9"/>
<path style="mix-blend-mode:color-dodge" d="M52.1461 72.9855C52.9537 72.9855 53.6083 72.3239 53.6083 71.5079C53.6083 70.6918 52.9537 70.0303 52.1461 70.0303C51.3385 70.0303 50.6838 70.6918 50.6838 71.5079C50.6838 72.3239 51.3385 72.9855 52.1461 72.9855Z" fill="url(#paint38_radial_101_116)"/>
<path style="mix-blend-mode:color-dodge" d="M55.5037 60.1115C55.5037 60.4998 55.1911 60.8157 54.8068 60.8157C54.4225 60.8157 54.1099 60.4998 54.1099 60.1115C54.1099 59.7232 54.4225 59.4072 54.8068 59.4072C55.1911 59.4072 55.5037 59.7232 55.5037 60.1115Z" fill="url(#paint39_radial_101_116)"/>
<path style="mix-blend-mode:color-dodge" d="M32.1598 38.4243C32.1598 39.1516 31.5768 39.7406 30.8571 39.7406C30.1374 39.7406 29.5544 39.1516 29.5544 38.4243C29.5544 37.697 30.1374 37.1079 30.8571 37.1079C31.5768 37.1079 32.1598 37.697 32.1598 38.4243Z" fill="url(#paint40_radial_101_116)"/>
<path style="mix-blend-mode:color-dodge" d="M34.8889 29.8617C34.8889 30.1283 34.6739 30.3455 34.4101 30.3455C34.1463 30.3455 33.9314 30.1283 33.9314 29.8617C33.9314 29.5951 34.1463 29.3779 34.4101 29.3779C34.6739 29.3779 34.8889 29.5951 34.8889 29.8617Z" fill="url(#paint41_radial_101_116)"/>
<path style="mix-blend-mode:color-dodge" d="M49.4104 26.7845C49.4104 27.1695 49.101 27.4854 48.7167 27.4854C48.3325 27.4854 48.0231 27.1728 48.0231 26.7845C48.0231 26.3961 48.3325 26.0835 48.7167 26.0835C49.101 26.0835 49.4104 26.3961 49.4104 26.7845Z" fill="url(#paint42_radial_101_116)"/>
<path style="mix-blend-mode:color-dodge" d="M52.5857 34.8636C52.5857 35.2519 52.2763 35.5645 51.892 35.5645C51.5077 35.5645 51.1984 35.2519 51.1984 34.8636C51.1984 34.4752 51.5077 34.1626 51.892 34.1626C52.2763 34.1626 52.5857 34.4752 52.5857 34.8636Z" fill="url(#paint43_radial_101_116)"/>
<path style="mix-blend-mode:color-dodge" d="M35.69 68.5163C35.69 68.9046 35.3774 69.2205 34.9931 69.2205C34.6088 69.2205 34.2961 68.9046 34.2961 68.5163C34.2961 68.1279 34.6088 67.812 34.9931 67.812C35.3774 67.812 35.69 68.1279 35.69 68.5163Z" fill="url(#paint44_radial_101_116)"/>
<path d="M45.7498 64.5115C45.7498 61.3226 44.3038 58.7393 42.5224 58.7393C40.741 58.7393 39.295 61.3226 39.295 64.5115C39.295 67.7004 42.5224 79.3238 42.5224 79.3238C42.5224 79.3238 45.7498 67.7004 45.7498 64.5115Z" fill="url(#paint45_linear_101_116)"/>
<path d="M37.4387 56.8271C37.5983 58.0974 37.924 59.3348 38.4581 60.4833C40.6889 61.6878 44.1247 61.6944 46.3588 60.5031C46.8994 59.348 47.225 58.104 47.3879 56.8271H37.4387Z" fill="url(#paint46_linear_101_116)"/>
<path style="mix-blend-mode:multiply" d="M37.683 58.1962C38.7088 58.7886 40.4153 59.1769 42.3465 59.1769C44.382 59.1769 46.1634 58.7458 47.1664 58.1041C47.2088 57.9099 47.2478 57.7124 47.2837 57.5183C44.4145 58.7951 40.4121 58.7886 37.5397 57.4985C37.582 57.7322 37.6276 57.9691 37.6797 58.1995L37.683 58.1962Z" fill="url(#paint47_radial_101_116)"/>
<path d="M52.3934 56.5903C52.2957 55.3759 51.8495 54.7375 51.3154 54.4249L50.5664 53.9839C51.1005 54.2965 51.5467 54.935 51.6444 56.1493C51.6607 56.3402 51.7356 56.4718 51.8463 56.5376L52.5953 56.9786C52.4813 56.9128 52.4064 56.7779 52.3934 56.5903Z" fill="url(#paint48_linear_101_116)"/>
<path d="M49.0228 50.1073C53.5756 49.5676 53.4942 56.3402 53.4877 56.6956L53.0839 56.9293C52.7224 57.1399 52.4228 56.9885 52.3902 56.587C52.1166 53.2172 49.1856 54.2999 49.0326 54.3558L49.0195 50.104L49.0228 50.1073Z" fill="url(#paint49_linear_101_116)"/>
<path d="M50.4003 50.0578C50.4003 50.0578 50.3808 50.0447 50.371 50.0414C50.3645 50.0381 50.3547 50.0348 50.3482 50.0282C50.3124 50.0085 50.2766 49.9887 50.2408 49.969C50.2277 49.9624 50.218 49.9558 50.2049 49.9492C50.1593 49.9262 50.1105 49.9032 50.0616 49.8834H50.0551C50.0551 49.8834 50.0421 49.8768 50.0356 49.8735C49.9965 49.8571 49.9574 49.8439 49.9183 49.8275C49.9021 49.8209 49.889 49.8176 49.8727 49.811C49.8369 49.7978 49.7978 49.7847 49.762 49.7748C49.7523 49.7748 49.7457 49.7682 49.736 49.7649H49.7262C49.6773 49.7485 49.6252 49.7353 49.5731 49.7222C49.5634 49.7222 49.5536 49.7189 49.5438 49.7156C49.5015 49.7057 49.4592 49.6958 49.4168 49.6893C49.4103 49.6893 49.4005 49.686 49.394 49.686C49.3842 49.686 49.3777 49.686 49.368 49.6827C49.3256 49.6761 49.2833 49.6695 49.241 49.6629C49.2279 49.6629 49.2149 49.6596 49.1986 49.6563C49.1433 49.6498 49.0879 49.6432 49.0293 49.6399H49.0195C49.0195 49.6399 49.0032 49.6399 48.9934 49.6399C48.9413 49.6399 48.8892 49.6366 48.8371 49.6333C48.8208 49.6333 48.8046 49.6333 48.785 49.6333C48.7199 49.6333 48.658 49.6333 48.5929 49.6366C48.5603 49.6366 48.5277 49.6399 48.4952 49.6432C48.4756 49.6432 48.4561 49.6432 48.4366 49.6465C48.3844 49.6498 48.3323 49.6563 48.277 49.6629L49.026 50.1039C49.0814 50.0973 49.1335 50.0907 49.1856 50.0874C49.2051 50.0874 49.2247 50.0874 49.2442 50.0842C49.2768 50.0842 49.3093 50.0809 49.3419 50.0776C49.407 50.0776 49.4722 50.0743 49.5341 50.0743C49.5503 50.0743 49.5666 50.0743 49.5862 50.0743C49.6383 50.0743 49.6904 50.0743 49.7425 50.0809C49.7523 50.0809 49.7653 50.0809 49.775 50.0809C49.8337 50.0842 49.889 50.0907 49.9444 50.0973C49.9574 50.0973 49.9705 50.1006 49.9867 50.1039C50.0291 50.1105 50.0714 50.1171 50.1137 50.1236C50.13 50.1236 50.1463 50.1302 50.1626 50.1335C50.2049 50.1401 50.2473 50.15 50.2896 50.1598C50.2994 50.1598 50.3091 50.1631 50.3189 50.1664C50.371 50.1796 50.4199 50.1928 50.472 50.2059C50.485 50.2092 50.498 50.2125 50.5111 50.2191C50.5501 50.2322 50.586 50.2421 50.6218 50.2553C50.6381 50.2619 50.6511 50.2652 50.6674 50.2717C50.7065 50.2849 50.7455 50.3014 50.7846 50.3178C50.7944 50.3211 50.8009 50.3244 50.8107 50.3277C50.8595 50.3474 50.9051 50.3705 50.954 50.3935C50.967 50.4001 50.9768 50.4067 50.9898 50.4132C51.0256 50.433 51.0614 50.4527 51.0973 50.4725C51.1135 50.4824 51.1331 50.4922 51.1494 50.5021L50.4003 50.0611V50.0578Z" fill="url(#paint50_linear_101_116)"/>
<path d="M49.0358 54.3623L48.2867 53.9213L48.277 49.6694L49.0228 50.1071L49.0358 54.3623Z" fill="url(#paint51_linear_101_116)"/>
<path d="M31.4725 56.5903C31.5702 55.3759 32.0164 54.7375 32.5505 54.4249L33.2995 53.9839C32.7654 54.2965 32.3193 54.935 32.2216 56.1493C32.2053 56.3402 32.1304 56.4718 32.0197 56.5376L31.2706 56.9786C31.3846 56.9128 31.4563 56.7779 31.4725 56.5903Z" fill="url(#paint52_linear_101_116)"/>
<path d="M34.8432 50.1073C30.2904 49.5676 30.3718 56.3402 30.3783 56.6956L30.7821 56.9293C31.1436 57.1399 31.4432 56.9885 31.4758 56.587C31.7494 53.2172 34.6804 54.2999 34.8334 54.3558L34.8465 50.104L34.8432 50.1073Z" fill="url(#paint53_linear_101_116)"/>
<path d="M34.8302 54.3623L35.5792 53.9213L35.5923 49.6694L34.8432 50.1071L34.8302 54.3623Z" fill="url(#paint54_linear_101_116)"/>
<path d="M50.814 49.7251C50.5991 52.1999 50.0324 54.6253 48.9903 56.8499C45.2679 58.8343 39.5426 58.8212 35.8235 56.817C34.7879 54.5956 34.2245 52.1703 34.0128 49.6988C33.5829 44.7164 34.5795 39.5431 36.0222 35.4558C36.4423 34.2645 36.8982 33.1686 37.3704 32.1945C39.3016 28.1961 41.4576 25.3692 42.1708 24.7768C42.3108 24.6616 42.516 24.6616 42.656 24.7768C43.3692 25.3692 45.5284 28.1961 47.4596 32.1945C47.9351 33.1752 48.3943 34.2809 48.8144 35.4788C50.2539 39.5727 51.2472 44.746 50.814 49.7284V49.7251Z" fill="url(#paint55_linear_101_116)"/>
<path d="M48.1631 33.7646C47.9351 33.2117 47.7006 32.6852 47.4596 32.1916C45.5284 28.1931 43.3692 25.3662 42.656 24.7739C42.516 24.6587 42.3108 24.6587 42.1708 24.7739C41.4576 25.3662 39.3016 28.1931 37.3704 32.1916C37.1359 32.6786 36.9015 33.1986 36.6768 33.7449C40.0637 35.262 44.7826 35.2686 48.1631 33.7646Z" fill="url(#paint56_linear_101_116)"/>
<path d="M42.5224 24.7012C41.9069 26.2578 40.588 29.8713 39.5621 34.6266C38.5395 34.4357 37.5592 34.1428 36.6702 33.7446C36.7451 33.5669 36.82 33.3892 36.8949 33.2148C36.9926 32.991 37.0903 32.7738 37.188 32.5599C37.2499 32.4349 37.3085 32.3131 37.3638 32.188C39.2983 28.1896 41.451 25.3627 42.1674 24.7704C42.2489 24.698 42.3596 24.6749 42.4638 24.6881C42.4833 24.6881 42.4996 24.6947 42.5192 24.7012H42.5224Z" fill="url(#paint57_linear_101_116)"/>
<g style="mix-blend-mode:multiply" opacity="0.38">
<path d="M42.5224 24.7046C42.4019 24.6684 42.2684 24.6914 42.1707 24.7737C41.4575 25.3661 39.3016 28.1929 37.3704 32.1914C36.8981 33.1655 36.4422 34.2646 36.0221 35.4527C34.5826 39.5399 33.5828 44.7165 34.0127 49.6957C34.2244 52.1671 34.7878 54.5925 35.8234 56.8139C36.9144 57.4029 38.178 57.8143 39.5132 58.0578C35.6899 43.5548 41.0732 28.3739 42.5257 24.7013L42.5224 24.7046Z" fill="#C4BC9A"/>
</g>
<g style="mix-blend-mode:multiply" opacity="0.53">
<path d="M38.1683 47.797C36.6735 47.5172 35.2438 47.073 33.9574 46.4707C33.9476 46.3391 33.9411 46.2042 33.9379 46.0692C33.9379 46.0692 33.9379 46.0627 33.9379 46.0594C33.9444 45.8553 33.9542 45.6513 33.9672 45.4473C35.2047 46.0758 36.6279 46.5497 38.1618 46.8525C38.1618 47.1684 38.1618 47.481 38.1618 47.797H38.1683Z" fill="#0031BA"/>
</g>
<g style="mix-blend-mode:multiply" opacity="0.53">
<path d="M38.2595 50.0741C36.7289 49.7944 35.2699 49.3468 33.9607 48.7314C33.9379 48.3958 33.9281 48.0535 33.9183 47.7146V47.6816C35.1819 48.3299 36.6377 48.8203 38.2074 49.1263C38.2237 49.4423 38.2367 49.7582 38.2595 50.0741Z" fill="#0031BA"/>
</g>
<path d="M32.4528 65.9065C32.4463 65.4819 32.2997 57.4357 37.7905 51.6733L36.8363 51.7095C36.8363 51.7095 31.8243 56.3398 31.8503 65.5511L32.4528 65.9065Z" fill="url(#paint58_linear_101_116)"/>
<path d="M37.7905 51.6733C32.2997 57.4357 32.4462 65.4819 32.4528 65.9065L32.938 65.6235C33.3744 65.3668 33.7359 64.7645 33.7717 64.2347C34.0778 59.7854 38.0575 56.6459 38.2431 56.4978L37.7905 51.6733Z" fill="url(#paint59_linear_101_116)"/>
<path d="M51.7681 65.9065C51.7746 65.4819 51.9212 57.4357 46.4304 51.6733L47.3846 51.7095C47.3846 51.7095 52.3967 56.3398 52.3706 65.5511L51.7681 65.9065Z" fill="url(#paint60_linear_101_116)"/>
<path d="M46.4305 51.6733C51.9245 57.4357 51.7747 65.4819 51.7682 65.9065L51.2829 65.6235C50.8465 65.3668 50.485 64.7645 50.4492 64.2347C50.1431 59.7854 46.1634 56.6459 45.9778 56.4978L46.4305 51.6733Z" fill="url(#paint61_linear_101_116)"/>
<path d="M38.9141 38.1808C40.5163 39.1154 41.8125 41.3828 41.806 43.2455C41.7995 45.1048 40.4968 45.8552 38.8945 44.9206C37.2922 43.9859 35.9961 41.7185 36.0026 39.8592C36.0091 37.9965 37.3118 37.2462 38.9141 38.1808Z" fill="url(#paint62_linear_101_116)"/>
<path d="M38.9141 38.9539C40.1517 39.6746 41.1482 41.4221 41.1449 42.8602C41.1417 44.2951 40.1354 44.8743 38.8978 44.1536C37.6603 43.4329 36.6637 41.6854 36.667 40.2473C36.6703 38.8124 37.6766 38.2332 38.9141 38.9539Z" fill="url(#paint63_linear_101_116)"/>
<path d="M40.0604 39.9906L37.4258 42.6496C37.1457 42.1988 36.9275 41.7018 36.7972 41.2082L38.9825 39C39.3733 39.2435 39.7413 39.5858 40.0572 39.9939L40.0604 39.9906Z" fill="url(#paint64_linear_101_116)"/>
<path d="M41.0245 41.9386L38.8588 44.127C38.4615 43.8901 38.0934 43.5478 37.7743 43.1431L40.4024 40.4873C40.6825 40.9414 40.8975 41.445 41.0245 41.9386Z" fill="url(#paint65_linear_101_116)"/>
<path d="M42.4476 42.7386C42.4476 42.6926 42.4443 42.6432 42.4411 42.5971C42.4411 42.5741 42.4378 42.5543 42.4345 42.5313V42.505C42.4313 42.4885 42.4313 42.4721 42.428 42.4556C42.4248 42.4062 42.4183 42.3602 42.4117 42.3108C42.4052 42.2614 42.3987 42.2121 42.3922 42.1627V42.1528C42.3824 42.1068 42.3759 42.0607 42.3661 42.0146C42.3564 41.9653 42.3466 41.9126 42.3368 41.8632C42.3336 41.8435 42.3271 41.827 42.3238 41.8073L42.3173 41.7744C42.3108 41.7514 42.3075 41.7283 42.301 41.7053C42.288 41.6526 42.275 41.6 42.2619 41.5506C42.2522 41.5111 42.2391 41.4749 42.2294 41.4354L42.2229 41.4157L42.2163 41.3959C42.2001 41.3466 42.1838 41.2939 42.1675 41.2446C42.1512 41.1952 42.1349 41.1458 42.1154 41.0965C42.1121 41.0866 42.1089 41.0767 42.1056 41.0701L42.0958 41.0471C42.0828 41.0175 42.073 40.9846 42.06 40.955C42.0405 40.9089 42.0242 40.8595 42.0047 40.8135C41.9916 40.7805 41.9753 40.7443 41.9623 40.7114L41.9558 40.695L41.946 40.6752C41.9265 40.6292 41.9037 40.5798 41.8809 40.5337C41.8581 40.4811 41.832 40.4317 41.806 40.3791C41.8027 40.3725 41.7995 40.3626 41.793 40.356C41.7865 40.3461 41.7832 40.3363 41.7767 40.3264C41.7571 40.2869 41.7343 40.2441 41.7148 40.2046C41.6888 40.1553 41.6594 40.1026 41.6301 40.0533C41.6171 40.0269 41.6008 40.0039 41.5878 39.9776C41.5813 39.9677 41.578 39.9578 41.5715 39.9479C41.5455 39.9052 41.5194 39.8624 41.4901 39.8196C41.451 39.7571 41.4152 39.6945 41.3729 39.632C41.3663 39.6221 41.3598 39.6123 41.3533 39.6024C41.2947 39.5135 41.2328 39.4247 41.1709 39.3391C41.1286 39.2799 41.0863 39.2239 41.0407 39.168C41.0049 39.1219 40.969 39.0759 40.9332 39.0331H40.9299C40.8941 38.9837 40.855 38.9409 40.8192 38.8949C40.7834 38.8521 40.7443 38.8093 40.7052 38.7698C40.6987 38.7632 40.6922 38.7566 40.6857 38.7501C40.6792 38.7435 40.6727 38.7369 40.6662 38.7303C40.6401 38.7007 40.6141 38.6744 40.588 38.6448C40.5489 38.602 40.5066 38.5625 40.4642 38.523C40.4512 38.5098 40.4382 38.5 40.4252 38.4868C40.4154 38.4769 40.4056 38.4703 40.3959 38.4605C40.3763 38.4407 40.3568 38.421 40.3372 38.4045C40.2949 38.365 40.2526 38.3288 40.207 38.2893C40.1874 38.2729 40.1679 38.2564 40.1483 38.2433C40.1386 38.2367 40.1288 38.2268 40.119 38.2202C40.106 38.2071 40.0897 38.1972 40.0767 38.184C40.0344 38.1511 39.992 38.1182 39.9497 38.0853C39.9204 38.0623 39.8878 38.0392 39.8552 38.0195C39.8487 38.0162 39.8455 38.0096 39.839 38.0063C39.8324 38.003 39.8292 37.9997 39.8227 37.9964C39.7803 37.9668 39.7413 37.9405 39.6989 37.9142C39.6566 37.8878 39.6175 37.8615 39.5752 37.8385L39.5459 37.822C39.5165 37.8056 39.484 37.7858 39.4547 37.7694C39.4156 37.7463 39.3765 37.7266 39.3342 37.7068C39.3081 37.6937 39.2821 37.6838 39.2593 37.6706L39.2397 37.6608C39.2397 37.6608 39.2234 37.6542 39.2169 37.6509C39.1779 37.6344 39.1388 37.618 39.0997 37.6015C39.0606 37.5851 39.0215 37.5719 38.9825 37.5555C38.9759 37.5555 38.9694 37.5522 38.9629 37.5489L38.9466 37.5423C38.9206 37.5324 38.8945 37.5258 38.8685 37.516C38.8294 37.5028 38.7871 37.4929 38.748 37.4831C38.7284 37.4798 38.7089 37.4732 38.6926 37.4699C38.6828 37.4699 38.6763 37.4666 38.6666 37.4633C38.6535 37.4633 38.6405 37.4567 38.6307 37.4534C38.5884 37.4436 38.5461 37.437 38.5037 37.4337C38.4777 37.4304 38.4516 37.4271 38.4288 37.4271C38.419 37.4271 38.4093 37.4271 38.4028 37.4271C38.393 37.4271 38.3865 37.4271 38.3767 37.4271C38.3311 37.4271 38.2855 37.4238 38.2399 37.4238C38.2204 37.4238 38.2008 37.4238 38.1813 37.4238C38.165 37.4238 38.152 37.4238 38.1357 37.4238C38.1194 37.4238 38.1031 37.4238 38.0901 37.4238C38.0315 37.4304 37.9761 37.437 37.924 37.4469C37.924 37.4469 37.9012 37.4534 37.8882 37.4567C37.8328 37.4699 37.7775 37.4831 37.7221 37.5028C37.7156 37.5028 37.7091 37.5094 37.7026 37.5094C37.6928 37.5127 37.6863 37.516 37.6765 37.5193C37.6114 37.5456 37.5463 37.5752 37.4876 37.6114L36.8461 37.9866C36.9079 37.9504 36.9698 37.9208 37.0382 37.8944C37.048 37.8911 37.0545 37.8878 37.0643 37.8846C37.1229 37.8615 37.1848 37.8451 37.2466 37.8319C37.2597 37.8319 37.2694 37.8253 37.2825 37.822C37.3541 37.8089 37.4258 37.799 37.5007 37.7957C37.5169 37.7957 37.53 37.7957 37.5463 37.7957C37.6179 37.7957 37.6928 37.7957 37.7677 37.799C37.7775 37.799 37.7873 37.799 37.7938 37.799C37.8719 37.8056 37.9533 37.8187 38.0348 37.8352C38.0445 37.8352 38.051 37.8385 38.0608 37.8418C38.1455 37.8615 38.2302 37.8846 38.3181 37.9142L38.3344 37.9208C38.4256 37.9537 38.5167 37.9899 38.6112 38.0326L38.6307 38.0425C38.7252 38.0853 38.8229 38.138 38.9173 38.1939C39.015 38.2498 39.1127 38.3124 39.2072 38.3815L39.2234 38.3946C39.3114 38.4572 39.3993 38.523 39.4872 38.5954C39.497 38.602 39.5068 38.6118 39.5165 38.6184C39.6012 38.6875 39.6826 38.7599 39.7641 38.8356C39.7738 38.8455 39.7836 38.8521 39.7934 38.8619C39.8748 38.9409 39.9562 39.0199 40.0344 39.1055C40.0409 39.1121 40.0474 39.1186 40.0539 39.1285C40.1386 39.2207 40.22 39.3128 40.2982 39.4082C40.3796 39.5103 40.4577 39.6123 40.5359 39.7176C40.6043 39.813 40.6727 39.9117 40.7378 40.0105C40.7769 40.073 40.816 40.1355 40.855 40.1981C40.8876 40.2507 40.9202 40.3034 40.9527 40.356C40.9658 40.3823 40.9821 40.4054 40.9951 40.4317C41.0472 40.5206 41.096 40.6127 41.1416 40.7049C41.1481 40.7147 41.1514 40.7246 41.1579 40.7345C41.2133 40.8464 41.2654 40.9583 41.3175 41.0734L41.324 41.0899C41.3729 41.2018 41.4185 41.3137 41.4575 41.4289L41.4673 41.4519C41.5096 41.5671 41.5487 41.6855 41.5845 41.8007L41.5911 41.8205C41.6236 41.9324 41.6529 42.0442 41.679 42.1561L41.6855 42.189C41.7116 42.3042 41.7344 42.4194 41.7539 42.5346V42.5412C41.7734 42.6564 41.7865 42.7715 41.7962 42.8867V42.913C41.806 43.0282 41.8125 43.1401 41.8125 43.252C41.8125 43.3639 41.806 43.4692 41.7962 43.5745C41.7962 43.5844 41.7962 43.5943 41.7962 43.6008C41.7865 43.6963 41.7734 43.7851 41.7571 43.874C41.7571 43.8872 41.7539 43.897 41.7506 43.9102C41.7343 43.9958 41.7116 44.0747 41.6888 44.1537C41.6855 44.1669 41.679 44.1833 41.6757 44.1965C41.6529 44.2689 41.6236 44.338 41.5943 44.4071C41.5911 44.4137 41.5878 44.4236 41.5845 44.4301C41.5487 44.5058 41.5096 44.5782 41.4673 44.6441C41.4608 44.6539 41.4543 44.6605 41.4478 44.6704C41.4119 44.723 41.3761 44.7724 41.3338 44.8218C41.3208 44.8382 41.3045 44.8547 41.2882 44.8711C41.2524 44.9073 41.2165 44.9435 41.1807 44.9764C41.1644 44.9896 41.1514 45.0061 41.1351 45.0159C41.083 45.0587 41.0277 45.0982 40.969 45.1344L41.6106 44.7592C41.6692 44.7263 41.7246 44.6835 41.7767 44.6408C41.793 44.6276 41.8093 44.6144 41.8223 44.598C41.8614 44.5651 41.8972 44.5289 41.9298 44.4927C41.946 44.4762 41.9591 44.4598 41.9753 44.4433C42.0144 44.3972 42.0535 44.3479 42.0893 44.2919C42.0958 44.2821 42.1024 44.2755 42.1089 44.2656V44.259C42.1512 44.1965 42.1903 44.1307 42.2229 44.0583V44.0517C42.2229 44.0517 42.2326 44.0352 42.2359 44.0287C42.2554 43.9826 42.275 43.9398 42.2945 43.8904C42.3043 43.8674 42.3108 43.8411 42.3173 43.818C42.3206 43.8049 42.3271 43.7884 42.3303 43.7753C42.3336 43.7621 42.3401 43.7489 42.3434 43.7358C42.3564 43.6864 42.3694 43.637 42.3824 43.5877C42.3857 43.5712 42.3889 43.5515 42.3922 43.5317C42.3922 43.5219 42.3955 43.5087 42.3987 43.4955C42.402 43.4791 42.4052 43.4593 42.4085 43.4429C42.415 43.3968 42.4248 43.3507 42.428 43.3014C42.428 43.275 42.4345 43.2487 42.4378 43.2224C42.4378 43.2125 42.4378 43.2026 42.4378 43.1961C42.4378 43.1862 42.4378 43.173 42.4411 43.1632C42.4443 43.1171 42.4476 43.071 42.4508 43.0249C42.4508 42.9789 42.4508 42.9328 42.4541 42.8834V42.8736C42.4541 42.8308 42.4541 42.7847 42.4541 42.7419L42.4476 42.7386Z" fill="url(#paint66_linear_101_116)"/>
<path style="mix-blend-mode:overlay" d="M40.0604 39.9906L37.4258 42.6496C37.1457 42.1988 36.9275 41.7018 36.7972 41.2082L38.9825 39C39.3733 39.2435 39.7413 39.5858 40.0572 39.9939L40.0604 39.9906Z" fill="url(#paint67_linear_101_116)"/>
<path style="mix-blend-mode:overlay" d="M41.0243 41.9391L38.8586 44.1275C38.4613 43.8906 38.0933 43.5483 37.7742 43.1435L40.4023 40.4878C40.6824 40.9419 40.8973 41.4454 41.0243 41.9391Z" fill="url(#paint68_linear_101_116)"/>
<path d="M48.163 33.7641C47.935 33.2113 47.7005 32.6847 47.4595 32.1911C45.5283 28.1926 43.3691 25.3658 42.6559 24.7734C42.5159 24.6582 42.3107 24.6582 42.1707 24.7734C41.4574 25.3658 39.3015 28.1926 37.3703 32.1911C37.1358 32.6781 36.9013 33.1981 36.6766 33.7444C40.0636 35.2615 44.7825 35.2681 48.163 33.7641Z" fill="url(#paint69_linear_101_116)"/>
<g style="mix-blend-mode:multiply" opacity="0.53">
<path d="M42.5224 24.7012C41.9069 26.2578 40.588 29.8713 39.5621 34.6266C38.5395 34.4357 37.5592 34.1428 36.6702 33.7446C36.7451 33.5669 36.82 33.3892 36.8949 33.2148C36.9926 32.991 37.0903 32.7738 37.188 32.5599C37.2499 32.4349 37.3085 32.3131 37.3638 32.188C39.2983 28.1896 41.451 25.3627 42.1674 24.7704C42.2489 24.698 42.3596 24.6749 42.4638 24.6881C42.4833 24.6881 42.4996 24.6947 42.5192 24.7012H42.5224Z" fill="#0031BA"/>
</g>
<path d="M50.8791 48.5802C50.8954 48.2281 50.9052 47.8726 50.9117 47.5205C48.5767 48.804 45.5284 49.5115 42.2717 49.5115C39.015 49.5115 36.2208 48.8632 33.9183 47.6818C33.9248 48.0339 33.9411 48.3827 33.9607 48.7316C38.9173 51.0516 46.0365 51.0023 50.8824 48.5802H50.8791Z" fill="url(#paint70_linear_101_116)"/>
<path d="M50.8791 46.316C50.8954 45.9639 50.9052 45.6085 50.9117 45.2563C48.5767 46.5398 45.5284 47.2473 42.2717 47.2473C39.015 47.2473 36.2208 46.599 33.9183 45.4176C33.9248 45.7697 33.9411 46.1186 33.9607 46.4674C38.9173 48.7875 46.0365 48.7381 50.8824 46.316H50.8791Z" fill="url(#paint71_linear_101_116)"/>
<g style="mix-blend-mode:multiply" opacity="0.53">
<g style="mix-blend-mode:multiply" opacity="0.4">
<path d="M38.2594 50.0741C36.7287 49.7944 35.2697 49.3468 33.9605 48.7314C33.9378 48.3958 33.928 48.0535 33.9182 47.7146V47.6816C35.1818 48.3299 36.6375 48.8203 38.2073 49.1263C38.2235 49.4423 38.2366 49.7582 38.2594 50.0741Z" fill="#0031BA"/>
</g>
<g style="mix-blend-mode:multiply" opacity="0.4">
<path d="M38.1682 47.7969C36.6734 47.5172 35.2437 47.0729 33.9573 46.4707C33.9476 46.3391 33.9411 46.2041 33.9378 46.0692C33.9378 46.0692 33.9378 46.0626 33.9378 46.0593C33.9248 45.8454 33.9183 45.6315 33.9117 45.4209L33.9671 45.4472C35.2046 46.0758 36.6278 46.5497 38.1617 46.8524C38.1617 47.1684 38.1617 47.481 38.1617 47.7969H38.1682Z" fill="#0031BA"/>
</g>
</g>
</g>
<defs>
<linearGradient id="paint0_linear_101_116" x1="37.2435" y1="67.644" x2="62.5197" y2="18.6723" gradientUnits="userSpaceOnUse">
<stop stop-color="white" stop-opacity="0"/>
<stop offset="1" stop-color="white"/>
</linearGradient>
<linearGradient id="paint1_linear_101_116" x1="28.1898" y1="76.8387" x2="28.1898" y2="45.9371" gradientUnits="userSpaceOnUse">
<stop stop-color="#00EAF9"/>
<stop offset="1" stop-color="#00BFF9"/>
</linearGradient>
<linearGradient id="paint2_linear_101_116" x1="19.286" y1="58.992" x2="25.3011" y2="58.992" gradientUnits="userSpaceOnUse">
<stop stop-color="#006EE6"/>
<stop offset="0.98" stop-color="#00BFF9"/>
</linearGradient>
<linearGradient id="paint3_linear_101_116" x1="19.286" y1="44.3936" x2="31.0817" y2="44.3936" gradientUnits="userSpaceOnUse">
<stop stop-color="#0031BA"/>
<stop offset="1" stop-color="#0089F9"/>
</linearGradient>
<linearGradient id="paint4_linear_101_116" x1="19.5563" y1="79.8793" x2="19.5563" y2="58.1001" gradientUnits="userSpaceOnUse">
<stop stop-color="#00EAF9"/>
<stop offset="1" stop-color="#00BFF9"/>
</linearGradient>
<linearGradient id="paint5_linear_101_116" x1="10.6526" y1="68.4893" x2="16.6677" y2="68.4893" gradientUnits="userSpaceOnUse">
<stop stop-color="#006EE6"/>
<stop offset="0.98" stop-color="#00BFF9"/>
</linearGradient>
<linearGradient id="paint6_linear_101_116" x1="10.6526" y1="58.3534" x2="22.4483" y2="58.3534" gradientUnits="userSpaceOnUse">
<stop stop-color="#0031BA"/>
<stop offset="1" stop-color="#0089F9"/>
</linearGradient>
<linearGradient id="paint7_linear_101_116" x1="10.5939" y1="85.3522" x2="10.5939" y2="71.3691" gradientUnits="userSpaceOnUse">
<stop stop-color="#00EAF9"/>
<stop offset="1" stop-color="#00BFF9"/>
</linearGradient>
<linearGradient id="paint8_linear_101_116" x1="1.69019" y1="77.7698" x2="7.70202" y2="77.7698" gradientUnits="userSpaceOnUse">
<stop stop-color="#006EE6"/>
<stop offset="0.98" stop-color="#00BFF9"/>
</linearGradient>
<linearGradient id="paint9_linear_101_116" x1="1.69019" y1="71.6685" x2="13.4859" y2="71.6685" gradientUnits="userSpaceOnUse">
<stop stop-color="#0031BA"/>
<stop offset="1" stop-color="#0089F9"/>
</linearGradient>
<linearGradient id="paint10_linear_101_116" x1="54.4353" y1="37.6145" x2="66.1594" y2="26.0872" gradientUnits="userSpaceOnUse">
<stop offset="0.04" stop-color="#FFFDF5"/>
<stop offset="1" stop-color="#EFEBDA"/>
</linearGradient>
<linearGradient id="paint11_linear_101_116" x1="54.4354" y1="37.6143" x2="66.1594" y2="26.0871" gradientUnits="userSpaceOnUse">
<stop offset="0.04" stop-color="#FFFDF5"/>
<stop offset="1" stop-color="#EFEBDA"/>
</linearGradient>
<linearGradient id="paint12_linear_101_116" x1="53.2142" y1="40.8987" x2="65.8807" y2="25.4986" gradientUnits="userSpaceOnUse">
<stop stop-color="#0031BA"/>
<stop offset="1" stop-color="#0089F9"/>
</linearGradient>
<linearGradient id="paint13_linear_101_116" x1="53.2141" y1="40.8988" x2="65.8807" y2="25.4987" gradientUnits="userSpaceOnUse">
<stop stop-color="#0031BA"/>
<stop offset="1" stop-color="#0089F9"/>
</linearGradient>
<linearGradient id="paint14_linear_101_116" x1="53.2141" y1="40.8988" x2="65.8807" y2="25.4987" gradientUnits="userSpaceOnUse">
<stop stop-color="#0031BA"/>
<stop offset="1" stop-color="#0089F9"/>
</linearGradient>
<linearGradient id="paint15_linear_101_116" x1="63.5867" y1="29.1469" x2="70.6093" y2="20.3856" gradientUnits="userSpaceOnUse">
<stop stop-color="#0031BA"/>
<stop offset="1" stop-color="#0089F9"/>
</linearGradient>
<linearGradient id="paint16_linear_101_116" x1="-3.4" y1="59.1269" x2="16.8614" y2="39.9452" gradientUnits="userSpaceOnUse">
<stop stop-color="#006EE6"/>
<stop offset="0.98" stop-color="#00BFF9"/>
</linearGradient>
<linearGradient id="paint17_linear_101_116" x1="0" y1="33.8593" x2="8.94611" y2="33.8593" gradientUnits="userSpaceOnUse">
<stop stop-color="#006EE6"/>
<stop offset="0.98" stop-color="#00BFF9"/>
</linearGradient>
<linearGradient id="paint18_linear_101_116" x1="2.60858" y1="36.6433" x2="11.5506" y2="25.5388" gradientUnits="userSpaceOnUse">
<stop stop-color="#0031BA"/>
<stop offset="1" stop-color="#0089F9"/>
</linearGradient>
<linearGradient id="paint19_linear_101_116" x1="81.5341" y1="79.6952" x2="61.5242" y2="56.5925" gradientUnits="userSpaceOnUse">
<stop stop-color="#006EE6"/>
<stop offset="0.98" stop-color="#00BFF9"/>
</linearGradient>
<linearGradient id="paint20_linear_101_116" x1="79.1144" y1="81.7946" x2="59.1012" y2="58.6886" gradientUnits="userSpaceOnUse">
<stop stop-color="#0031BA"/>
<stop offset="1" stop-color="#0089F9"/>
</linearGradient>
<linearGradient id="paint21_linear_101_116" x1="81.2639" y1="79.9319" x2="61.2539" y2="56.8258" gradientUnits="userSpaceOnUse">
<stop stop-color="#0031BA"/>
<stop offset="1" stop-color="#0089F9"/>
</linearGradient>
<linearGradient id="paint22_linear_101_116" x1="84.3838" y1="77.2302" x2="64.3705" y2="54.1242" gradientUnits="userSpaceOnUse">
<stop stop-color="#0031BA"/>
<stop offset="1" stop-color="#0089F9"/>
</linearGradient>
<linearGradient id="paint23_linear_101_116" x1="85.3542" y1="76.3877" x2="65.3442" y2="53.2816" gradientUnits="userSpaceOnUse">
<stop stop-color="#0031BA"/>
<stop offset="1" stop-color="#0089F9"/>
</linearGradient>
<linearGradient id="paint24_linear_101_116" x1="80.8209" y1="80.3136" x2="60.811" y2="57.2109" gradientUnits="userSpaceOnUse">
<stop stop-color="#0031BA"/>
<stop offset="1" stop-color="#0089F9"/>
</linearGradient>
<linearGradient id="paint25_linear_101_116" x1="81.5472" y1="82.4889" x2="70.3562" y2="66.3509" gradientUnits="userSpaceOnUse">
<stop stop-color="#006EE6"/>
<stop offset="0.98" stop-color="#00BFF9"/>
</linearGradient>
<linearGradient id="paint26_linear_101_116" x1="65.899" y1="60.7528" x2="53.7105" y2="46.6818" gradientUnits="userSpaceOnUse">
<stop stop-color="#006EE6"/>
<stop offset="0.98" stop-color="#00BFF9"/>
</linearGradient>
<linearGradient id="paint27_linear_101_116" x1="64.4237" y1="62.0297" x2="52.2351" y2="47.9586" gradientUnits="userSpaceOnUse">
<stop stop-color="#0031BA"/>
<stop offset="1" stop-color="#0089F9"/>
</linearGradient>
<linearGradient id="paint28_linear_101_116" x1="65.7329" y1="60.8943" x2="53.5444" y2="46.8266" gradientUnits="userSpaceOnUse">
<stop stop-color="#0031BA"/>
<stop offset="1" stop-color="#0089F9"/>
</linearGradient>
<linearGradient id="paint29_linear_101_116" x1="67.6315" y1="59.252" x2="55.4462" y2="45.1809" gradientUnits="userSpaceOnUse">
<stop stop-color="#0031BA"/>
<stop offset="1" stop-color="#0089F9"/>
</linearGradient>
<linearGradient id="paint30_linear_101_116" x1="68.2242" y1="58.7387" x2="56.0389" y2="44.6677" gradientUnits="userSpaceOnUse">
<stop stop-color="#0031BA"/>
<stop offset="1" stop-color="#0089F9"/>
</linearGradient>
<linearGradient id="paint31_linear_101_116" x1="65.4626" y1="61.1312" x2="53.2773" y2="47.0602" gradientUnits="userSpaceOnUse">
<stop stop-color="#0031BA"/>
<stop offset="1" stop-color="#0089F9"/>
</linearGradient>
<linearGradient id="paint32_linear_101_116" x1="64.0752" y1="61.3684" x2="57.8395" y2="49.8815" gradientUnits="userSpaceOnUse">
<stop stop-color="#006EE6"/>
<stop offset="0.98" stop-color="#00BFF9"/>
</linearGradient>
<linearGradient id="paint33_linear_101_116" x1="64.6973" y1="99.7899" x2="26.0686" y2="75.0716" gradientUnits="userSpaceOnUse">
<stop stop-color="#006EE6"/>
<stop offset="0.98" stop-color="#00BFF9"/>
</linearGradient>
<linearGradient id="paint34_linear_101_116" x1="42.2001" y1="116.451" x2="42.2001" y2="82.7593" gradientUnits="userSpaceOnUse">
<stop stop-color="#0089F9"/>
<stop offset="1" stop-color="#0031BA"/>
</linearGradient>
<linearGradient id="paint35_linear_101_116" x1="59.366" y1="92.3425" x2="30.8492" y2="74.0931" gradientUnits="userSpaceOnUse">
<stop stop-color="#006EE6"/>
<stop offset="0.98" stop-color="#00BFF9"/>
</linearGradient>
<linearGradient id="paint36_linear_101_116" x1="42.757" y1="104.641" x2="42.757" y2="79.7681" gradientUnits="userSpaceOnUse">
<stop stop-color="#0089F9"/>
<stop offset="1" stop-color="#0031BA"/>
</linearGradient>
<linearGradient id="paint37_linear_101_116" x1="42.7636" y1="81.7457" x2="42.7636" y2="19.8275" gradientUnits="userSpaceOnUse">
<stop stop-color="white"/>
<stop offset="1" stop-color="white" stop-opacity="0"/>
</linearGradient>
<radialGradient id="paint38_radial_101_116" cx="0" cy="0" r="1" gradientUnits="userSpaceOnUse" gradientTransform="translate(52.1461 71.5079) scale(1.46225 1.47761)">
<stop stop-color="white"/>
<stop offset="1"/>
</radialGradient>
<radialGradient id="paint39_radial_101_116" cx="0" cy="0" r="1" gradientUnits="userSpaceOnUse" gradientTransform="translate(54.8068 60.1115) scale(0.69693 0.704252)">
<stop stop-color="white"/>
<stop offset="1"/>
</radialGradient>
<radialGradient id="paint40_radial_101_116" cx="0" cy="0" r="1" gradientUnits="userSpaceOnUse" gradientTransform="translate(30.8539 38.4243) scale(1.30267 1.31636)">
<stop stop-color="white"/>
<stop offset="1"/>
</radialGradient>
<radialGradient id="paint41_radial_101_116" cx="0" cy="0" r="1" gradientUnits="userSpaceOnUse" gradientTransform="translate(34.4101 29.8617) scale(0.478731 0.483762)">
<stop stop-color="white"/>
<stop offset="1"/>
</radialGradient>
<radialGradient id="paint42_radial_101_116" cx="0" cy="0" r="1" gradientUnits="userSpaceOnUse" gradientTransform="translate(48.72 26.7845) scale(0.693672 0.700962)">
<stop stop-color="white"/>
<stop offset="1"/>
</radialGradient>
<radialGradient id="paint43_radial_101_116" cx="0" cy="0" r="1" gradientUnits="userSpaceOnUse" gradientTransform="translate(51.892 34.8636) scale(0.693672 0.700962)">
<stop stop-color="white"/>
<stop offset="1"/>
</radialGradient>
<radialGradient id="paint44_radial_101_116" cx="0" cy="0" r="1" gradientUnits="userSpaceOnUse" gradientTransform="translate(34.9963 68.5163) scale(0.69693 0.704252)">
<stop stop-color="white"/>
<stop offset="1"/>
</radialGradient>
<linearGradient id="paint45_linear_101_116" x1="42.5257" y1="77.0037" x2="42.5257" y2="61.1252" gradientUnits="userSpaceOnUse">
<stop stop-color="#FFFB03"/>
<stop offset="1" stop-color="#FF7006"/>
</linearGradient>
<linearGradient id="paint46_linear_101_116" x1="42.4149" y1="60.5722" x2="42.4149" y2="58.4627" gradientUnits="userSpaceOnUse">
<stop offset="0.04" stop-color="#FFFDF5"/>
<stop offset="1" stop-color="#EFEBDA"/>
</linearGradient>
<radialGradient id="paint47_radial_101_116" cx="0" cy="0" r="1" gradientUnits="userSpaceOnUse" gradientTransform="translate(42.3563 57.7463) scale(4.35093 1.14312)">
<stop offset="0.01" stop-color="#AFA477"/>
<stop offset="0.15" stop-color="#B2A77C"/>
<stop offset="0.33" stop-color="#BCB38D"/>
<stop offset="0.54" stop-color="#CCC5A8"/>
<stop offset="0.77" stop-color="#E2DECF"/>
<stop offset="1" stop-color="white"/>
</radialGradient>
<linearGradient id="paint48_linear_101_116" x1="52.3446" y1="56.8568" x2="51.1552" y2="54.3258" gradientUnits="userSpaceOnUse">
<stop stop-color="#0089F9"/>
<stop offset="1" stop-color="#0031BA"/>
</linearGradient>
<linearGradient id="paint49_linear_101_116" x1="54.8001" y1="57.4657" x2="48.0949" y2="50.2989" gradientUnits="userSpaceOnUse">
<stop offset="0.02" stop-color="#00BFF9"/>
<stop offset="1" stop-color="#006EE6"/>
</linearGradient>
<linearGradient id="paint50_linear_101_116" x1="48.277" y1="50.0677" x2="51.1461" y2="50.0677" gradientUnits="userSpaceOnUse">
<stop offset="0.07" stop-color="#BFB89D"/>
<stop offset="1" stop-color="#EFEBDA"/>
</linearGradient>
<linearGradient id="paint51_linear_101_116" x1="48.277" y1="52.0158" x2="49.0358" y2="52.0158" gradientUnits="userSpaceOnUse">
<stop offset="0.04" stop-color="#FFFDF5"/>
<stop offset="1" stop-color="#EFEBDA"/>
</linearGradient>
<linearGradient id="paint52_linear_101_116" x1="31.7494" y1="56.7844" x2="32.5255" y2="54.7165" gradientUnits="userSpaceOnUse">
<stop stop-color="#0089F9"/>
<stop offset="1" stop-color="#0031BA"/>
</linearGradient>
<linearGradient id="paint53_linear_101_116" x1="29.7758" y1="57.1004" x2="35.067" y2="50.8594" gradientUnits="userSpaceOnUse">
<stop offset="0.02" stop-color="#00BFF9"/>
<stop offset="1" stop-color="#006EE6"/>
</linearGradient>
<linearGradient id="paint54_linear_101_116" x1="35.5923" y1="52.0158" x2="34.8302" y2="52.0158" gradientUnits="userSpaceOnUse">
<stop offset="0.04" stop-color="#FFFDF5"/>
<stop offset="1" stop-color="#EFEBDA"/>
</linearGradient>
<linearGradient id="paint55_linear_101_116" x1="32.2021" y1="37.5159" x2="50.8982" y2="46.0519" gradientUnits="userSpaceOnUse">
<stop offset="0.04" stop-color="#FFFDF5"/>
<stop offset="1" stop-color="#EFEBDA"/>
</linearGradient>
<linearGradient id="paint56_linear_101_116" x1="36.3837" y1="29.7859" x2="48.2054" y2="29.7859" gradientUnits="userSpaceOnUse">
<stop stop-color="#0031BA"/>
<stop offset="1" stop-color="#0089F9"/>
</linearGradient>
<linearGradient id="paint57_linear_101_116" x1="43.4571" y1="32.8298" x2="38.0318" y2="27.8644" gradientUnits="userSpaceOnUse">
<stop stop-color="#0031BA"/>
<stop offset="1" stop-color="#0089F9"/>
</linearGradient>
<linearGradient id="paint58_linear_101_116" x1="31.1339" y1="64.261" x2="41.4567" y2="47.5438" gradientUnits="userSpaceOnUse">
<stop stop-color="#0031BA"/>
<stop offset="1" stop-color="#0089F9"/>
</linearGradient>
<linearGradient id="paint59_linear_101_116" x1="38.2431" y1="58.7916" x2="32.4528" y2="58.7916" gradientUnits="userSpaceOnUse">
<stop stop-color="#006EE6"/>
<stop offset="0.98" stop-color="#00BFF9"/>
</linearGradient>
<linearGradient id="paint60_linear_101_116" x1="53.0871" y1="64.261" x2="42.7675" y2="47.5438" gradientUnits="userSpaceOnUse">
<stop stop-color="#0031BA"/>
<stop offset="1" stop-color="#0089F9"/>
</linearGradient>
<linearGradient id="paint61_linear_101_116" x1="45.9778" y1="58.7916" x2="51.7682" y2="58.7916" gradientUnits="userSpaceOnUse">
<stop stop-color="#006EE6"/>
<stop offset="0.98" stop-color="#00BFF9"/>
</linearGradient>
<linearGradient id="paint62_linear_101_116" x1="36.0026" y1="41.5507" x2="41.8092" y2="41.5507" gradientUnits="userSpaceOnUse">
<stop stop-color="#006EE6"/>
<stop offset="0.98" stop-color="#00BFF9"/>
</linearGradient>
<linearGradient id="paint63_linear_101_116" x1="36.8266" y1="43.8442" x2="40.5847" y2="39.7862" gradientUnits="userSpaceOnUse">
<stop stop-color="#0031BA"/>
<stop offset="1" stop-color="#0089F9"/>
</linearGradient>
<linearGradient id="paint64_linear_101_116" x1="36.2534" y1="42.9952" x2="39.8402" y2="39.1229" gradientUnits="userSpaceOnUse">
<stop stop-color="#0031BA"/>
<stop offset="1" stop-color="#0089F9"/>
</linearGradient>
<linearGradient id="paint65_linear_101_116" x1="37.618" y1="44.5088" x2="41.1949" y2="40.6463" gradientUnits="userSpaceOnUse">
<stop stop-color="#0031BA"/>
<stop offset="1" stop-color="#0089F9"/>
</linearGradient>
<linearGradient id="paint66_linear_101_116" x1="43.2813" y1="46.3586" x2="38.4336" y2="37.7202" gradientUnits="userSpaceOnUse">
<stop stop-color="#0031BA"/>
<stop offset="1" stop-color="#0089F9"/>
</linearGradient>
<linearGradient id="paint67_linear_101_116" x1="37.3476" y1="41.5735" x2="43.0584" y2="36.6732" gradientUnits="userSpaceOnUse">
<stop stop-color="white" stop-opacity="0"/>
<stop offset="1" stop-color="white"/>
</linearGradient>
<linearGradient id="paint68_linear_101_116" x1="38.6893" y1="43.137" x2="44.3969" y2="38.2334" gradientUnits="userSpaceOnUse">
<stop stop-color="white" stop-opacity="0"/>
<stop offset="1" stop-color="white"/>
</linearGradient>
<linearGradient id="paint69_linear_101_116" x1="49.1465" y1="38.1147" x2="37.1517" y2="27.1395" gradientUnits="userSpaceOnUse">
<stop stop-color="#0031BA"/>
<stop offset="1" stop-color="#0089F9"/>
</linearGradient>
<linearGradient id="paint70_linear_101_116" x1="33.9183" y1="48.9784" x2="50.9117" y2="48.9784" gradientUnits="userSpaceOnUse">
<stop stop-color="#006EE6"/>
<stop offset="0.98" stop-color="#00BFF9"/>
</linearGradient>
<linearGradient id="paint71_linear_101_116" x1="33.9183" y1="46.7142" x2="50.9117" y2="46.7142" gradientUnits="userSpaceOnUse">
<stop stop-color="#006EE6"/>
<stop offset="0.98" stop-color="#00BFF9"/>
</linearGradient>
<clipPath id="clip0_101_116">
<rect width="82" height="108" fill="white"/>
</clipPath>
</defs>
</svg>
