<svg width="92" height="125" viewBox="0 0 92 125" fill="none" xmlns="http://www.w3.org/2000/svg">
<path d="M46.1609 103.988L91.9765 77.6172V75.272L46.1609 101.643V103.988Z" fill="#3A2AD1"/>
<path d="M46 48.6821L0 75.2289L46 101.776L92 75.2289L46 48.6821Z" fill="#C8D5F5"/>
<path d="M46.1766 104L0.0981445 77.6328V75.2876L46.1766 101.659V104Z" fill="#7364FF"/>
<path d="M51.7171 32.7183C51.5484 33.7758 51.7563 35.0128 51.7563 35.9064C51.7602 39.9998 49.2882 43.4571 46.6866 46.4462C45.172 48.1866 48.4602 50.2743 49.9592 48.5495C54.1303 43.7537 56.7515 38.5989 55.3349 32.1212C55.0563 30.853 53.5652 30.3457 52.5921 31.0832C52.0663 31.4813 51.823 32.0666 51.7171 32.7183Z" fill="#1D5FFF"/>
<path d="M56.2649 22.8962C55.9627 22.5255 55.331 22.584 55.0171 22.8962C55.0014 22.9118 54.9896 22.9313 54.9739 22.9469C54.5266 22.7518 53.9341 22.9157 53.8516 23.4659C53.6947 23.1655 53.2042 23.1147 53.0629 23.5323C52.9727 23.8015 52.8785 23.9771 52.8824 24.2737C52.8903 24.5663 53.0119 24.8707 53.1336 25.1283C53.4122 25.7097 53.8399 26.1897 54.3892 26.5331C54.8287 26.8062 55.4055 26.5331 55.5468 26.0648C55.5546 26.0336 55.5585 26.0024 55.5664 25.9711C55.7979 26.0609 56.0412 26.1194 56.2884 26.1428C56.6572 26.1741 57.0614 25.8541 57.136 25.5029C57.3518 24.4844 56.8848 23.661 56.2609 22.8923L56.2649 22.8962Z" fill="#040E67"/>
<g style="mix-blend-mode:multiply">
<path d="M64.8151 70.3942C63.7792 73.4496 58.3249 75.0768 53.2395 74.1364C48.7153 73.2974 46.0823 70.679 46.9299 68.205C47.7735 65.7349 51.9093 63.9477 56.6102 64.2404C61.8996 64.5682 65.851 67.3426 64.8151 70.3942Z" fill="#C8D5F5"/>
</g>
<path d="M52.8746 43.0825L52.3881 44.2259C51.6739 45.9077 51.3796 47.734 51.5209 49.5563L52.6039 68.3727C53.577 68.8839 55.2054 68.6459 55.4762 68.3727C55.3624 63.4989 55.3585 58.6289 55.3742 53.7551C55.382 51.6947 55.9353 49.6812 56.0922 47.6364C56.1158 47.3515 56.002 43.703 55.7901 43.66L52.8746 43.0825Z" fill="#050E68"/>
<path d="M60.4674 22.8847C59.7729 21.2965 57.6422 20.9453 56.1158 21.0077C55.4644 21.035 54.3461 21.1989 53.9537 21.7804C53.4358 22.5491 53.5025 24.0788 54.4874 24.4066C54.9857 24.5743 55.5429 24.6524 56.0648 24.7265C56.3081 24.7617 56.6298 24.7382 56.8574 24.8436C57.1203 24.9646 57.2027 25.1948 57.2655 25.468C57.5009 26.5255 57.6893 27.7664 57.6893 27.7664L58.3838 26.6386C58.3838 26.6386 58.9135 26.6971 59.2235 27.0874C59.1019 27.5829 58.4427 28.0473 58.2583 28.5273C58.2583 28.5273 59.8239 28.5858 60.6244 26.6113C60.9304 25.7996 61.3935 25.0075 60.4674 22.8847Z" fill="#040E67"/>
<path d="M53.8673 32.9484C53.7418 32.6479 53.5338 32.328 53.6555 32.0977C54.0165 31.3953 54.4363 30.65 54.6443 29.8969C53.1532 29.2452 52.8314 28.1487 53.0394 26.5683C53.1767 25.5459 53.4122 23.0056 54.8993 22.9666C55.6135 22.951 56.6808 23.1812 57.1909 23.7158C57.6775 24.2309 57.701 25.0777 58.0973 25.6591C58.4701 26.2054 58.9253 25.425 59.2784 25.2298C59.8238 24.9216 60.5537 25.6318 60.5537 26.1703C60.5537 26.8922 59.9965 27.2785 59.3844 27.5204C59.3844 27.5634 59.3765 27.6024 59.349 27.6453C58.9802 28.2072 58.5329 28.7731 58.0228 29.2296C57.9168 29.6745 57.7716 30.1271 57.807 30.5368C57.8933 31.4656 58.2111 32.8274 58.9841 33.2762C58.988 33.2762 58.2268 33.5689 58.0542 33.5884C57.3322 33.6586 56.6298 33.4206 55.9156 33.4674C55.4369 33.5025 54.9582 33.8498 54.4873 33.6664C54.2401 33.5689 54.0008 33.2762 53.8634 32.9484H53.8673Z" fill="#F0A681"/>
<path d="M61.9231 45.4276C62.1743 44.4676 62.033 43.3438 62.0291 42.3916C62.0291 41.1078 61.9153 39.6913 61.6524 38.2787C61.6485 38.2475 61.6406 38.2163 61.6328 38.189C61.3032 34.2126 60.3732 31.1806 58.27 31.4772C58.2504 31.4576 58.2347 31.4381 58.215 31.4186C57.7716 30.9504 57.6775 31.7386 57.1595 31.8206C56.8888 31.8635 56.5788 31.8869 56.2766 31.8635V31.3328L54.6757 30.5445C53.5377 30.2948 52.7373 31.3562 52.1762 33.1122C52.0663 33.4049 51.9721 33.7014 51.8976 34.0175C51.1559 37.1354 50.9323 40.4874 50.9519 43.7847C50.9362 44.4754 50.9323 45.1466 50.9283 45.7866C52.7961 47.086 56.1118 47.7767 61.9231 45.4276Z" fill="#050E68"/>
<path d="M52.8393 67.6315C52.4587 67.8305 52.1369 68.1465 51.7328 68.4977C51.7328 68.4977 49.7551 69.6372 49.6963 69.7894C49.6374 69.9416 49.5471 70.402 49.6099 70.4879C49.6727 70.5737 50.3555 71.0342 51.3482 70.683C52.1369 70.402 52.8942 70.0352 53.6673 69.766C54.1303 69.606 55.2407 69.5865 55.488 69.0675C55.6135 68.8021 55.641 68.0061 55.4801 67.7485C55.225 67.3349 54.3461 67.4129 53.9341 67.3973C53.4828 67.3817 53.1454 67.4676 52.8432 67.6276L52.8393 67.6315Z" fill="#040E67"/>
<mask id="mask0_101_672" style="mask-type:luminance" maskUnits="userSpaceOnUse" x="50" y="30" width="13" height="17">
<path d="M61.9231 45.4276C62.1743 44.4676 62.033 43.3438 62.0291 42.3916C62.0291 41.1078 61.9153 39.6913 61.6524 38.2787C61.6485 38.2475 61.6406 38.2163 61.6328 38.189C61.3032 34.2126 60.3732 31.1806 58.27 31.4772C58.2504 31.4576 58.2347 31.4381 58.215 31.4186C57.7716 30.9504 57.6775 31.7386 57.1595 31.8206C56.8888 31.8635 56.5788 31.8869 56.2766 31.8635V31.3328L54.6757 30.5445C53.5377 30.2948 52.7373 31.3562 52.1762 33.1122C52.0663 33.4049 51.9721 33.7014 51.8976 34.0175C51.1559 37.1354 50.9323 40.4874 50.9519 43.7847C50.9362 44.4754 50.9323 45.1466 50.9283 45.7866C52.7961 47.086 56.1118 47.7767 61.9231 45.4276Z" fill="white"/>
</mask>
<g mask="url(#mask0_101_672)">
<path d="M57.3832 31.5476L52.5019 42.4426C52.5019 42.4426 52.4273 34.4275 54.0204 30.9155C55.6135 27.4035 58.066 29.5029 58.066 29.5029L57.3793 31.5515L57.3832 31.5476Z" fill="#286BF1"/>
</g>
<path d="M54.4285 30.4784L54.2676 30.8959L54.452 31.4227L54.8287 31.29L54.9739 31.2744L55.6096 31.6998C55.6096 31.6998 56.3159 31.7349 56.3747 31.7154C56.4336 31.692 57.1752 31.2198 57.1752 31.1964C57.1752 31.173 56.6023 29.9945 56.5356 29.9594C56.4689 29.9243 55.794 29.6082 55.6841 29.6316C55.5742 29.655 54.4324 30.4823 54.4324 30.4823L54.4285 30.4784Z" fill="#F0A681"/>
<path d="M54.5266 30.291C54.5266 30.291 54.0322 31.1144 54.9661 31.2783L53.4946 31.809L54.5266 30.291Z" fill="white"/>
<path d="M57.807 30.5405C57.807 30.5405 56.3041 31.7385 54.97 31.278L55.7822 33.077L58.4819 31.3912L57.807 30.5405Z" fill="white"/>
<path d="M57.0065 68.9737C57.2184 68.642 57.5166 68.8098 58.0541 68.7552C58.5289 68.7083 59.6237 69.4927 59.2745 68.0723C59.455 68.0801 59.3059 68.1464 59.3373 68.3454C59.3922 68.6771 59.714 70.0039 59.7179 70.2302C59.7297 71.6311 55.6056 75.3889 55.5978 72.2906C55.5978 72.0993 56.7082 70.1756 56.7475 69.918C56.826 69.4263 56.9044 69.1376 57.0104 68.9737H57.0065Z" fill="#040E67"/>
<path d="M55.0917 45.0649C55.1466 46.7195 55.2055 48.3779 55.2604 50.0325C55.3036 51.2968 55.3546 52.5611 55.3899 53.8254C55.5194 58.5159 56.2649 63.2258 56.8339 67.8734C56.8967 68.3923 56.9634 68.9113 57.0262 69.4303L59.5139 69.1689C59.51 68.685 59.5061 68.205 59.5022 67.7212C59.4551 63.1595 59.0862 58.391 59.5257 53.8488C59.8043 50.9612 59.9024 48.0345 60.0986 45.1391L55.0956 45.061L55.0917 45.0649Z" fill="#050E68"/>
<path d="M56.9869 21.987C56.6847 21.6163 56.053 21.6748 55.7391 21.987C55.7234 22.0026 55.7116 22.0221 55.6959 22.0377C55.2486 21.8426 54.66 22.0065 54.5737 22.5567C54.4167 22.2563 53.9262 22.2055 53.7849 22.6231C53.6947 22.8923 53.5966 23.0679 53.6044 23.3645C53.6123 23.6572 53.7339 23.9615 53.8556 24.2191C54.1381 24.8005 54.5619 25.2805 55.1112 25.6239C55.5507 25.897 56.1275 25.6239 56.2688 25.1556C56.2766 25.1244 56.2806 25.0932 56.2884 25.062C56.5199 25.1517 56.7632 25.2102 57.0143 25.2337C57.3832 25.2649 57.7873 24.9449 57.8619 24.5937C58.0777 23.5752 57.6108 22.7519 56.9869 21.9831V21.987Z" fill="#040E67"/>
<path d="M50.6264 40.5899L47.5312 42.585L54.713 53.6037L57.8081 51.6086L50.6264 40.5899Z" fill="#7EA8F2"/>
<path d="M57.7913 51.5694C58.1563 52.1313 57.756 53.0327 56.8967 53.5869C56.0374 54.141 55.0446 54.1332 54.6797 53.5752C54.3148 53.0132 54.715 52.1118 55.5743 51.5577C56.4337 51.0036 57.4264 51.0114 57.7913 51.5694Z" fill="#B9D4F5"/>
<path d="M38.3327 34.7904C37.2104 29.7604 39.3294 25.0114 43.0728 24.1842C46.8162 23.3569 49.092 26.7518 50.2143 31.7818L50.4733 31.8442C51.5955 36.8741 50.8853 41.5685 47.1419 42.3958C43.3984 43.223 39.4549 39.8164 38.3327 34.7904ZM53.1533 31.5125C51.8192 25.5421 47.1379 21.4994 42.6921 22.4828C38.7408 23.3569 34.9817 27.9225 35.4329 33.1202L36.2962 36.9873C38.1012 41.8846 43.5711 44.9751 47.5264 44.101C51.9683 43.1177 54.4913 37.4829 53.1533 31.5125Z" fill="#7EA8F2"/>
<path opacity="0.4" d="M45.9528 42.8484L49.3862 41.8417L51.0382 35.8167L49.4019 28.5195L45.894 24.6993L43.0256 23.8759C42.4527 23.712 40.887 24.8514 40.4593 25.1753C39.5882 25.8309 38.8859 26.6738 38.3012 27.5869C35.3504 32.1759 37.434 39.2467 42.1035 41.7831C43.2178 42.388 44.6658 42.8601 45.9528 42.8523V42.8484Z" fill="#B9D4F5"/>
<mask id="mask1_101_672" style="mask-type:luminance" maskUnits="userSpaceOnUse" x="36" y="23" width="16" height="20">
<path d="M45.9528 42.8484L49.3862 41.8417L51.0382 35.8167L49.4019 28.5195L45.894 24.6993L43.0256 23.8759C42.4527 23.712 40.887 24.8514 40.4593 25.1753C39.5882 25.8309 38.8859 26.6738 38.3012 27.5869C35.3504 32.1759 37.434 39.2467 42.1035 41.7831C43.2178 42.388 44.6658 42.8601 45.9528 42.8523V42.8484Z" fill="white"/>
</mask>
<g mask="url(#mask1_101_672)">
<path opacity="0.6" d="M39.0084 24.5297L37.9547 25.0063L47.3229 45.4871L48.3765 45.0105L39.0084 24.5297Z" fill="white"/>
<path opacity="0.9" d="M42.7559 22.2358L40.188 23.3979L49.5598 43.8771L52.1276 42.7149L42.7559 22.2358Z" fill="white"/>
</g>
<path d="M34.7776 32.8899C34.7776 32.929 34.7815 32.968 34.7854 33.007C34.7893 33.128 34.7972 33.249 34.805 33.3699C34.809 33.4519 34.8168 33.5377 34.8207 33.6197C34.8207 33.6275 34.8207 33.6314 34.8207 33.6392C34.8757 34.2713 34.9698 34.9152 35.115 35.5591C35.2641 36.238 35.4643 36.8819 35.6997 37.5024H35.684C37.489 42.4035 41.6326 45.5058 45.584 44.6317C50.0259 43.6483 52.549 38.0136 51.2148 32.0432C49.8807 26.0728 45.1995 22.0301 40.7537 23.0096C36.9946 23.8407 34.6128 28.0044 34.7776 32.8821V32.8899ZM41.1343 24.7226C44.8777 23.8954 48.8212 27.302 49.9435 32.3319C51.0696 37.3619 48.9468 42.107 45.2034 42.9342C41.46 43.7615 37.5165 40.3549 36.3942 35.3288C35.272 30.2989 37.3909 25.5499 41.1343 24.7226Z" fill="#B9D4F5"/>
<path d="M58.89 48.3191C58.7527 48.1045 58.5369 47.9952 58.3015 47.9601C58.0032 47.7572 57.603 47.7064 57.2263 47.9718C56.4337 48.5376 55.4566 48.7913 54.7268 49.4546C53.836 50.2624 54.095 51.8818 55.4645 52.1823C56.5749 52.4281 57.6187 51.5306 58.223 50.8243C58.3603 50.6643 58.4859 50.4848 58.584 50.3053C58.5134 50.4302 58.7606 49.798 58.635 50.1414C58.6782 50.0205 58.7292 49.8995 58.7762 49.7824C58.9803 49.2751 59.2157 48.8459 58.8822 48.3191H58.89Z" fill="#F0A681"/>
<path d="M58.5329 34.443C60.644 39.6954 58.8312 44.2336 56.0334 48.8031C54.8288 50.7698 58.4191 52.2878 59.612 50.3406C62.9277 44.9243 64.6582 39.4066 62.1783 33.2528C61.3111 31.0988 57.6658 32.289 58.5329 34.443Z" fill="#1D5FFF"/>
<path d="M47.597 48.1632C48.1189 48.7993 49.1705 48.7251 50.2339 48.1866C51.5248 47.5349 52.5882 45.3341 50.4693 44.8307C49.2372 44.538 47.5774 45.7555 47.2281 46.9184C47.2399 46.9184 47.2478 46.8286 47.2595 46.8325C47.2321 47.4374 47.3616 47.8744 47.597 48.1593V48.1632Z" fill="#F0A681"/>
<path d="M41.1343 88.7229L23.41 79.2054V44.6123L41.1343 54.1337V88.7229Z" fill="#E8F4FD"/>
<mask id="mask2_101_672" style="mask-type:luminance" maskUnits="userSpaceOnUse" x="27" y="50" width="11" height="19">
<path d="M37.5401 62.3167C37.5401 66.7613 35.1818 69.0987 32.2742 67.5378C29.3666 65.977 27.0083 61.1031 27.0083 56.6585C27.0083 52.2139 29.3666 49.8764 32.2742 51.4373C35.1818 52.9982 37.5401 57.8721 37.5401 62.3167Z" fill="white"/>
</mask>
<g mask="url(#mask2_101_672)">
<path opacity="0.3" d="M37.5401 62.3167C37.5401 66.7613 35.1818 69.0987 32.2742 67.5378C29.3666 65.977 27.0083 61.1031 27.0083 56.6585C27.0083 52.2139 29.3666 49.8764 32.2742 51.4373C35.1818 52.9982 37.5401 57.8721 37.5401 62.3167Z" fill="#0E94FD"/>
<path d="M34.1224 58.7424C34.1224 60.3033 33.2944 61.1267 32.2703 60.5765C31.2462 60.0263 30.4182 58.3171 30.4182 56.7523C30.4182 55.1875 31.2462 54.3681 32.2703 54.9183C33.2905 55.4685 34.1224 57.1777 34.1224 58.7385V58.7424Z" fill="#0E94FD"/>
<path d="M37.5401 67.5379C37.5401 69.0987 35.1818 69.0987 32.2742 67.5379C29.3666 65.977 27.0083 63.4444 27.0083 61.8796C27.0083 60.3149 29.3666 60.3188 32.2742 61.8796C35.1818 63.4405 37.5401 65.9731 37.5401 67.5379Z" fill="#0E94FD"/>
</g>
<path opacity="0.3" d="M36.8965 80.575L27.6439 75.6036V74.3003L36.8965 79.2678V80.575Z" fill="#0E94FD"/>
<path opacity="0.3" d="M36.8965 77.8553L27.6439 72.8839V71.5806L36.8965 76.5481V77.8553Z" fill="#0E94FD"/>
<path opacity="0.3" d="M35.7586 82.6823L28.7858 78.9361V77.6289L35.7586 81.3789V82.6823Z" fill="#0E94FD"/>
<path d="M26.1332 65.0288L26.4 66.1019L27.0592 66.5546L26.5609 66.9604L26.7061 68.0296L26.1332 67.2062L25.5603 67.4131L25.7055 66.4999L25.2072 65.5595L25.8664 65.8171L26.1332 65.0288Z" fill="#0E94FD"/>
<path d="M29.2017 66.6758L29.4685 67.7489L30.1277 68.2015L29.6333 68.6113L29.7746 69.6766L29.2017 68.8571L28.6288 69.0639L28.774 68.1469L28.2756 67.2065L28.9388 67.464L29.2017 66.6758Z" fill="#0E94FD"/>
<path d="M32.2702 68.3262L32.537 69.3993L33.1962 69.8519L32.7018 70.2578L32.843 71.327L32.2702 70.5036L31.6973 70.7104L31.8425 69.7973L31.3441 68.8569L32.0073 69.1144L32.2702 68.3262Z" fill="#0E94FD"/>
<path d="M35.3426 69.9731L35.6055 71.0463L36.2686 71.4989L35.7703 71.9086L35.9115 72.9739L35.3426 72.1545L34.7697 72.3613L34.9109 71.4443L34.4126 70.5038L35.0757 70.7614L35.3426 69.9731Z" fill="#0E94FD"/>
<path d="M38.4112 71.6235L38.6741 72.6966L39.3372 73.1493L38.8389 73.5551L38.984 74.6243L38.4112 73.801L37.8383 74.0078L37.9795 73.0947L37.4851 72.1542L38.1443 72.4118L38.4112 71.6235Z" fill="#0E94FD"/>
<path d="M20.8634 82.1047L8.0675 75.229V50.2471L20.8634 57.1228V82.1047Z" fill="#2056FF"/>
<mask id="mask3_101_672" style="mask-type:luminance" maskUnits="userSpaceOnUse" x="10" y="54" width="9" height="14">
<path d="M18.2697 63.0346C18.2697 66.2461 16.5667 67.9358 14.4674 66.8041C12.3681 65.6764 10.6652 62.1566 10.6652 58.949C10.6652 55.7413 12.3681 54.0478 14.4674 55.1794C16.5667 56.3072 18.2697 59.827 18.2697 63.0346Z" fill="white"/>
</mask>
<g mask="url(#mask3_101_672)">
<path opacity="0.4" d="M18.2697 63.0346C18.2697 66.2461 16.5667 67.9358 14.4674 66.8041C12.3681 65.6764 10.6652 62.1566 10.6652 58.949C10.6652 55.7413 12.3681 54.0478 14.4674 55.1794C16.5667 56.3072 18.2697 59.827 18.2697 63.0346Z" fill="#E8F4FD"/>
<path d="M15.8016 60.4515C15.8016 61.5793 15.2052 62.1724 14.4635 61.7783C13.7258 61.3803 13.1255 60.1472 13.1255 59.0194C13.1255 57.8917 13.7219 57.2986 14.4635 57.6927C15.2012 58.0907 15.8016 59.3238 15.8016 60.4515Z" fill="#B9D4F5"/>
<path d="M18.2697 66.804C18.2697 67.9317 16.5667 67.9317 14.4674 66.804C12.3681 65.6762 10.6652 63.8461 10.6652 62.7184C10.6652 61.5906 12.3681 61.5906 14.4674 62.7184C16.5667 63.8461 18.2697 65.6762 18.2697 66.804Z" fill="#B9D4F5"/>
</g>
<path opacity="0.3" d="M17.8067 76.2204L11.1243 72.6304V71.6899L17.8067 75.2761V76.2204Z" fill="#E8F4FD"/>
<path opacity="0.3" d="M17.8067 74.2575L11.1243 70.6675V69.7231L17.8067 73.3132V74.2575Z" fill="#E8F4FD"/>
<path opacity="0.3" d="M16.9826 77.7423L11.9482 75.0381V74.0938L16.9826 76.8019V77.7423Z" fill="#E8F4FD"/>
<path d="M10.0334 64.9937L10.2257 65.7663L10.7005 66.0941L10.3434 66.3867L10.4454 67.1594L10.0334 66.5662L9.61748 66.7145L9.72343 66.0551L9.36243 65.3761L9.84114 65.5595L10.0334 64.9937Z" fill="#E8F4FD"/>
<path d="M12.2505 66.1836L12.4388 66.9562L12.9175 67.284L12.5604 67.5767L12.6625 68.3493L12.2505 67.7562L11.8345 67.9045L11.9405 67.245L11.5795 66.566L12.0582 66.7533L12.2505 66.1836Z" fill="#E8F4FD"/>
<path d="M14.4674 67.374L14.6557 68.1467L15.1344 68.4744L14.7774 68.771L14.8794 69.5398L14.4674 68.9466L14.0514 69.0949L14.1535 68.4354L13.7964 67.7564L14.2751 67.9437L14.4674 67.374Z" fill="#E8F4FD"/>
<path d="M16.6805 68.564L16.8728 69.3405L17.3515 69.6644L16.9905 69.961L17.0964 70.7297L16.6805 70.1366L16.2685 70.2848L16.3705 69.6254L16.0134 68.9464L16.4921 69.1337L16.6805 68.564Z" fill="#E8F4FD"/>
<path d="M18.8975 69.7544L19.0898 70.5309L19.5685 70.8548L19.2075 71.1514L19.3135 71.9201L18.8975 71.327L18.4855 71.4792L18.5875 70.8158L18.2305 70.1368L18.7092 70.3241L18.8975 69.7544Z" fill="#E8F4FD"/>
<path d="M47.4479 95.9655L34.6481 89.0899V64.1079L47.4479 70.9836V95.9655Z" fill="#2056FF"/>
<mask id="mask4_101_672" style="mask-type:luminance" maskUnits="userSpaceOnUse" x="37" y="68" width="8" height="14">
<path d="M44.8503 76.8953C44.8503 80.1069 43.1473 81.7965 41.048 80.6649C38.9487 79.5371 37.2457 76.0173 37.2457 72.8058C37.2457 69.5943 38.9487 67.9046 41.048 69.0363C43.1473 70.164 44.8503 73.6838 44.8503 76.8914V76.8953Z" fill="white"/>
</mask>
<g mask="url(#mask4_101_672)">
<path opacity="0.4" d="M44.8503 76.8953C44.8503 80.1069 43.1473 81.7965 41.048 80.6649C38.9487 79.5371 37.2457 76.0173 37.2457 72.8058C37.2457 69.5943 38.9487 67.9046 41.048 69.0363C43.1473 70.164 44.8503 73.6838 44.8503 76.8914V76.8953Z" fill="#E8F4FD"/>
<path d="M42.3822 74.3119C42.3822 75.4397 41.7857 76.0328 41.0441 75.6348C40.3064 75.2367 39.7061 74.0036 39.7061 72.8759C39.7061 71.7482 40.3025 71.155 41.0441 71.5531C41.7818 71.9511 42.3822 73.1842 42.3822 74.3119Z" fill="#B9D4F5"/>
<path d="M44.8503 80.6648C44.8503 81.7926 43.1473 81.7926 41.048 80.6648C38.9487 79.5371 37.2457 77.7069 37.2457 76.5792C37.2457 75.4515 38.9487 75.4515 41.048 76.5792C43.1473 77.7069 44.8503 79.5371 44.8503 80.6648Z" fill="#B9D4F5"/>
</g>
<path opacity="0.3" d="M44.3873 90.0812L37.7048 86.4912V85.5508L44.3873 89.1369V90.0812Z" fill="#E8F4FD"/>
<path opacity="0.3" d="M44.3873 88.1184L37.7048 84.5283V83.584L44.3873 87.174V88.1184Z" fill="#E8F4FD"/>
<path opacity="0.3" d="M43.5671 91.6032L38.5288 88.8989V87.9546L43.5671 90.6627V91.6032Z" fill="#E8F4FD"/>
<path d="M36.614 78.8545L36.8063 79.6271L37.285 79.9549L36.924 80.2476L37.026 81.0202L36.614 80.4271L36.202 80.5754L36.304 79.9159L35.943 79.2369L36.4217 79.4203L36.614 78.8545Z" fill="#E8F4FD"/>
<path d="M38.831 80.0444L39.0233 80.8171L39.4981 81.1449L39.141 81.4375L39.243 82.2102L38.831 81.617L38.419 81.7653L38.521 81.1058L38.16 80.4268L38.6388 80.6142L38.831 80.0444Z" fill="#E8F4FD"/>
<path d="M41.0479 81.2349L41.2402 82.0075L41.715 82.3353L41.3579 82.6319L41.46 83.4006L41.0479 82.8075L40.632 82.9557L40.738 82.2963L40.377 81.6173L40.8557 81.8046L41.0479 81.2349Z" fill="#E8F4FD"/>
<path d="M43.265 82.4248L43.4573 83.2013L43.932 83.5252L43.575 83.8218L43.677 84.5905L43.265 83.9974L42.849 84.1457L42.955 83.4862L42.594 82.8072L43.0727 82.9945L43.265 82.4248Z" fill="#E8F4FD"/>
<path d="M45.482 83.6152L45.6704 84.3918L46.1491 84.7196L45.792 85.0122L45.894 85.781L45.482 85.1878L45.0661 85.34L45.172 84.6766L44.811 83.9976L45.2898 84.185L45.482 83.6152Z" fill="#E8F4FD"/>
</svg>
