<svg width="1141" height="227" viewBox="0 0 1141 227" fill="none" xmlns="http://www.w3.org/2000/svg">
<path d="M29.5766 45.1352V18.5109H16.6939L16.5328 23.986C16.4255 26.3121 16.2644 28.5129 16.0497 30.5884C15.8708 32.664 15.5845 34.5606 15.1909 36.2783C14.7972 37.9602 14.2784 39.3916 13.6342 40.5725C13.0259 41.7535 12.2565 42.5944 11.3261 43.0954L2.03977 41.9145C3.32804 41.9503 4.38371 41.503 5.20677 40.5725C6.06562 39.6421 6.74554 38.336 7.24653 36.6541C7.74753 34.9364 8.10538 32.9324 8.3201 30.6421C8.57059 28.3518 8.74952 25.8648 8.85688 23.1809L9.2863 11.4254H38.1651V45.1352H29.5766ZM0.805171 56.7833L0.858849 41.9145H43.4255V56.7833H35.3738V49H8.85688V56.7833H0.805171ZM49.6551 49.5905C49.011 49.5905 48.3311 49.5368 47.6153 49.4294C46.9354 49.3221 46.1839 49.1789 45.3609 49L45.8977 41.6461C46.3986 41.7893 46.9175 41.8608 47.4543 41.8608C48.9215 41.8608 50.0666 41.2704 50.8897 40.0894C51.7128 38.8727 52.3032 37.1372 52.6611 34.8827C53.0189 32.6282 53.2515 29.8906 53.3589 26.6699L53.8957 11.4254H82.7745V49H74.186V16.5248L76.1721 18.5109H59.5856L61.3569 16.4174L61.0349 26.3479C60.9275 30.0338 60.677 33.3081 60.2834 36.1709C59.8897 39.0338 59.2814 41.4672 58.4583 43.4712C57.6352 45.4751 56.508 46.996 55.0766 48.0338C53.6452 49.0716 51.838 49.5905 49.6551 49.5905ZM113.576 49V37.1372L115.724 39.0159H105.417C102.161 39.0159 99.3517 38.4791 96.9899 37.4055C94.6281 36.332 92.8209 34.7753 91.5684 32.7356C90.3159 30.6958 89.6897 28.2624 89.6897 25.4353C89.6897 22.5009 90.3517 19.996 91.6758 17.9204C93.0356 15.8091 94.9323 14.1987 97.3657 13.0894C99.7991 11.98 102.662 11.4254 105.954 11.4254H122.165V49H113.576ZM89.7971 49L99.137 35.5268H107.94L98.976 49H89.7971ZM113.576 34.3459V16.2564L115.724 18.5109H106.169C103.7 18.5109 101.803 19.0834 100.479 20.2286C99.1907 21.3737 98.5466 23.0735 98.5466 25.328C98.5466 27.5109 99.1728 29.1928 100.425 30.3737C101.678 31.5546 103.521 32.1451 105.954 32.1451H115.724L113.576 34.3459ZM164.548 49.6441C161.649 49.6441 158.947 49.1789 156.443 48.2485C153.973 47.2823 151.826 45.9225 150.001 44.169C148.176 42.4155 146.745 40.3578 145.707 37.996C144.705 35.6342 144.204 33.0397 144.204 30.2127C144.204 27.3856 144.705 24.7912 145.707 22.4294C146.745 20.0675 148.176 18.0099 150.001 16.2564C151.862 14.5029 154.027 13.161 156.496 12.2305C158.965 11.2643 161.667 10.7812 164.602 10.7812C167.858 10.7812 170.792 11.3538 173.405 12.4989C176.053 13.6083 178.272 15.2544 180.061 17.4373L174.478 22.5904C173.19 21.1232 171.759 20.0318 170.184 19.316C168.61 18.5646 166.892 18.1888 165.031 18.1888C163.278 18.1888 161.667 18.4751 160.2 19.0477C158.733 19.6202 157.462 20.4433 156.389 21.5168C155.315 22.5904 154.474 23.8608 153.866 25.328C153.293 26.7952 153.007 28.4234 153.007 30.2127C153.007 32.002 153.293 33.6302 153.866 35.0974C154.474 36.5646 155.315 37.835 156.389 38.9085C157.462 39.9821 158.733 40.8052 160.2 41.3777C161.667 41.9503 163.278 42.2366 165.031 42.2366C166.892 42.2366 168.61 41.8787 170.184 41.163C171.759 40.4115 173.19 39.2843 174.478 37.7813L180.061 42.9344C178.272 45.1173 176.053 46.7813 173.405 47.9264C170.792 49.0716 167.84 49.6441 164.548 49.6441ZM193.467 49V16.5248L195.453 18.5109H181.497V11.4254H214.079V18.5109H200.123L202.055 16.5248V49H193.467ZM213.412 49L230.159 11.4254H238.748L255.549 49H246.424L232.682 15.827H236.118L222.322 49H213.412ZM221.785 40.9483L224.094 34.3459H243.418L245.78 40.9483H221.785ZM260.532 49V11.4254H290.86V18.3498H269.174V26.0795H279.587C284.132 26.0795 287.586 27.0278 289.947 28.9244C292.345 30.821 293.544 33.5765 293.544 37.1908C293.544 40.9125 292.22 43.8111 289.572 45.8867C286.923 47.9622 283.184 49 278.353 49H260.532ZM269.174 42.5586H277.87C280.088 42.5586 281.788 42.1292 282.969 41.2704C284.15 40.3757 284.741 39.0875 284.741 37.4055C284.741 34.1133 282.45 32.4672 277.87 32.4672H269.174V42.5586ZM300.161 49V11.4254H308.803V35.9026L326.732 11.4254H334.891V49H326.302V24.5765L308.374 49H300.161ZM344.36 49.5905C343.716 49.5905 343.036 49.5368 342.32 49.4294C341.64 49.3221 340.889 49.1789 340.066 49L340.603 41.6461C341.104 41.7893 341.623 41.8608 342.159 41.8608C343.626 41.8608 344.772 41.2704 345.595 40.0894C346.418 38.8727 347.008 37.1372 347.366 34.8827C347.724 32.6282 347.957 29.8906 348.064 26.6699L348.601 11.4254H377.479V49H368.891V16.5248L370.877 18.5109H354.291L356.062 16.4174L355.74 26.3479C355.632 30.0338 355.382 33.3081 354.988 36.1709C354.595 39.0338 353.986 41.4672 353.163 43.4712C352.34 45.4751 351.213 46.996 349.782 48.0338C348.35 49.0716 346.543 49.5905 344.36 49.5905ZM405.061 23.7713C409.605 23.7713 413.112 24.7912 415.582 26.831C418.051 28.835 419.285 31.8588 419.285 35.9026C419.285 40.1968 417.908 43.4533 415.152 45.672C412.433 47.8907 408.657 49 403.826 49H386.864V11.4254H395.506V23.7713H405.061ZM403.343 42.5586C405.562 42.5586 407.315 42.004 408.603 40.8946C409.892 39.7853 410.536 38.1749 410.536 36.0636C410.536 33.988 409.892 32.503 408.603 31.6083C407.351 30.6779 405.598 30.2127 403.343 30.2127H395.506V42.5586H403.343ZM451.315 11.4254H460.011V49H451.315V11.4254ZM434.246 49H425.55V11.4254H434.246V49ZM451.959 33.5944H433.601V26.2405H451.959V33.5944ZM487.407 49.6441C484.437 49.6441 481.682 49.161 479.141 48.1948C476.636 47.2286 474.453 45.8688 472.592 44.1153C470.767 42.3618 469.336 40.3042 468.298 37.9423C467.296 35.5805 466.795 33.0039 466.795 30.2127C466.795 27.4214 467.296 24.8449 468.298 22.4831C469.336 20.1212 470.785 18.0636 472.646 16.3101C474.507 14.5566 476.69 13.1967 479.195 12.2305C481.7 11.2643 484.419 10.7812 487.354 10.7812C490.324 10.7812 493.044 11.2643 495.513 12.2305C498.018 13.1967 500.183 14.5566 502.008 16.3101C503.869 18.0636 505.318 20.1212 506.356 22.4831C507.394 24.8091 507.912 27.3856 507.912 30.2127C507.912 33.0039 507.394 35.5984 506.356 37.996C505.318 40.3578 503.869 42.4155 502.008 44.169C500.183 45.8867 498.018 47.2286 495.513 48.1948C493.044 49.161 490.342 49.6441 487.407 49.6441ZM487.354 42.2366C489.036 42.2366 490.574 41.9503 491.97 41.3777C493.401 40.8052 494.654 39.9821 495.728 38.9085C496.801 37.835 497.624 36.5646 498.197 35.0974C498.805 33.6302 499.109 32.002 499.109 30.2127C499.109 28.4234 498.805 26.7952 498.197 25.328C497.624 23.8608 496.801 22.5904 495.728 21.5168C494.69 20.4433 493.455 19.6202 492.024 19.0477C490.592 18.4751 489.036 18.1888 487.354 18.1888C485.672 18.1888 484.115 18.4751 482.684 19.0477C481.288 19.6202 480.054 20.4433 478.98 21.5168C477.906 22.5904 477.065 23.8608 476.457 25.328C475.885 26.7952 475.598 28.4234 475.598 30.2127C475.598 31.9662 475.885 33.5944 476.457 35.0974C477.065 36.5646 477.889 37.835 478.926 38.9085C480 39.9821 481.252 40.8052 482.684 41.3777C484.115 41.9503 485.672 42.2366 487.354 42.2366ZM514.611 49V11.4254H523.253V35.9026L541.182 11.4254H549.341V49H540.752V24.5765L522.824 49H514.611ZM531.949 9.00986C528.371 9.00986 525.741 8.29416 524.059 6.86274C522.412 5.43133 521.572 3.40946 521.536 0.797124H527.494C527.53 2.0854 527.906 3.06949 528.621 3.74942C529.373 4.39355 530.482 4.71562 531.949 4.71562C533.381 4.71562 534.472 4.39355 535.224 3.74942C535.975 3.06949 536.369 2.0854 536.405 0.797124H542.363C542.327 3.40946 541.468 5.43133 539.786 6.86274C538.104 8.29416 535.492 9.00986 531.949 9.00986ZM582.004 49V16.5248L583.99 18.5109H570.033V11.4254H602.616V18.5109H588.66L590.592 16.5248V49H582.004ZM625.534 49.6441C622.564 49.6441 619.808 49.161 617.268 48.1948C614.763 47.2286 612.58 45.8688 610.719 44.1153C608.894 42.3618 607.462 40.3042 606.425 37.9423C605.423 35.5805 604.922 33.0039 604.922 30.2127C604.922 27.4214 605.423 24.8449 606.425 22.4831C607.462 20.1212 608.912 18.0636 610.773 16.3101C612.633 14.5566 614.816 13.1967 617.321 12.2305C619.826 11.2643 622.546 10.7812 625.48 10.7812C628.451 10.7812 631.17 11.2643 633.639 12.2305C636.144 13.1967 638.309 14.5566 640.134 16.3101C641.995 18.0636 643.445 20.1212 644.482 22.4831C645.52 24.8091 646.039 27.3856 646.039 30.2127C646.039 33.0039 645.52 35.5984 644.482 37.996C643.445 40.3578 641.995 42.4155 640.134 44.169C638.309 45.8867 636.144 47.2286 633.639 48.1948C631.17 49.161 628.468 49.6441 625.534 49.6441ZM625.48 42.2366C627.162 42.2366 628.701 41.9503 630.097 41.3777C631.528 40.8052 632.781 39.9821 633.854 38.9085C634.928 37.835 635.751 36.5646 636.323 35.0974C636.932 33.6302 637.236 32.002 637.236 30.2127C637.236 28.4234 636.932 26.7952 636.323 25.328C635.751 23.8608 634.928 22.5904 633.854 21.5168C632.816 20.4433 631.582 19.6202 630.15 19.0477C628.719 18.4751 627.162 18.1888 625.48 18.1888C623.798 18.1888 622.242 18.4751 620.81 19.0477C619.415 19.6202 618.18 20.4433 617.107 21.5168C616.033 22.5904 615.192 23.8608 614.584 25.328C614.011 26.7952 613.725 28.4234 613.725 30.2127C613.725 31.9662 614.011 33.5944 614.584 35.0974C615.192 36.5646 616.015 37.835 617.053 38.9085C618.126 39.9821 619.379 40.8052 620.81 41.3777C622.242 41.9503 623.798 42.2366 625.48 42.2366ZM652.738 49V11.4254H669.002C672.366 11.4254 675.265 11.98 677.698 13.0894C680.132 14.163 682.01 15.7196 683.334 17.7594C684.658 19.7991 685.32 22.2326 685.32 25.0596C685.32 27.8509 684.658 30.2664 683.334 32.3061C682.01 34.3459 680.132 35.9205 677.698 37.0298C675.265 38.1034 672.366 38.6401 669.002 38.6401H657.569L661.434 34.7216V49H652.738ZM661.434 35.6878L657.569 31.5546H668.519C671.203 31.5546 673.207 30.9821 674.531 29.8369C675.855 28.6918 676.517 27.0994 676.517 25.0596C676.517 22.984 675.855 21.3737 674.531 20.2286C673.207 19.0834 671.203 18.5109 668.519 18.5109H657.569L661.434 14.3777V35.6878ZM691.057 49V11.4254H717.574L717.52 18.5109H697.659L699.645 16.5248L699.699 49H691.057ZM737.031 49.6441C734.061 49.6441 731.306 49.161 728.765 48.1948C726.26 47.2286 724.077 45.8688 722.216 44.1153C720.391 42.3618 718.96 40.3042 717.922 37.9423C716.92 35.5805 716.419 33.0039 716.419 30.2127C716.419 27.4214 716.92 24.8449 717.922 22.4831C718.96 20.1212 720.409 18.0636 722.27 16.3101C724.131 14.5566 726.314 13.1967 728.818 12.2305C731.323 11.2643 734.043 10.7812 736.978 10.7812C739.948 10.7812 742.667 11.2643 745.137 12.2305C747.642 13.1967 749.807 14.5566 751.632 16.3101C753.492 18.0636 754.942 20.1212 755.98 22.4831C757.017 24.8091 757.536 27.3856 757.536 30.2127C757.536 33.0039 757.017 35.5984 755.98 37.996C754.942 40.3578 753.492 42.4155 751.632 44.169C749.807 45.8867 747.642 47.2286 745.137 48.1948C742.667 49.161 739.966 49.6441 737.031 49.6441ZM736.978 42.2366C738.659 42.2366 740.198 41.9503 741.594 41.3777C743.025 40.8052 744.278 39.9821 745.351 38.9085C746.425 37.835 747.248 36.5646 747.821 35.0974C748.429 33.6302 748.733 32.002 748.733 30.2127C748.733 28.4234 748.429 26.7952 747.821 25.328C747.248 23.8608 746.425 22.5904 745.351 21.5168C744.314 20.4433 743.079 19.6202 741.648 19.0477C740.216 18.4751 738.659 18.1888 736.978 18.1888C735.296 18.1888 733.739 18.4751 732.308 19.0477C730.912 19.6202 729.677 20.4433 728.604 21.5168C727.53 22.5904 726.689 23.8608 726.081 25.328C725.508 26.7952 725.222 28.4234 725.222 30.2127C725.222 31.9662 725.508 33.5944 726.081 35.0974C726.689 36.5646 727.512 37.835 728.55 38.9085C729.624 39.9821 730.876 40.8052 732.308 41.3777C733.739 41.9503 735.296 42.2366 736.978 42.2366ZM764.235 49V11.4254H781.734C786.1 11.4254 789.5 12.2663 791.933 13.9482C794.366 15.6302 795.583 18.0278 795.583 21.1411C795.583 24.2186 794.438 26.6163 792.148 28.334C789.857 30.0159 786.816 30.8568 783.022 30.8568L784.042 28.6023C788.265 28.6023 791.539 29.4433 793.865 31.1252C796.191 32.8071 797.354 35.2405 797.354 38.4254C797.354 41.7177 796.102 44.3121 793.597 46.2087C791.128 48.0696 787.513 49 782.754 49H764.235ZM772.877 42.5586H782.432C784.436 42.5586 785.957 42.165 786.995 41.3777C788.032 40.5904 788.551 39.3737 788.551 37.7276C788.551 36.1531 788.032 34.99 786.995 34.2385C785.957 33.4513 784.436 33.0576 782.432 33.0576H772.877V42.5586ZM772.877 26.992H780.983C782.879 26.992 784.311 26.6163 785.277 25.8648C786.243 25.0775 786.726 23.9324 786.726 22.4294C786.726 20.9264 786.243 19.7992 785.277 19.0477C784.311 18.2604 782.879 17.8667 780.983 17.8667H772.877V26.992ZM804.607 49.5905C803.963 49.5905 803.283 49.5368 802.567 49.4294C801.888 49.3221 801.136 49.1789 800.313 49L800.85 41.6461C801.351 41.7893 801.87 41.8608 802.406 41.8608C803.874 41.8608 805.019 41.2704 805.842 40.0894C806.665 38.8727 807.255 37.1372 807.613 34.8827C807.971 32.6282 808.204 29.8906 808.311 26.6699L808.848 11.4254H837.727V49H829.138V16.5248L831.124 18.5109H814.538L816.309 16.4174L815.987 26.3479C815.88 30.0338 815.629 33.3081 815.236 36.1709C814.842 39.0338 814.234 41.4672 813.41 43.4712C812.587 45.4751 811.46 46.996 810.029 48.0338C808.597 49.0716 806.79 49.5905 804.607 49.5905ZM847.111 49V11.4254H855.753V35.9026L873.682 11.4254H881.841V49H873.252V24.5765L855.324 49H847.111ZM906.398 49V11.4254H923.897C928.263 11.4254 931.662 12.2663 934.096 13.9482C936.529 15.6302 937.746 18.0278 937.746 21.1411C937.746 24.2186 936.601 26.6163 934.311 28.334C932.02 30.0159 928.979 30.8568 925.185 30.8568L926.205 28.6023C930.428 28.6023 933.702 29.4433 936.028 31.1252C938.354 32.8071 939.517 35.2405 939.517 38.4254C939.517 41.7177 938.265 44.3121 935.76 46.2087C933.291 48.0696 929.676 49 924.917 49H906.398ZM915.04 42.5586H924.595C926.599 42.5586 928.12 42.165 929.158 41.3777C930.195 40.5904 930.714 39.3737 930.714 37.7276C930.714 36.1531 930.195 34.99 929.158 34.2385C928.12 33.4513 926.599 33.0576 924.595 33.0576H915.04V42.5586ZM915.04 26.992H923.146C925.042 26.992 926.474 26.6163 927.44 25.8648C928.406 25.0775 928.889 23.9324 928.889 22.4294C928.889 20.9264 928.406 19.7992 927.44 19.0477C926.474 18.2604 925.042 17.8667 923.146 17.8667H915.04V26.992ZM961.596 49V11.4254H995.843V49H987.201V16.5248L989.187 18.5109H968.252L970.238 16.5248V49H961.596ZM1005.27 49.5905C1004.63 49.5905 1003.95 49.5368 1003.23 49.4294C1002.55 49.3221 1001.8 49.1789 1000.98 49L1001.51 41.6461C1002.01 41.7893 1002.53 41.8608 1003.07 41.8608C1004.54 41.8608 1005.68 41.2704 1006.51 40.0894C1007.33 38.8727 1007.92 37.1372 1008.28 34.8827C1008.63 32.6282 1008.87 29.8906 1008.97 26.6699L1009.51 11.4254H1038.39V49H1029.8V16.5248L1031.79 18.5109H1015.2L1016.97 16.4174L1016.65 26.3479C1016.54 30.0338 1016.29 33.3081 1015.9 36.1709C1015.51 39.0338 1014.9 41.4672 1014.07 43.4712C1013.25 45.4751 1012.12 46.996 1010.69 48.0338C1009.26 49.0716 1007.45 49.5905 1005.27 49.5905ZM1047.77 49V11.4254H1056.42V26.1868H1066.13V33.7018H1056.42V49H1047.77ZM1080.95 49.6441C1078.08 49.6441 1075.44 49.161 1073 48.1948C1070.61 47.2286 1068.51 45.8867 1066.72 44.169C1064.93 42.4155 1063.54 40.3578 1062.54 37.996C1061.57 35.5984 1061.09 33.0039 1061.09 30.2127C1061.09 27.3856 1061.57 24.7912 1062.54 22.4294C1063.54 20.0675 1064.93 18.0278 1066.72 16.3101C1068.51 14.5566 1070.61 13.1967 1073 12.2305C1075.44 11.2643 1078.08 10.7812 1080.95 10.7812C1083.77 10.7812 1086.4 11.2643 1088.84 12.2305C1091.27 13.1967 1093.37 14.5566 1095.12 16.3101C1096.91 18.0278 1098.3 20.0854 1099.31 22.4831C1100.31 24.8449 1100.81 27.4214 1100.81 30.2127C1100.81 33.0039 1100.31 35.5984 1099.31 37.996C1098.3 40.3578 1096.91 42.4155 1095.12 44.169C1093.37 45.8867 1091.27 47.2286 1088.84 48.1948C1086.4 49.161 1083.77 49.6441 1080.95 49.6441ZM1080.95 42.2366C1082.52 42.2366 1083.97 41.9503 1085.3 41.3777C1086.62 40.8052 1087.78 40 1088.78 38.9622C1089.79 37.8886 1090.57 36.6183 1091.15 35.1511C1091.72 33.6839 1092.01 32.0377 1092.01 30.2127C1092.01 28.3876 1091.72 26.7415 1091.15 25.2743C1090.57 23.8071 1089.79 22.5546 1088.78 21.5168C1087.78 20.4433 1086.62 19.6202 1085.3 19.0477C1083.97 18.4751 1082.52 18.1888 1080.95 18.1888C1079.41 18.1888 1077.96 18.4751 1076.6 19.0477C1075.28 19.6202 1074.11 20.4433 1073.11 21.5168C1072.11 22.5546 1071.32 23.8071 1070.75 25.2743C1070.18 26.7415 1069.89 28.3876 1069.89 30.2127C1069.89 32.0377 1070.18 33.6839 1070.75 35.1511C1071.32 36.6183 1072.11 37.8886 1073.11 38.9622C1074.11 40 1075.28 40.8052 1076.6 41.3777C1077.96 41.9503 1079.41 42.2366 1080.95 42.2366ZM1125.35 49.6441C1122.45 49.6441 1119.75 49.1789 1117.25 48.2485C1114.78 47.2823 1112.63 45.9225 1110.81 44.169C1108.98 42.4155 1107.55 40.3578 1106.51 37.996C1105.51 35.6342 1105.01 33.0397 1105.01 30.2127C1105.01 27.3856 1105.51 24.7912 1106.51 22.4294C1107.55 20.0675 1108.98 18.0099 1110.81 16.2564C1112.67 14.5029 1114.83 13.161 1117.3 12.2305C1119.77 11.2643 1122.47 10.7812 1125.41 10.7812C1128.66 10.7812 1131.6 11.3538 1134.21 12.4989C1136.86 13.6083 1139.08 15.2544 1140.87 17.4373L1135.28 22.5904C1134 21.1232 1132.56 20.0318 1130.99 19.316C1129.41 18.5646 1127.7 18.1888 1125.84 18.1888C1124.08 18.1888 1122.47 18.4751 1121.01 19.0477C1119.54 19.6202 1118.27 20.4433 1117.19 21.5168C1116.12 22.5904 1115.28 23.8608 1114.67 25.328C1114.1 26.7952 1113.81 28.4234 1113.81 30.2127C1113.81 32.002 1114.1 33.6302 1114.67 35.0974C1115.28 36.5646 1116.12 37.835 1117.19 38.9085C1118.27 39.9821 1119.54 40.8052 1121.01 41.3777C1122.47 41.9503 1124.08 42.2366 1125.84 42.2366C1127.7 42.2366 1129.41 41.8787 1130.99 41.163C1132.56 40.4115 1134 39.2843 1135.28 37.7813L1140.87 42.9344C1139.08 45.1173 1136.86 46.7813 1134.21 47.9264C1131.6 49.0716 1128.65 49.6441 1125.35 49.6441ZM32.7036 63.6252H42.0475V104H32.7036V63.6252ZM14.3619 104H5.01801V63.6252H14.3619V104ZM33.3957 87.4463H13.6698V79.5444H33.3957V87.4463ZM53.5475 96.3865C55.7778 97.0402 57.6427 97.2324 59.1423 96.9632C60.6804 96.6556 62.0455 95.579 63.2375 93.7333L65.1986 90.7917L66.0637 89.8111L79.4451 63.6252H88.616L71.4278 95.579C69.8897 98.4629 68.0633 100.674 65.9484 102.212C63.872 103.75 61.5841 104.615 59.0847 104.807C56.5853 105.038 53.9897 104.596 51.2981 103.481L53.5475 96.3865ZM65.8907 97.5977L47.6644 63.6252H57.6427L71.0241 90.734L65.8907 97.5977ZM138.062 104L127.218 84.5624L135.12 80.0058L148.847 104H138.062ZM120.354 87.7347V79.9481H132.928V87.7347H120.354ZM135.639 84.8508L126.987 83.8126L138.235 63.6252H148.098L135.639 84.8508ZM98.898 104H88.1122L101.84 80.0058L109.742 84.5624L98.898 104ZM123.123 104H113.952V63.6252H123.123V104ZM116.663 87.7347H104.031V79.9481H116.663V87.7347ZM101.378 84.8508L88.862 63.6252H98.725L109.915 83.8126L101.378 84.8508ZM181.011 63.6252H190.355V104H181.011V63.6252ZM162.669 104H153.326V63.6252H162.669V104ZM181.703 87.4463H161.977V79.5444H181.703V87.4463ZM219.793 104.692C216.602 104.692 213.641 104.173 210.911 103.135C208.219 102.097 205.873 100.635 203.874 98.7513C201.913 96.8671 200.375 94.6561 199.26 92.1183C198.183 89.5804 197.645 86.8119 197.645 83.8126C197.645 80.8133 198.183 78.0448 199.26 75.5069C200.375 72.9691 201.932 70.7581 203.932 68.8739C205.931 66.9898 208.277 65.5286 210.968 64.4904C213.66 63.4522 216.582 62.933 219.735 62.933C222.927 62.933 225.849 63.4522 228.503 64.4904C231.194 65.5286 233.521 66.9898 235.482 68.8739C237.481 70.7581 239.038 72.9691 240.154 75.5069C241.269 78.0063 241.826 80.7749 241.826 83.8126C241.826 86.8119 241.269 89.5996 240.154 92.1759C239.038 94.7138 237.481 96.9248 235.482 98.809C233.521 100.655 231.194 102.097 228.503 103.135C225.849 104.173 222.946 104.692 219.793 104.692ZM219.735 96.7325C221.543 96.7325 223.196 96.4249 224.696 95.8097C226.234 95.1944 227.58 94.31 228.733 93.1565C229.887 92.0029 230.771 90.6379 231.386 89.0613C232.04 87.4848 232.367 85.7352 232.367 83.8126C232.367 81.89 232.04 80.1404 231.386 78.5639C230.771 76.9873 229.887 75.6223 228.733 74.4687C227.618 73.3151 226.292 72.4307 224.753 71.8155C223.215 71.2003 221.543 70.8927 219.735 70.8927C217.928 70.8927 216.255 71.2003 214.717 71.8155C213.218 72.4307 211.891 73.3151 210.738 74.4687C209.584 75.6223 208.68 76.9873 208.027 78.5639C207.411 80.1404 207.104 81.89 207.104 83.8126C207.104 85.6968 207.411 87.4463 208.027 89.0613C208.68 90.6379 209.565 92.0029 210.68 93.1565C211.833 94.31 213.179 95.1944 214.717 95.8097C216.255 96.4249 217.928 96.7325 219.735 96.7325ZM266.743 96.3865C268.973 97.0402 270.838 97.2324 272.338 96.9632C273.876 96.6556 275.241 95.579 276.433 93.7333L278.394 90.7917L279.259 89.8111L292.641 63.6252H301.812L284.624 95.579C283.085 98.4629 281.259 100.674 279.144 102.212C277.068 103.75 274.78 104.615 272.28 104.807C269.781 105.038 267.185 104.596 264.494 103.481L266.743 96.3865ZM279.086 97.5977L260.86 63.6252H270.838L284.22 90.734L279.086 97.5977ZM332.339 99.8472V71.2387H318.496L318.323 77.1219C318.208 79.6213 318.035 81.9861 317.804 84.2163C317.612 86.4466 317.304 88.4845 316.881 90.3302C316.458 92.1375 315.9 93.6756 315.208 94.9445C314.555 96.2134 313.728 97.1171 312.728 97.6554L302.75 96.3865C304.134 96.4249 305.268 95.9443 306.153 94.9445C307.076 93.9447 307.806 92.5412 308.345 90.734C308.883 88.8883 309.267 86.735 309.498 84.274C309.767 81.8131 309.96 79.1407 310.075 76.2567L310.536 63.6252H341.567V99.8472H332.339ZM301.423 112.363L301.481 96.3865H347.22V112.363H338.568V104H310.075V112.363H301.423ZM362.104 79.8905H381.542V87.1579H362.104V79.8905ZM362.796 96.5018H384.772V104H353.51V63.6252H384.022V71.1234H362.796V96.5018ZM392.723 104.634C392.03 104.634 391.3 104.577 390.531 104.461C389.8 104.346 388.993 104.192 388.108 104L388.685 96.0981C389.223 96.2519 389.781 96.3288 390.358 96.3288C391.934 96.3288 393.165 95.6943 394.049 94.4254C394.934 93.118 395.568 91.2531 395.953 88.8306C396.337 86.4081 396.587 83.4665 396.702 80.0058L397.279 63.6252H428.31V104H419.082V69.1046L421.216 71.2387H403.393L405.296 68.9893L404.95 79.6598C404.835 83.6203 404.566 87.1387 404.143 90.2149C403.72 93.2911 403.066 95.9058 402.182 98.0591C401.297 100.212 400.086 101.847 398.548 102.962C397.01 104.077 395.068 104.634 392.723 104.634ZM461.407 104V91.2531L463.715 93.2718H452.64C449.141 93.2718 446.123 92.6951 443.585 91.5415C441.047 90.3879 439.105 88.7152 437.759 86.5235C436.414 84.3317 435.741 81.7169 435.741 78.6792C435.741 75.5261 436.452 72.8345 437.875 70.6043C439.336 68.3356 441.374 66.6052 443.989 65.4132C446.603 64.2212 449.68 63.6252 453.217 63.6252H470.636V104H461.407ZM435.856 104L445.892 89.5227H455.351L445.719 104H435.856ZM461.407 88.2538V68.8162L463.715 71.2387H453.448C450.795 71.2387 448.757 71.854 447.334 73.0844C445.95 74.3149 445.258 76.1414 445.258 78.5639C445.258 80.9095 445.93 82.7167 447.276 83.9856C448.622 85.2546 450.602 85.889 453.217 85.889H463.715L461.407 88.2538ZM489.461 104V69.1046L491.595 71.2387H476.599V63.6252H511.609V71.2387H496.613L498.689 69.1046V104H489.461ZM537.029 76.8912C541.913 76.8912 545.681 77.9871 548.334 80.1789C550.987 82.3322 552.314 85.5814 552.314 89.9265C552.314 94.5408 550.833 98.0399 547.873 100.424C544.95 102.808 540.894 104 535.703 104H517.476V63.6252H526.762V76.8912H537.029ZM535.183 97.0786C537.567 97.0786 539.452 96.4826 540.836 95.2906C542.22 94.0986 542.912 92.3682 542.912 90.0995C542.912 87.8693 542.22 86.2735 540.836 85.3122C539.49 84.3125 537.606 83.8126 535.183 83.8126H526.762V97.0786H535.183ZM911.649 104V63.6252H930.452C935.143 63.6252 938.796 64.5288 941.411 66.3361C944.026 68.1433 945.333 70.7196 945.333 74.065C945.333 77.3718 944.102 79.9481 941.642 81.7939C939.181 83.6011 935.912 84.5047 931.836 84.5047L932.932 82.0822C937.469 82.0822 940.988 82.9859 943.487 84.7931C945.987 86.6004 947.236 89.2151 947.236 92.6374C947.236 96.175 945.89 98.9628 943.199 101.001C940.546 103 936.662 104 931.548 104H911.649ZM920.935 97.0786H931.202C933.355 97.0786 934.989 96.6556 936.104 95.8097C937.22 94.9637 937.777 93.6564 937.777 91.8876C937.777 90.1957 937.22 88.946 936.104 88.1385C934.989 87.2925 933.355 86.8695 931.202 86.8695H920.935V97.0786ZM920.935 80.3519H929.644C931.682 80.3519 933.22 79.9481 934.259 79.1407C935.297 78.2947 935.816 77.0642 935.816 75.4492C935.816 73.8342 935.297 72.623 934.259 71.8155C933.22 70.9696 931.682 70.5466 929.644 70.5466H920.935V80.3519ZM997.723 99.8472V71.2387H983.881L983.707 77.1219C983.592 79.6213 983.419 81.9861 983.188 84.2163C982.996 86.4466 982.689 88.4845 982.266 90.3302C981.843 92.1375 981.285 93.6756 980.593 94.9445C979.939 96.2134 979.112 97.1171 978.113 97.6554L968.134 96.3865C969.519 96.4249 970.653 95.9443 971.537 94.9445C972.46 93.9447 973.191 92.5412 973.729 90.734C974.267 88.8883 974.652 86.735 974.883 84.274C975.152 81.8131 975.344 79.1407 975.459 76.2567L975.921 63.6252H1006.95V99.8472H997.723ZM966.808 112.363L966.865 96.3865H1012.6V112.363H1003.95V104H975.459V112.363H966.808ZM1027.49 79.8905H1046.93V87.1579H1027.49V79.8905ZM1028.18 96.5018H1050.16V104H1018.89V63.6252H1049.41V71.1234H1028.18V96.5018ZM1085.39 63.6252H1094.73V104H1085.39V63.6252ZM1067.05 104H1057.7V63.6252H1067.05V104ZM1086.08 87.4463H1066.36V79.5444H1086.08V87.4463ZM1124.4 76.8912C1129.28 76.8912 1133.05 77.9871 1135.71 80.1789C1138.36 82.3322 1139.69 85.5814 1139.69 89.9265C1139.69 94.5408 1138.21 98.0399 1135.25 100.424C1132.32 102.808 1128.27 104 1123.07 104H1104.85V63.6252H1114.13V76.8912H1124.4ZM1122.56 97.0786C1124.94 97.0786 1126.82 96.4826 1128.21 95.2906C1129.59 94.0986 1130.28 92.3682 1130.28 90.0995C1130.28 87.8693 1129.59 86.2735 1128.21 85.3122C1126.86 84.3125 1124.98 83.8126 1122.56 83.8126H1114.13V97.0786H1122.56ZM6.05399 170V121.29H17.2573V153.021L40.4991 121.29H51.0762V170H39.9424V138.338L16.7007 170H6.05399ZM63.2043 170V121.29H72.5288L93.2655 155.665H88.3249L108.714 121.29H118.038L118.108 170H107.531L107.461 137.503H109.479L93.1263 164.851H88.1161L71.4154 137.503H73.7814V170H63.2043ZM140.576 140.913H164.027V149.681H140.576V140.913ZM141.411 160.954H167.924V170H130.208V121.29H167.019V130.336H141.411V160.954ZM187.537 170V127.9L190.111 130.475H172.019V121.29H214.258V130.475H196.165L198.67 127.9V170H187.537ZM244.926 137.295C250.817 137.295 255.364 138.617 258.564 141.261C261.765 143.859 263.366 147.779 263.366 153.021C263.366 158.588 261.58 162.809 258.008 165.686C254.482 168.562 249.588 170 243.325 170H221.336V121.29H232.539V137.295H244.926ZM242.699 161.65C245.575 161.65 247.848 160.931 249.518 159.493C251.188 158.054 252.023 155.967 252.023 153.23C252.023 150.539 251.188 148.614 249.518 147.454C247.895 146.248 245.621 145.645 242.699 145.645H232.539V161.65H242.699ZM301.701 170V127.9L304.276 130.475H286.184V121.29H328.422V130.475H310.33L312.835 127.9V170H301.701ZM335.501 170V121.29H358.186C363.845 121.29 368.252 122.38 371.407 124.56C374.562 126.741 376.139 129.849 376.139 133.885C376.139 137.874 374.654 140.983 371.685 143.209C368.716 145.39 364.773 146.48 359.856 146.48L361.178 143.557C366.652 143.557 370.897 144.647 373.912 146.828C376.928 149.008 378.435 152.163 378.435 156.292C378.435 160.559 376.812 163.923 373.564 166.382C370.363 168.794 365.678 170 359.508 170H335.501ZM346.704 161.65H359.09C361.688 161.65 363.66 161.139 365.005 160.119C366.35 159.098 367.023 157.521 367.023 155.387C367.023 153.346 366.35 151.838 365.005 150.864C363.66 149.843 361.688 149.333 359.09 149.333H346.704V161.65ZM346.704 141.47H357.211C359.67 141.47 361.526 140.983 362.778 140.008C364.031 138.988 364.657 137.503 364.657 135.555C364.657 133.606 364.031 132.145 362.778 131.171C361.526 130.15 359.67 129.64 357.211 129.64H346.704V141.47ZM397.719 140.913H421.169V149.681H397.719V140.913ZM398.554 160.954H425.066V170H387.35V121.29H424.161V130.336H398.554V160.954ZM434.171 170V121.29H455.256C459.617 121.29 463.374 122.009 466.529 123.447C469.684 124.839 472.119 126.857 473.836 129.501C475.552 132.145 476.41 135.3 476.41 138.965C476.41 142.583 475.552 145.714 473.836 148.359C472.119 151.003 469.684 153.044 466.529 154.482C463.374 155.874 459.617 156.57 455.256 156.57H440.434L445.444 151.49V170H434.171ZM445.444 152.743L440.434 147.385H454.63C458.109 147.385 460.707 146.642 462.423 145.158C464.14 143.673 464.998 141.609 464.998 138.965C464.998 136.274 464.14 134.186 462.423 132.702C460.707 131.217 458.109 130.475 454.63 130.475H440.434L445.444 125.117V152.743ZM513.756 164.99V130.475H497.056L496.847 137.573C496.708 140.588 496.499 143.441 496.221 146.132C495.989 148.823 495.617 151.281 495.107 153.508C494.597 155.688 493.924 157.544 493.089 159.075C492.3 160.606 491.303 161.696 490.097 162.346L478.059 160.815C479.729 160.861 481.097 160.281 482.164 159.075C483.278 157.869 484.159 156.176 484.808 153.995C485.458 151.768 485.922 149.171 486.2 146.202C486.525 143.233 486.757 140.008 486.896 136.529L487.453 121.29H524.89V164.99H513.756ZM476.458 180.09L476.528 160.815H531.709V180.09H521.272V170H486.896V180.09H476.458ZM540.968 160.815C543.659 161.603 545.909 161.835 547.718 161.51C549.574 161.139 551.221 159.84 552.659 157.614L555.025 154.065L556.068 152.882L572.212 121.29H583.277L562.54 159.84C560.684 163.32 558.481 165.987 555.929 167.843C553.424 169.698 550.664 170.742 547.648 170.974C544.633 171.253 541.502 170.719 538.254 169.374L540.968 160.815ZM555.86 162.276L533.87 121.29H545.909L562.053 153.995L555.86 162.276ZM588.634 170V121.29H599.837V140.426H612.432V150.168H599.837V170H588.634ZM631.638 170.835C627.927 170.835 624.494 170.209 621.339 168.956C618.231 167.704 615.517 165.964 613.197 163.737C610.878 161.464 609.069 158.797 607.77 155.735C606.517 152.627 605.891 149.263 605.891 145.645C605.891 141.98 606.517 138.617 607.77 135.555C609.069 132.493 610.878 129.849 613.197 127.622C615.517 125.349 618.231 123.586 621.339 122.334C624.494 121.081 627.927 120.455 631.638 120.455C635.303 120.455 638.712 121.081 641.867 122.334C645.022 123.586 647.735 125.349 650.009 127.622C652.328 129.849 654.137 132.516 655.436 135.624C656.735 138.686 657.385 142.026 657.385 145.645C657.385 149.263 656.735 152.627 655.436 155.735C654.137 158.797 652.328 161.464 650.009 163.737C647.735 165.964 645.022 167.704 641.867 168.956C638.712 170.209 635.303 170.835 631.638 170.835ZM631.638 161.232C633.679 161.232 635.558 160.861 637.274 160.119C638.991 159.377 640.498 158.333 641.797 156.987C643.096 155.596 644.117 153.949 644.859 152.047C645.601 150.145 645.973 148.011 645.973 145.645C645.973 143.279 645.601 141.145 644.859 139.243C644.117 137.341 643.096 135.717 641.797 134.372C640.498 132.98 638.991 131.913 637.274 131.171C635.558 130.429 633.679 130.058 631.638 130.058C629.643 130.058 627.764 130.429 626.001 131.171C624.285 131.913 622.777 132.98 621.478 134.372C620.179 135.717 619.159 137.341 618.416 139.243C617.674 141.145 617.303 143.279 617.303 145.645C617.303 148.011 617.674 150.145 618.416 152.047C619.159 153.949 620.179 155.596 621.478 156.987C622.777 158.333 624.285 159.377 626.001 160.119C627.764 160.861 629.643 161.232 631.638 161.232ZM0.461426 225L18.4571 184.625H27.6856L45.7389 225H35.9336L21.1679 189.355H24.8593L10.036 225H0.461426ZM9.45924 216.348L11.9394 209.254H32.7036L35.2414 216.348H9.45924ZM76.1372 225V190.105L78.2713 192.239H63.2749V184.625H98.2856V192.239H83.2893L85.3657 190.105V225H76.1372ZM97.5683 225L115.564 184.625H124.792L142.846 225H133.04L118.275 189.355H121.966L107.143 225H97.5683ZM106.566 216.348L109.046 209.254H129.81L132.348 216.348H106.566ZM174.328 225L161.754 205.562L169.31 201.006L184.941 225H174.328ZM148.085 225V184.625H157.371V225H148.085ZM154.66 208.735V200.948H168.733V208.735H154.66ZM170.175 205.851L161.581 204.813L174.674 184.625H184.537L170.175 205.851ZM235.675 225L224.832 205.562L232.734 201.006L246.461 225H235.675ZM217.968 208.735V200.948H230.542V208.735H217.968ZM233.253 205.851L224.601 204.813L235.848 184.625H245.711L233.253 205.851ZM196.512 225H185.726L199.453 201.006L207.355 205.562L196.512 225ZM220.737 225H211.566V184.625H220.737V225ZM214.277 208.735H201.645V200.948H214.277V208.735ZM198.992 205.851L186.476 184.625H196.339L207.528 204.813L198.992 205.851ZM259.533 200.89H278.971V208.158H259.533V200.89ZM260.226 217.502H282.201V225H250.939V184.625H281.451V192.123H260.226V217.502ZM618.695 225V184.625H627.981V210.926L647.246 184.625H656.013V225H646.784V198.756L627.52 225H618.695ZM666.188 225.634C665.495 225.634 664.765 225.577 663.996 225.461C663.265 225.346 662.458 225.192 661.573 225L662.15 217.098C662.688 217.252 663.246 217.329 663.823 217.329C665.399 217.329 666.63 216.694 667.514 215.425C668.399 214.118 669.033 212.253 669.418 209.831C669.802 207.408 670.052 204.467 670.167 201.006L670.744 184.625H701.775V225H692.547V190.105L694.681 192.239H676.858L678.761 189.989L678.415 200.66C678.3 204.62 678.031 208.139 677.608 211.215C677.185 214.291 676.531 216.906 675.647 219.059C674.762 221.212 673.551 222.847 672.013 223.962C670.475 225.077 668.533 225.634 666.188 225.634ZM711.859 225V184.625H721.145V210.926L740.41 184.625H749.177V225H739.948V198.756L720.684 225H711.859Z" fill="white"/>
<path d="M590.665 104.692C586.973 104.692 583.762 103.923 581.032 102.385C578.341 100.847 576.264 98.5975 574.803 95.6366C573.342 92.6758 572.611 89.0229 572.611 84.6778C572.611 80.0251 573.476 76.0837 575.207 72.8537C576.976 69.6237 579.398 67.1628 582.474 65.4709C585.589 63.779 589.165 62.933 593.202 62.933C595.356 62.933 597.413 63.1638 599.374 63.6252C601.335 64.0866 603.027 64.7788 604.45 65.7016L600.989 72.5653C599.874 71.7963 598.682 71.2772 597.413 71.008C596.144 70.7004 594.817 70.5466 593.433 70.5466C589.934 70.5466 587.165 71.604 585.127 73.7189C583.089 75.8338 582.071 78.9676 582.071 83.1205C582.071 83.8126 582.071 84.5816 582.071 85.4276C582.109 86.2735 582.224 87.1195 582.417 87.9654L579.821 85.5429C580.552 84.0433 581.494 82.7936 582.647 81.7939C583.801 80.7556 585.166 79.9866 586.742 79.4867C588.357 78.9484 590.126 78.6792 592.049 78.6792C594.664 78.6792 597.009 79.1983 599.086 80.2365C601.162 81.2747 602.815 82.7359 604.046 84.6201C605.315 86.5042 605.949 88.7152 605.949 91.2531C605.949 93.9832 605.257 96.3672 603.873 98.4052C602.527 100.405 600.701 101.962 598.393 103.077C596.125 104.154 593.548 104.692 590.665 104.692ZM590.145 97.7131C591.453 97.7131 592.606 97.4824 593.606 97.0209C594.644 96.521 595.452 95.8097 596.029 94.8868C596.605 93.964 596.894 92.9065 596.894 91.7145C596.894 89.8688 596.259 88.4076 594.99 87.331C593.76 86.2159 592.107 85.6583 590.03 85.6583C588.646 85.6583 587.435 85.9275 586.396 86.4658C585.358 86.9657 584.531 87.677 583.916 88.5999C583.339 89.4843 583.051 90.5225 583.051 91.7145C583.051 92.8681 583.339 93.9063 583.916 94.8291C584.493 95.7136 585.3 96.4249 586.339 96.9632C587.377 97.4631 588.646 97.7131 590.145 97.7131ZM626.64 104.692C623.333 104.692 620.372 103.885 617.757 102.27C615.142 100.616 613.085 98.2322 611.586 95.1175C610.086 92.0029 609.336 88.2346 609.336 83.8126C609.336 79.3906 610.086 75.6223 611.586 72.5076C613.085 69.393 615.142 67.0282 617.757 65.4132C620.372 63.7598 623.333 62.933 626.64 62.933C629.985 62.933 632.946 63.7598 635.522 65.4132C638.137 67.0282 640.194 69.393 641.694 72.5076C643.193 75.6223 643.943 79.3906 643.943 83.8126C643.943 88.2346 643.193 92.0029 641.694 95.1175C640.194 98.2322 638.137 100.616 635.522 102.27C632.946 103.885 629.985 104.692 626.64 104.692ZM626.64 96.7902C628.216 96.7902 629.581 96.348 630.735 95.4636C631.927 94.5792 632.85 93.1757 633.503 91.2531C634.195 89.3305 634.542 86.8503 634.542 83.8126C634.542 80.7749 634.195 78.2947 633.503 76.3721C632.85 74.4495 631.927 73.046 630.735 72.1616C629.581 71.2772 628.216 70.835 626.64 70.835C625.102 70.835 623.736 71.2772 622.544 72.1616C621.391 73.046 620.468 74.4495 619.776 76.3721C619.122 78.2947 618.795 80.7749 618.795 83.8126C618.795 86.8503 619.122 89.3305 619.776 91.2531C620.468 93.1757 621.391 94.5792 622.544 95.4636C623.736 96.348 625.102 96.7902 626.64 96.7902ZM667.586 104V63.6252H675.315L692.503 92.1183H688.408L705.308 63.6252H713.037L713.094 104H704.327L704.27 77.0642H705.942L692.388 99.7318H688.235L674.392 77.0642H676.353V104H667.586ZM723.124 104V63.6252H732.41V89.9265L751.675 63.6252H760.442V104H751.213V77.7564L731.949 104H723.124ZM798.18 63.6252H807.524V104H798.18V63.6252ZM779.839 104H770.495V63.6252H779.839V104ZM798.872 87.4463H779.146V79.5444H798.872V87.4463ZM819.024 96.3865C821.254 97.0402 823.119 97.2324 824.619 96.9632C826.157 96.6556 827.522 95.579 828.714 93.7333L830.675 90.7917L831.54 89.8111L844.922 63.6252H854.093L836.905 95.579C835.366 98.4629 833.54 100.674 831.425 102.212C829.349 103.75 827.061 104.615 824.561 104.807C822.062 105.038 819.466 104.596 816.775 103.481L819.024 96.3865ZM831.367 97.5977L813.141 63.6252H823.119L836.501 90.734L831.367 97.5977ZM867.299 104V69.1046L869.433 71.2387H854.436V63.6252H889.447V71.2387H874.451L876.527 69.1046V104H867.299ZM708.91 170.835C705.153 170.835 701.65 170.232 698.403 169.026C695.202 167.773 692.419 166.01 690.053 163.737C687.687 161.464 685.831 158.797 684.486 155.735C683.187 152.673 682.537 149.31 682.537 145.645C682.537 141.98 683.187 138.617 684.486 135.555C685.831 132.493 687.687 129.826 690.053 127.552C692.465 125.279 695.272 123.54 698.472 122.334C701.673 121.081 705.176 120.455 708.98 120.455C713.202 120.455 717.006 121.197 720.392 122.681C723.825 124.12 726.701 126.254 729.021 129.083L721.784 135.764C720.114 133.862 718.258 132.447 716.217 131.519C714.176 130.545 711.949 130.058 709.537 130.058C707.264 130.058 705.176 130.429 703.274 131.171C701.372 131.913 699.725 132.98 698.333 134.372C696.942 135.764 695.851 137.411 695.063 139.313C694.321 141.215 693.949 143.325 693.949 145.645C693.949 147.964 694.321 150.075 695.063 151.977C695.851 153.879 696.942 155.526 698.333 156.918C699.725 158.31 701.372 159.377 703.274 160.119C705.176 160.861 707.264 161.232 709.537 161.232C711.949 161.232 714.176 160.768 716.217 159.84C718.258 158.866 720.114 157.405 721.784 155.457L729.021 162.137C726.701 164.967 723.825 167.124 720.392 168.608C717.006 170.093 713.178 170.835 708.91 170.835ZM746.4 170V127.9L748.975 130.475H730.882V121.29H773.121V130.475H755.029L757.534 127.9V170H746.4ZM780.199 170V121.29H801.284C805.644 121.29 809.402 122.009 812.557 123.447C815.711 124.839 818.147 126.857 819.863 129.501C821.58 132.145 822.438 135.3 822.438 138.965C822.438 142.583 821.58 145.714 819.863 148.359C818.147 151.003 815.711 153.044 812.557 154.482C809.402 155.874 805.644 156.57 801.284 156.57H786.462L791.472 151.49V170H780.199ZM791.472 152.743L786.462 147.385H800.657C804.137 147.385 806.735 146.642 808.451 145.158C810.168 143.673 811.026 141.609 811.026 138.965C811.026 136.274 810.168 134.186 808.451 132.702C806.735 131.217 804.137 130.475 800.657 130.475H786.462L791.472 125.117V152.743ZM821.931 170L843.642 121.29H854.775L876.556 170H864.726L846.912 126.996H851.366L833.482 170H821.931ZM832.786 159.562L835.778 151.003H860.829L863.891 159.562H832.786ZM891.076 170V127.9L893.651 130.475H875.559V121.29H917.797V130.475H899.705L902.21 127.9V170H891.076ZM935.244 140.913H958.695V149.681H935.244V140.913ZM936.079 160.954H962.591V170H924.876V121.29H961.687V130.336H936.079V160.954ZM971.697 170V121.29H1006.07L1006 130.475H980.256L982.831 127.9L982.9 170H971.697ZM1012.95 170V121.29H1024.15V153.021L1047.39 121.29H1057.97V170H1046.83V138.338L1023.59 170H1012.95ZM1070.1 170V121.29H1081.3V140.426H1093.89V150.168H1081.3V170H1070.1ZM1113.1 170.835C1109.39 170.835 1105.96 170.209 1102.8 168.956C1099.69 167.704 1096.98 165.964 1094.66 163.737C1092.34 161.464 1090.53 158.797 1089.23 155.735C1087.98 152.627 1087.35 149.263 1087.35 145.645C1087.35 141.98 1087.98 138.617 1089.23 135.555C1090.53 132.493 1092.34 129.849 1094.66 127.622C1096.98 125.349 1099.69 123.586 1102.8 122.334C1105.96 121.081 1109.39 120.455 1113.1 120.455C1116.76 120.455 1120.17 121.081 1123.33 122.334C1126.48 123.586 1129.2 125.349 1131.47 127.622C1133.79 129.849 1135.6 132.516 1136.9 135.624C1138.2 138.686 1138.85 142.026 1138.85 145.645C1138.85 149.263 1138.2 152.627 1136.9 155.735C1135.6 158.797 1133.79 161.464 1131.47 163.737C1129.2 165.964 1126.48 167.704 1123.33 168.956C1120.17 170.209 1116.76 170.835 1113.1 170.835ZM1113.1 161.232C1115.14 161.232 1117.02 160.861 1118.74 160.119C1120.45 159.377 1121.96 158.333 1123.26 156.987C1124.56 155.596 1125.58 153.949 1126.32 152.047C1127.06 150.145 1127.43 148.011 1127.43 145.645C1127.43 143.279 1127.06 141.145 1126.32 139.243C1125.58 137.341 1124.56 135.717 1123.26 134.372C1121.96 132.98 1120.45 131.913 1118.74 131.171C1117.02 130.429 1115.14 130.058 1113.1 130.058C1111.11 130.058 1109.23 130.429 1107.46 131.171C1105.75 131.913 1104.24 132.98 1102.94 134.372C1101.64 135.717 1100.62 137.341 1099.88 139.243C1099.14 141.145 1098.77 143.279 1098.77 145.645C1098.77 148.011 1099.14 150.145 1099.88 152.047C1100.62 153.949 1101.64 155.596 1102.94 156.987C1104.24 158.333 1105.75 159.377 1107.46 160.119C1109.23 160.861 1111.11 161.232 1113.1 161.232ZM333.769 184.625H343.112V225H333.769V184.625ZM315.427 225H306.083V184.625H315.427V225ZM334.461 208.446H314.735V200.544H334.461V208.446ZM372.55 225.692C369.359 225.692 366.398 225.173 363.668 224.135C360.976 223.097 358.631 221.635 356.631 219.751C354.67 217.867 353.132 215.656 352.017 213.118C350.94 210.58 350.402 207.812 350.402 204.813C350.402 201.813 350.94 199.045 352.017 196.507C353.132 193.969 354.689 191.758 356.689 189.874C358.688 187.99 361.034 186.529 363.726 185.49C366.417 184.452 369.34 183.933 372.493 183.933C375.684 183.933 378.607 184.452 381.26 185.49C383.952 186.529 386.278 187.99 388.239 189.874C390.238 191.758 391.796 193.969 392.911 196.507C394.026 199.006 394.584 201.775 394.584 204.813C394.584 207.812 394.026 210.6 392.911 213.176C391.796 215.714 390.238 217.925 388.239 219.809C386.278 221.655 383.952 223.097 381.26 224.135C378.607 225.173 375.704 225.692 372.55 225.692ZM372.493 217.733C374.3 217.733 375.953 217.425 377.453 216.81C378.991 216.194 380.337 215.31 381.491 214.156C382.644 213.003 383.529 211.638 384.144 210.061C384.797 208.485 385.124 206.735 385.124 204.813C385.124 202.89 384.797 201.14 384.144 199.564C383.529 197.987 382.644 196.622 381.491 195.469C380.375 194.315 379.049 193.431 377.511 192.816C375.973 192.2 374.3 191.893 372.493 191.893C370.686 191.893 369.013 192.2 367.475 192.816C365.975 193.431 364.649 194.315 363.495 195.469C362.341 196.622 361.438 197.987 360.784 199.564C360.169 201.14 359.861 202.89 359.861 204.813C359.861 206.697 360.169 208.446 360.784 210.061C361.438 211.638 362.322 213.003 363.437 214.156C364.591 215.31 365.937 216.194 367.475 216.81C369.013 217.425 370.686 217.733 372.493 217.733ZM401.701 217.386C403.932 218.04 405.797 218.232 407.296 217.963C408.834 217.656 410.199 216.579 411.391 214.733L413.352 211.792L414.218 210.811L427.599 184.625H436.77L419.582 216.579C418.044 219.463 416.217 221.674 414.102 223.212C412.026 224.75 409.738 225.615 407.239 225.807C404.739 226.038 402.144 225.596 399.452 224.481L401.701 217.386ZM414.045 218.598L395.818 184.625H405.797L419.178 211.734L414.045 218.598ZM449.976 225V190.105L452.11 192.239H437.114V184.625H472.124V192.239H457.128L459.204 190.105V225H449.976ZM477.991 225V184.625H510.58V192.066H487.278V200.371H498.467C503.351 200.371 507.061 201.39 509.599 203.428C512.175 205.466 513.464 208.427 513.464 212.311C513.464 216.31 512.041 219.424 509.195 221.655C506.35 223.885 502.332 225 497.141 225H477.991ZM487.278 218.079H496.621C499.006 218.079 500.832 217.617 502.101 216.694C503.37 215.733 504.004 214.349 504.004 212.541C504.004 209.004 501.543 207.235 496.621 207.235H487.278V218.079ZM520.438 217.386C522.668 218.04 524.533 218.232 526.032 217.963C527.571 217.656 528.936 216.579 530.128 214.733L532.089 211.792L532.954 210.811L546.335 184.625H555.506L538.318 216.579C536.78 219.463 534.953 221.674 532.838 223.212C530.762 224.75 528.474 225.615 525.975 225.807C523.475 226.038 520.88 225.596 518.188 224.481L520.438 217.386ZM532.781 218.598L514.554 184.625H524.533L537.914 211.734L532.781 218.598ZM586.075 225L573.501 205.562L581.057 201.006L596.687 225H586.075ZM559.831 225V184.625H569.117V225H559.831ZM566.406 208.735V200.948H580.48V208.735H566.406ZM581.922 205.851L573.328 204.813L586.421 184.625H596.284L581.922 205.851ZM794.656 225.692C791.541 225.692 788.638 225.192 785.946 224.193C783.293 223.154 780.986 221.693 779.025 219.809C777.064 217.925 775.526 215.714 774.411 213.176C773.334 210.638 772.796 207.85 772.796 204.813C772.796 201.775 773.334 198.987 774.411 196.449C775.526 193.911 777.064 191.7 779.025 189.816C781.024 187.932 783.351 186.49 786.004 185.49C788.657 184.452 791.56 183.933 794.713 183.933C798.212 183.933 801.366 184.548 804.173 185.779C807.018 186.971 809.402 188.74 811.325 191.085L805.326 196.622C803.942 195.046 802.404 193.873 800.712 193.104C799.02 192.296 797.174 191.893 795.175 191.893C793.291 191.893 791.56 192.2 789.984 192.816C788.407 193.431 787.042 194.315 785.889 195.469C784.735 196.622 783.831 197.987 783.178 199.564C782.562 201.14 782.255 202.89 782.255 204.813C782.255 206.735 782.562 208.485 783.178 210.061C783.831 211.638 784.735 213.003 785.889 214.156C787.042 215.31 788.407 216.194 789.984 216.81C791.56 217.425 793.291 217.733 795.175 217.733C797.174 217.733 799.02 217.348 800.712 216.579C802.404 215.771 803.942 214.56 805.326 212.945L811.325 218.482C809.402 220.828 807.018 222.616 804.173 223.846C801.366 225.077 798.193 225.692 794.656 225.692ZM817.415 225V184.625H825.144L842.332 213.118H838.237L855.136 184.625H862.865L862.923 225H854.156L854.098 198.064H855.771L842.216 220.732H838.064L824.221 198.064H826.182V225H817.415ZM868.396 225L886.392 184.625H895.62L913.673 225H903.868L889.103 189.355H892.794L877.971 225H868.396ZM877.394 216.348L879.874 209.254H900.638L903.176 216.348H877.394ZM919.028 225V184.625H936.504C940.119 184.625 943.233 185.221 945.848 186.413C948.463 187.567 950.481 189.239 951.904 191.431C953.327 193.623 954.038 196.238 954.038 199.275C954.038 202.275 953.327 204.87 951.904 207.062C950.481 209.254 948.463 210.946 945.848 212.138C943.233 213.291 940.119 213.868 936.504 213.868H924.219L928.371 209.658V225H919.028ZM928.371 210.696L924.219 206.255H935.985C938.869 206.255 941.022 205.639 942.445 204.409C943.868 203.178 944.579 201.467 944.579 199.275C944.579 197.045 943.868 195.315 942.445 194.084C941.022 192.854 938.869 192.239 935.985 192.239H924.219L928.371 187.797V210.696ZM967.841 225V190.105L969.976 192.239H954.979V184.625H989.99V192.239H974.994L977.07 190.105V225H967.841ZM1016.63 222.462C1011.41 222.462 1006.96 221.77 1003.31 220.386C999.696 219.001 996.947 217.002 995.063 214.387C993.179 211.734 992.237 208.504 992.237 204.697C992.237 200.89 993.179 197.68 995.063 195.065C996.947 192.412 999.696 190.393 1003.31 189.009C1006.96 187.624 1011.41 186.932 1016.63 186.932C1016.71 186.932 1016.92 186.932 1017.27 186.932C1017.65 186.932 1018.02 186.932 1018.36 186.932C1018.75 186.932 1018.96 186.932 1019 186.932C1024.19 186.932 1028.57 187.624 1032.15 189.009C1035.76 190.393 1038.49 192.412 1040.34 195.065C1042.19 197.718 1043.11 200.929 1043.11 204.697C1043.11 208.427 1042.19 211.638 1040.34 214.33C1038.53 216.983 1035.86 219.001 1032.32 220.386C1028.82 221.77 1024.54 222.462 1019.46 222.462C1019.35 222.462 1019.08 222.462 1018.65 222.462C1018.23 222.462 1017.81 222.462 1017.38 222.462C1017 222.462 1016.75 222.462 1016.63 222.462ZM1017.5 215.252C1017.62 215.252 1017.77 215.252 1017.96 215.252C1018.15 215.252 1018.29 215.252 1018.36 215.252C1021.9 215.252 1024.82 214.868 1027.13 214.099C1029.48 213.291 1031.23 212.119 1032.38 210.58C1033.53 209.004 1034.11 207.024 1034.11 204.64C1034.11 202.256 1033.52 200.294 1032.32 198.756C1031.13 197.218 1029.38 196.084 1027.07 195.353C1024.81 194.584 1021.94 194.2 1018.48 194.2C1018.4 194.2 1018.25 194.2 1018.02 194.2C1017.83 194.2 1017.65 194.2 1017.5 194.2C1013.85 194.2 1010.83 194.565 1008.44 195.296C1006.06 196.026 1004.27 197.18 1003.08 198.756C1001.89 200.294 1001.29 202.275 1001.29 204.697C1001.29 207.12 1001.93 209.119 1003.2 210.696C1004.46 212.234 1006.29 213.387 1008.68 214.156C1011.1 214.887 1014.04 215.252 1017.5 215.252ZM1013.4 226.788V182.895H1022V226.788H1013.4ZM1069.42 225.692C1066.23 225.692 1063.27 225.173 1060.54 224.135C1057.85 223.097 1055.5 221.635 1053.5 219.751C1051.54 217.867 1050 215.656 1048.89 213.118C1047.81 210.58 1047.27 207.812 1047.27 204.813C1047.27 201.813 1047.81 199.045 1048.89 196.507C1050 193.969 1051.56 191.758 1053.56 189.874C1055.56 187.99 1057.91 186.529 1060.6 185.49C1063.29 184.452 1066.21 183.933 1069.36 183.933C1072.56 183.933 1075.48 184.452 1078.13 185.49C1080.82 186.529 1083.15 187.99 1085.11 189.874C1087.11 191.758 1088.67 193.969 1089.78 196.507C1090.9 199.006 1091.45 201.775 1091.45 204.813C1091.45 207.812 1090.9 210.6 1089.78 213.176C1088.67 215.714 1087.11 217.925 1085.11 219.809C1083.15 221.655 1080.82 223.097 1078.13 224.135C1075.48 225.173 1072.57 225.692 1069.42 225.692ZM1069.36 217.733C1071.17 217.733 1072.82 217.425 1074.32 216.81C1075.86 216.194 1077.21 215.31 1078.36 214.156C1079.52 213.003 1080.4 211.638 1081.01 210.061C1081.67 208.485 1082 206.735 1082 204.813C1082 202.89 1081.67 201.14 1081.01 199.564C1080.4 197.987 1079.52 196.622 1078.36 195.469C1077.25 194.315 1075.92 193.431 1074.38 192.816C1072.84 192.2 1071.17 191.893 1069.36 191.893C1067.56 191.893 1065.88 192.2 1064.35 192.816C1062.85 193.431 1061.52 194.315 1060.37 195.469C1059.21 196.622 1058.31 197.987 1057.66 199.564C1057.04 201.14 1056.73 202.89 1056.73 204.813C1056.73 206.697 1057.04 208.446 1057.66 210.061C1058.31 211.638 1059.19 213.003 1060.31 214.156C1061.46 215.31 1062.81 216.194 1064.35 216.81C1065.88 217.425 1067.56 217.733 1069.36 217.733ZM1126.34 184.625H1135.68V225H1126.34V184.625ZM1108 225H1098.65V184.625H1108V225ZM1127.03 208.446H1107.3V200.544H1127.03V208.446Z" fill="#42D4F8"/>
</svg>
