<svg width="3840" height="2158" viewBox="0 0 3840 2158" fill="none" xmlns="http://www.w3.org/2000/svg">
<g opacity="0.56" clip-path="url(#clip0_269_250)">
<path d="M1047.8 1383.66L1088.72 1417.51L1088.72 1451.48C1074.44 1463.3 1060.17 1475.11 1045.89 1486.92L846.074 1486.92L846.074 1567.22L1074.86 1567.22L1074.86 1567.19L1086.13 1567.19C1123.1 1536.6 1160.07 1506.01 1197.01 1475.45C1278.76 1475.45 1360.52 1475.45 1442.28 1475.45C1449.23 1469.7 1456.15 1463.98 1463.1 1458.23L1463.1 1412.35C1456.15 1406.6 1449.23 1400.88 1442.28 1395.13L1198.92 1395.13L1088.08 1303.42L1081.77 1303.42L1081.77 1303.33L846.074 1303.33L846.074 1383.62L1047.8 1383.62L1047.8 1383.66Z" fill="url(#paint0_linear_269_250)"/>
<path d="M943.125 970.651L943.125 867.416C1109.5 867.416 1275.91 867.416 1442.28 867.416C1449.23 861.665 1456.15 855.945 1463.1 850.194C1463.1 829.149 1463.1 808.135 1463.1 787.09L943.125 787.09L943.125 672.384L846.074 672.384L846.074 970.651L943.125 970.651Z" fill="url(#paint1_linear_269_250)"/>
<path d="M846 1074.23L846.076 1074.29L846.076 1268.92C1052.05 1268.92 1258.03 1268.92 1464 1268.92L1464 1200.84L1449.23 1188.62L1292.56 1188.62L1079.7 1012.52L1077.34 1010.56L947.823 1010.56L947.823 1010.5L933.545 1010.5C904.351 1028.94 875.157 1047.34 845.963 1065.77L845.963 1074.23L846 1074.23ZM943.127 1188.62L943.127 1090.89L1037.13 1090.89L1155.26 1188.62L943.127 1188.62Z" fill="url(#paint2_linear_269_250)"/>
<path d="M846.074 -7.89497C884.436 23.8435 922.798 55.582 961.16 87.3205L846.074 87.3205L846.074 169.915C884.436 201.654 922.798 233.392 961.16 265.131L846.074 265.131L846.074 345.425C1051.75 345.425 1257.42 345.425 1463.1 345.425C1463.1 324.38 1463.1 303.366 1463.1 282.321C1456.15 276.57 1449.23 270.85 1442.28 265.099L1098.41 265.099L980.548 167.584L1442.28 167.584L1463.1 150.362C1463.1 129.317 1463.1 108.303 1463.1 87.2582C1341.55 87.2582 1219.96 87.2582 1098.41 87.2582L973.634 -15.9772C1136.78 -15.9772 1299.96 -15.9772 1463.1 -15.9772C1463.1 -37.0222 1463.1 -58.0363 1463.1 -79.0813C1456.15 -84.8321 1449.23 -90.5518 1442.28 -96.3027L846.074 -96.3027L846.074 -7.9572L846.074 -7.89497Z" fill="url(#paint3_linear_269_250)"/>
<path d="M846.076 1974.44L846.076 2158C852.088 2158 858.1 2158 864.111 2158L1348.24 2158C1361.09 2147.37 1373.98 2136.71 1386.83 2126.07L1386.83 2125.89L1438.11 2083.46L1438.19 2083.46C1446.49 2076.59 1454.8 2069.72 1463.06 2062.88L1463.06 2062.82L1463.63 2062.35L1463.06 2061.88L1463.06 1971.83L1438.53 1951.53L1438.11 1951.53C1417.34 1934.34 1396.52 1917.12 1375.74 1899.93L1366.01 1899.93L1303.64 1899.93L1275.87 1922.9L1275.87 1980.22L1335.5 1980.22C1345.68 1988.65 1355.83 1997.04 1366.01 2005.46L1366.01 2029.55C1346.59 2045.63 1327.2 2061.67 1307.77 2077.74C1186.22 2077.74 1064.64 2077.74 943.09 2077.74L943.09 2005.46L973.599 1980.22L998.51 1980.22L1026.28 1957.25L1026.28 1899.93L970.818 1899.93L970.668 1899.8L933.546 1899.8L846.076 1972.17L846.076 1974.47L846.076 1974.44Z" fill="url(#paint4_linear_269_250)"/>
<path d="M846.074 465.913L846.074 649.474C852.086 649.474 858.098 649.474 864.109 649.474L1348.24 649.474C1361.09 638.842 1373.97 628.18 1386.82 617.549L1386.82 617.362L1438.11 574.93L1438.19 574.93C1446.49 568.06 1454.79 561.19 1463.06 554.351L1463.06 554.289L1463.62 553.823L1463.06 553.357L1463.06 463.301L1438.52 443.002L1438.11 443.002C1417.33 425.812 1396.52 408.591 1375.74 391.4L1366.01 391.4L1026.31 391.4L970.854 391.4L970.704 391.276L933.582 391.276L846.074 463.612L846.074 465.913ZM943.125 496.874L973.634 471.632C1088.01 471.632 1202.34 471.632 1316.71 471.632L1335.54 471.632C1345.72 480.057 1355.86 488.45 1366.05 496.874L1366.05 520.965L1307.81 569.148C1186.26 569.148 1064.67 569.148 943.125 569.148L943.125 496.874Z" fill="url(#paint5_linear_269_250)"/>
<path d="M846 1659.29L846.076 1659.35L846.076 1853.98C971.757 1853.98 1097.48 1853.98 1223.16 1853.98C1296.2 1853.98 1369.24 1853.98 1442.28 1853.98L1463.1 1836.76L1463.1 1790.88L1442.28 1773.66L1368.79 1773.66L1292.52 1773.66C1269.45 1754.57 1246.34 1735.45 1223.27 1716.37C1234.84 1706.79 1246.42 1697.22 1258.03 1687.61C1319.46 1687.61 1380.89 1687.61 1442.28 1687.61L1463.1 1670.39L1463.1 1624.51L1442.28 1607.29L1223.16 1607.29L1223.16 1607.35L1217.75 1607.35C1196.71 1624.76 1175.7 1642.13 1154.66 1659.54C1129.68 1638.87 1104.69 1618.2 1079.7 1597.53L1077.34 1595.57L947.823 1595.57L947.823 1595.5L933.545 1595.5C904.351 1613.94 875.157 1632.34 845.963 1650.78L845.963 1659.23L846 1659.29ZM1151.81 1773.69L943.127 1773.69L943.127 1675.95L1033.68 1675.95L1151.81 1773.69Z" fill="url(#paint6_linear_269_250)"/>
</g>
<g opacity="0.41">
<g opacity="0.18">
<path d="M1.58398 234.462C1.58398 231.322 4.03652 228.817 7.02036 228.817C10.0042 228.817 12.4567 231.364 12.4567 234.462C12.4567 237.561 10.0042 240.107 7.02036 240.107C4.03652 240.107 1.58398 237.561 1.58398 234.462Z" fill="white"/>
<path d="M1.58398 187.775C1.58398 184.634 4.03652 182.13 7.02036 182.13C10.0042 182.13 12.4567 184.677 12.4567 187.775C12.4567 190.873 10.0042 193.42 7.02036 193.42C4.03652 193.42 1.58398 190.873 1.58398 187.775Z" fill="white"/>
<path d="M1.58398 141.086C1.58398 137.946 4.03652 135.441 7.02036 135.441C10.0042 135.441 12.4567 137.988 12.4567 141.086C12.4567 144.185 10.0042 146.731 7.02036 146.731C4.03652 146.731 1.58398 144.185 1.58398 141.086Z" fill="white"/>
<path d="M1.58398 94.399C1.58398 91.2582 4.03652 88.7539 7.02036 88.7539C10.0042 88.7539 12.4567 91.3006 12.4567 94.399C12.4567 97.4974 10.0042 100.044 7.02036 100.044C4.03652 100.044 1.58398 97.4974 1.58398 94.399Z" fill="white"/>
<path d="M1.58398 47.7105C1.58398 44.5697 4.03652 42.0654 7.02036 42.0654C10.0042 42.0654 12.4567 44.6121 12.4567 47.7105C12.4567 50.8089 10.0042 53.3553 7.02036 53.3553C4.03652 53.3553 1.58398 50.8089 1.58398 47.7105Z" fill="white"/>
<path d="M46.5469 234.462C46.5469 231.322 48.9994 228.817 51.9833 228.817C54.9671 228.817 57.4196 231.364 57.4196 234.462C57.4196 237.561 54.9671 240.107 51.9833 240.107C48.9994 240.107 46.5469 237.561 46.5469 234.462Z" fill="white"/>
<path d="M46.5469 141.086C46.5469 137.946 48.9994 135.441 51.9833 135.441C54.9671 135.441 57.4196 137.988 57.4196 141.086C57.4196 144.185 54.9671 146.731 51.9833 146.731C48.9994 146.731 46.5469 144.185 46.5469 141.086Z" fill="white"/>
<path d="M46.5469 94.399C46.5469 91.2582 48.9994 88.7539 51.9833 88.7539C54.9671 88.7539 57.4196 91.3006 57.4196 94.399C57.4196 97.4974 54.9671 100.044 51.9833 100.044C48.9994 100.044 46.5469 97.4974 46.5469 94.399Z" fill="white"/>
<path d="M46.5469 47.7105C46.5469 44.5697 48.9994 42.0654 51.9833 42.0654C54.9671 42.0654 57.4196 44.6121 57.4196 47.7105C57.4196 50.8089 54.9671 53.3553 51.9833 53.3553C48.9994 53.3553 46.5469 50.8089 46.5469 47.7105Z" fill="white"/>
<path d="M46.5469 1.02204C46.5469 -2.1188 48.9994 -4.62305 51.9833 -4.62305C54.9671 -4.62305 57.4196 -2.07635 57.4196 1.02204C57.4196 4.12042 54.9671 6.66686 51.9833 6.66686C48.9994 6.66686 46.5469 4.12042 46.5469 1.02204Z" fill="white"/>
<path d="M91.5078 47.7105C91.5078 44.5697 93.9604 42.0654 96.9442 42.0654C99.928 42.0654 102.381 44.6121 102.381 47.7105C102.381 50.8089 99.928 53.3553 96.9442 53.3553C93.9604 53.3553 91.5078 50.8089 91.5078 47.7105Z" fill="white"/>
<path d="M91.5078 1.02204C91.5078 -2.1188 93.9604 -4.62305 96.9442 -4.62305C99.928 -4.62305 102.381 -2.07635 102.381 1.02204C102.381 4.12042 99.928 6.66686 96.9442 6.66686C93.9604 6.66686 91.5078 4.12042 91.5078 1.02204Z" fill="white"/>
<path d="M136.471 47.7105C136.471 44.5697 138.923 42.0654 141.907 42.0654C144.891 42.0654 147.343 44.6121 147.343 47.7105C147.343 50.8089 144.891 53.3553 141.907 53.3553C138.923 53.3553 136.471 50.8089 136.471 47.7105Z" fill="white"/>
<path d="M136.471 1.02204C136.471 -2.1188 138.923 -4.62305 141.907 -4.62305C144.891 -4.62305 147.343 -2.07635 147.343 1.02204C147.343 4.12042 144.891 6.66686 141.907 6.66686C138.923 6.66686 136.471 4.12042 136.471 1.02204Z" fill="white"/>
<path d="M181.432 47.7105C181.432 44.5697 183.884 42.0654 186.868 42.0654C189.852 42.0654 192.304 44.6121 192.304 47.7105C192.304 50.8089 189.852 53.3553 186.868 53.3553C183.884 53.3553 181.432 50.8089 181.432 47.7105Z" fill="white"/>
<path d="M181.432 1.02204C181.432 -2.1188 183.884 -4.62305 186.868 -4.62305C189.852 -4.62305 192.304 -2.07635 192.304 1.02204C192.304 4.12042 189.852 6.66686 186.868 6.66686C183.884 6.66686 181.432 4.12042 181.432 1.02204Z" fill="white"/>
<path d="M226.395 234.462C226.395 231.322 228.847 228.817 231.831 228.817C234.815 228.817 237.267 231.364 237.267 234.462C237.267 237.561 234.815 240.107 231.831 240.107C228.847 240.107 226.395 237.561 226.395 234.462Z" fill="white"/>
<path d="M226.395 187.775C226.395 184.634 228.847 182.13 231.831 182.13C234.815 182.13 237.267 184.677 237.267 187.775C237.267 190.873 234.815 193.42 231.831 193.42C228.847 193.42 226.395 190.873 226.395 187.775Z" fill="white"/>
<path d="M226.395 141.086C226.395 137.946 228.847 135.441 231.831 135.441C234.815 135.441 237.267 137.988 237.267 141.086C237.267 144.185 234.815 146.731 231.831 146.731C228.847 146.731 226.395 144.185 226.395 141.086Z" fill="white"/>
<path d="M226.395 94.399C226.395 91.2582 228.847 88.7539 231.831 88.7539C234.815 88.7539 237.267 91.3006 237.267 94.399C237.267 97.4974 234.815 100.044 231.831 100.044C228.847 100.044 226.395 97.4974 226.395 94.399Z" fill="white"/>
<path d="M226.395 47.7105C226.395 44.5697 228.847 42.0654 231.831 42.0654C234.815 42.0654 237.267 44.6121 237.267 47.7105C237.267 50.8089 234.815 53.3553 231.831 53.3553C228.847 53.3553 226.395 50.8089 226.395 47.7105Z" fill="white"/>
<path d="M226.395 1.02204C226.395 -2.1188 228.847 -4.62305 231.831 -4.62305C234.815 -4.62305 237.267 -2.07635 237.267 1.02204C237.267 4.12042 234.815 6.66686 231.831 6.66686C228.847 6.66686 226.395 4.12042 226.395 1.02204Z" fill="white"/>
<path d="M271.355 234.462C271.355 231.322 273.808 228.817 276.792 228.817C279.776 228.817 282.228 231.364 282.228 234.462C282.228 237.561 279.776 240.107 276.792 240.107C273.808 240.107 271.355 237.561 271.355 234.462Z" fill="white"/>
<path d="M271.355 187.775C271.355 184.634 273.808 182.13 276.792 182.13C279.776 182.13 282.228 184.677 282.228 187.775C282.228 190.873 279.776 193.42 276.792 193.42C273.808 193.42 271.355 190.873 271.355 187.775Z" fill="white"/>
<path d="M271.355 141.086C271.355 137.946 273.808 135.441 276.792 135.441C279.776 135.441 282.228 137.988 282.228 141.086C282.228 144.185 279.776 146.731 276.792 146.731C273.808 146.731 271.355 144.185 271.355 141.086Z" fill="white"/>
<path d="M271.355 94.399C271.355 91.2582 273.808 88.7539 276.792 88.7539C279.776 88.7539 282.228 91.3006 282.228 94.399C282.228 97.4974 279.776 100.044 276.792 100.044C273.808 100.044 271.355 97.4974 271.355 94.399Z" fill="white"/>
<path d="M271.355 47.7105C271.355 44.5697 273.808 42.0654 276.792 42.0654C279.776 42.0654 282.228 44.6121 282.228 47.7105C282.228 50.8089 279.776 53.3553 276.792 53.3553C273.808 53.3553 271.355 50.8089 271.355 47.7105Z" fill="white"/>
<path d="M316.318 234.462C316.318 231.322 318.771 228.817 321.755 228.817C324.739 228.817 327.191 231.364 327.191 234.462C327.191 237.561 324.739 240.107 321.755 240.107C318.771 240.107 316.318 237.561 316.318 234.462Z" fill="white"/>
<path d="M316.318 187.775C316.318 184.634 318.771 182.13 321.755 182.13C324.739 182.13 327.191 184.677 327.191 187.775C327.191 190.873 324.739 193.42 321.755 193.42C318.771 193.42 316.318 190.873 316.318 187.775Z" fill="white"/>
<path d="M316.318 141.086C316.318 137.946 318.771 135.441 321.755 135.441C324.739 135.441 327.191 137.988 327.191 141.086C327.191 144.185 324.739 146.731 321.755 146.731C318.771 146.731 316.318 144.185 316.318 141.086Z" fill="white"/>
<path d="M316.318 94.399C316.318 91.2582 318.771 88.7539 321.755 88.7539C324.739 88.7539 327.191 91.3006 327.191 94.399C327.191 97.4974 324.739 100.044 321.755 100.044C318.771 100.044 316.318 97.4974 316.318 94.399Z" fill="white"/>
<path d="M316.318 47.7105C316.318 44.5697 318.771 42.0654 321.755 42.0654C324.739 42.0654 327.191 44.6121 327.191 47.7105C327.191 50.8089 324.739 53.3553 321.755 53.3553C318.771 53.3553 316.318 50.8089 316.318 47.7105Z" fill="white"/>
<path d="M316.318 1.02204C316.318 -2.1188 318.771 -4.62305 321.755 -4.62305C324.739 -4.62305 327.191 -2.07635 327.191 1.02204C327.191 4.12042 324.739 6.66686 321.755 6.66686C318.771 6.66686 316.318 4.12042 316.318 1.02204Z" fill="white"/>
<path d="M361.279 234.462C361.279 231.322 363.732 228.817 366.716 228.817C369.7 228.817 372.152 231.364 372.152 234.462C372.152 237.561 369.7 240.107 366.716 240.107C363.732 240.107 361.279 237.561 361.279 234.462Z" fill="white"/>
<path d="M361.279 187.775C361.279 184.634 363.732 182.13 366.716 182.13C369.7 182.13 372.152 184.677 372.152 187.775C372.152 190.873 369.7 193.42 366.716 193.42C363.732 193.42 361.279 190.873 361.279 187.775Z" fill="white"/>
<path d="M361.279 141.086C361.279 137.946 363.732 135.441 366.716 135.441C369.7 135.441 372.152 137.988 372.152 141.086C372.152 144.185 369.7 146.731 366.716 146.731C363.732 146.731 361.279 144.185 361.279 141.086Z" fill="white"/>
<path d="M361.279 94.399C361.279 91.2582 363.732 88.7539 366.716 88.7539C369.7 88.7539 372.152 91.3006 372.152 94.399C372.152 97.4974 369.7 100.044 366.716 100.044C363.732 100.044 361.279 97.4974 361.279 94.399Z" fill="white"/>
<path d="M361.279 47.7105C361.279 44.5697 363.732 42.0654 366.716 42.0654C369.7 42.0654 372.152 44.6121 372.152 47.7105C372.152 50.8089 369.7 53.3553 366.716 53.3553C363.732 53.3553 361.279 50.8089 361.279 47.7105Z" fill="white"/>
<path d="M361.279 1.02204C361.279 -2.1188 363.732 -4.62305 366.716 -4.62305C369.7 -4.62305 372.152 -2.07635 372.152 1.02204C372.152 4.12042 369.7 6.66686 366.716 6.66686C363.732 6.66686 361.279 4.12042 361.279 1.02204Z" fill="white"/>
<path d="M406.242 94.399C406.242 91.2582 408.695 88.7539 411.679 88.7539C414.662 88.7539 417.115 91.3006 417.115 94.399C417.115 97.4974 414.662 100.044 411.679 100.044C408.695 100.044 406.242 97.4974 406.242 94.399Z" fill="white"/>
<path d="M406.242 47.7105C406.242 44.5697 408.695 42.0654 411.679 42.0654C414.662 42.0654 417.115 44.6121 417.115 47.7105C417.115 50.8089 414.662 53.3553 411.679 53.3553C408.695 53.3553 406.242 50.8089 406.242 47.7105Z" fill="white"/>
<path d="M406.242 1.02204C406.242 -2.1188 408.695 -4.62305 411.679 -4.62305C414.662 -4.62305 417.115 -2.07635 417.115 1.02204C417.115 4.12042 414.662 6.66686 411.679 6.66686C408.695 6.66686 406.242 4.12042 406.242 1.02204Z" fill="white"/>
<path d="M451.203 234.462C451.203 231.322 453.656 228.817 456.64 228.817C459.623 228.817 462.076 231.364 462.076 234.462C462.076 237.561 459.623 240.107 456.64 240.107C453.656 240.107 451.203 237.561 451.203 234.462Z" fill="white"/>
<path d="M451.203 187.775C451.203 184.634 453.656 182.13 456.64 182.13C459.623 182.13 462.076 184.677 462.076 187.775C462.076 190.873 459.623 193.42 456.64 193.42C453.656 193.42 451.203 190.873 451.203 187.775Z" fill="white"/>
<path d="M451.203 141.086C451.203 137.946 453.656 135.441 456.64 135.441C459.623 135.441 462.076 137.988 462.076 141.086C462.076 144.185 459.623 146.731 456.64 146.731C453.656 146.731 451.203 144.185 451.203 141.086Z" fill="white"/>
<path d="M451.203 94.399C451.203 91.2582 453.656 88.7539 456.64 88.7539C459.623 88.7539 462.076 91.3006 462.076 94.399C462.076 97.4974 459.623 100.044 456.64 100.044C453.656 100.044 451.203 97.4974 451.203 94.399Z" fill="white"/>
<path d="M451.203 47.7105C451.203 44.5697 453.656 42.0654 456.64 42.0654C459.623 42.0654 462.076 44.6121 462.076 47.7105C462.076 50.8089 459.623 53.3553 456.64 53.3553C453.656 53.3553 451.203 50.8089 451.203 47.7105Z" fill="white"/>
<path d="M451.203 1.02204C451.203 -2.1188 453.656 -4.62305 456.64 -4.62305C459.623 -4.62305 462.076 -2.07635 462.076 1.02204C462.076 4.12042 459.623 6.66686 456.64 6.66686C453.656 6.66686 451.203 4.12042 451.203 1.02204Z" fill="white"/>
<path d="M496.166 234.462C496.166 231.322 498.619 228.817 501.602 228.817C504.586 228.817 507.039 231.364 507.039 234.462C507.039 237.561 504.586 240.107 501.602 240.107C498.619 240.107 496.166 237.561 496.166 234.462Z" fill="white"/>
<path d="M496.166 187.775C496.166 184.634 498.619 182.13 501.602 182.13C504.586 182.13 507.039 184.677 507.039 187.775C507.039 190.873 504.586 193.42 501.602 193.42C498.619 193.42 496.166 190.873 496.166 187.775Z" fill="white"/>
<path d="M496.166 141.086C496.166 137.946 498.619 135.441 501.602 135.441C504.586 135.441 507.039 137.988 507.039 141.086C507.039 144.185 504.586 146.731 501.602 146.731C498.619 146.731 496.166 144.185 496.166 141.086Z" fill="white"/>
<path d="M496.166 94.399C496.166 91.2582 498.619 88.7539 501.602 88.7539C504.586 88.7539 507.039 91.3006 507.039 94.399C507.039 97.4974 504.586 100.044 501.602 100.044C498.619 100.044 496.166 97.4974 496.166 94.399Z" fill="white"/>
<path d="M496.166 47.7105C496.166 44.5697 498.619 42.0654 501.602 42.0654C504.586 42.0654 507.039 44.6121 507.039 47.7105C507.039 50.8089 504.586 53.3553 501.602 53.3553C498.619 53.3553 496.166 50.8089 496.166 47.7105Z" fill="white"/>
<path d="M496.166 1.02204C496.166 -2.1188 498.619 -4.62305 501.602 -4.62305C504.586 -4.62305 507.039 -2.07635 507.039 1.02204C507.039 4.12042 504.586 6.66686 501.602 6.66686C498.619 6.66686 496.166 4.12042 496.166 1.02204Z" fill="white"/>
<path d="M541.127 234.462C541.127 231.322 543.579 228.817 546.563 228.817C549.547 228.817 552 231.364 552 234.462C552 237.561 549.547 240.107 546.563 240.107C543.579 240.107 541.127 237.561 541.127 234.462Z" fill="white"/>
<path d="M541.127 187.775C541.127 184.634 543.579 182.13 546.563 182.13C549.547 182.13 552 184.677 552 187.775C552 190.873 549.547 193.42 546.563 193.42C543.579 193.42 541.127 190.873 541.127 187.775Z" fill="white"/>
<path d="M541.127 141.086C541.127 137.946 543.579 135.441 546.563 135.441C549.547 135.441 552 137.988 552 141.086C552 144.185 549.547 146.731 546.563 146.731C543.579 146.731 541.127 144.185 541.127 141.086Z" fill="white"/>
<path d="M541.127 1.02204C541.127 -2.1188 543.579 -4.62305 546.563 -4.62305C549.547 -4.62305 552 -2.07635 552 1.02204C552 4.12042 549.547 6.66686 546.563 6.66686C543.579 6.66686 541.127 4.12042 541.127 1.02204Z" fill="white"/>
</g>
<g opacity="0.18">
<path d="M0.984375 47.775C0.984375 44.6341 3.43856 42.1299 6.4247 42.1299C9.41085 42.1299 11.8653 44.6766 11.8653 47.775C11.8653 50.8734 9.41085 53.4198 6.4247 53.4198C3.43856 53.4198 0.984375 50.8734 0.984375 47.775Z" fill="white"/>
<path d="M0.984375 1.08649C0.984375 -2.05434 3.43856 -4.55859 6.4247 -4.55859C9.41085 -4.55859 11.8653 -2.0119 11.8653 1.08649C11.8653 4.18488 9.41085 6.73131 6.4247 6.73131C3.43856 6.73131 0.984375 4.18488 0.984375 1.08649Z" fill="white"/>
<path d="M271.004 94.4625C271.004 91.3216 273.458 88.8174 276.444 88.8174C279.431 88.8174 281.885 91.3641 281.885 94.4625C281.885 97.5609 279.431 100.107 276.444 100.107C273.458 100.107 271.004 97.5609 271.004 94.4625Z" fill="white"/>
<path d="M271.004 47.775C271.004 44.6341 273.458 42.1299 276.444 42.1299C279.431 42.1299 281.885 44.6766 281.885 47.775C281.885 50.8734 279.431 53.4198 276.444 53.4198C273.458 53.4198 271.004 50.8734 271.004 47.775Z" fill="white"/>
<path d="M271.004 1.08649C271.004 -2.05434 273.458 -4.55859 276.444 -4.55859C279.431 -4.55859 281.885 -2.0119 281.885 1.08649C281.885 4.18488 279.431 6.73131 276.444 6.73131C273.458 6.73131 271.004 4.18488 271.004 1.08649Z" fill="white"/>
<path d="M316.002 94.4625C316.002 91.3216 318.456 88.8174 321.443 88.8174C324.429 88.8174 326.883 91.3641 326.883 94.4625C326.883 97.5609 324.429 100.107 321.443 100.107C318.456 100.107 316.002 97.5609 316.002 94.4625Z" fill="white"/>
<path d="M316.002 47.775C316.002 44.6341 318.456 42.1299 321.443 42.1299C324.429 42.1299 326.883 44.6766 326.883 47.775C326.883 50.8734 324.429 53.4198 321.443 53.4198C318.456 53.4198 316.002 50.8734 316.002 47.775Z" fill="white"/>
<path d="M316.002 1.08649C316.002 -2.05434 318.456 -4.55859 321.443 -4.55859C324.429 -4.55859 326.883 -2.0119 326.883 1.08649C326.883 4.18488 324.429 6.73131 321.443 6.73131C318.456 6.73131 316.002 4.18488 316.002 1.08649Z" fill="white"/>
<path d="M360.998 94.4625C360.998 91.3216 363.452 88.8174 366.439 88.8174C369.425 88.8174 371.879 91.3641 371.879 94.4625C371.879 97.5609 369.425 100.107 366.439 100.107C363.452 100.107 360.998 97.5609 360.998 94.4625Z" fill="white"/>
<path d="M360.998 1.08649C360.998 -2.05434 363.452 -4.55859 366.439 -4.55859C369.425 -4.55859 371.879 -2.0119 371.879 1.08649C371.879 4.18488 369.425 6.73131 366.439 6.73131C363.452 6.73131 360.998 4.18488 360.998 1.08649Z" fill="white"/>
<path d="M540.984 94.4625C540.984 91.3216 543.439 88.8174 546.425 88.8174C549.411 88.8174 551.866 91.3641 551.866 94.4625C551.866 97.5609 549.411 100.107 546.425 100.107C543.439 100.107 540.984 97.5609 540.984 94.4625Z" fill="white"/>
<path d="M540.984 47.775C540.984 44.6341 543.439 42.1299 546.425 42.1299C549.411 42.1299 551.866 44.6766 551.866 47.775C551.866 50.8734 549.411 53.4198 546.425 53.4198C543.439 53.4198 540.984 50.8734 540.984 47.775Z" fill="white"/>
<path d="M540.984 1.08649C540.984 -2.05434 543.439 -4.55859 546.425 -4.55859C549.411 -4.55859 551.866 -2.0119 551.866 1.08649C551.866 4.18488 549.411 6.73131 546.425 6.73131C543.439 6.73131 540.984 4.18488 540.984 1.08649Z" fill="white"/>
<path d="M585.98 94.4625C585.98 91.3216 588.435 88.8174 591.421 88.8174C594.407 88.8174 596.862 91.3641 596.862 94.4625C596.862 97.5609 594.407 100.107 591.421 100.107C588.435 100.107 585.98 97.5609 585.98 94.4625Z" fill="white"/>
<path d="M585.98 47.775C585.98 44.6341 588.435 42.1299 591.421 42.1299C594.407 42.1299 596.862 44.6766 596.862 47.775C596.862 50.8734 594.407 53.4198 591.421 53.4198C588.435 53.4198 585.98 50.8734 585.98 47.775Z" fill="white"/>
<path d="M585.98 1.08649C585.98 -2.05434 588.435 -4.55859 591.421 -4.55859C594.407 -4.55859 596.862 -2.0119 596.862 1.08649C596.862 4.18488 594.407 6.73131 591.421 6.73131C588.435 6.73131 585.98 4.18488 585.98 1.08649Z" fill="white"/>
<path d="M630.979 94.4625C630.979 91.3216 633.433 88.8174 636.419 88.8174C639.405 88.8174 641.86 91.3641 641.86 94.4625C641.86 97.5609 639.405 100.107 636.419 100.107C633.433 100.107 630.979 97.5609 630.979 94.4625Z" fill="white"/>
<path d="M630.979 47.775C630.979 44.6341 633.433 42.1299 636.419 42.1299C639.405 42.1299 641.86 44.6766 641.86 47.775C641.86 50.8734 639.405 53.4198 636.419 53.4198C633.433 53.4198 630.979 50.8734 630.979 47.775Z" fill="white"/>
<path d="M630.979 1.08649C630.979 -2.05434 633.433 -4.55859 636.419 -4.55859C639.405 -4.55859 641.86 -2.0119 641.86 1.08649C641.86 4.18488 639.405 6.73131 636.419 6.73131C633.433 6.73131 630.979 4.18488 630.979 1.08649Z" fill="white"/>
<path d="M675.975 94.4625C675.975 91.3216 678.429 88.8174 681.415 88.8174C684.401 88.8174 686.856 91.3641 686.856 94.4625C686.856 97.5609 684.401 100.107 681.415 100.107C678.429 100.107 675.975 97.5609 675.975 94.4625Z" fill="white"/>
<path d="M675.975 47.775C675.975 44.6341 678.429 42.1299 681.415 42.1299C684.401 42.1299 686.856 44.6766 686.856 47.775C686.856 50.8734 684.401 53.4198 681.415 53.4198C678.429 53.4198 675.975 50.8734 675.975 47.775Z" fill="white"/>
<path d="M675.975 1.08649C675.975 -2.05434 678.429 -4.55859 681.415 -4.55859C684.401 -4.55859 686.856 -2.0119 686.856 1.08649C686.856 4.18488 684.401 6.73131 681.415 6.73131C678.429 6.73131 675.975 4.18488 675.975 1.08649Z" fill="white"/>
<path d="M765.969 94.4625C765.969 91.3216 768.423 88.8174 771.409 88.8174C774.395 88.8174 776.85 91.3641 776.85 94.4625C776.85 97.5609 774.395 100.107 771.409 100.107C768.423 100.107 765.969 97.5609 765.969 94.4625Z" fill="white"/>
<path d="M765.969 47.775C765.969 44.6341 768.423 42.1299 771.409 42.1299C774.395 42.1299 776.85 44.6766 776.85 47.775C776.85 50.8734 774.395 53.4198 771.409 53.4198C768.423 53.4198 765.969 50.8734 765.969 47.775Z" fill="white"/>
<path d="M765.969 1.08649C765.969 -2.05434 768.423 -4.55859 771.409 -4.55859C774.395 -4.55859 776.85 -2.0119 776.85 1.08649C776.85 4.18488 774.395 6.73131 771.409 6.73131C768.423 6.73131 765.969 4.18488 765.969 1.08649Z" fill="white"/>
<path d="M810.965 94.4625C810.965 91.3216 813.419 88.8174 816.405 88.8174C819.392 88.8174 821.846 91.3641 821.846 94.4625C821.846 97.5609 819.392 100.107 816.405 100.107C813.419 100.107 810.965 97.5609 810.965 94.4625Z" fill="white"/>
<path d="M810.965 47.775C810.965 44.6341 813.419 42.1299 816.405 42.1299C819.392 42.1299 821.846 44.6766 821.846 47.775C821.846 50.8734 819.392 53.4198 816.405 53.4198C813.419 53.4198 810.965 50.8734 810.965 47.775Z" fill="white"/>
<path d="M810.965 1.08649C810.965 -2.05434 813.419 -4.55859 816.405 -4.55859C819.392 -4.55859 821.846 -2.0119 821.846 1.08649C821.846 4.18488 819.392 6.73131 816.405 6.73131C813.419 6.73131 810.965 4.18488 810.965 1.08649Z" fill="white"/>
<path d="M855.961 94.4625C855.961 91.3216 858.415 88.8174 861.402 88.8174C864.388 88.8174 866.842 91.3641 866.842 94.4625C866.842 97.5609 864.388 100.107 861.402 100.107C858.415 100.107 855.961 97.5609 855.961 94.4625Z" fill="white"/>
<path d="M855.961 47.775C855.961 44.6341 858.415 42.1299 861.402 42.1299C864.388 42.1299 866.842 44.6766 866.842 47.775C866.842 50.8734 864.388 53.4198 861.402 53.4198C858.415 53.4198 855.961 50.8734 855.961 47.775Z" fill="white"/>
<path d="M855.961 1.08649C855.961 -2.05434 858.415 -4.55859 861.402 -4.55859C864.388 -4.55859 866.842 -2.0119 866.842 1.08649C866.842 4.18488 864.388 6.73131 861.402 6.73131C858.415 6.73131 855.961 4.18488 855.961 1.08649Z" fill="white"/>
</g>
</g>
<path opacity="0.6" d="M3092 165C3031.2 77.8 2997.33 -46 2988 -97L4043 -160L4087 730C4013 759.333 3794.8 793.6 3730 764C3649 727 3565 619 3558 477C3551 335 3379 336 3342 329C3305 322 3168 274 3092 165Z" fill="url(#paint7_angular_269_250)"/>
<path opacity="0.6" d="M-594.324 939.231C-417.886 799.612 -432.814 797.264 -438.695 483.789C-444.575 170.315 337.162 195.65 333.832 591.512C330.502 987.374 155.162 1053.49 355.31 1293.03C488.138 1452 258.536 1642.06 59.9691 1756.64C-40.6711 1814.71 -84.6913 1812.47 -141.97 1802.86C-199.249 1793.25 -320.512 1685.09 -338.131 1638.82C-365.509 1566.93 -296.382 1401.71 -450.154 1366.09C-535.256 1346.38 -636.465 1313.87 -666.363 1217.95C-720.486 1044.31 -594.324 939.231 -594.324 939.231Z" fill="url(#paint8_radial_269_250)"/>
<defs>
<linearGradient id="paint0_linear_269_250" x1="846.074" y1="1435.27" x2="1463.1" y2="1435.27" gradientUnits="userSpaceOnUse">
<stop stop-color="#5A049B" stop-opacity="0.44"/>
<stop offset="1" stop-color="#3A0150" stop-opacity="0.26"/>
</linearGradient>
<linearGradient id="paint1_linear_269_250" x1="846.074" y1="821.518" x2="1463.1" y2="821.518" gradientUnits="userSpaceOnUse">
<stop stop-color="#5A049B" stop-opacity="0.44"/>
<stop offset="1" stop-color="#3A0150" stop-opacity="0.26"/>
</linearGradient>
<linearGradient id="paint2_linear_269_250" x1="845.963" y1="1139.71" x2="1464" y2="1139.71" gradientUnits="userSpaceOnUse">
<stop stop-color="#5A049B" stop-opacity="0.44"/>
<stop offset="1" stop-color="#3A0150" stop-opacity="0.26"/>
</linearGradient>
<linearGradient id="paint3_linear_269_250" x1="846.074" y1="124.561" x2="1463.1" y2="124.561" gradientUnits="userSpaceOnUse">
<stop stop-color="#5A049B" stop-opacity="0.44"/>
<stop offset="1" stop-color="#3A0150" stop-opacity="0.26"/>
</linearGradient>
<linearGradient id="paint4_linear_269_250" x1="846.076" y1="2028.9" x2="1463.63" y2="2028.9" gradientUnits="userSpaceOnUse">
<stop stop-color="#5A049B" stop-opacity="0.44"/>
<stop offset="1" stop-color="#3A0150" stop-opacity="0.26"/>
</linearGradient>
<linearGradient id="paint5_linear_269_250" x1="846.074" y1="520.375" x2="1463.62" y2="520.375" gradientUnits="userSpaceOnUse">
<stop stop-color="#5A049B" stop-opacity="0.44"/>
<stop offset="1" stop-color="#3A0150" stop-opacity="0.26"/>
</linearGradient>
<linearGradient id="paint6_linear_269_250" x1="845.963" y1="1724.74" x2="1463.1" y2="1724.74" gradientUnits="userSpaceOnUse">
<stop stop-color="#5A049B" stop-opacity="0.44"/>
<stop offset="1" stop-color="#3A0150" stop-opacity="0.26"/>
</linearGradient>
<radialGradient id="paint7_angular_269_250" cx="0" cy="0" r="1" gradientUnits="userSpaceOnUse" gradientTransform="translate(3009 -128) rotate(36.0475) scale(1463.15 896.799)">
<stop offset="0.0354355" stop-color="#2A0D63"/>
<stop offset="0.12635" stop-color="#6E047A"/>
<stop offset="0.624147" stop-color="#41E1F9"/>
</radialGradient>
<radialGradient id="paint8_radial_269_250" cx="0" cy="0" r="1" gradientUnits="userSpaceOnUse" gradientTransform="translate(-94.851 1024.7) rotate(92.4917) scale(908.622 618.254)">
<stop offset="0.213542" stop-color="#3368A3"/>
<stop offset="0.78125" stop-color="#2B0D63"/>
<stop offset="0.885417" stop-color="#6E047A" stop-opacity="0.8"/>
</radialGradient>
<clipPath id="clip0_269_250">
<rect width="4032" height="618" fill="white" transform="translate(846 2158) rotate(-90)"/>
</clipPath>
</defs>
</svg>
